<svg id="wave" style="transform:rotate(0deg); transition: 0.3s" viewBox="0 0 3440 490" version="1.1"
    xmlns="http://www.w3.org/2000/svg">
    <defs>
        <linearGradient id="sw-gradient-0" x1="0" x2="0" y1="1" y2="0">
            <stop stop-color="rgba(25, 96, 114, 1)" offset="0%"></stop>
            <stop stop-color="rgba(132, 204, 184, 1)" offset="100%"></stop>
        </linearGradient>
    </defs>
    <path style="transform:translate(0, 0px); opacity:1" fill="url(#sw-gradient-0)" d="M0,49L21.8,81.7C43.6,114,87,180,131,196C174.5,212,218,180,262,155.2C305.5,131,349,114,393,147C436.4,180,480,261,524,302.2C567.3,343,611,343,655,359.3C698.2,376,742,408,785,416.5C829.1,425,873,408,916,400.2C960,392,1004,392,1047,392C1090.9,392,1135,392,1178,351.2C1221.8,310,1265,229,1309,163.3C1352.7,98,1396,49,1440,32.7C1483.6,16,1527,33,1571,81.7C1614.5,131,1658,212,1702,269.5C1745.5,327,1789,359,1833,351.2C1876.4,343,1920,294,1964,285.8C2007.3,278,2051,310,2095,294C2138.2,278,2182,212,2225,155.2C2269.1,98,2313,49,2356,40.8C2400,33,2444,65,2487,89.8C2530.9,114,2575,131,2618,171.5C2661.8,212,2705,278,2749,285.8C2792.7,294,2836,245,2880,196C2923.6,147,2967,98,3011,114.3C3054.5,131,3098,212,3120,253.2L3141.8,294L3141.8,490L3120,490C3098.2,490,3055,490,3011,490C2967.3,490,2924,490,2880,490C2836.4,490,2793,490,2749,490C2705.5,490,2662,490,2618,490C2574.5,490,2531,490,2487,490C2443.6,490,2400,490,2356,490C2312.7,490,2269,490,2225,490C2181.8,490,2138,490,2095,490C2050.9,490,2007,490,1964,490C1920,490,1876,490,1833,490C1789.1,490,1745,490,1702,490C1658.2,490,1615,490,1571,490C1527.3,490,1484,490,1440,490C1396.4,490,1353,490,1309,490C1265.5,490,1222,490,1178,490C1134.5,490,1091,490,1047,490C1003.6,490,960,490,916,490C872.7,490,829,490,785,490C741.8,490,698,490,655,490C610.9,490,567,490,524,490C480,490,436,490,393,490C349.1,490,305,490,262,490C218.2,490,175,490,131,490C87.3,490,44,490,22,490L0,490Z"></path>
</svg>