<svg xmlns="http://www.w3.org/2000/svg" version="1.1"
    xmlns:xlink="http://www.w3.org/1999/xlink"
    xmlns:svgjs="http://svgjs.dev/svgjs" width="1920" height="1080" preserveAspectRatio="none" viewBox="0 0 1920 1080">
    <g mask="url(&quot;#SvgjsMask2872&quot;)" fill="none">
        <rect width="1920" height="1080" x="0" y="0" fill="rgba(255, 255, 255, 1)"></rect>
        <g mask="url(&quot;#SvgjsMask2874&quot;)">
            <path d="M1942.5 573.5L1905.5 573.5" stroke="url(&quot;#SvgjsLinearGradient2873&quot;)" stroke-width="6.17"></path>
            <path d="M1896.25 573.5 a9.25 9.25 0 1 0 18.5 0 a9.25 9.25 0 1 0 -18.5 0z" fill="url(&quot;#SvgjsLinearGradient2873&quot;)"></path>
            <path d="M1831.5 499.5L1794.5 536.5L1757.5 536.5L1720.5 536.5L1683.5 536.5M1905.5 499.5L1868.5 536.5M1942.5 499.5L1905.5 499.5L1868.5 499.5L1831.5 499.5L1794.5 499.5" stroke="url(&quot;#SvgjsLinearGradient2873&quot;)" stroke-width="6.17"></path>
            <path d="M1785.25 499.5 a9.25 9.25 0 1 0 18.5 0 a9.25 9.25 0 1 0 -18.5 0zM1674.25 536.5 a9.25 9.25 0 1 0 18.5 0 a9.25 9.25 0 1 0 -18.5 0zM1859.25 536.5 a9.25 9.25 0 1 0 18.5 0 a9.25 9.25 0 1 0 -18.5 0z" fill="url(&quot;#SvgjsLinearGradient2873&quot;)"></path>
            <path d="M1757.5 610.5L1720.5 573.5L1683.5 573.5L1646.5 573.5M1794.5 610.5L1757.5 573.5M1868.5 610.5L1831.5 573.5M1942.5 610.5L1905.5 610.5L1868.5 610.5L1831.5 610.5L1794.5 610.5L1757.5 610.5L1720.5 610.5" stroke="url(&quot;#SvgjsLinearGradient2873&quot;)" stroke-width="6.17"></path>
            <path d="M1711.25 610.5 a9.25 9.25 0 1 0 18.5 0 a9.25 9.25 0 1 0 -18.5 0zM1637.25 573.5 a9.25 9.25 0 1 0 18.5 0 a9.25 9.25 0 1 0 -18.5 0zM1748.25 573.5 a9.25 9.25 0 1 0 18.5 0 a9.25 9.25 0 1 0 -18.5 0zM1822.25 573.5 a9.25 9.25 0 1 0 18.5 0 a9.25 9.25 0 1 0 -18.5 0z" fill="url(&quot;#SvgjsLinearGradient2873&quot;)"></path>
            <path d="M1794.5 462.5L1757.5 425.5L1720.5 425.5M1572.5 425.5L1535.5 462.5L1498.5 462.5L1461.5 462.5L1424.5 499.5M1239.5 425.5L1202.5 462.5L1165.5 462.5L1128.5 462.5M1720.5 462.5L1683.5 462.5L1646.5 462.5L1609.5 462.5L1572.5 462.5M1202.5 425.5L1165.5 388.5L1128.5 388.5L1091.5 388.5L1054.5 351.5M1535.5 425.5L1498.5 388.5L1461.5 388.5M1942.5 462.5L1905.5 462.5L1868.5 462.5L1831.5 462.5L1794.5 462.5L1757.5 462.5L1720.5 462.5L1683.5 425.5L1646.5 425.5L1609.5 425.5L1572.5 425.5L1535.5 425.5L1498.5 425.5L1461.5 425.5L1424.5 425.5L1387.5 425.5L1350.5 425.5L1313.5 425.5L1276.5 425.5L1239.5 425.5L1202.5 425.5L1165.5 425.5L1128.5 425.5L1091.5 425.5" stroke="url(&quot;#SvgjsLinearGradient2873&quot;)" stroke-width="6.17"></path>
            <path d="M1082.25 425.5 a9.25 9.25 0 1 0 18.5 0 a9.25 9.25 0 1 0 -18.5 0zM1711.25 425.5 a9.25 9.25 0 1 0 18.5 0 a9.25 9.25 0 1 0 -18.5 0zM1415.25 499.5 a9.25 9.25 0 1 0 18.5 0 a9.25 9.25 0 1 0 -18.5 0zM1119.25 462.5 a9.25 9.25 0 1 0 18.5 0 a9.25 9.25 0 1 0 -18.5 0zM1563.25 462.5 a9.25 9.25 0 1 0 18.5 0 a9.25 9.25 0 1 0 -18.5 0zM1045.25 351.5 a9.25 9.25 0 1 0 18.5 0 a9.25 9.25 0 1 0 -18.5 0zM1452.25 388.5 a9.25 9.25 0 1 0 18.5 0 a9.25 9.25 0 1 0 -18.5 0z" fill="url(&quot;#SvgjsLinearGradient2873&quot;)"></path>
            <path d="M1683.5 647.5L1646.5 610.5L1609.5 610.5M1498.5 647.5L1461.5 610.5M1535.5 647.5L1498.5 610.5M1942.5 647.5L1905.5 647.5L1868.5 647.5L1831.5 647.5L1794.5 647.5L1757.5 647.5L1720.5 647.5L1683.5 647.5L1646.5 647.5L1609.5 647.5L1572.5 647.5L1535.5 647.5L1498.5 647.5L1461.5 647.5L1424.5 647.5" stroke="url(&quot;#SvgjsLinearGradient2873&quot;)" stroke-width="6.17"></path>
            <path d="M1415.25 647.5 a9.25 9.25 0 1 0 18.5 0 a9.25 9.25 0 1 0 -18.5 0zM1600.25 610.5 a9.25 9.25 0 1 0 18.5 0 a9.25 9.25 0 1 0 -18.5 0zM1452.25 610.5 a9.25 9.25 0 1 0 18.5 0 a9.25 9.25 0 1 0 -18.5 0zM1489.25 610.5 a9.25 9.25 0 1 0 18.5 0 a9.25 9.25 0 1 0 -18.5 0z" fill="url(&quot;#SvgjsLinearGradient2873&quot;)"></path>
            <path d="M1535.5 351.5L1498.5 314.5L1461.5 314.5M1387.5 351.5L1350.5 388.5L1313.5 388.5L1276.5 388.5L1239.5 388.5M1572.5 388.5L1535.5 388.5M1313.5 351.5L1276.5 314.5L1239.5 314.5M1868.5 388.5L1831.5 425.5L1794.5 425.5M1942.5 425.5L1905.5 388.5L1868.5 388.5L1831.5 388.5L1794.5 388.5L1757.5 388.5L1720.5 388.5L1683.5 388.5L1646.5 388.5L1609.5 388.5L1572.5 388.5L1535.5 351.5L1498.5 351.5L1461.5 351.5L1424.5 351.5L1387.5 351.5L1350.5 351.5L1313.5 351.5L1276.5 351.5L1239.5 351.5L1202.5 351.5L1165.5 351.5" stroke="url(&quot;#SvgjsLinearGradient2873&quot;)" stroke-width="6.17"></path>
            <path d="M1156.25 351.5 a9.25 9.25 0 1 0 18.5 0 a9.25 9.25 0 1 0 -18.5 0zM1452.25 314.5 a9.25 9.25 0 1 0 18.5 0 a9.25 9.25 0 1 0 -18.5 0zM1230.25 388.5 a9.25 9.25 0 1 0 18.5 0 a9.25 9.25 0 1 0 -18.5 0zM1526.25 388.5 a9.25 9.25 0 1 0 18.5 0 a9.25 9.25 0 1 0 -18.5 0zM1230.25 314.5 a9.25 9.25 0 1 0 18.5 0 a9.25 9.25 0 1 0 -18.5 0zM1785.25 425.5 a9.25 9.25 0 1 0 18.5 0 a9.25 9.25 0 1 0 -18.5 0z" fill="url(&quot;#SvgjsLinearGradient2873&quot;)"></path>
            <path d="M1535.5 684.5L1498.5 721.5L1461.5 721.5M1572.5 684.5L1535.5 721.5M1313.5 684.5L1276.5 647.5L1239.5 647.5L1202.5 647.5L1165.5 647.5L1128.5 647.5L1091.5 647.5L1054.5 647.5M1239.5 684.5L1202.5 721.5M1794.5 684.5L1757.5 721.5L1720.5 721.5L1683.5 721.5L1646.5 721.5M1942.5 684.5L1905.5 684.5L1868.5 684.5L1831.5 684.5L1794.5 684.5L1757.5 684.5L1720.5 684.5L1683.5 684.5L1646.5 684.5L1609.5 684.5L1572.5 684.5L1535.5 684.5L1498.5 684.5L1461.5 684.5L1424.5 684.5L1387.5 684.5L1350.5 684.5L1313.5 684.5L1276.5 684.5L1239.5 684.5L1202.5 684.5L1165.5 684.5" stroke="url(&quot;#SvgjsLinearGradient2873&quot;)" stroke-width="6.17"></path>
            <path d="M1156.25 684.5 a9.25 9.25 0 1 0 18.5 0 a9.25 9.25 0 1 0 -18.5 0zM1452.25 721.5 a9.25 9.25 0 1 0 18.5 0 a9.25 9.25 0 1 0 -18.5 0zM1526.25 721.5 a9.25 9.25 0 1 0 18.5 0 a9.25 9.25 0 1 0 -18.5 0zM1045.25 647.5 a9.25 9.25 0 1 0 18.5 0 a9.25 9.25 0 1 0 -18.5 0zM1193.25 721.5 a9.25 9.25 0 1 0 18.5 0 a9.25 9.25 0 1 0 -18.5 0zM1637.25 721.5 a9.25 9.25 0 1 0 18.5 0 a9.25 9.25 0 1 0 -18.5 0z" fill="url(&quot;#SvgjsLinearGradient2873&quot;)"></path>
            <path d="M1942.5 721.5L1905.5 721.5L1868.5 721.5" stroke="url(&quot;#SvgjsLinearGradient2873&quot;)" stroke-width="6.17"></path>
            <path d="M1859.25 721.5 a9.25 9.25 0 1 0 18.5 0 a9.25 9.25 0 1 0 -18.5 0z" fill="url(&quot;#SvgjsLinearGradient2873&quot;)"></path>
            <path d="M1942.5 351.5L1905.5 351.5L1868.5 351.5L1831.5 351.5" stroke="url(&quot;#SvgjsLinearGradient2873&quot;)" stroke-width="6.17"></path>
            <path d="M1822.25 351.5 a9.25 9.25 0 1 0 18.5 0 a9.25 9.25 0 1 0 -18.5 0z" fill="url(&quot;#SvgjsLinearGradient2873&quot;)"></path>
            <path d="M1646.5 758.5L1609.5 795.5L1572.5 795.5M1831.5 758.5L1794.5 721.5M1609.5 758.5L1572.5 721.5M1942.5 758.5L1905.5 758.5L1868.5 758.5L1831.5 758.5L1794.5 758.5L1757.5 758.5L1720.5 758.5L1683.5 758.5L1646.5 758.5L1609.5 758.5L1572.5 758.5L1535.5 758.5L1498.5 758.5" stroke="url(&quot;#SvgjsLinearGradient2873&quot;)" stroke-width="6.17"></path>
            <path d="M1489.25 758.5 a9.25 9.25 0 1 0 18.5 0 a9.25 9.25 0 1 0 -18.5 0zM1563.25 795.5 a9.25 9.25 0 1 0 18.5 0 a9.25 9.25 0 1 0 -18.5 0zM1785.25 721.5 a9.25 9.25 0 1 0 18.5 0 a9.25 9.25 0 1 0 -18.5 0zM1563.25 721.5 a9.25 9.25 0 1 0 18.5 0 a9.25 9.25 0 1 0 -18.5 0z" fill="url(&quot;#SvgjsLinearGradient2873&quot;)"></path>
            <path d="M1831.5 314.5L1794.5 314.5M1757.5 351.5L1720.5 314.5L1683.5 314.5L1646.5 314.5L1609.5 314.5M1942.5 314.5L1905.5 314.5L1868.5 314.5L1831.5 314.5L1794.5 351.5L1757.5 351.5L1720.5 351.5L1683.5 351.5L1646.5 351.5" stroke="url(&quot;#SvgjsLinearGradient2873&quot;)" stroke-width="6.17"></path>
            <path d="M1637.25 351.5 a9.25 9.25 0 1 0 18.5 0 a9.25 9.25 0 1 0 -18.5 0zM1785.25 314.5 a9.25 9.25 0 1 0 18.5 0 a9.25 9.25 0 1 0 -18.5 0zM1600.25 314.5 a9.25 9.25 0 1 0 18.5 0 a9.25 9.25 0 1 0 -18.5 0z" fill="url(&quot;#SvgjsLinearGradient2873&quot;)"></path>
            <path d="M1572.5 832.5L1535.5 832.5L1498.5 832.5L1461.5 832.5L1424.5 832.5M1535.5 869.5L1498.5 906.5L1461.5 906.5L1424.5 906.5M1350.5 906.5L1313.5 943.5L1276.5 943.5L1239.5 943.5M1720.5 795.5L1683.5 832.5M1794.5 795.5L1757.5 832.5L1720.5 832.5L1683.5 869.5M1942.5 795.5L1905.5 795.5L1868.5 795.5L1831.5 795.5L1794.5 795.5L1757.5 795.5L1720.5 795.5L1683.5 795.5L1646.5 832.5L1609.5 832.5L1572.5 832.5L1535.5 869.5L1498.5 869.5L1461.5 869.5L1424.5 869.5L1387.5 906.5L1350.5 906.5L1313.5 906.5L1276.5 906.5L1239.5 906.5L1202.5 906.5" stroke="url(&quot;#SvgjsLinearGradient2873&quot;)" stroke-width="6.17"></path>
            <path d="M1193.25 906.5 a9.25 9.25 0 1 0 18.5 0 a9.25 9.25 0 1 0 -18.5 0zM1415.25 832.5 a9.25 9.25 0 1 0 18.5 0 a9.25 9.25 0 1 0 -18.5 0zM1415.25 906.5 a9.25 9.25 0 1 0 18.5 0 a9.25 9.25 0 1 0 -18.5 0zM1230.25 943.5 a9.25 9.25 0 1 0 18.5 0 a9.25 9.25 0 1 0 -18.5 0zM1674.25 832.5 a9.25 9.25 0 1 0 18.5 0 a9.25 9.25 0 1 0 -18.5 0zM1674.25 869.5 a9.25 9.25 0 1 0 18.5 0 a9.25 9.25 0 1 0 -18.5 0z" fill="url(&quot;#SvgjsLinearGradient2873&quot;)"></path>
            <path d="M1276.5 240.5L1239.5 277.5M1831.5 277.5L1794.5 240.5M1609.5 277.5L1572.5 240.5L1535.5 240.5L1498.5 240.5M1757.5 277.5L1720.5 240.5L1683.5 240.5L1646.5 240.5M1572.5 277.5L1535.5 314.5M1165.5 277.5L1128.5 314.5L1091.5 314.5L1054.5 314.5L1017.5 314.5M1942.5 277.5L1905.5 277.5L1868.5 277.5L1831.5 277.5L1794.5 277.5L1757.5 277.5L1720.5 277.5L1683.5 277.5L1646.5 277.5L1609.5 277.5L1572.5 277.5L1535.5 277.5L1498.5 277.5L1461.5 277.5L1424.5 277.5L1387.5 277.5L1350.5 277.5L1313.5 240.5L1276.5 240.5L1239.5 240.5L1202.5 277.5L1165.5 277.5L1128.5 277.5L1091.5 277.5" stroke="url(&quot;#SvgjsLinearGradient2873&quot;)" stroke-width="6.17"></path>
            <path d="M1082.25 277.5 a9.25 9.25 0 1 0 18.5 0 a9.25 9.25 0 1 0 -18.5 0zM1230.25 277.5 a9.25 9.25 0 1 0 18.5 0 a9.25 9.25 0 1 0 -18.5 0zM1785.25 240.5 a9.25 9.25 0 1 0 18.5 0 a9.25 9.25 0 1 0 -18.5 0zM1489.25 240.5 a9.25 9.25 0 1 0 18.5 0 a9.25 9.25 0 1 0 -18.5 0zM1637.25 240.5 a9.25 9.25 0 1 0 18.5 0 a9.25 9.25 0 1 0 -18.5 0zM1526.25 314.5 a9.25 9.25 0 1 0 18.5 0 a9.25 9.25 0 1 0 -18.5 0zM1008.25 314.5 a9.25 9.25 0 1 0 18.5 0 a9.25 9.25 0 1 0 -18.5 0z" fill="url(&quot;#SvgjsLinearGradient2873&quot;)"></path>
        </g>
    </g>
    <defs>
        <mask id="SvgjsMask2872">
            <rect width="1920" height="1080" fill="#ffffff"></rect>
        </mask>
        <linearGradient x1="921.6" y1="540" x2="1920" y2="540" gradientUnits="userSpaceOnUse" id="SvgjsLinearGradient2873">
            <stop stop-color="rgba(25, 96, 114, 1)" offset="0"></stop>
            <stop stop-color="rgba(132, 204, 184, 1)" offset="0.69"></stop>
        </linearGradient>
        <mask id="SvgjsMask2874">
            <rect width="1920" height="1080" fill="white"></rect>
            <path d="M1900.87 573.5 a4.63 4.63 0 1 0 9.26 0 a4.63 4.63 0 1 0 -9.26 0z" fill="black"></path>
            <path d="M1789.87 499.5 a4.63 4.63 0 1 0 9.26 0 a4.63 4.63 0 1 0 -9.26 0zM1678.87 536.5 a4.63 4.63 0 1 0 9.26 0 a4.63 4.63 0 1 0 -9.26 0zM1863.87 536.5 a4.63 4.63 0 1 0 9.26 0 a4.63 4.63 0 1 0 -9.26 0z" fill="black"></path>
            <path d="M1715.87 610.5 a4.63 4.63 0 1 0 9.26 0 a4.63 4.63 0 1 0 -9.26 0zM1641.87 573.5 a4.63 4.63 0 1 0 9.26 0 a4.63 4.63 0 1 0 -9.26 0zM1752.87 573.5 a4.63 4.63 0 1 0 9.26 0 a4.63 4.63 0 1 0 -9.26 0zM1826.87 573.5 a4.63 4.63 0 1 0 9.26 0 a4.63 4.63 0 1 0 -9.26 0z" fill="black"></path>
            <path d="M1086.87 425.5 a4.63 4.63 0 1 0 9.26 0 a4.63 4.63 0 1 0 -9.26 0zM1715.87 425.5 a4.63 4.63 0 1 0 9.26 0 a4.63 4.63 0 1 0 -9.26 0zM1419.87 499.5 a4.63 4.63 0 1 0 9.26 0 a4.63 4.63 0 1 0 -9.26 0zM1123.87 462.5 a4.63 4.63 0 1 0 9.26 0 a4.63 4.63 0 1 0 -9.26 0zM1567.87 462.5 a4.63 4.63 0 1 0 9.26 0 a4.63 4.63 0 1 0 -9.26 0zM1049.87 351.5 a4.63 4.63 0 1 0 9.26 0 a4.63 4.63 0 1 0 -9.26 0zM1456.87 388.5 a4.63 4.63 0 1 0 9.26 0 a4.63 4.63 0 1 0 -9.26 0z" fill="black"></path>
            <path d="M1419.87 647.5 a4.63 4.63 0 1 0 9.26 0 a4.63 4.63 0 1 0 -9.26 0zM1604.87 610.5 a4.63 4.63 0 1 0 9.26 0 a4.63 4.63 0 1 0 -9.26 0zM1456.87 610.5 a4.63 4.63 0 1 0 9.26 0 a4.63 4.63 0 1 0 -9.26 0zM1493.87 610.5 a4.63 4.63 0 1 0 9.26 0 a4.63 4.63 0 1 0 -9.26 0z" fill="black"></path>
            <path d="M1160.87 351.5 a4.63 4.63 0 1 0 9.26 0 a4.63 4.63 0 1 0 -9.26 0zM1456.87 314.5 a4.63 4.63 0 1 0 9.26 0 a4.63 4.63 0 1 0 -9.26 0zM1234.87 388.5 a4.63 4.63 0 1 0 9.26 0 a4.63 4.63 0 1 0 -9.26 0zM1530.87 388.5 a4.63 4.63 0 1 0 9.26 0 a4.63 4.63 0 1 0 -9.26 0zM1234.87 314.5 a4.63 4.63 0 1 0 9.26 0 a4.63 4.63 0 1 0 -9.26 0zM1789.87 425.5 a4.63 4.63 0 1 0 9.26 0 a4.63 4.63 0 1 0 -9.26 0z" fill="black"></path>
            <path d="M1160.87 684.5 a4.63 4.63 0 1 0 9.26 0 a4.63 4.63 0 1 0 -9.26 0zM1456.87 721.5 a4.63 4.63 0 1 0 9.26 0 a4.63 4.63 0 1 0 -9.26 0zM1530.87 721.5 a4.63 4.63 0 1 0 9.26 0 a4.63 4.63 0 1 0 -9.26 0zM1049.87 647.5 a4.63 4.63 0 1 0 9.26 0 a4.63 4.63 0 1 0 -9.26 0zM1197.87 721.5 a4.63 4.63 0 1 0 9.26 0 a4.63 4.63 0 1 0 -9.26 0zM1641.87 721.5 a4.63 4.63 0 1 0 9.26 0 a4.63 4.63 0 1 0 -9.26 0z" fill="black"></path>
            <path d="M1863.87 721.5 a4.63 4.63 0 1 0 9.26 0 a4.63 4.63 0 1 0 -9.26 0z" fill="black"></path>
            <path d="M1826.87 351.5 a4.63 4.63 0 1 0 9.26 0 a4.63 4.63 0 1 0 -9.26 0z" fill="black"></path>
            <path d="M1493.87 758.5 a4.63 4.63 0 1 0 9.26 0 a4.63 4.63 0 1 0 -9.26 0zM1567.87 795.5 a4.63 4.63 0 1 0 9.26 0 a4.63 4.63 0 1 0 -9.26 0zM1789.87 721.5 a4.63 4.63 0 1 0 9.26 0 a4.63 4.63 0 1 0 -9.26 0zM1567.87 721.5 a4.63 4.63 0 1 0 9.26 0 a4.63 4.63 0 1 0 -9.26 0z" fill="black"></path>
            <path d="M1641.87 351.5 a4.63 4.63 0 1 0 9.26 0 a4.63 4.63 0 1 0 -9.26 0zM1789.87 314.5 a4.63 4.63 0 1 0 9.26 0 a4.63 4.63 0 1 0 -9.26 0zM1604.87 314.5 a4.63 4.63 0 1 0 9.26 0 a4.63 4.63 0 1 0 -9.26 0z" fill="black"></path>
            <path d="M1197.87 906.5 a4.63 4.63 0 1 0 9.26 0 a4.63 4.63 0 1 0 -9.26 0zM1419.87 832.5 a4.63 4.63 0 1 0 9.26 0 a4.63 4.63 0 1 0 -9.26 0zM1419.87 906.5 a4.63 4.63 0 1 0 9.26 0 a4.63 4.63 0 1 0 -9.26 0zM1234.87 943.5 a4.63 4.63 0 1 0 9.26 0 a4.63 4.63 0 1 0 -9.26 0zM1678.87 832.5 a4.63 4.63 0 1 0 9.26 0 a4.63 4.63 0 1 0 -9.26 0zM1678.87 869.5 a4.63 4.63 0 1 0 9.26 0 a4.63 4.63 0 1 0 -9.26 0z" fill="black"></path>
            <path d="M1086.87 277.5 a4.63 4.63 0 1 0 9.26 0 a4.63 4.63 0 1 0 -9.26 0zM1234.87 277.5 a4.63 4.63 0 1 0 9.26 0 a4.63 4.63 0 1 0 -9.26 0zM1789.87 240.5 a4.63 4.63 0 1 0 9.26 0 a4.63 4.63 0 1 0 -9.26 0zM1493.87 240.5 a4.63 4.63 0 1 0 9.26 0 a4.63 4.63 0 1 0 -9.26 0zM1641.87 240.5 a4.63 4.63 0 1 0 9.26 0 a4.63 4.63 0 1 0 -9.26 0zM1530.87 314.5 a4.63 4.63 0 1 0 9.26 0 a4.63 4.63 0 1 0 -9.26 0zM1012.87 314.5 a4.63 4.63 0 1 0 9.26 0 a4.63 4.63 0 1 0 -9.26 0z" fill="black"></path>
        </mask>
    </defs>
</svg>