<svg fill="none" height="541" viewBox="0 0 534 541" width="534" xmlns="http://www.w3.org/2000/svg" xmlns:xlink="http://www.w3.org/1999/xlink"><filter id="a" color-interpolation-filters="sRGB" filterUnits="userSpaceOnUse" height="541" width="534" x="0" y="0"><feFlood flood-opacity="0" result="BackgroundImageFix"/><feColorMatrix in="SourceAlpha" result="hardAlpha" type="matrix" values="0 0 0 0 0 0 0 0 0 0 0 0 0 0 0 0 0 0 127 0"/><feOffset dy="4"/><feGaussianBlur stdDeviation="2"/><feColorMatrix type="matrix" values="0 0 0 0 0 0 0 0 0 0 0 0 0 0 0 0 0 0 0.25 0"/><feBlend in2="BackgroundImageFix" mode="normal" result="effect1_dropShadow_43_254"/><feBlend in="SourceGraphic" in2="effect1_dropShadow_43_254" mode="normal" result="shape"/></filter><filter id="b" color-interpolation-filters="sRGB" filterUnits="userSpaceOnUse" height="188" width="57" x="367" y="101"><feFlood flood-opacity="0" result="BackgroundImageFix"/><feColorMatrix in="SourceAlpha" result="hardAlpha" type="matrix" values="0 0 0 0 0 0 0 0 0 0 0 0 0 0 0 0 0 0 127 0"/><feOffset dx="2" dy="4"/><feGaussianBlur stdDeviation="2"/><feComposite in2="hardAlpha" operator="out"/><feColorMatrix type="matrix" values="0 0 0 0 0 0 0 0 0 0 0 0 0 0 0 0 0 0 0.25 0"/><feBlend in2="BackgroundImageFix" mode="normal" result="effect1_dropShadow_43_254"/><feBlend in="SourceGraphic" in2="effect1_dropShadow_43_254" mode="normal" result="shape"/></filter><filter id="c" color-interpolation-filters="sRGB" filterUnits="userSpaceOnUse" height="191" width="87" x="415" y="100"><feFlood flood-opacity="0" result="BackgroundImageFix"/><feColorMatrix in="SourceAlpha" result="hardAlpha" type="matrix" values="0 0 0 0 0 0 0 0 0 0 0 0 0 0 0 0 0 0 127 0"/><feOffset dx="-3" dy="4"/><feGaussianBlur stdDeviation="2"/><feComposite in2="hardAlpha" operator="out"/><feColorMatrix type="matrix" values="0 0 0 0 0 0 0 0 0 0 0 0 0 0 0 0 0 0 0.25 0"/><feBlend in2="BackgroundImageFix" mode="normal" result="effect1_dropShadow_43_254"/><feBlend in="SourceGraphic" in2="effect1_dropShadow_43_254" mode="normal" result="shape"/></filter><filter id="d" color-interpolation-filters="sRGB" filterUnits="userSpaceOnUse" height="110.417" width="191.483" x="64.5329" y="74.446"><feFlood flood-opacity="0" result="BackgroundImageFix"/><feColorMatrix in="SourceAlpha" result="hardAlpha" type="matrix" values="0 0 0 0 0 0 0 0 0 0 0 0 0 0 0 0 0 0 127 0"/><feOffset dx="6" dy="4"/><feGaussianBlur stdDeviation="6.5"/><feComposite in2="hardAlpha" operator="out"/><feColorMatrix type="matrix" values="0 0 0 0 0 0 0 0 0 0 0 0 0 0 0 0 0 0 0.45 0"/><feBlend in2="BackgroundImageFix" mode="normal" result="effect1_dropShadow_43_254"/><feBlend in="SourceGraphic" in2="effect1_dropShadow_43_254" mode="normal" result="shape"/></filter><linearGradient id="e"><stop offset="0" stop-color="#84ccb8"/><stop offset="1" stop-color="#196072"/></linearGradient><linearGradient id="f" gradientUnits="userSpaceOnUse" x1="83.2574" x2="83.2574" xlink:href="#e" y1="137.044" y2="167.862"/><linearGradient id="g" gradientUnits="userSpaceOnUse" x1="118.766" x2="118.766" xlink:href="#e" y1="111.585" y2="167.862"/><linearGradient id="h" gradientUnits="userSpaceOnUse" x1="154.274" x2="154.274" xlink:href="#e" y1="137.044" y2="167.862"/><linearGradient id="i" gradientUnits="userSpaceOnUse" x1="189.783" x2="189.783" xlink:href="#e" y1="101.535" y2="167.863"/><linearGradient id="j" gradientUnits="userSpaceOnUse" x1="225.291" x2="225.291" xlink:href="#e" y1="83.446" y2="167.862"/><clipPath id="k"><path d="m4 0h526v533h-526z"/></clipPath><g clip-path="url(#k)" filter="url(#a)"><path d="m438 91c20.435 0 37-16.7893 37-37.5s-16.565-37.5-37-37.5-37 16.7893-37 37.5 16.565 37.5 37 37.5z" fill="#ffb8b8"/><path d="m437 476.012-17.228 5.988-30.772-65.161 25.429-8.839z" fill="#ffb8b8"/><path d="m408.286 485.483 33.806-11.483 7.23 21.286-55.092 18.712c-.95-2.795-1.339-5.75-1.147-8.696.193-2.946.964-5.825 2.269-8.473s3.119-5.012 5.338-6.959c2.22-1.947 4.8-3.438 7.596-4.387z" fill="#2f2e41"/><path d="m479 509.075-17.966.925-12.034-70.632 26.518-1.368z" fill="#ffb8b8"/><path d="m448.452 508.792 35.658-1.792 1.128 22.452-58.11 2.92c-.148-2.948.286-5.897 1.278-8.678.991-2.78 2.52-5.339 4.5-7.528 1.98-2.19 4.372-3.968 7.04-5.233 2.667-1.265 5.557-1.993 8.506-2.141z" fill="#2f2e41"/><path d="m371.243 295.08c1.642-1.473 2.944-3.29 3.813-5.323.869-2.034 1.285-4.235 1.218-6.448s-.614-4.384-1.604-6.361-2.399-3.711-4.126-5.081l17.456-50.867-26.902 6.925-12.452 47.243c-2.092 3.075-2.991 6.816-2.527 10.514.464 3.699 2.259 7.097 5.045 9.552 2.785 2.454 6.368 3.794 10.069 3.766 3.7-.029 7.262-1.423 10.01-3.92z" fill="#ffb8b8"/><path d="m481.174 501c-.241 0-.481-.013-.72-.038l-25.212-2.646c-1.549-.155-2.997-.834-4.102-1.921-1.104-1.088-1.797-2.52-1.963-4.054l-19.485-172.179-14.099 47.116 26.287 92.597c.267.943.325 1.933.169 2.9s-.521 1.89-1.072 2.703-1.273 1.499-2.117 2.008c-.844.51-1.79.832-2.772.944l-25.557 2.912c-1.627.178-3.265-.227-4.618-1.141s-2.332-2.278-2.759-3.844l-27.925-104.205c-.23-.857-.288-1.75-.169-2.629l12.551-93.523 93.617 7.441 6.769 220.586c.028.905-.128 1.807-.458 2.652-.331.845-.829 1.615-1.465 2.265-.637.651-1.398 1.168-2.24 1.521s-1.746.535-2.66.535z" fill="#2f2e41"/><path d="m448.139 274c-31.136 0-66.387-10.709-68.521-11.367l-.618-.191 35.125-160.442.646.024c13.92.502 51.907.76 52.289.763l.682.004 14.641 141.587 2.617 20.71-.321.231c-8.956 6.446-22.319 8.681-36.54 8.681z" fill="#ccc"/><g filter="url(#b)"><path d="m390.989 281-21.989-8.908 11.208-136.342c.269-3.361 1.286-6.619 2.975-9.532s4.007-5.408 6.782-7.3l11.572-7.919c-.328-1.12-.387-2.302-.172-3.449s.697-2.226 1.407-3.149c.71-.924 1.628-1.664 2.678-2.161 1.05-.498 2.202-.737 3.362-.7l3.314.107c.63-.427 1.373-.652 2.133-.647.76.006 1.5.242 2.124.678s1.102 1.052 1.372 1.766c.269.714.318 1.494.139 2.237l-.728 14.445z" fill="#2f2e41"/></g><path d="m379.793 257-28.793-1.211 9.327-59.93 7.729-56.392c.152-2.025.761-3.989 1.779-5.746 1.019-1.758 2.423-3.262 4.106-4.401s3.602-1.884 5.613-2.178c2.012-.294 4.063-.13 6.003.479 3.02.947 5.61 2.925 7.317 5.588 1.706 2.664 2.42 5.842 2.016 8.978l-7.83 61.1z" fill="#2f2e41"/><g filter="url(#c)"><path d="m426.129 283-.194-.605c-.133-.414-13.001-41.957 8.532-91.531l10.798-54.047 9.227-33.937c.173-.606.484-1.164.909-1.628.424-.464.95-.823 1.537-1.046.689-.2404 1.432-.271 2.138-.088.706.182 1.343.57 1.832 1.114 6.432-1.8999 13.346-1.204 19.277 1.94l12.959 6.87c2.882 1.528 5.178 3.974 6.53 6.956 1.351 2.983 1.681 6.332.938 9.523l-17.712 76.069 8.61 71.052z" fill="#2f2e41"/></g><path d="m444.735 253.911c2.21.24 4.445-.008 6.549-.726 2.104-.719 4.025-1.891 5.627-3.433 1.603-1.543 2.848-3.419 3.649-5.495.801-2.077 1.137-4.305.985-6.526l40.455-30.016-14.141-6.715-43.623 22.507c-3.709.503-7.104 2.351-9.543 5.193-2.439 2.843-3.752 6.483-3.691 10.231.062 3.748 1.493 7.343 4.025 10.104 2.531 2.76 5.985 4.495 9.708 4.876z" fill="#ffb8b8"/><path d="m470.502 241-13.502-25.45 33.301-22.129-16.251-58.852c-.65-2.356-.813-4.823-.478-7.246.336-2.422 1.163-4.749 2.429-6.835 1.266-2.085 2.944-3.885 4.93-5.286s4.237-2.374 6.612-2.858c4.197-.844 8.555-.123 12.264 2.032 3.71 2.154 6.52 5.594 7.907 9.682l21.927 65.076c.452 1.341.478 2.791.073 4.147s-1.22 2.55-2.331 3.415z" fill="#2f2e41"/><path d="m440.885 61.8278c-4.467.5867-7.836-4.0267-9.399-8.2913-1.563-4.2647-2.754-9.2295-6.638-11.5332-5.305-3.1472-12.094.6381-18.162-.4003-6.852-1.1726-11.307-8.5031-11.656-15.5097s2.413-13.7455 5.123-20.20556l.947 8.02836c-.127-2.721.44-5.42932 1.647-7.86581 1.207-2.43648 3.013-4.51965 5.245-6.05029l-1.22 11.7804c.26-1.6253.835-3.18286 1.692-4.58328.857-1.40043 1.98-2.61615 3.304-3.57741s2.823-1.64917 4.411-2.02417c1.588-.37499 3.234-.42971 4.843-.16105l-.192 7.01919c7.914-.94997 15.898-1.90126 23.835-1.17753 7.938.72372 15.931 3.25885 21.947 8.53575 8.999 7.8934 12.286 20.8907 11.183 32.8734-1.104 11.9828-6.004 23.2396-11.111 34.1138-1.285 2.7359-3.062 5.8233-6.042 6.1718-2.677.3131-5.127-1.946-5.959-4.5336-.641-2.655-.617-5.4295.072-8.0723.753-4.039 1.702-8.1673.994-12.2145s-3.592-8.0466-7.634-8.5426c-4.041-.496-8.177 4.1674-6.234 7.779z" fill="#2f2e41"/><path d="m194.01 263.385-6.405-2.697-4.394-32.111h-58.515l-4.763 31.98-5.731 2.865c-.274.137-.494.363-.624.64-.13.278-.162.592-.092.89.071.298.24.564.48.754.241.191.538.294.845.294h78.671c.315 0 .619-.109.862-.308s.41-.476.472-.783c.062-.308.016-.628-.131-.906s-.385-.496-.675-.618z" fill="#e6e6e6"/><path d="m297.996 232.85h-287.4432c-1.50813-.004-2.95333-.605-4.01855-1.673-1.06522-1.067-1.66345-2.514-1.66346-4.022v-40.533h298.80721v40.533c0 1.508-.598 2.955-1.664 4.022-1.065 1.068-2.51 1.669-4.018 1.673z" fill="#ccc"/><path d="m303.978 205.779h-299.3696v-173.4336c.0021-1.8201.7261-3.565 2.01312-4.852 1.28703-1.287 3.03199-2.0109 4.85208-2.0129h285.6394c1.82.002 3.565.7259 4.852 2.0129s2.011 3.0319 2.013 4.852z" fill="#3f3d56"/><path d="m286.098 193.191h-263.6094c-1.4032-.002-2.7484-.56-3.7407-1.552-.9922-.992-1.5503-2.337-1.5519-3.741v-144.5374c.0016-1.4032.5597-2.7484 1.5519-3.7407.9922-.9922 2.3375-1.5504 3.7407-1.552h263.6094c1.403.0016 2.749.5598 3.741 1.552.992.9923 1.55 2.3375 1.552 3.7407v144.5374c-.002 1.404-.56 2.749-1.552 3.741s-2.338 1.55-3.741 1.552z" fill="#fff"/><path d="m261.333 175.232h-214.0793c-.1777 0-.3482-.07-.4738-.196s-.1962-.296-.1962-.474v-102.6082c0-.1776.0706-.348.1962-.4737.1256-.1256.2961-.1962.4738-.1962.1776 0 .348.0706.4737.1962.1256.1257.1962.2961.1962.4737v101.9382h213.4094c.178 0 .348.071.474.196.126.126.196.296.196.474s-.07.348-.196.474-.296.196-.474.196z" fill="#3f3d56"/><g filter="url(#d)"><path d="m92.9931 167.862h-19.4714c-.5272 0-1.0327-.21-1.4056-.583-.3728-.372-.5826-.878-.5832-1.405v-26.842c.0006-.527.2104-1.032.5832-1.405.3729-.373.8784-.583 1.4056-.583h19.4714c.5272 0 1.0327.21 1.4056.583.3728.373.5826.878.5832 1.405v26.842c-.0006.527-.2104 1.033-.5832 1.405-.3729.373-.8784.583-1.4056.583z" fill="url(#f)"/><path d="m128.502 167.862h-19.472c-.527 0-1.033-.21-1.405-.583-.373-.372-.583-.878-.584-1.405v-52.301c.001-.527.211-1.032.584-1.405.372-.373.878-.583 1.405-.583h19.472c.527 0 1.032.21 1.405.583s.583.878.583 1.405v52.301c0 .527-.21 1.033-.583 1.405-.373.373-.878.583-1.405.583z" fill="url(#g)"/><path d="m164.01 167.862h-19.471c-.528 0-1.033-.21-1.406-.583-.373-.372-.583-.878-.583-1.405v-26.842c0-.527.21-1.032.583-1.405s.878-.583 1.406-.583h19.471c.527 0 1.033.21 1.406.583.372.373.582.878.583 1.405v26.842c-.001.527-.211 1.033-.583 1.405-.373.373-.879.583-1.406.583z" fill="url(#h)"/><path d="m199.518 167.862h-19.471c-.515.012-1.014-.182-1.387-.538-.372-.356-.589-.845-.602-1.36v-62.53c.013-.515.23-1.004.602-1.36.373-.356.872-.55 1.387-.539h19.471c.516-.011 1.014.183 1.387.539s.589.845.602 1.36v62.53c-.013.515-.229 1.004-.602 1.36s-.871.55-1.387.538z" fill="url(#i)"/><path d="m235.027 167.862h-19.471c-.528 0-1.033-.21-1.406-.583-.373-.372-.583-.878-.583-1.405v-80.4393c0-.5273.21-1.0327.583-1.4056.373-.3728.878-.5825 1.406-.5831h19.471c.527.0006 1.033.2103 1.406.5831.372.3729.582.8783.583 1.4056v80.4393c-.001.527-.211 1.033-.583 1.405-.373.373-.879.583-1.406.583z" fill="url(#j)"/></g><g fill="#3f3d56"><path d="m83.2574 129.004c2.2201 0 4.0198-1.8 4.0198-4.02s-1.7997-4.02-4.0198-4.02-4.0199 1.8-4.0199 4.02 1.7998 4.02 4.0199 4.02z"/><path d="m118.766 102.875c2.22 0 4.02-1.8 4.02-4.0196 0-2.2201-1.8-4.0198-4.02-4.0198s-4.02 1.7997-4.02 4.0198c0 2.2196 1.8 4.0196 4.02 4.0196z"/><path d="m154.274 129.004c2.22 0 4.02-1.8 4.02-4.02s-1.8-4.02-4.02-4.02-4.019 1.8-4.019 4.02 1.799 4.02 4.019 4.02z"/><path d="m189.783 90.1458c2.22 0 4.02-1.7997 4.02-4.0198s-1.8-4.0199-4.02-4.0199-4.02 1.7998-4.02 4.0199 1.8 4.0198 4.02 4.0198z"/><path d="m225.291 75.4064c2.22 0 4.02-1.7997 4.02-4.0198s-1.8-4.0198-4.02-4.0198-4.02 1.7997-4.02 4.0198 1.8 4.0198 4.02 4.0198z"/><path d="m154.359 125.885-35.593-26.6598-35.1066 26.2948-.804-1.072 35.9106-26.8971 35.424 26.5331 35.201-38.5222.141-.0576 35.509-14.3066.501 1.2428-35.367 14.2496z"/></g></g></svg>