<svg fill="none" height="907" viewBox="0 0 3622 907" width="3622" xmlns="http://www.w3.org/2000/svg"><g fill="#fff"><path d="m355.333 108.8c-10.667 6.8-41.867 21.733-60.533 29.2-37.334 14.667-88.667 30.533-136.534 42l-23.866 5.733.933 3.467c1.733 7.467 2.267 47.067.8 64.267-2.533 28.8-5.733 47.866-14.933 89.866-3.467 15.734-4.934 55.734-2.667 75.334 5.467 46.8 27.867 98.266 60.667 139.333 24 30 63.2 63.6 102.933 88.4 21.733 13.6 74.667 40.267 79.867 40.267 2.933 0 34.8-14.934 53.333-25.067 106.667-57.867 172.4-138.533 188.533-231.6 4.8-27.2 4.267-60.933-1.333-87.333-12.533-59.867-14.933-78-15.067-115.334-.133-15.466.267-31.066.934-34.8l.933-6.8-23.6-5.733c-80.533-19.333-155.6-46.267-195.2-70.133-4.133-2.534-8.133-4.534-8.667-4.534-.666 0-3.6 1.6-6.533 3.467zm67.333 42.933c36.934 14.534 72.8 26 115.867 37.067 12.933 3.333 25.733 6.667 28.667 7.333l5.2 1.467-.934 14.133c-1.866 30.534 3.734 76.134 16.534 134.934 3.733 16.8 4.933 48.533 2.666 67.6-.8 7.866-3.6 22.133-6 31.733-22.666 88.667-91.066 161.733-201.466 214.8l-20.8 10.133-8.267-3.6c-26.533-11.866-62.8-32.133-85.867-48.266-40.933-28.534-76.933-65.6-98.933-101.734-19.333-31.866-31.867-68-36.133-104.666-1.867-15.467-.8-47.467 1.866-61.334 1.067-5.2 4-19.866 6.667-32.666 7.6-36.8 10.667-64.4 10.667-95.067l.133-26.267 4.667-1.2c2.666-.666 15.333-4 28.266-7.333 63.734-16.4 123.6-37.867 160.4-57.2l15.867-8.4 20.133 10.133c11.067 5.6 29.467 13.867 40.8 18.4z"/><path d="m342 143.2c-38.267 19.467-104.4 42.4-165.467 57.333l-14.8 3.6-.133 22.267c-.133 31.6-4.667 67.6-13.6 107.6-4.933 22.267-6.667 36.4-6.667 54 0 54.267 20.267 108.667 58.267 156 32.933 41.2 87.2 81.6 147.333 109.867l15.2 7.066 15.867-7.6c118.4-56.266 189.067-138.666 202.8-236 3.067-21.733 1.867-52.266-2.8-74-10.933-49.866-15.333-83.466-15.333-116.133v-22.933l-16.934-4.134c-61.466-15.333-120.933-35.866-162.8-56.266-11.866-5.734-21.733-10.4-22-10.267-.133.133-8.666 4.4-18.933 9.6zm35.2 1.333c43.467 21.867 94.8 39.6 175.6 60.667l5.467 1.467.8 23.6c1.066 30.666 4.666 58.4 12.933 99.333 7.733 37.867 9.2 56.133 6.8 79.067-6.667 61.333-33.867 114-84.4 162.666-31.467 30.4-75.067 59.6-119.2 80l-13.467 6.267-17.866-8.8c-108.134-52.667-175.067-126.267-194.534-213.867-6.8-30.933-6.666-62 .667-95.6 9.2-42.133 13.733-75.333 14.933-109.066l.8-23.6 5.467-1.467c80.8-21.067 133.6-39.333 174.8-60.267 8.133-4.133 15.067-7.466 15.733-7.466.534-.134 7.467 3.066 15.467 7.066z"/><path d="m348 248.667v10h-72.667-72.666v6.666 6.667h72.666 72.667v138.667 138.666h-22-22v14.667 14.667h58 58v-14.667-14.667h-22-22v-138.666-138.667h73.333 73.334v-6.667-6.666h-73.334-73.333v-10-10h-14-14z"/><path d="m216.933 286.267c-.4.666-9.733 30.666-20.933 66.8-14.933 48.266-20 66.666-19.333 69.333 1.333 5.733 8.533 16 14.666 20.933 7.2 6 20.534 12 31.067 14 24.8 4.934 54.8-5.066 67.467-22.533 9.333-12.933 10.266-7.333-12.8-82.133-20.134-65.2-20.667-66.667-24.134-67.067-2-.267-3.6 0-3.6.667 0 .533 9.067 30.133 20 65.733 11.067 35.6 20 65.333 20 66.267 0 1.333-11.333 1.733-53.333 1.733s-53.067-.4-52.667-1.733c1.867-5.2 40.667-131.6 40.667-132.267 0-1.067-6.4-.8-7.067.267z"/><path d="m467.6 286.267c-.267.666-9.733 30.933-20.933 67.466l-20.4 66.4 2.933 6.134c4.4 9.066 8.8 14.266 16.667 19.733 27.066 18.667 68.4 15.867 90.133-5.867 8.4-8.4 13.467-19.066 11.6-24-.667-1.866-10-32-20.8-66.8-19.333-62.8-19.467-63.333-23.2-63.733-3.333-.4-3.6-.133-2.933 2.667.4 1.733 9.733 31.866 20.666 67.066l19.734 64-52.8.4c-28.934.134-53.067 0-53.334-.4-.4-.4 8.4-30.266 19.467-66.4 11.2-36.133 20.267-66 20.267-66.666 0-1.2-6.4-1.2-7.067 0z"/><path d="m1551.33 255.467c-29.46 4-48 15.2-57.33 34.533-5.33 11.2-6.27 28.533-2 39.733 6.13 16.267 16.27 25.334 48.93 43.734 36.27 20.533 45.34 31.066 44.14 52-1.07 18-10.94 30.133-28.8 35.333-15.2 4.4-37.74.133-52.27-10-6.8-4.667-17.47-16.133-19.07-20.267-.4-1.333-1.06-1.466-2.13-.4-1.07.934-1.47 7.067-1.2 19.334l.4 17.733 6.67 2.533c19.86 7.334 31.33 9.467 52 9.6 17.73 0 21.2-.4 30-3.333 20.4-6.533 38.26-22.667 45.46-40.933 2.54-6.267 3.07-10.267 3.2-21.067 0-11.6-.4-14.267-3.46-20.667-7.34-15.6-22-27.866-53.74-45.066-30.8-16.534-38.4-24.534-39.2-40.934-.4-7.6 0-10.666 2.14-14.8 5.6-10.933 16.66-17.466 32.13-19.066 20.53-2 36.4 2.666 46.67 13.866 3.06 3.334 6.13 6 6.8 6 .8 0 1.33-7.066 1.33-17.866v-17.867l-15.6-.8c-27.47-1.467-40.93-1.867-45.07-1.333z"/><path d="m2062.53 256c-62.13 5.467-103.2 38.667-114 92.133-3.06 15.334-2 46.934 2.14 61.2 5.06 17.734 11.46 28.8 23.33 40.8 8.93 9.067 13.07 12 23.47 17.067 6.93 3.333 17.6 7.333 23.86 8.8 16.27 4.133 43.87 4.933 74 2.133 13.2-1.2 28.4-2.533 33.74-2.933 9.86-.8 9.86-.8 9.06-4.267-4.26-18.666-3.46-82.4 1.2-94.933 4.27-11.867 6.54-10.667-20.53-10.667-13.2 0-24.13.267-24.13.667s.93 2.267 2.13 4.133c3.87 5.734 5.87 17.867 6.67 39.867.8 22.133-.94 46.667-3.47 49.2s-40.27 1.733-51.33-.933c-24.4-6.134-43.2-20.267-53.6-40.267-7.34-14.267-9.74-23.6-10.67-42.8-2.53-51.2 18.53-86.533 58.93-98.667 6-1.866 12.4-2.4 25.34-2.4 12.93 0 19.33.534 25.33 2.4 11.33 3.334 24.27 10.534 31.73 17.467 3.47 3.333 6.94 6 7.6 6 .8 0 1.34-8.133 1.34-20.533v-20.4l-16.27-1.6c-25.2-2.267-41.87-2.667-55.87-1.467z"/><path d="m2265.2 256c-63.07 5.733-97.47 50.8-94.13 123.333 1.2 26 6.26 44.267 16.8 60.934 17.73 28 46.53 40.933 88.13 39.333 26.53-.933 44.27-6.933 63.47-21.467 29.2-21.866 44.93-64.933 40.66-111.066-1.86-19.867-4.4-30.267-10.93-43.867-10-21.067-26.13-35.067-48.53-42.267-14.14-4.533-37.07-6.533-55.47-4.933zm29.73 20c31.47 9.733 49.2 44.533 49.34 96.667 0 44.8-12.8 71.866-39.74 84.266-9.06 4.134-27.46 5.6-39.33 3.2-26.13-5.466-45.47-26-53.2-56.8-5.73-22.666-6-55.066-.67-76 6.94-26.666 24-46 46.14-51.866 10.66-2.934 27.2-2.667 37.46.533z"/><path d="m2872 256c-19.73 3.067-33.6 12.667-40.8 28.533-3.2 6.934-3.47 8.934-2.93 18.667.8 12.933 4.13 21.2 15.33 37.867l7.6 11.333-5.87 4.8c-28.66 23.067-41.33 44-41.33 68 0 23.867 12.8 42 36 51.067 11.47 4.4 32.8 4.933 45.6 1.066 11.73-3.466 21.33-8.8 31.87-17.466 4.26-3.6 8-6.534 8.4-6.534.26 0 4.4 5.067 8.93 11.334l8.4 11.333h22.4c12.27 0 22.4-.533 22.4-1.067 0-.533-2.8-3.733-6.13-6.933-11.47-11.2-34.4-40.267-33.07-42 .67-.8 8.4-12.4 17.07-25.467 8.8-13.066 17.6-26.133 19.73-28.933l4-4.933h-19.6c-19.07 0-19.33 0-18 2.666 3.07 5.734 1.73 19.2-2.93 28.667-3.2 6.667-10.8 18-11.87 18-.8 0-50.53-68.667-50.53-69.733 0-.4 4.4-4 9.86-8 13.07-9.867 23.47-20.667 28.27-29.334 3.2-5.866 3.87-8.4 3.87-16.266 0-6.267-.8-10.934-2.4-14.134-3.07-6.133-10.8-14-16.94-17.2-9.73-4.933-25.2-7.2-37.33-5.333zm14.53 16.667c12.67 6.4 16.8 23.733 9.6 40-2.8 6.4-15.46 20.666-18.26 20.666-2.27 0-13.34-18-17.47-28.266-5.73-14.267-2.67-27.067 7.87-32.134 5.46-2.8 13.33-2.8 18.26-.266zm2.67 129.733 27.07 36.933-5.07 4.4c-9.33 8-18.53 11.6-31.47 12-14.66.667-22.66-1.866-31.46-9.733-9.87-8.933-12.94-16.8-12.94-33.333 0-12.134.4-14.134 4.14-22 4-8.534 18-25.334 21.06-25.2.8 0 13.74 16.666 28.67 36.933z"/><path d="m3196 256c-29.73 2.933-51.2 12.133-69.07 29.6-12.66 12.4-21.6 28.4-27.2 48.4-4 14.533-4.4 53.867-.66 67.333 9.33 34.8 29.73 59.467 59.2 71.734 16.13 6.8 42.26 8.933 60.93 4.933 11.2-2.4 26.13-9.6 34.27-16.667 7.2-6.133 15.06-17.333 18-25.6 2.93-8.533 1.46-9.6-5.07-3.466-8.27 7.6-18.93 13.733-30.4 17.2-12.8 4-33.73 4.266-46 .666-27.47-8.133-46.53-28.266-54.93-58.133-1.87-6.933-2.4-13.467-2.4-32.667.13-22.4.4-24.666 3.73-34.666 7.2-21.467 19.47-36.667 36-44.534 10.67-4.933 20.13-6.933 34.27-6.933 24 0 36 7.6 50.13 31.6.93 1.333 1.87 2.133 2.4 1.733.4-.4 1.2-11.333 1.6-24.266l.93-23.6h-6.53c-3.6 0-14.93-.934-25.2-2-10.27-1.067-19.87-1.867-21.33-1.734-1.47 0-7.2.534-12.67 1.067z"/><path d="m3387.33 256.133c-50.53 4.934-82 34.534-90.8 85.734-2.8 15.6-1.86 54.666 1.47 66.8 7.07 26.266 18.27 43.333 36 55.2 18.67 12.4 36.67 16.8 64.53 15.733 19.47-.667 30.27-2.933 43.6-8.933 37.74-16.934 59.47-52.8 61.47-101.334 2.53-60.666-20.13-98.666-65.6-110-7.73-1.866-32.53-4.8-37.33-4.4-.67 0-6.67.667-13.34 1.2zm38.54 22.934c28.53 14.133 43.86 50.933 41.73 100.933-1.33 31.333-8.93 52.133-24.4 66.533-10.4 9.734-19.6 13.6-34.93 14.534-50.4 2.933-79.74-36.8-77.2-104.4 1.2-30.134 8.4-50.8 23.06-65.467 12.8-12.933 26.8-18 48.14-17.333 12.66.266 14.4.666 23.6 5.2z"/><path d="m889.6 258.267c-15.733.266-28.267.933-28 1.466 7.867 15.067 8.4 21.467 8.267 108.267 0 80-.667 92.8-5.734 102.933l-2.4 5.067h24.534 24.666l-2.266-3.467c-4.4-6.8-6-20.133-6.8-60.4l-.934-39.2 6.667.667c4 .4 8.4 1.867 10.933 3.6 2.267 1.733 18.934 23.733 36.8 48.933 18 25.2 34 46.667 35.734 47.734 4.266 2.666 23.333 3.866 44.663 2.8l18.27-.934-.4-9.6c-.8-14.4 1.2-20.533 22.67-72.533l4-9.6h38.26 38.27l16.53 46 16.67 46h19.73c10.8 0 19.6-.4 19.6-.8s-1.86-3.467-4.13-6.8c-15.2-22-43.2-93.067-68.4-173.733l-11.2-35.334-22.27-.4c-20.93-.266-22.26-.133-21.33 2 2 4.534 2.27 12.667.67 18.8-3.2 11.867-17.74 50.267-28.94 76.934-17.86 42-41.2 87.066-52.13 100.666l-2.4 2.934-10.13-12.4c-10.403-12.8-58.003-78.4-59.07-81.6-.533-1.067 2-2.934 6.267-5.2 28.533-14 44.663-39.067 41.866-65.2-1.733-16.8-10.533-28.667-25.6-34.667-7.066-2.667-10.133-3.067-31.2-3.2-12.8-.133-36.133 0-51.733.267zm56.533 18.666c6.8 3.6 13.067 10.667 15.334 17.334 2.666 7.6 2.266 26.266-.667 35.466-5.467 16.8-20.267 27.067-41.333 28.534-6.134.4-12.667.4-14.667-.134l-3.467-.8v-18.4c.134-24 2.134-62.266 3.334-64.266.8-1.2 5.866-1.467 18.533-1.067 14.533.4 18.4 1.067 22.933 3.333zm188.937 49.067c7.06 19.067 13.33 36.267 14.13 38.267l1.47 3.733h-31.87-31.73l16.66-40c9.74-23.2 17.2-39.333 17.74-38.4.53.933 6.66 17.333 13.6 36.4z"/><path d="m1243.47 264.933c5.06 10.267 5.86 25.067 5.86 106.4 0 94.134-1.33 116.267-8.8 143.067-2 6.8-3.2 12.667-2.8 13.067s4.4-1.2 8.94-3.467c18.4-9.2 27.2-24.533 32.13-55.333.8-5.6 1.87-44.134 2.53-96 1.07-86.4 1.74-99.2 6-107.867 1.07-2.133 1.6-4.267 1.2-4.933-.4-.667-11.33-1.2-24.4-1.2h-23.73z"/><path d="m1325.6 259.6c7.6 14.933 8.4 23.733 8.27 108.4 0 77.6-.8 93.2-5.87 102.8l-2.4 4.8 54.13.933c49.87.8 74.8 0 77.47-2.666 1.2-1.067 6.53-32.934 5.87-34.267-.4-.533-3.2 1.333-6.4 4.267-13.47 12.4-26.4 16-62.14 17.066l-26.13.8-.8-5.866c-.53-3.2-1.33-23.334-1.87-44.667l-.8-38.8 22.54-.8c24.26-.933 30.4-1.867 42.13-6.267 7.47-2.8 19.87-12.266 18.27-14-.54-.4-8.27-.133-17.34.667-9.06.8-27.33 1.333-40.53 1.067l-24-.4.13-30.267c.14-16.533.67-34.133 1.2-38.933l.94-8.8h22.8c32.93 0 46.13 3.333 52.26 13.066 1.47 2.267 3.2 4.134 3.87 4.267 1.07 0 .27-17.467-1.33-28.4l-.8-4.933h-60c-32.94 0-59.74.4-59.47.933z"/><path d="m1654.27 265.067c4.93 10 5.73 23.6 5.73 102.933 0 76.533-.8 92.133-5.33 102.267l-2.54 5.733h24.67 24.53l-2.13-3.333c-4.93-7.6-6-17.467-6.8-61.734l-.8-42.933h49.07 48.93l-.67 42.267c-.8 43.2-1.86 53.733-6.26 61.333l-2.54 4.4h25.47c25.2 0 25.47 0 23.07-2.667-5.87-6.4-6.4-13.6-6.94-95.333-.66-85.067.14-102.133 5.47-113.067l3.07-6.266h-25.2c-13.87 0-25.07.4-24.8.933 7.46 14.533 9.06 26.667 9.06 66.4v27.333h-48.66-48.67v-25.066c0-41.334 1.73-54.4 9.07-68.667.26-.533-10.94-.933-24.8-.933h-25.2z"/><path d="m2409.6 259.6c8 15.6 8.4 20.8 8.4 107.733-.13 80.4-.8 93.467-5.73 103.467l-2.4 4.8 54 .933c51.2.8 74.93 0 77.6-2.8 1.2-1.466 6.4-32.8 5.6-34.133-.4-.533-3.6 1.733-7.2 5.067-12.54 11.733-25.6 15.2-61.34 16.266l-26.13.8-.8-7.2c-.4-4-1.2-24-1.73-44.666l-.94-37.467 21.87-.8c25.47-.8 34.93-2.4 45.87-7.6 7.73-3.733 16.53-11.2 15.06-12.667-.4-.533-8.13-.133-17.2.667-9.06.8-27.33 1.333-40.53 1.067l-24-.4.27-29.334c.13-16.133.66-33.733 1.2-39.066l.8-9.6h22.13c12.27 0 25.87.533 30.13 1.333 10.4 1.733 19.47 6.267 22.8 11.6 1.47 2.4 3.2 4.267 3.87 4.4 1.07 0 0-26.4-1.33-31.067-.67-2.133-4.67-2.266-60.8-2.266-32.94 0-59.74.4-59.47.933z"/><path d="m2574.67 259.6c0 .4.93 1.867 2 3.067 1.2 1.333 3.06 6.666 4.4 12.133 2 8.667 2.26 19.2 2.26 91.2 0 85.333-.66 96.533-5.86 105.467l-2.54 4.266 44.27.934c30.27.666 48.53.533 58-.534 7.73-.8 14.13-1.733 14.4-1.866 1.2-1.334 7.87-34.4 6.93-35.067-.53-.267-3.6 2.133-6.66 5.467-10.8 11.733-26.94 16.666-55.34 16.666-15.46 0-17.73-.266-18.66-2.4-.54-1.2-1.34-37.333-1.6-80.266-.54-85.734.26-102.8 5.6-113.734l3.06-6.266h-25.2c-13.73 0-25.06.4-25.06.933z"/><path d="m62.4 271.6c-6.4 6.667-8.2667 17.467-4.5333 24.4l1.8666 3.2 4-4.267c4.8-5.066 7.0667-13.2 5.6-19.733-1.6-7.067-3.0666-7.733-6.9333-3.6z"/><path d="m656.133 270.4c-3.866 7.2 0 22.533 6.667 26.667 2.267 1.466 2.8 1.2 3.867-1.734 3.2-8.533.933-18.266-5.734-24.4-3.333-3.2-3.333-3.2-4.8-.533z"/><path d="m37.3333 302.267c0 4.666 4.9333 13.333 9.4666 16.666 9.0667 6.8 22.1334 5.467 29.8667-3.066 6.9333-7.734 5.8667-10.134-3.6-8.534-3.6.667-7.3333 2.667-10.9333 6l-5.4667 5.067-2.5333-5.867c-2.4-6-8.1334-11.466-13.7334-13.2-2.6666-.666-3.0666-.4-3.0666 2.934z"/><path d="m680.667 300.8c-6.134 3.2-8.4 5.733-10.8 12l-2.267 5.867-4.667-4.667c-6.533-6.533-18.4-9.467-20-4.933-.8 2.666 9.334 11.866 14.934 13.466 13.733 3.734 28.8-7.066 28.8-20.533 0-3.867-.667-4-6-1.2z"/><path d="m33.3333 336.4c0 6.267 5.2 14.267 11.2 17.467 10.6666 5.466 23.3333 2.4 29.8666-7.2 3.7334-5.6 2.4-7.2-4.9333-6-5.4667.933-16.1333 7.6-16.1333 10 0 3.066-2.4 1.066-3.0667-2.534-1.0667-5.066-8-12.8-12.9333-14.666-3.8667-1.334-4-1.2-4 2.933z"/><path d="m686 333.867c-5.2 2.266-11.2 9.333-12.267 14.266-.4 2.134-.933 3.867-1.066 3.867-.267 0-2.4-2-4.934-4.533-4.8-4.8-14-8.134-18.4-6.8-2.533.8-2.533 1.066-.666 4.8 5.6 10.666 22 14.4 32.4 7.466 5.866-3.866 10-11.2 9.333-16.933-.4-3.733-.533-3.733-4.4-2.133z"/><path d="m28 367.333c0 7.867 7.0667 18 14.6667 20.934 5.0666 1.866 15.2 1.6 19.6-.8 4.1333-2 12.4-10.667 12.4-12.8 0-2.134-5.2-2.8-10.9334-1.334-3.3333.934-7.6 3.6-10.6666 6.667-5.3334 5.333-5.6 5.333-6.9334-.267-1.0666-4.533-6.6666-11.333-11.6-13.733-5.2-2.8-6.5333-2.533-6.5333 1.333z"/><path d="m687.867 367.067c-5.467 3.733-10.534 10.933-10.534 15.066 0 1.734-.266 3.2-.533 3.2s-2.8-2.4-5.733-5.2c-3.067-3.2-7.334-5.866-10.8-6.8-5.734-1.466-10.934-.8-10.934 1.334 0 2.133 8.267 10.8 12.4 12.8 4.134 2.133 13.334 2.8 18.534 1.2 8.4-2.667 15.733-12.267 15.733-20.667 0-4.8-2-5.067-8.133-.933z"/><path d="m25.3333 405.333c0 4.134 4.8 12.667 8.8 15.867 4.9333 3.867 13.2 5.867 20.4 4.8 4.9333-.8 7.3333-2.133 12.4-7.333 4.4-4.267 6.4-7.334 6.4-9.734 0-3.2-.4-3.466-4.2667-2.666-8 1.466-13.3333 4.8-17.0667 10.666-3.6 5.6-3.8666 5.734-4.6666 2.8-2.4-7.733-9.7334-14.133-18.2667-16.266-3.2-.667-3.7333-.4-3.7333 1.866z"/><path d="m691.6 404.533c-6.667 2.4-9.6 5.2-13.067 12.4l-2.933 6-2-4.266c-2.667-5.467-9.6-10.667-16.4-12.134-3.067-.666-5.867-.933-6.267-.666-1.466 1.466 1.467 7.866 5.734 12.666 7.6 8.267 19.6 10.134 30.266 4.667 5.2-2.667 11.734-12.133 11.734-16.8 0-4.267-.134-4.267-7.067-1.867z"/><path d="m70 440.933c-6.9333 1.067-14 7.067-17.4667 14.934l-2.1333 4.533-3.2-5.6c-3.7333-6.133-11.4667-10.8-17.8667-10.8-5.6 0-5.3333 3.867.9334 10.8 6.2666 6.933 10.8 9.2 18.5333 9.2 9.0667 0 17.2-4.267 21.0667-11.067 2.6666-4.666 5.7333-13.466 4.5333-12.8-.2667.134-2.1333.534-4.4.8z"/><path d="m650.667 443.6c0 6.533 7.6 16.133 15.066 18.933 5.867 2.267 15.2 1.734 20.934-1.2 5.466-2.8 12-10.933 12-14.933 0-3.067-6.534-3.2-11.867-.533-4.267 2.266-12.133 10.8-12.133 13.2 0 .933-1.734-1.467-3.867-5.2-4.267-7.334-8.8-11.067-15.733-12.534-4-.933-4.4-.8-4.4 2.267z"/><path d="m77.9999 479.2c-7.8667 3.467-15.3333 13.6-15.3333 20.8 0 1.467-.1334 2.667-.4 2.667-.2667 0-3.2-2.667-6.5334-5.734-6.4-6.266-15.6-9.733-21.7333-8.133-3.8667.933-3.8667.933-1.3334 5.733 4.6667 9.067 15.2 14.267 26.9334 13.067 13.2-1.333 22.9333-10.8 24.1333-23.6.6667-7.2.2667-7.467-5.7333-4.8z"/><path d="m640.267 483.867c1.333 13.6 11.066 22.666 25.6 23.733 6.666.533 9.333.133 13.6-2 5.866-2.933 13.866-11.2 13.866-14.267 0-6.133-16.533-2.666-24.8 5.334-6.133 5.733-7.2 6-7.2 1.6 0-7.067-9.466-17.467-18.533-20.267-3.067-.933-3.2-.8-2.533 5.867z"/><path d="m94.6667 516.533c-6.5333 4.4-12 14.8-12 22.934v6.4l-3.6-3.6c-8-7.6-25.6-11.6-31.4667-7.334-5.7333 4.267 12.2667 17.067 24 17.067 12.1334 0 25.0667-8.533 29.2-19.333 2.133-5.867 2.133-18.134-.133-18.934-.8003-.266-3.467 1.067-6.0003 2.8z"/><path d="m622.267 514.267c-1.734 1.6-.934 13.733 1.2 18.8 2.8 6.933 8 12 15.866 15.733 11.734 5.6 24.134 3.6 33.6-5.6 6.534-6.133 7.067-7.867 2.8-9.067-9.866-2.533-23.066.934-30.933 8.267-2.8 2.667-3.6 2.933-3.067 1.2 2.534-6.8-4.933-22.8-12.8-27.6-4.666-2.933-5.333-3.067-6.666-1.733z"/><path d="m797.067 546.4c-14.534 7.867-26.4 14.533-26.4 14.933s6.533 4.134 14.4 8.267c7.866 4.267 19.866 10.8 26.666 14.4l12.4 6.8-4.8-9.333c-2.533-5.2-4.4-9.467-4-9.467s6 3.467 12.4 7.733c6.4 4.267 12.4 8.267 13.467 8.934 2.133 1.333 1.867.666-5.2-10-2.667-4-5.333-8.134-5.867-9.067-.8-1.2 270.267-1.6 1353.197-1.6h1354.14l-6.94 10.133c-3.73 5.6-6.53 10.267-6.26 10.667.26.267 6.4-3.467 13.46-8.133 7.07-4.8 12.94-8.4 12.94-8s-1.87 4.4-4.14 8.8c-2.26 4.533-3.86 8.266-3.6 8.533.27.267 34.27-18.133 50.94-27.467 2-1.2-1.6-3.6-24-15.866-14.67-8-26.67-14.267-26.94-14-.26.266 1.34 4 3.6 8.533 2.27 4.4 4.14 8.4 4.14 8.8s-6.4-3.6-14.14-8.8c-7.86-5.2-13.73-8.667-13.06-7.733.53 1.066 3.86 6.266 7.46 11.6l6.54 9.6h-1354.27-1354.133l2.266-3.734c1.334-2 4.4-6.533 6.8-10.133 2.534-3.733 4.267-6.933 4-7.2-.4-.267-5.866 3.067-12.4 7.333-6.4 4.4-12.533 8.4-13.466 8.934-.934.533.4-3.2 3.066-8.4 2.534-5.2 4.534-9.467 4.4-9.467-.266 0-12.266 6.533-26.666 14.4z"/><path d="m118 549.6c-8.133 4.533-13.733 13.333-14.933 23.867l-.8 6.666-4.1338-4c-6.8-6.533-19.3334-9.733-28.4-7.333-4.1334 1.067-3.8667 3.067.9333 8.267 13.6 14.933 40.1335 11.466 49.3335-6.4 3.2-6.4 4.267-12.267 3.2-17.867-.933-5.2-1.2-5.467-5.2-3.2z"/><path d="m600.8 552.4c-1.6 8.267 2.4 19.867 8.8 25.867 5.067 4.8 14.533 8.4 22.133 8.4 8.4 0 18.667-4.667 22.8-10.534 3.6-4.933 3.467-6.266-.133-7.333-9.333-2.4-22 1.067-29.333 8.133l-3.734 3.6v-4.8c0-9.6-5.866-20.266-13.866-25.2-5.467-3.333-5.734-3.333-6.667 1.867z"/><path d="m133.6 585.6c-5.6 5.867-8.4 13.333-8.4 21.867v7.066l-5.067-3.2c-8.4-5.6-22.3996-6.666-30.133-2.4-2.4 1.467-2.2666 1.734 2.4 6.134 6.2667 6.133 12.533 8 23.067 7.333 13.733-.8 23.866-9.6 27.2-23.6 1.733-7.2-.134-17.467-3.067-17.467-.933 0-3.6 2-6 4.267z"/><path d="m582.267 583.6c-2.134 7.733-2.134 10.667-.267 17.2 1.067 4 3.867 9.2 6.133 11.733 11.067 12.667 32.267 13.867 44.267 2.534 4.267-4.134 4.4-5.067 1.333-6.4-9.333-3.867-21.733-2.8-29.866 2.666l-4.934 3.2v-6.933c.134-8.4-2.933-16.133-8.533-22-4.8-4.8-7.2-5.333-8.133-2z"/><path d="m158.8 614.267c-5.2 6.266-7.2 13.6-6.533 22.666.4 3.867.4 7.067.133 7.067s-2.667-1.2-5.333-2.667c-7.067-3.733-20.667-3.733-27.067.134l-4.667 2.933 4.667 3.733c18 15.067 46.133 2.8 48.8-21.2.8-6.666-1.733-16.4-4.267-17.2-.933-.266-3.466 1.734-5.733 4.534z"/><path d="m557.067 612.933c-2.667 6.267-2 18.934 1.333 25.467 5.6 10.667 18.133 17.2 30.667 15.867 7.2-.8 17.333-6 18.533-9.734.8-2.533-8.8-5.866-17.333-5.866-6.267 0-9.6.8-13.734 3.2l-5.466 3.066.666-8.8c.667-9.866-1.066-15.466-6.933-22.533-4.533-5.2-5.733-5.333-7.733-.667z"/><path d="m188.133 645.467c-5.333 7.2-7.6 18.133-5.466 26.133.8 3.333 1.2 6.267.933 6.533-.267.267-2.533-.533-5.067-1.733-9.066-4.533-24.266-3.6-32.933 2-2.933 1.867-2.933 2-.667 4.667 4.134 4.533 12.4 7.6 21.467 7.6 10 0 15.467-2 22.933-8.934 7.2-6.4 10.934-14.4 10.934-23.866.133-8-3.467-17.867-6.4-17.867-1.067 0-3.6 2.4-5.734 5.467z"/><path d="m526.267 644.667c-3.067 6.4-2.934 19.733.266 26.666 2.8 6.134 11.734 14.8 18.267 17.467 10.133 4.267 28 1.2 34.267-5.733 2.4-2.667 2.266-2.8-2.667-5.867-4.267-2.667-6.8-3.2-15.733-3.2-7.6 0-12 .667-15.2 2.4-2.534 1.2-4.667 2.133-4.934 1.867-.133-.134.267-3.2 1.067-6.8.933-4.8.933-8.534-.133-13.6-1.734-7.334-8.267-17.867-11.2-17.867-.934 0-2.8 2.133-4 4.667z"/><path d="m1164.93 652.133c-7.46 1.734-14.4 5.734-19.73 11.467-8.27 8.667-9.87 12.933-9.87 26.4 0 10.4.54 12.933 3.74 19.6 6.93 14.133 18.93 20.533 36.13 19.467 22.13-1.467 36.8-16.534 36.93-38.134.14-11.466-1.73-18.4-6.8-25.333-8.53-11.867-24.66-17.2-40.4-13.467zm20.67 9.067c4.53 2.933 7.07 5.867 9.87 11.733 3.33 6.8 3.86 9.2 3.86 19.734 0 20.8-7.06 30-22.93 30-16.27 0-27.2-12.667-28.13-32.667-.67-13.067 1.46-20.133 8.4-26.933 5.46-5.6 5.86-5.734 14.26-5.734 7.2 0 9.6.667 14.67 3.867z"/><path d="m1265.73 652c-11.73 2.4-21.73 9.867-27.46 20.533-2.4 4.534-2.94 7.6-2.94 18.134 0 11.6.4 13.333 4 19.866 7.6 13.734 20.67 19.6 40.94 18.534 14-.8 17.06-2.534 21.73-11.867 5.33-10.4 1.47-12.933-5.33-3.467-5.2 7.067-8.8 8.934-17.74 8.934-12.13 0-21.46-5.6-27.33-16.667-2.4-4.4-2.93-7.6-2.93-18 0-15.067 2.8-21.867 11.6-27.6 4.66-3.067 6.8-3.6 14.93-3.6 12.8 0 18.27 2.933 20 10.933.93 3.867 2 5.6 3.6 5.6 1.73 0 2.4-1.866 3.07-9.466.53-5.2.8-9.734.53-10-1.07-.934-19.07-3.2-25.07-3.067-3.33.133-8.53.667-11.6 1.2z"/><path d="m1466.67 652.267c-1.87.666-16.54 1.066-34.4.8l-30.94-.4-.66 4c-1.74 9.733-1.34 17.2.8 17.733 1.46.267 2.66-1.333 3.86-4.933 2.94-9.2 5.6-10.934 15.07-10.534l8.27.4.4 14.667c.53 16.8-.8 43.467-2.27 45.867-.53.8-3.33 1.866-6.27 2.4-5.2.8-7.6 2.666-6.4 4.666.4.534 9.6 1.067 20.67 1.067 18.53 0 19.87-.133 19.87-2.533 0-1.867-1.34-2.667-5.47-3.2-3.07-.4-6.27-1.334-7.07-2.267-.93-.933-1.46-10.8-1.46-31.067v-29.6l7.73-.4c10.4-.533 13.6 1.6 14.8 9.6.8 4.667 1.6 6.134 3.33 6.134 2 0 2.67-1.867 3.74-11.067.8-6 .93-11.333.53-11.733-.4-.534-2.27-.4-4.13.4z"/><path d="m1584.93 652.533c-12.53 4.667-17.6 16.667-12.13 28.134 2.27 4.933 6.27 8.266 18.8 15.866 14.4 8.667 17.47 16 9.73 23.734-3.73 3.6-4.8 4-10.4 3.466-8.53-.8-13.06-4.133-16.53-11.866-2.13-4.4-3.87-6.534-5.6-6.534-2.13 0-2.4.667-1.6 5.6 2.13 13.734 3.07 15.334 9.33 16.934 10.14 2.533 19.47 1.866 26.94-1.867 8.66-4.4 11.6-8.8 12.26-18 .67-10.533-2-13.867-16.93-22-6.8-3.733-13.6-8.133-14.93-9.867-2.54-3.066-3.34-9.866-1.74-14.133 1.2-2.933 7.6-6 12.8-6 6.14 0 10 3.067 11.87 9.333.93 2.934 2.4 5.334 3.33 5.334 1.87 0 2.67-2.4 3.6-11.6.8-6.4.27-6.667-14.4-7.734-6.4-.533-10.93-.133-14.4 1.2z"/><path d="m1681.33 653.067c-10.4 5.2-13.86 18.4-7.46 28.8l3.2 5.333-5.6 4.267c-7.87 6-10.14 10-10.14 17.466 0 12.134 9.07 20.4 22.4 20.4 8.14 0 14.8-2.666 21.47-8.666l5.07-4.667 9.6 8c5.2 4.4 10 8 10.66 8 .67 0 2.14-2.267 3.2-5.067l2.14-4.933-4.94-4.667c-2.8-2.533-6.93-6.133-9.2-8l-4.26-3.333 5.73-10c4.67-8 6.67-10.267 10.27-11.467 2.53-.8 4.66-2.533 4.93-3.733.4-1.867-1.33-2.133-12.93-2.133-12.54 0-13.47.133-13.47 2.666 0 2 .93 2.667 3.33 2.667 4.54 0 5.47 2.933 2.8 9.733-3.6 9.2-4.13 9.734-7.86 7.734-1.87-.934-7.07-5.2-11.6-9.334l-8.27-7.466 6.67-4.934c8.4-6.133 10.66-11.866 7.73-18.933-3.73-8.933-14.13-12.4-23.47-7.733zm11.6 4.933c6.27 4.4 4.27 16.667-3.33 21.733-3.07 2-3.33 2-5.2-.533-3.73-4.8-5.73-11.2-4.93-14.933 1.86-7.734 7.6-10.4 13.46-6.267zm-3.86 40.533c4.93 4.4 10.66 9.334 12.8 11.067 4.66 4 4 5.733-3.74 9.2-7.06 3.2-11.6 3.2-17.86 0-8.8-4.533-11.07-15.6-4.8-23.733 1.86-2.4 3.6-4.4 4-4.4s4.66 3.6 9.6 7.866z"/><path d="m1811.87 652.533c-13.34 3.6-23.6 12.667-27.6 24.667-2.27 6.4-2 21.2.4 28.267 2.93 8.533 8.93 15.066 17.73 19.466 6.8 3.334 8.93 3.734 21.6 3.734 17.2 0 20.67-1.467 25.73-11.067 5.74-10.667 2-13.6-5.06-3.867-5.2 7.067-8.94 8.934-18 8.934-9.47 0-16.8-3.467-22.8-10.534-5.74-6.533-7.87-13.066-7.87-23.6 0-9.866 2-17.333 6.13-22.933 5.07-6.533 10.4-8.8 21.2-8.8 12.67 0 17.47 2.667 19.6 10.533 1.07 4 2.4 6 3.87 6 1.73 0 2.27-1.866 2.93-9.6.4-5.333.67-9.733.4-10-.8-.8-19.46-3.066-25.46-2.933-3.6 0-9.47.8-12.8 1.733z"/><path d="m1901.2 652.4c-19.2 5.467-29.2 18.533-29.2 38.133 0 11.2 2.8 19.6 8.93 26.667 7.74 9.067 13.6 11.467 28.4 11.467 10.54 0 13.6-.534 18.14-2.934 13.86-7.466 20.53-17.6 21.6-33.066.66-11.334-1.07-18.4-6.8-26.934-7.74-11.466-26.14-17.466-41.07-13.333zm17.07 6.4c8.93 3.333 15.46 13.2 17.6 26.4 2.26 13.867-.94 26.4-8.54 33.467-3.2 2.933-4.66 3.333-14 3.333-9.73 0-10.8-.267-15.6-4.133-16.13-13.2-17.33-46.8-1.86-57.334 5.2-3.6 15.46-4.4 22.4-1.733z"/><path d="m2161.2 652.4c-13.47 3.867-23.6 12.8-27.6 24.8-2.27 6.4-2 21.2.53 28.4 2.54 7.733 9.87 16.267 17.07 20.133 4.53 2.4 7.6 2.934 18.13 2.934 11.6 0 13.34-.4 19.87-4 13.47-7.467 20.13-18.934 20.13-34.8 0-16.667-7.33-29.6-19.86-35.067-8.54-3.6-20.4-4.667-28.27-2.4zm17.87 6.8c10.4 4.4 17.33 17.333 17.46 32.8.14 12.267-2.93 20.933-9.33 26.667-4.13 3.6-5.6 4-12.93 4-10.14 0-17.2-3.6-22.4-11.334-4.94-7.2-6.54-13.2-6.54-24.533 0-18.8 8.14-29.467 22.4-29.467 3.87 0 8.94.8 11.34 1.867z"/><path d="m2458.67 652.267c-2.67.8-17.2 1.066-34.94.8l-30.13-.4-1.33 10c-.67 5.466-.94 10.4-.67 10.933 1.47 2.667 4.27.533 6.4-4.667 3.6-9.066 5.33-10.266 14.93-10.266h8.4v29.333c0 27.6-.13 29.467-2.66 32-1.6 1.6-4.4 2.667-7.34 2.667-3.73 0-4.66.533-4.66 2.666 0 2.534.93 2.667 20 2.667 18.66 0 20-.133 20-2.533 0-1.867-1.34-2.667-5.47-3.2-3.07-.4-6.13-1.467-6.67-2.534-.66-.933-1.2-15.066-1.2-31.466v-29.6h8.14c10.93 0 12.93 1.333 14 9.333.66 5.2 1.46 6.667 3.2 6.667 1.6 0 2.66-1.334 3.2-3.734 1.06-5.466 2.4-20.266 1.86-20.133-.13 0-2.53.667-5.06 1.467z"/><path d="m2616.13 652.8c-18.8 5.067-28.8 18.267-28.66 37.867 0 16.8 7.33 28.8 21.06 34.8 8.4 3.6 24.4 4.8 34 2.533 6.27-1.467 7.2-2.267 10.8-8.533 2.27-3.734 4-7.867 4-9.2 0-4-3.46-2.534-7.33 3.2-5.47 7.6-9.87 9.6-20.8 8.933-7.47-.4-10.13-1.2-14.8-4.4-10.53-7.333-16.13-23.733-13.07-38.533 3.6-17.467 17.47-26.4 34.4-22.134 7.87 1.867 10.54 4.4 12.27 10.934.8 2.8 2.27 5.066 3.33 5.066 1.87 0 2.54-2.666 3.74-14.133l.66-5.6-10-1.467c-12.8-1.866-20.8-1.733-29.6.667z"/><path d="m2703.33 653.333c-20.66 6.667-31.46 27.6-25.46 48.534 5.33 18.266 17.33 27.466 36.13 27.466 11.07 0 19.33-3.066 27.2-10.133 9.07-8.133 12.67-16 12.67-27.867.13-12.933-2.4-20.933-9.34-28.533-9.86-11.067-25.6-14.667-41.2-9.467zm22 6.667c10.94 5.6 16.67 18.8 15.74 35.867-1.07 18.133-8.14 26.8-22 26.8-12.54 0-20.14-5.2-26-18-4.54-9.867-4.4-26.934.26-35.334 4.67-8.4 10.67-12 19.6-12 4.54 0 9.07.934 12.4 2.667z"/><path d="m2889.6 652.4c-14.13 4.533-18.8 22.533-8.67 33.2 2 2.133 7.87 6.4 13.07 9.467 12.67 7.466 15.33 10.266 15.33 16.666 0 7.734-3.33 11.2-11.46 11.867-8.4.8-14.54-3.067-19.07-12-3.87-7.733-6.8-8.267-6.67-1.333 0 2.8.8 7.466 1.74 10.4 1.33 4.533 2.26 5.466 6.8 6.8 13.2 4 26.8 1.466 34.26-6.267 5.74-6 7.47-12.533 5.2-19.867-1.86-6.133-6.93-10.666-18.8-16.666-11.73-5.867-16.53-11.467-15.46-17.867 2.4-15.2 26.13-14 26.13 1.2 0 1.733.93 2.667 2.53 2.667 2 0 2.67-1.467 3.34-8.134.53-4.533.66-8.4.26-8.8-2.66-2.8-21.46-3.6-28.53-1.333z"/><path d="m3103.33 652.4c-.26.933-.8 6-.93 11.467-.53 12.133 1.73 14 5.6 4.533 3.6-8.4 5.6-9.733 14.93-9.733h7.74v29.866c0 33.067.13 32.534-9.07 34-3.2.534-5.07 1.6-5.33 3.2-.4 2.134 1.06 2.267 20 2 18.13-.4 20.4-.666 20.8-2.8.4-1.733-.54-2.266-4.14-2.266-2.53 0-5.86-1.067-7.46-2.4-2.8-2.267-2.94-3.067-2.54-31.6l.4-29.334 8-.4c10.14-.533 12.8 1.334 13.87 9.2.67 4.667 1.33 5.867 3.47 5.867 2.26 0 2.8-1.2 3.6-8.4.53-4.533 1.06-9.733 1.33-11.333.27-2.134-.13-2.8-1.6-2.267-4.13 1.333-60.4 1.467-64.27.133-2.8-1.066-4-.933-4.4.267z"/><path d="m3366.13 651.733c-.26.534-.8 5.734-.93 11.467-.67 13.2 1.47 14.667 6 4.267 3.6-8.267 5.47-9.2 16.27-8.534l6.53.4-.53 29.334c-.54 32.4-.54 32.533-9.07 33.866-3.33.534-5.2 1.6-5.47 3.2-.4 2.134 1.34 2.267 20.27 2.267 19.87 0 20.8-.133 20.8-2.667 0-2.133-.93-2.666-4.67-2.666-2.93 0-5.73-1.067-7.33-2.667-2.53-2.533-2.67-4.133-2.4-31.733l.4-28.934 8.27-.4c6.93-.266 8.8.134 11.06 2.4 1.47 1.467 2.67 4.134 2.67 5.867 0 4.933 1.33 7.467 3.87 7.467 1.86 0 2.53-2 3.6-11.467.66-6.267 1.06-11.6.8-11.867-.27-.266-2 0-3.87.8-4.27 1.6-57.87 1.6-62.27-.133-1.86-.667-3.6-.8-4-.267z"/><path d="m3468.67 652.267c-6.8 2.4-10.94 6.133-13.2 12-4.8 11.733.4 20.933 16.93 30.666 11.87 6.934 15.6 10.8 15.6 16.534 0 6.133-1.07 8.4-5.47 10.533-8.93 4.667-19.6.533-24.8-9.867-3.6-7.066-3.86-7.333-6.13-6.4-1.73.667-1.73 2-.4 9.2.93 4.667 2 9.067 2.53 9.867 1.74 2.8 12.8 4.933 21.74 4.133 11.33-.8 18.66-5.6 22.4-14.533 4.93-12.133.4-20.133-16.4-28.933-17.34-8.934-21.74-17.334-13.6-25.6 8.26-8.267 22.8-3.067 22.8 8.133 0 1.733.93 2.667 2.53 2.667 2 0 2.53-1.467 3.33-8.267.4-4.533.54-8.4.14-8.8-2.54-2.667-21.74-3.467-28-1.333z"/><path d="m897.067 664c-5.734 16.4-19.334 50.133-21.734 53.867-1.333 2.133-4 3.733-6.8 4.266-3.2.534-4.533 1.6-4.533 3.334 0 2.4 1.2 2.533 15.333 2.533 14.4 0 15.334-.133 15.334-2.667 0-1.866-.934-2.666-3.067-2.666-1.733 0-4.133-.8-5.467-1.734-2.266-1.6-2.133-2.133.934-10.933l3.2-9.333h12.4 12.4l3.333 8.933c3.6 10 3.2 13.067-1.733 13.067-2.4 0-3.334.666-3.334 2.666 0 2.534.934 2.667 16.667 2.667s16.667-.133 16.667-2.667c0-1.866-.934-2.666-3.067-2.666-6.4 0-8.533-3.467-19.333-31.067-5.867-14.8-11.467-29.467-12.4-32.667-1.467-5.2-1.867-5.6-6.4-5.6-4.8 0-4.8 0-8.4 10.667zm10.666 15.867c2.267 6.4 4.267 12.133 4.267 12.666 0 .4-4.133.8-9.333.8-5.067 0-9.334-.4-9.334-.933 0-2.133 8.4-24.4 9.2-24.4.4 0 2.8 5.333 5.2 11.867z"/><path d="m955.333 654.8c-1.2 1.733-1.066 1.733 5.334 3.333l5.333 1.2.4 29.867c.133 18.133-.133 30.4-.933 31.2s-3.6 1.733-6.4 2.133c-3.467.534-5.2 1.6-5.467 3.334-.533 2.266.8 2.4 24.667 1.866 22.133-.4 25.863-.8 31.203-3.333 8.8-4 16.4-11.333 19.73-19.2 3.73-8.4 4-23.467.67-31.6-2.67-6.933-13.2-16.533-20.27-18.667-6.8-2-53.067-2.266-54.267-.133zm45.997 5.467c11.07 4.133 18.67 16.133 18.67 29.733 0 21.333-10.8 33.467-28.533 32.267-12.667-.8-12.8-1.067-12.8-34.4 0-27.734 0-28 3.066-29.2 3.2-1.2 14.267-.4 19.597 1.6z"/><path d="m1042.67 655.2c0 .933 1.86 2.267 4.13 2.933 7.2 2.134 9.73 7.067 25.2 51.2l6.4 18 4.53.4 4.4.4 7.87-19.733c11.87-30 18.27-44.8 20.53-47.333 1.07-1.2 3.6-2.667 5.74-3.067 2.13-.533 3.86-1.733 3.86-2.8 0-1.467-2.93-1.867-15.33-1.867-12.13 0-15.33.4-15.33 1.867 0 1.067 2 2.267 4.8 2.667 6.13 1.2 6.8 3.466 3.86 12.666-2.93 9.6-15.2 40.4-16.53 41.867-1.2 1.2-20.53-50.8-19.47-52.4.4-.667 2.54-1.467 4.67-2 2.27-.533 4-1.733 4-2.8 0-1.467-3.2-1.867-16.67-1.867-13.2 0-16.66.4-16.66 1.867z"/><path d="m1348.93 664.133c-7.73 22.534-20 52-23.06 55.2-1.74 1.867-4.54 3.334-6.54 3.334-2.4 0-3.33.666-3.33 2.666 0 2.534.93 2.667 15.33 2.667s15.34-.133 15.34-2.667c0-1.866-.94-2.666-3.07-2.666-1.73 0-4.13-.8-5.47-1.734-2.26-1.6-2.13-2.133.94-10.933l3.2-9.333h12.4 12.4l3.33 8.933c3.6 10 3.2 13.067-1.73 13.067-2.4 0-3.34.666-3.34 2.666 0 2.534.94 2.667 16.67 2.667s16.67-.133 16.67-2.667c0-1.866-.94-2.666-3.07-2.666-6.4 0-8.53-3.467-19.33-31.067-5.87-14.8-11.47-29.467-12.4-32.667-1.47-5.2-1.87-5.6-6.4-5.6h-4.8zm10.8 15.734c2.27 6.4 4.27 12.133 4.27 12.666 0 .4-4.13.8-9.33.8-5.07 0-9.34-.4-9.34-.933 0-2.133 8.4-24.4 9.2-24.4.4 0 2.8 5.333 5.2 11.867z"/><path d="m1486.67 655.333c0 1.2 1.2 2 3.06 2 1.74 0 4.27.8 5.74 1.867 2.4 1.733 2.53 3.733 2.53 30.8s-.13 29.067-2.53 30.8c-1.47 1.067-4.67 1.867-7.07 1.867-3.47 0-4.4.533-4.4 2.666 0 2.667.67 2.667 30.4 2.4l30.27-.4 2.53-5.2c2.8-5.866 3.6-14.8 1.2-14.8-.8 0-3.47 2.934-6 6.667l-4.4 6.667-13.07.4c-12.93.4-12.93.4-14.26-3.067-.8-2-1.34-8.267-1.34-14.133v-10.534h9.87c10.13 0 12 .934 13.07 6 .26 1.6 1.46 2.667 3.06 2.667 2.27 0 2.54-1.2 2.8-12.4.4-10.8.14-12.267-1.86-12.267-1.2 0-3.2 2-4.27 4.4-2 4.267-2 4.267-12 4.267h-10l-.4-11.733c-.27-7.6.13-12.534 1.2-13.734s4.27-1.866 9.73-1.866c12 0 13.87.8 15.74 6.8 1.6 5.6 6.4 7.6 6.4 2.666 0-1.333.4-5.2.8-8.666l.93-6.134h-28.93c-24.67 0-28.8.267-28.8 2z"/><path d="m1966.67 655.2c0 1.067 2 2.267 4.66 2.667 2.67.533 5.2 2.133 6.14 3.6.93 1.733 1.2 12 .93 29.733-.4 29.467-.93 31.467-7.87 31.467-2.93 0-3.86.666-3.86 2.666 0 2.534.93 2.667 17.33 2.667s17.33-.133 17.33-2.667c0-2-.93-2.666-3.86-2.666-6.67 0-8.14-2.8-8.14-15.467v-11.2h6 5.87l8 11.6c11.87 17.6 15.87 20.4 29.6 20.4 8.67 0 9.87-3.333 2.13-5.467-6.13-1.6-10.66-5.866-21.6-20.4l-7.06-9.333 6.53-6.133c6.53-6.134 7.47-8.534 6.67-17.2-.54-6-4.14-10.934-9.87-13.6-4.8-2.134-8.93-2.534-27.2-2.534-17.73 0-21.73.4-21.73 1.867zm42.13 8c4 4 4.53 5.333 4.53 11.867 0 9.866-3.33 13.6-13.73 14.8-4.13.533-8.13.666-8.93.133-1.47-.933-1.87-28.933-.4-30.4.4-.533 3.86-.933 7.46-.933 5.6 0 7.2.666 11.07 4.533z"/><path d="m2052 655.067c0 1.066 2.27 2.4 4.93 3.066 4.4 1.067 5.07 1.867 6.14 6.534 1.6 7.066 0 53.866-1.87 56.133-.8.933-2.93 1.867-4.93 2.133-2.14.267-3.74 1.334-4 2.667-.4 2.133 1.06 2.4 17.6 2.4 17.2 0 18.13-.133 18.13-2.667 0-2.133-.93-2.666-4-2.666-2.27 0-5.2-1.2-6.67-2.667-2.53-2.533-2.66-4.133-2.4-31.733l.4-28.934 5.87-.4c12.13-.933 18.8 5.067 18.8 16.667 0 12.133-4.93 17.733-15.47 17.733-3.73 0-4.66.534-4.26 2.267.53 3.333 9.33 3.867 16.4 1.2 15.2-5.867 21.2-24.267 11.6-35.733-5.74-6.8-9.74-7.734-34.27-7.734-17.33 0-22 .4-22 1.734z"/><path d="m2226.67 655.2c0 .933 1.86 2.133 4.26 2.667 7.74 1.6 7.74 1.466 7.74 30.666 0 30.267-.67 33.2-7.74 33.867-3.2.267-4.26 1.067-4.26 3.067 0 2.4 1.06 2.533 17.33 2.533 16.4 0 17.33-.133 17.33-2.667 0-2-.93-2.666-3.6-2.666-6.8 0-7.73-1.6-8.13-14.667l-.53-12h6 6.13l8.27 12c4.53 6.667 9.86 13.467 12 15.2 4.13 3.467 12.13 5.333 19.86 4.533 6-.533 6.27-4 .54-5.2-2.27-.4-5.34-1.6-6.8-2.666-3.2-2.134-12.8-13.334-18.67-21.6l-4.27-5.867 5.87-4.933c12.13-10.134 10.4-26.4-3.33-32-7.34-2.934-48-3.2-48-.267zm39.86 5.333c4.67 2.534 6.8 7.334 6.8 15.6 0 9.067-3.46 12.534-13.73 13.734-4.13.533-8.13.666-8.93.133-1.47-.933-1.87-28.933-.4-30.4 1.6-1.6 12.4-.933 16.26.933z"/><path d="m2342.67 661.6c-1.6 4.667-7.07 18.933-12.14 31.733-9.6 24.267-12.93 29.334-19.33 29.334-2.27 0-3.2.666-3.2 2.666 0 2.534.93 2.667 16 2.667 13.47 0 16-.267 16-2 0-2.133-.67-2.533-6.93-3.867-4.54-1.066-4.67-2.933-.94-13.866l2.8-8.267h12.27 12.27l3.46 9.867c3.74 10.533 3.34 12.8-2.53 12.8-2.13 0-3.07.8-3.07 2.666 0 2.667.67 2.667 17.07 2.4 13.6-.266 16.93-.8 16.93-2.266 0-1.067-1.73-2.4-3.86-2.934-2-.533-4.94-2-6.27-3.333-2.13-1.867-20.4-46-25.07-60.933-1.46-4.4-2.13-4.934-6-4.934-4.26 0-4.53.4-7.46 8.267zm9.46 17.867c2.14 5.866 3.87 11.333 3.87 12.133 0 1.2-2.67 1.733-8.67 1.733-6.26 0-8.66-.533-8.66-1.733 0-2 6-20.133 7.33-22.4 1.33-2 1.73-1.333 6.13 10.267z"/><path d="m2480 655.067c0 1.066 2.27 2.4 5.07 3.066l4.93 1.2.4 30.4.27 30.267-3.34 1.333c-2 .8-5.33 1.334-7.46 1.334-2.94 0-3.87.666-3.87 2.666 0 2.534.93 2.667 30.8 2.667h30.67l2.53-5.733c3.47-7.867 4-14.667 1.2-15.334-1.33-.266-2.8 1.067-3.87 3.6-.93 2.267-3.06 5.6-4.8 7.467-2.8 3.067-4 3.333-14.93 3.333-7.33 0-12.27-.533-13.33-1.6-1.07-1.066-1.6-6.133-1.6-14v-12.4h10.13 10l2 4.667c1.07 2.533 2.8 4.667 3.87 4.667 1.6 0 2-2.134 2-11.334 0-6.266.13-11.733.26-12.4.14-.533-.8-1.066-2-1.333-1.46-.267-2.8.933-3.73 3.333-1.87 5.067-3.2 5.734-13.6 5.734h-9.07l.4-13.734.4-13.6 10.27-.4c8.93-.266 10.67 0 13.07 2.4 1.46 1.467 2.66 4.134 2.66 6 0 2.4.67 3.334 2.67 3.334 2.8 0 3.33-1.6 4.4-11.734l.67-5.6h-28.54c-22.8 0-28.53.4-28.53 1.734z"/><path d="m2769.6 654.933c.4.934 2.67 2.134 5.2 2.8 9.6 2.534 9.6 2.267 8.53 32.934-.8 25.2-1.06 27.466-3.6 29.6-1.46 1.333-4.13 2.4-5.86 2.4-2.27 0-3.2.8-3.2 2.666 0 2.534.93 2.667 16.8 2.667 15.06 0 16.66-.267 16.26-2.267-.26-1.333-2.13-2.666-4.66-3.2-8.4-1.733-8.4-1.733-8.4-28.4l.13-24.133 3.33 4c1.74 2.133 12.14 15.2 22.8 28.933 18 23.067 19.87 25.067 23.74 25.067h4.26l.8-32.8c.54-21.467 1.2-33.333 2.27-34.533.8-1.067 3.33-2.267 5.47-2.667 2.13-.533 3.86-1.733 3.86-2.8 0-1.6-2.8-1.867-16.26-1.6-9.74.267-16.27.933-16.14 1.733.14.667 3.07 2.134 6.67 3.334l6.4 2 .4 24.666c.13 14.667-.13 24.134-.93 23.334-2.94-3.334-38.54-47.2-41.2-51.067l-3.07-4.267h-12.13c-8.67 0-11.87.4-11.47 1.6z"/><path d="m2936 655.2c0 1.067 2 2.267 4.67 2.667 5.73 1.066 5.6.533 6.53 29.733.8 25.333 1.87 29.733 8.67 35.467 5.2 4.266 11.86 6.266 21.46 6.266 14.27 0 22.94-4.666 28.27-15.066 2.93-5.734 4.93-22.8 5.07-42.4 0-10.934.8-12.267 7.06-13.867 2-.533 3.6-1.733 3.6-2.8 0-1.467-3.2-1.867-16-1.867-12.66 0-16 .4-16 1.867 0 1.067 2 2.133 4.8 2.533 8.4 1.334 8.54 1.867 8.54 23.867 0 22.933-1.34 30-6.8 35.2-8.27 8-28.67 4.933-34.14-5.067-1.86-3.6-2.4-8.266-2.8-25.466-.66-25.867-.4-27.2 5.74-28.4 2.66-.4 4.66-1.6 4.66-2.667 0-1.467-3.33-1.867-16.66-1.867-13.34 0-16.67.4-16.67 1.867z"/><path d="m3032 655.2c0 .933 1.87 2.133 4.27 2.667 7.73 1.6 7.73 1.333 7.73 31.333 0 30.933-.27 32-8.8 33.333-3.33.534-5.2 1.6-5.2 2.8 0 1.734 4.53 2 29.6 2.4 34.13.4 31.47 1.467 35.87-14.133 2-7.2 2-8.667.4-9.733-2.8-1.734-3.07-1.6-6.14 5.066-5.2 11.334-6.93 12.4-19.46 12.4-6 0-11.74-.533-12.67-1.2-2.27-1.333-3.47-33.466-2-49.466l1.07-11.334 5.06-1.2c2.67-.666 4.94-2 4.94-3.066 0-1.334-3.87-1.734-17.34-1.734-13.86 0-17.33.4-17.33 1.867z"/><path d="m3207.6 660.8c-5.33 17.067-21.6 55.867-24.4 58.8-1.73 1.733-4.67 3.067-6.53 3.067-2.4 0-3.34.666-3.34 2.666 0 2.534.94 2.667 15.34 2.667s15.33-.133 15.33-2.667c0-1.733-.93-2.666-2.53-2.666-7.34 0-8.4-3.6-4.27-15.334l2.4-6.666h12.4 12.4l3.33 8.933c3.6 10 3.2 13.067-1.73 13.067-2.4 0-3.33.666-3.33 2.666 0 2.534.93 2.667 16.66 2.667 15.74 0 16.67-.133 16.67-2.667 0-2-.93-2.666-3.33-2.666-1.87 0-4.8-1.467-6.4-3.2-2.67-2.934-16.14-35.2-23.74-57.2-3.06-8.8-3.33-8.934-7.86-8.934-4.54 0-4.8.267-7.07 7.467zm9.47 18.8c2.4 6.533 4.26 12.133 4.26 12.667 0 .666-4.26 1.066-9.46 1.066-7.07 0-9.34-.4-8.94-1.733.4-.8 2.27-6.533 4.4-12.667 2.14-6 4.14-10.933 4.67-10.933.4 0 2.67 5.2 5.07 11.6z"/><path d="m3264 655.067c0 .933 2.67 2.4 6 3.333 4.67 1.2 6.13 2.267 6.8 5.067.53 2 .53 15.066.13 29.066-.66 24-.93 25.6-3.6 27.734-1.6 1.333-4.4 2.4-6.13 2.4-2.27 0-3.2.8-3.2 2.666 0 2.534.93 2.667 16.67 2.667 15.73 0 16.66-.133 16.66-2.667 0-2-.93-2.666-3.73-2.666-2 0-5.07-.934-6.67-2.134-2.8-2-2.93-2.666-2.93-26.266l.13-24.267 4 4.667c2.27 2.533 12.54 15.6 22.94 28.933 18.13 23.333 19.06 24.4 23.6 24.4h4.66l.4-32.267c.27-17.6.94-33.2 1.6-34.533.8-1.2 3.07-2.667 5.34-3.2 2.13-.533 4-1.733 4-2.8 0-1.467-3.07-1.867-16-1.867-12.94 0-16 .4-16 1.867 0 1.2 2 2.267 5.2 2.8 2.93.533 6 1.6 6.66 2.533 1.87 2.134 3.74 48.8 2 48.8-1.33-.133-39.6-46.8-43.06-52.666-2-3.2-2.67-3.334-13.74-3.334-8.66 0-11.73.4-11.73 1.734z"/><path d="m221.2 669.467c-3.467 4.8-6.533 14.666-6.533 20.4.133 2.266.933 6.533 2 9.466 1.066 2.8 1.733 5.334 1.6 5.6-.267.134-3.334-.666-6.934-1.733-8.133-2.533-18.4-1.733-25.6 1.867-8.533 4.4-9.333 6.133-4.133 9.333 22.533 13.867 51.733-2.933 51.733-29.733 0-5.6-5.6-19.334-7.866-19.334-.667 0-2.534 1.867-4.267 4.134z"/><path d="m494 672.267c-13.733 29.466 20.533 59.333 48.4 42.133 5.2-3.2 4.4-4.933-4.133-9.333-7.2-3.6-17.467-4.4-25.6-1.867-3.6 1.067-6.667 1.867-6.934 1.733-.133-.266.534-2.8 1.6-5.6 2.4-6.8 2.4-12 .134-19.733-2-6.533-6.8-14.267-8.934-14.267-.8 0-2.8 3.2-4.533 6.934z"/><path d="m259.333 696.133c-4.666 8.534-4.933 19.334-.8 28.667 3.467 7.733 3.467 7.333-.666 5.867-9.734-3.734-25.867-.134-33.467 7.466l-3.6 3.6 5.2 2.667c6.667 3.333 19.333 3.6 26.667.4 17.333-7.467 25.466-28.4 17.466-45.467-4.933-10.8-6.4-11.2-10.8-3.2z"/><path d="m457.467 693.067c-10.4 14.666-8.8 32.933 4.133 45.2 6 5.866 13.6 8.8 22.667 8.8 7.333 0 18.4-3.467 18.4-5.867 0-1.6-8.267-7.6-13.734-9.867-5.466-2.266-17.733-2.666-22.8-.666-4.133 1.466-4.133 1.866-.666-6 3.733-8.534 3.866-19.6.133-26.667-4.933-9.333-4.933-9.333-8.133-4.933z"/><path d="m292 716.133c-4.4 7.334-5.6 13.734-4 22.134.667 4.133 2.267 8.933 3.467 10.8 2.533 4 1.866 4.666-2.667 2.933-9.333-3.467-24.267-.133-31.467 7.333l-4.266 4.4 4.133 2.134c10 5.2 24.267 3.866 34.533-3.334l5.6-4 3.734 2.534c2 1.333 7.466 4.133 12.266 6 7.867 3.2 8.8 3.2 9.6 1.2 1.467-3.6 1.334-3.734-4.533-5.6-5.733-1.6-18.4-7.6-18.4-8.534 0-.266 1.2-3.066 2.667-6.266 4.666-10.4 2.4-26.534-4.667-33.2l-3.2-2.934z"/><path d="m425.6 715.067c-1.6 1.6-3.733 5.6-4.933 8.8-3.2 9.2-2.534 16.266 2.533 28.4.8 1.733-.4 2.933-5.467 5.466-3.466 1.867-8.933 4-12 4.934-5.866 1.733-6.266 2.266-4.933 5.866.667 1.734 1.867 1.6 9.467-1.2 4.666-1.866 10.4-4.533 12.533-6.133l4-2.8 4.667 3.6c10.666 8.133 28.133 9.467 37.066 2.933 2.4-1.733 2.267-2-2-6-7.733-7.2-22.133-10.4-31.333-6.933-2 .8-3.733 1.2-4 .933-.267-.266.8-3.066 2.4-6.266 4-8 4-20 0-27.6-3.733-7.2-4.667-7.6-8-4z"/><path d="m359.733 734.4c-4.933 5.6-6.933 11.6-7.066 21.333 0 8-.267 9.467-2 8.667-1.067-.533-5.067-1.2-8.934-1.467-6-.4-7.333-.133-10.4 2.934-4.266 4.266-4.533 11.6-.666 15.466 3.333 3.334 6.666 3.467 6.666.134 0-6.534 11.734-9.2 15.467-3.467 3.867 5.867-.267 16.667-6.4 16.667-2.8 0-3.2 1.733-.667 3.6 3.2 2.533 6 2.8 9.467 1.066 2.533-1.333 3.467-1.466 3.467-.266.133.933.933 3.333 1.866 5.6l1.734 4 1.733-5.467c1.6-5.333 1.733-5.467 4.933-3.867 3.334 1.734 6.134 1.467 9.467-1.066 2.4-1.867 2-3.6-.8-3.6-6.133 0-10.267-10.8-6.4-16.667 3.733-5.733 15.467-3.067 15.467 3.467 0 3.066 2.4 3.2 6.4.4 3.6-2.4 4-10.4.933-14.934-3.467-4.933-12.267-5.866-20.667-2.4-1.733.667-2-.8-2-8.8-.133-7.333-.8-11.066-2.933-15.2-4-7.6-6.133-9.066-8.667-6.133z"/></g></svg>