<svg fill="none" height="449" viewBox="0 0 895 449" width="895" xmlns="http://www.w3.org/2000/svg" xmlns:xlink="http://www.w3.org/1999/xlink"><filter id="a" color-interpolation-filters="sRGB" filterUnits="userSpaceOnUse" height="110" width="110" x="58.2491" y="234"><feFlood flood-opacity="0" result="BackgroundImageFix"/><feColorMatrix in="SourceAlpha" result="hardAlpha" type="matrix" values="0 0 0 0 0 0 0 0 0 0 0 0 0 0 0 0 0 0 127 0"/><feOffset dy="4"/><feGaussianBlur stdDeviation="2"/><feComposite in2="hardAlpha" operator="out"/><feColorMatrix type="matrix" values="0 0 0 0 0 0 0 0 0 0 0 0 0 0 0 0 0 0 0.25 0"/><feBlend in2="BackgroundImageFix" mode="normal" result="effect1_dropShadow_76_83"/><feBlend in="SourceGraphic" in2="effect1_dropShadow_76_83" mode="normal" result="shape"/></filter><filter id="b" color-interpolation-filters="sRGB" filterUnits="userSpaceOnUse" height="110" width="110" x="383.249" y="0"><feFlood flood-opacity="0" result="BackgroundImageFix"/><feColorMatrix in="SourceAlpha" result="hardAlpha" type="matrix" values="0 0 0 0 0 0 0 0 0 0 0 0 0 0 0 0 0 0 127 0"/><feOffset dy="4"/><feGaussianBlur stdDeviation="2"/><feComposite in2="hardAlpha" operator="out"/><feColorMatrix type="matrix" values="0 0 0 0 0 0 0 0 0 0 0 0 0 0 0 0 0 0 0.25 0"/><feBlend in2="BackgroundImageFix" mode="normal" result="effect1_dropShadow_76_83"/><feBlend in="SourceGraphic" in2="effect1_dropShadow_76_83" mode="normal" result="shape"/></filter><filter id="c" color-interpolation-filters="sRGB" filterUnits="userSpaceOnUse" height="110" width="110" x="788.249" y="242"><feFlood flood-opacity="0" result="BackgroundImageFix"/><feColorMatrix in="SourceAlpha" result="hardAlpha" type="matrix" values="0 0 0 0 0 0 0 0 0 0 0 0 0 0 0 0 0 0 127 0"/><feOffset dy="4"/><feGaussianBlur stdDeviation="2"/><feComposite in2="hardAlpha" operator="out"/><feColorMatrix type="matrix" values="0 0 0 0 0 0 0 0 0 0 0 0 0 0 0 0 0 0 0.25 0"/><feBlend in2="BackgroundImageFix" mode="normal" result="effect1_dropShadow_76_83"/><feBlend in="SourceGraphic" in2="effect1_dropShadow_76_83" mode="normal" result="shape"/></filter><linearGradient id="d"><stop offset="0" stop-color="#84ccb8"/><stop offset="1" stop-color="#196072"/></linearGradient><linearGradient id="e" gradientUnits="userSpaceOnUse" x1="441.973" x2="441.973" xlink:href="#d" y1="22.3118" y2="448.282"/><linearGradient id="f" gradientUnits="userSpaceOnUse" x1="498.654" x2="498.654" xlink:href="#d" y1="47.4384" y2="181.331"/><linearGradient id="g" gradientUnits="userSpaceOnUse" x1="115.331" x2="239.457" xlink:href="#d" y1="198.119" y2="198.119"/><linearGradient id="h" gradientUnits="userSpaceOnUse" x1="779.112" x2="822.908" xlink:href="#d" y1="262.041" y2="262.041"/><linearGradient id="i" gradientUnits="userSpaceOnUse" x1="704.407" x2="748.202" xlink:href="#d" y1="188.257" y2="188.257"/><clipPath id="j"><path d="m0 0h894.249v448.282h-894.249z"/></clipPath><g clip-path="url(#j)"><path d="m294.494 448.282c-26.983 0-53.926-.483-80.829-1.449-38.44-1.381-78.19-2.808-115.1354-23.299-25.845-14.333-48.7348-37.329-66.1941-66.504-11.6696-19.774-20.2262-41.227-25.36932-63.604-9.59393-40.742-9.26715-83.191.95287-123.78 3.58145-13.916 8.51885-27.447 14.74115-40.4 26.9429-55.7933 76.0849-93.246 134.8258-102.7538.485-.063.976-.0734 1.463-.0313.264.0142.528.0293.796.0181l.346-.1099c.886-.3079 1.796-.5414 2.72-.6982 90.594-13.4868 186.365 13.8018 276.953 78.9131 70.042 50.352 162.867 77.465 283.781 82.89l1.717.089c33.659 1.934 66.218 15.811 94.16 40.133 27.579 24.006 48.287 56.034 59.884 92.624 1.425 4.461 2.732 9.105 3.884 13.801 1.072 4.365.997 8.933-.22 13.259-1.216 4.327-3.532 8.265-6.721 11.431v.009l-.301.31c-.725.721-1.488 1.412-2.267 2.056l-.917.755c-7.728 6.366-13.831 11.394-21.135 15.299-4.872 2.587-10.053 4.543-15.419 5.821-29.465 7.184-59.387 13.844-88.936 19.797-57.384 11.571-116.281 21.116-175.054 28.369-92.139 11.361-184.889 17.057-277.726 17.055zm-136.232-419.845c-.18-.0017-.361.0106-.539.0366-58.1921 9.419-106.8689 46.5039-133.5447 101.7454-6.1609 12.824-11.0494 26.221-14.59522 40-10.126887 40.229-10.449603 82.301-.94101 122.68 5.09283 22.164 13.56643 43.411 25.12333 62.997 17.2884 28.888 39.9441 51.654 65.5182 65.835 36.6144 20.308 76.1764 21.729 114.4364 23.102 119.662 4.276 239.476-.939 358.315-15.595 58.734-7.249 117.593-16.787 174.94-28.35 29.528-5.949 59.43-12.604 88.875-19.783 5.237-1.246 10.293-3.155 15.048-5.679 7.157-3.826 13.202-8.807 20.855-15.112l.917-.754c.67-.554 1.328-1.146 1.958-1.761l.18-.19c6.29-6.338 8.735-14.702 6.71-22.944v-.001c-1.139-4.646-2.432-9.24-3.843-13.655-23.69-74.746-84.974-127.57-152.497-131.447l-1.707-.09c-55.232-2.479-103.564-9.344-147.751-20.991-52.75-13.902-98.802-34.83-136.876-62.2-90.242-64.8625-185.613-92.0496-275.811-78.6267-.843.1453-1.672.3603-2.479.6426l-.623.1743c-.354.0158-.708.0116-1.062-.0127-.208-.0107-.41-.0215-.607-.0215z" fill="url(#e)"/><path d="m279.327 146.056c-2.498-2.397-5.053-15.762-8.242-17.119 2.384 5.269.653 6.664.64 12.446.03 3.283-.353 6.557-1.141 9.745h-54.024v-42.162c-.001-3.788.746-7.54 2.195-11.0396 1.45-3.5 3.575-6.6802 6.254-9.359 2.678-2.6788 5.859-4.8037 9.359-6.2533 3.5-1.4497 7.251-2.1958 11.039-2.1957 1.446.0282 2.883.2385 4.276.626 4.644 1.2537 8.876 3.7064 12.272 7.1121 3.397 3.4058 5.838 7.6447 7.079 12.2915 4.118 15.054 10.668 40.112 10.293 45.908z" fill="#2f2e41"/><path d="m219.73 197.923.026-32.863-19.317 1.726 6.817 20.727-3.191 52.096c-1.547.347-2.96 1.137-4.066 2.274-1.107 1.136-1.858 2.57-2.164 4.126-.305 1.557-.151 3.168.443 4.639.595 1.47 1.604 2.736 2.906 3.642 1.301.906 2.838 1.415 4.424 1.463 1.585.048 3.15-.367 4.504-1.193s2.438-2.028 3.12-3.459c.683-1.432.934-3.031.723-4.603z" fill="#ffb6b6"/><path d="m257.746 432.76 7.804-.001 3.713-30.102h-11.519z" fill="#ffb6b6"/><path d="m255.103 428.91 12.337-.736v5.285l11.729 8.101c.579.4 1.016.975 1.245 1.64.23.666.241 1.387.031 2.059-.209.673-.628 1.26-1.195 1.677s-1.253.643-1.957.642h-14.688l-2.531-5.228-.989 5.228h-5.538z" fill="#2f2e41"/><path d="m212.62 432.76 7.805-.001 3.712-30.102h-11.518z" fill="#ffb6b6"/><path d="m209.977 428.91 12.337-.736v5.285l11.73 8.101c.579.4 1.015.975 1.245 1.64.229.666.24 1.387.031 2.059-.21.673-.629 1.26-1.196 1.677s-1.252.643-1.957.642h-14.687l-2.532-5.228-.988 5.228h-5.538z" fill="#2f2e41"/><path d="m250.796 129.571-16.167.317-11.412 12.047-9.15 1.341c-4.138.608-7.943 2.617-10.779 5.692-2.835 3.076-4.529 7.031-4.798 11.206l1.585 8.706h9.51l5.502 32.303c-2.139 5.451-2.285 9.754 2.106 11.444l13.632 25.677 40.26-18.069c2.041-3.51 2.696-7.036.609-10.464l2.878-49.45h9.677c0-9.249-3.128-17.046-12.32-18.075-3.65-.395-7.317-.605-10.989-.628z" fill="#e6e6e6"/><path d="m271.085 220.235s-39.309 6.974-53.892-7.608c0 0-1.48 2.513-3.711 6.682-.641 1.198-1.88 2.01-2.629 3.462-.68 1.32-2.429 2.942-3.17 4.439-.596 1.204.36 2.777-.26 4.078-7.468 15.664-16.193 37.759-14.322 52.348 1.206 9.409 3.698 31.302 6.322 54.817.205 1.837-1.456 4.197-1.25 6.049.194 1.746 2.255 2.983 2.45 4.734.129 1.162-1.311 2.347-1.182 3.508.141 1.273 1.85 2.522 1.991 3.79 3.594 32.468 6.885 62.781 6.885 62.781h18.387l3.469-69.232-2.835-25.236 6.657-51.038 9.193 48.502 1.183 27.297 9.715 70.975h16.999v-68.708l1.268-3.569-1.268-4.578 1.268-4.932-1.268-5.372z" fill="#2f2e41"/><path d="m255.759 120.196c-2.505 3.327-6.068 5.701-10.102 6.733-4.034 1.031-8.3.658-12.093-1.058-3.794-1.717-6.891-4.674-8.779-8.385-1.889-3.711-2.457-7.955-1.612-12.032.845-4.078 3.054-7.7456 6.263-10.4 3.208-2.6544 7.225-4.137 11.388-4.2036 4.164-.0667 8.226 1.2866 11.518 3.837 3.291 2.5504 5.616 6.1456 6.592 10.1936.052.22.097.438.14.665.515 2.538.486 5.156-.086 7.681-.571 2.525-1.672 4.9-3.229 6.969z" fill="#ffb6b6"/><path d="m251.937 109.739c-.388-1.951-1.372-3.734-2.815-5.103.143 1.869-.117 3.748-.76 5.509-4.82.427-9.662-.532-13.955-2.764-3.233-2.194-7.348-2.004-12.141 0-.001-2.331.458-4.64 1.35-6.794.892-2.1539 2.2-4.111 3.849-5.7595 1.648-1.6486 3.605-2.9562 5.759-3.8482 2.154-.8921 4.463-1.3511 6.794-1.3508h3.17c4.708.0009 9.223 1.8715 12.552 5.2005 3.329 3.3291 5.2 7.844 5.2 12.552-2.925 1.049-5.938 1.839-9.003 2.358z" fill="#2f2e41"/><g filter="url(#a)"><path d="m113.249 336c28.167 0 51-22.833 51-51s-22.833-51-51-51c-28.1664 0-50.9999 22.833-50.9999 51s22.8335 51 50.9999 51z" fill="#2f2e41"/></g><g filter="url(#b)"><path d="m438.249 102c28.167 0 51-22.8335 51-51s-22.833-51-51-51c-28.166 0-51 22.8335-51 51s22.834 51 51 51z" fill="#3f3d56"/></g><g filter="url(#c)"><path d="m843.249 344c28.167 0 51-22.833 51-51s-22.833-51-51-51c-28.166 0-51 22.833-51 51s22.834 51 51 51z" fill="#3f3d56"/></g><path d="m530.249 56.5618v115.6462c0 2.402-.947 4.707-2.637 6.415-1.689 1.707-3.984 2.679-6.386 2.704-.034.004-.067.005-.1.004h-13.46c-10.77 0-21.098-4.278-28.713-11.893s-11.894-17.944-11.894-28.713v-84.1633c0-2.4196.962-4.7402 2.673-6.4512 1.71-1.7109 4.031-2.6721 6.451-2.6721h5.454c-2.527 7.3706 31.765 10.4737 33.648 0h5.841c2.419 0 4.74.9612 6.451 2.6722 1.711 1.7109 2.672 4.0315 2.672 6.4512z" fill="url(#f)"/><g fill="#3f3d56"><path d="m490.306 38.7907c.001-.317.127-.6208.351-.845.224-.2241.528-.3502.845-.3506h8.13c.317.0009.62.1273.843.3514.224.2241.349.5277.349.8442 0 .3166-.125.6201-.349.8443-.223.2241-.526.3505-.843.3514h-8.13c-.317-.0004-.621-.1264-.845-.3506-.224-.2241-.35-.5281-.351-.8451z"/><path d="m523.919 196h-51.416c-3.989-.004-7.814-1.591-10.634-4.412-2.821-2.82-4.408-6.645-4.412-10.634v-80.841c-.283-.2029-.513-.4701-.671-.7794-.158-.3094-.241-.652-.24-.9996v-8.1304c-.001-.3475.082-.6901.24-.9993.158-.3093.388-.5763.671-.779v-2.1821c-.283-.2026-.513-.4697-.671-.779-.158-.3092-.241-.6518-.24-.9993v-8.1309c-.001-.3475.082-.6901.24-.9994.158-.3092.388-.5763.671-.7789v-3.9439c-.349-.1872-.64-.4656-.843-.8055-.202-.3399-.309-.7285-.308-1.1242v-8.1303c-.001-.3958.106-.7844.308-1.1244.203-.3399.494-.6185.843-.8058v-10.8067c.004-3.989 1.591-7.8134 4.412-10.6341 2.821-2.8206 6.645-4.4072 10.634-4.4117h51.416c3.989.0045 7.813 1.5911 10.634 4.4118s4.407 6.6451 4.412 10.6341v23.5561c.271.1695.494.4051.649.6847.155.2795.237.5938.237.9134v15.503c0 .3197-.082.6341-.237.9137s-.378.5153-.649.6849v90.8832c-.005 3.989-1.591 7.814-4.412 10.634-2.821 2.821-6.645 4.408-10.634 4.412zm-51.416-161.2309c-3.459.0039-6.775 1.3796-9.221 3.8253s-3.821 5.7618-3.825 9.2206v12.5078l-.962.0371c-.05.0018-.098.0227-.133.0584s-.055.0835-.056.1335v8.1303c.001.05.021.0977.056.1334.035.0356.083.0566.133.0585l.962.0366v7.0493l-.761.1875c-.042.0102-.08.034-.107.0677-.027.0338-.043.0756-.044.1189v8.1308c.001.0434.017.0851.044.1189.027.0337.065.0575.107.0677l.761.1875v4.9907l-.761.1875c-.042.0101-.08.0339-.107.0677-.027.0337-.043.0755-.044.1188v8.1304c.001.0434.017.0852.044.1191.027.0338.065.0577.107.0679l.761.1875v82.2455c.004 3.459 1.379 6.775 3.825 9.221 2.446 2.445 5.762 3.821 9.221 3.825h51.416c3.459-.004 6.775-1.38 9.22-3.825 2.446-2.446 3.822-5.762 3.826-9.221v-92.5956h.886v-15.2749h-.886v-25.2686c-.004-3.4587-1.38-6.7747-3.826-9.2204-2.445-2.4457-5.761-3.8215-9.22-3.8254z"/><path d="m504.176 39.9864c.66 0 1.195-.5353 1.195-1.1957 0-.6603-.535-1.1956-1.195-1.1956-.661 0-1.196.5353-1.196 1.1956 0 .6604.535 1.1957 1.196 1.1957z"/></g><path d="m244.08 270.403h-133.787c-1.9-.005-3.721-.762-5.064-2.105-1.344-1.344-2.101-3.164-2.106-5.064v-65.189c.005-1.9.762-3.721 2.105-5.064 1.344-1.344 3.164-2.101 5.064-2.106h133.787c1.9.005 3.721.762 5.064 2.105 1.344 1.343 2.101 3.164 2.106 5.064v65.189c-.005 1.9-.762 3.721-2.105 5.064-1.343 1.344-3.164 2.101-5.064 2.106z" fill="#fff"/><path d="m244.08 270.403h-133.787c-1.9-.005-3.721-.762-5.064-2.105-1.344-1.344-2.101-3.164-2.106-5.064v-65.189c.005-1.9.762-3.721 2.105-5.064 1.344-1.344 3.164-2.101 5.064-2.106h133.787c1.9.005 3.721.762 5.064 2.105 1.344 1.343 2.101 3.164 2.106 5.064v65.189c-.005 1.9-.762 3.721-2.105 5.064-1.343 1.344-3.164 2.101-5.064 2.106zm-133.787-77.528c-1.37.004-2.683.55-3.652 1.519-.968.969-1.514 2.282-1.518 3.652v65.187c.004 1.37.55 2.683 1.519 3.652.969.968 2.282 1.514 3.652 1.518h133.784c1.37-.004 2.683-.55 3.652-1.519s1.515-2.282 1.519-3.652v-65.187c-.004-1.37-.55-2.683-1.519-3.652-.969-.968-2.282-1.514-3.652-1.518z" fill="#3f3d56"/><path d="m184.357 260.769c-26.386 0-53.899-.252-64.164-.416-1.351-.028-2.637-.582-3.584-1.545-.948-.964-1.481-2.259-1.486-3.61v-53.962c.001-.483.193-.947.534-1.29.342-.342.805-.535 1.289-.537h120.476c.483.001.947.193 1.29.534.342.342.535.805.537 1.289v36.612c-.022 5.976-2.386 11.706-6.585 15.959-4.198 4.254-9.896 6.692-15.872 6.793-9.567.124-20.896.173-32.435.173z" fill="url(#g)"/><path d="m230.271 234.48h-108.86c-.911-.003-1.8-.286-2.545-.811s-1.31-1.267-1.619-2.125l-12.321-34.566c-.238-.667-.312-1.381-.216-2.082s.358-1.369.766-1.948c.407-.578.947-1.051 1.575-1.378.628-.326 1.325-.497 2.033-.499l136.072-.189c.647-.001 1.286.14 1.872.413.586.274 1.106.672 1.521 1.168.416.495.718 1.076.885 1.701s.194 1.279.081 1.916l.105.044-.39.912-.004.009-14.895 34.755c-.34.796-.906 1.474-1.627 1.951-.722.476-1.569.73-2.433.729zm14.891-41.598-136.075.189c-.387.001-.769.095-1.113.274-.344.178-.64.437-.863.754s-.367.683-.42 1.067c-.052.384-.011.775.119 1.141l12.32 34.565c.17.469.48.876.888 1.164.408.287.895.442 1.395.444h108.858c.473 0 .936-.139 1.331-.399.395-.261.705-.632.89-1.068l14.896-34.756c.158-.368.222-.77.186-1.169s-.17-.783-.39-1.118c-.221-.334-.521-.609-.874-.799s-.747-.289-1.148-.289z" fill="#3f3d56"/><path d="m176.983 242.004c4.708 0 8.524-3.816 8.524-8.524 0-4.707-3.816-8.524-8.524-8.524s-8.524 3.817-8.524 8.524c0 4.708 3.816 8.524 8.524 8.524z" fill="#fff"/><path d="m498.983 168.004c4.708 0 8.524-3.816 8.524-8.524 0-4.707-3.816-8.524-8.524-8.524s-8.524 3.817-8.524 8.524c0 4.708 3.816 8.524 8.524 8.524z" fill="#fff"/><path d="m821.379 283.12-22.77-22.48c-1.108-1.103-2.424-1.976-3.87-2.57-1.447-.594-2.996-.896-4.56-.89h-.08c-1.576.005-3.134.322-4.587.933-1.452.611-2.768 1.504-3.873 2.627-5.091 5.153-7.987 12.078-8.078 19.321-.092 7.243 2.628 14.24 7.588 19.519.24.26.49.51.74.76 1.385 1.377 2.914 2.6 4.56 3.65 4.501 2.908 9.751 4.447 15.11 4.43h.17c3.679-.013 7.318-.754 10.708-2.182s6.463-3.515 9.042-6.138c2.234-2.267 3.479-5.328 3.46-8.511s-1.299-6.228-3.56-8.469zm-1.32 15.57c-4.228 4.259-9.794 6.93-15.761 7.564-5.968.634-11.971-.808-16.999-4.084-1.438-.952-2.781-2.04-4.01-3.25-4.906-4.846-7.687-11.442-7.73-18.337-.043-6.896 2.655-13.526 7.5-18.433.921-.939 2.019-1.684 3.232-2.194 1.212-.51 2.513-.774 3.828-.776h.06c1.302-.005 2.592.247 3.796.742 1.205.494 2.3 1.22 3.224 2.138l22.77 22.49c1.885 1.864 2.953 4.4 2.97 7.051s-1.019 5.201-2.88 7.089z" fill="#3f3d56"/><path d="m746.669 209.34-22.77-22.49c-2.241-2.224-5.273-3.468-8.43-3.46h-.07c-1.577.006-3.138.325-4.592.938s-2.772 1.507-3.878 2.632c-4.209 4.275-6.938 9.785-7.787 15.724-.85 5.938.225 11.993 3.067 17.276l.01.01c1.173 2.161 2.629 4.155 4.33 5.93.19.22.41.44.63.66 5.229 5.19 12.303 8.096 19.67 8.08h.18c3.679-.015 7.319-.759 10.708-2.189 3.39-1.43 6.463-3.517 9.042-6.141 1.107-1.121 1.983-2.45 2.576-3.91.594-1.46.894-3.022.884-4.598s-.331-3.134-.943-4.586c-.613-1.452-1.505-2.769-2.627-3.876zm-1.32 15.57c-2.393 2.435-5.246 4.372-8.392 5.698-3.146 1.327-6.524 2.018-9.938 2.032h-.17c-5.128-.002-10.14-1.52-14.407-4.363-4.267-2.844-7.599-6.885-9.575-11.617-1.976-4.731-2.509-9.942-1.532-14.975.977-5.034 3.421-9.667 7.024-13.315 1.864-1.885 4.4-2.953 7.051-2.97 2.652-.017 5.201 1.019 7.089 2.88l22.77 22.48c1.884 1.868 2.95 4.406 2.965 7.058.015 2.653-1.022 5.203-2.885 7.092z" fill="#3f3d56"/><path d="m822.834 290.188-25.103-24.794c-1.646-1.622-3.868-2.525-6.179-2.511-2.311.015-4.522.945-6.148 2.588-2.034 2.054-3.643 4.49-4.735 7.167s-1.646 5.543-1.629 8.434c.016 2.891.602 5.75 1.724 8.415 1.122 2.664 2.759 5.081 4.816 7.113s4.494 3.638 7.172 4.727 5.545 1.639 8.436 1.62c2.891-.02 5.75-.609 8.413-1.734s5.079-2.764 7.108-4.823z" fill="url(#h)"/><path d="m748.129 216.404-25.103-24.794c-1.646-1.622-3.869-2.525-6.18-2.511-2.311.015-4.522.945-6.148 2.587-2.034 2.055-3.642 4.491-4.735 7.168-1.092 2.677-1.645 5.543-1.629 8.434s.602 5.75 1.725 8.415c1.122 2.664 2.758 5.081 4.815 7.113s4.494 3.638 7.173 4.727c2.678 1.089 5.544 1.639 8.436 1.62 2.891-.02 5.749-.609 8.413-1.734 2.663-1.125 5.078-2.764 7.108-4.824z" fill="url(#i)"/><path d="m795.249 305.63-.6 1.58c-2.82-1.07-5.553-2.143-8.2-3.22-46.88-19.13-69.26-41.52-84.23-84.02l-.01-.01c-.71-2-1.4-4.047-2.07-6.14l1.58-.51c.528 2.013 1.301 3.954 2.3 5.78.82 2.33 1.663 4.6 2.53 6.81 14.07 35.87 34.82 56.37 74.6 73.68 2 .87 4.05 1.733 6.15 2.59 2.439 1.589 5.126 2.758 7.95 3.46z" fill="#3f3d56"/><path d="m723.482 232.82-1.406 1.423 51.938 51.298 1.406-1.424z" fill="#3f3d56"/><path d="m283.765 190.315.026-32.863-19.317 1.726 6.817 20.727-24.747 37.514c-1.547.347-2.96 1.137-4.067 2.273-1.106 1.137-1.857 2.571-2.163 4.127-.305 1.556-.151 3.168.443 4.638.595 1.47 1.604 2.736 2.906 3.642 1.301.907 2.838 1.415 4.423 1.463 1.586.048 3.151-.366 4.504-1.192 1.354-.826 2.439-2.028 3.121-3.46.683-1.432.934-3.031.723-4.603z" fill="#ffb6b6"/></g></svg>