<svg fill="none" height="782" viewBox="0 0 628 782" width="628" xmlns="http://www.w3.org/2000/svg" xmlns:xlink="http://www.w3.org/1999/xlink"><filter id="a" color-interpolation-filters="sRGB" filterUnits="userSpaceOnUse" height="782" width="628" x="0" y="0"><feFlood flood-opacity="0" result="BackgroundImageFix"/><feColorMatrix in="SourceAlpha" result="hardAlpha" type="matrix" values="0 0 0 0 0 0 0 0 0 0 0 0 0 0 0 0 0 0 127 0"/><feOffset dy="4"/><feGaussianBlur stdDeviation="2"/><feComposite in2="hardAlpha" operator="out"/><feColorMatrix type="matrix" values="0 0 0 0 0 0 0 0 0 0 0 0 0 0 0 0 0 0 0.25 0"/><feBlend in2="BackgroundImageFix" mode="normal" result="effect1_dropShadow_50_16"/><feBlend in="SourceGraphic" in2="effect1_dropShadow_50_16" mode="normal" result="shape"/></filter><linearGradient id="b"><stop offset="0" stop-color="#84ccb8"/><stop offset="1" stop-color="#196072"/></linearGradient><linearGradient id="c" gradientUnits="userSpaceOnUse" x1="262.913" x2="262.913" xlink:href="#b" y1="270.889" y2="285.382"/><linearGradient id="d" gradientUnits="userSpaceOnUse" x1="262.934" x2="262.934" xlink:href="#b" y1="264.584" y2="277.205"/><linearGradient id="e" gradientUnits="userSpaceOnUse" x1="201.372" x2="220.258" xlink:href="#b" y1="281.826" y2="293.15"/><linearGradient id="f" gradientUnits="userSpaceOnUse" x1="220.935" x2="220.935" xlink:href="#b" y1="257.942" y2="283.851"/><linearGradient id="g" gradientUnits="userSpaceOnUse" x1="221.662" x2="240.548" xlink:href="#b" y1="248.34" y2="259.663"/><linearGradient id="h" gradientUnits="userSpaceOnUse" x1="476.302" x2="476.302" xlink:href="#b" y1="184.279" y2="238.733"/><clipPath id="i"><path d="m4 0h620v774h-620z"/></clipPath><g clip-path="url(#i)" filter="url(#a)"><path d="m511.442 192.541c-1.358-12.197-5.309-23.735-10.461-34.044-11.627-23.295-29.247-40.675-48.294-53.124-.184-.123-.383-.238-.555-.356 2.103-2.495 3.607-5.4389 4.395-8.6062 5.859-24.0297-33.658-54.3185-88.236-67.6445-43.8-10.6806-83.998-7.2046-101.201 7.0057-40.129-2.5267-81.994 22.1882-109.815 60.2559-9.944 13.6251-18.358 29.7181-22.049 47.9141-4.49 22.035-1.805 45.751 4.494 67.016 4.853 16.377 11.944 31.721 20.86 44.863.635.934 1.279 1.858 1.931 2.772 1.125 1.574 2.272 3.106 3.442 4.594 7.344 9.36 15.705 17.307 24.899 23.321 5.224 3.428 10.833 6.229 16.71 8.345 15.682 5.62 32.51 5.854 48.008 0 2.597-.979 5.131-2.118 7.588-3.41 1.362-.713 2.708-1.478 4.039-2.297 2.566-1.578 5.087-3.339 7.588-5.168 3.469-2.542 6.884-5.222 10.369-7.726l.298-.218c4.093-2.94 8.235-5.631 12.553-7.568 2.876-1.326 5.921-2.25 9.049-2.745 4.629-.659 9.347-.292 13.819 1.076.849.245 1.698.524 2.539.83 2.736 1.012 5.386 2.242 7.925 3.679 11.03 6.125 21.586 15.891 32.418 23.547 1.53 1.095 3.102 2.148 4.662 3.14 13.819 8.778 29.018 13.058 44.057 17.207 17.05 4.709 35.095 9.28 51.591 1.949 9.562-4.246 17.842-12.296 24.478-22.296 2.907-4.407 5.458-9.04 7.627-13.854 1.078-2.381 2.087-4.806 3.025-7.273 5.454-14.356 8.625-30.128 10.812-45.939 1.622-11.638 2.723-23.555 1.435-35.246z" fill="#196072" opacity=".1"/><g opacity=".1"><g fill="#3f3d56"><path d="m252.093 219.112c.119.341.241.67.383.992 2.521-1.978 4.964-4.02 7.328-6.125 1.413-.631 2.581-1.706 3.327-3.063.681-.643 1.358-1.301 2.027-1.956-.289-.325-.6-.631-.929-.915-2.264-1.987-5.064-2.821-7.623-1.975-2.558.846-4.306 3.185-4.945 6.125-.475 2.303-.326 4.691.432 6.917z"/><path d="m247.894 206.395c.716 2.233 2.013 4.235 3.759 5.8 2.265 1.979 5.061 2.817 7.623 1.967.176-.061.344-.126.52-.195 1.413-.63 2.582-1.706 3.328-3.062.513-.894.883-1.863 1.097-2.871.443-2.303.288-4.681-.448-6.908-.737-2.226-2.031-4.226-3.759-5.81-2.268-1.987-5.064-2.821-7.622-1.975-2.559.846-4.307 3.185-4.946 6.125-.472 2.308-.317 4.701.448 6.929z"/><path d="m255.06 201.469c4.387-1.451 6.404-7.287 4.506-13.034-1.898-5.748-6.992-9.23-11.378-7.779-4.387 1.451-6.404 7.286-4.506 13.034 1.898 5.747 6.992 9.23 11.378 7.779z"/><path d="m250.862 188.753c4.386-1.452 6.403-7.287 4.506-13.034-1.898-5.748-6.993-9.23-11.379-7.779s-6.403 7.286-4.505 13.034c1.897 5.747 6.992 9.23 11.378 7.779z"/><path d="m246.662 176.037c4.387-1.451 6.404-7.287 4.506-13.034s-6.992-9.23-11.379-7.779c-4.386 1.451-6.403 7.286-4.505 13.034 1.898 5.747 6.992 9.23 11.378 7.779z"/></g><path d="m244.218 68.7518c.631-1.7419 1.142-3.5249 1.53-5.3365l-22 3.476 22.624-7.3004c.605-5.431.098-10.9285-1.491-16.1567-1.588-5.2282-4.226-10.0772-7.75-14.2508l-25.082 25.7409 21.135-29.7834c-4.11-3.6568-8.929-6.4273-14.155-8.1392-5.227-1.7119-10.75-2.3285-16.225-1.8114-5.474.5171-10.784 2.1569-15.599 4.8172-4.814 2.6603-9.03 6.2842-12.384 10.6459-3.354 4.3618-5.776 9.3681-7.113 14.7071-1.338 5.3391-1.563 10.8966-.661 16.3264.901 5.4299 2.91 10.6159 5.901 15.235 2.99 4.6191 6.899 8.5726 11.483 11.614-.982 2.7115-1.668 5.5211-2.047 8.38l31.745 5.1221-32.085-.145c-.046 6.67 1.57 13.248 4.703 19.136s7.683 10.901 13.239 14.586c-2.558 7.076-3.075 14.729-1.491 22.085 1.583 7.356 5.202 14.118 10.443 19.512 5.242 5.394 11.894 9.203 19.196 10.992 7.303 1.788 14.96 1.484 22.098-.878s13.467-6.687 18.265-12.48 7.87-12.821 8.866-20.279c.996-7.459-.126-15.047-3.235-21.897-3.11-6.851-8.083-12.688-14.351-16.843 3.06-8.456 3.191-17.6975.371-26.2376-2.819-8.54-8.426-15.8832-15.918-20.8491z" fill="#196072"/><path d="m184.048 114.786c2.809 8.544 8.416 15.888 15.915 20.845-2.553 7.075-3.065 14.727-1.478 22.08 1.586 7.354 5.208 14.112 10.45 19.503s11.894 9.197 19.195 10.983 14.957 1.481 22.092-.882c7.136-2.362 13.464-6.686 18.26-12.478 4.797-5.792 7.869-12.817 8.866-20.273.997-7.457-.123-15.043-3.23-21.893s-8.077-12.687-14.341-16.844c2.949-8.165-77.129-5.332-75.729-1.041z" fill="#000" opacity=".1"/></g><path d="m281.432 110.782c-.952-1.945-1.308-4.139-1.652-6.29-2.019-12.702-3.909-26.4147 1.576-37.9261.864-1.8107 1.912-3.5717 3.442-4.8082 1.637-1.3207 3.668-1.9486 5.565-2.8061 5.507-2.4807 9.944-6.9329 14.786-10.6271s10.686-6.7759 16.618-5.8342c3.06.4862 5.89 2.0175 8.858 2.9784 8.384 2.718 18.061.9455 25.591 5.6581 2.72 1.7035 4.938 4.1344 7.118 6.5385l9.726 10.719c2.636 2.9018 5.321 5.8763 6.915 9.5131 1.595 3.6368 1.932 8.1196-.099 11.5114-1.021 1.7112-2.635 3.1927-2.811 5.2026-.191 2.182 1.392 4.0579 1.97 6.1636 1.529 5.562-4.081 10.336-9.199 12.533-15.463 6.623-32.475 5.861-48.845 5.589-12.189-.21-32.529 6.195-39.559-8.115z" fill="#3f3d56"/><path d="m308.932 138.31c-1.075 2.569-3.385 4.384-5.668 5.98-2.284 1.596-4.72 3.116-7.47 3.246 4.846 6.236 11.474 10.823 17.953 15.313 3.018 2.086 6.078 4.169 9.52 5.348 3.159 1.08 6.521 1.348 9.826 1.799 4.207.578 8.395 1.47 12.621 1.294 7.531-.314 14.733-4.115 19.728-9.765 4.995-5.651 7.856-13.016 8.628-20.531-2.677-.042-5.148-1.531-7.309-3.155-2.643-1.979-5.121-4.268-6.827-7.097-1.847-3.063-2.677-6.615-3.518-10.095-8.916-.268-17.831-.532-26.75-.36-3.248.061-6.502.188-9.669.995-3.018.766-9.321 2.741-11.161 5.463-1.059 1.57 0 3.185.383 4.877.489 2.225.612 4.548-.287 6.688z" fill="#be6f72"/><path d="m308.932 138.31c-1.075 2.569-3.385 4.384-5.668 5.98-2.284 1.596-4.72 3.116-7.47 3.246 4.846 6.236 11.474 10.823 17.953 15.313 3.018 2.086 6.078 4.169 9.52 5.348 3.159 1.08 6.521 1.348 9.826 1.799 4.207.578 8.395 1.47 12.621 1.294 7.531-.314 14.733-4.115 19.728-9.765 4.995-5.651 7.856-13.016 8.628-20.531-2.677-.042-5.148-1.531-7.309-3.155-2.643-1.979-5.121-4.268-6.827-7.097-1.847-3.063-2.677-6.615-3.518-10.095-8.916-.268-17.831-.532-26.75-.36-3.248.061-6.502.188-9.669.995-3.018.766-9.321 2.741-11.161 5.463-1.059 1.57 0 3.185.383 4.877.489 2.225.612 4.548-.287 6.688z" fill="#000" opacity=".1"/><path d="m319.018 148.888c2.551 3.173 5.178 6.412 8.674 8.494 1.067.632 2.26 1.149 3.5 1.107 1.835-.077 3.354-1.386 4.7-2.642 6.722-6.262 13.106-12.879 19.124-19.822 1.885-2.178 3.824-4.449 6.406-5.716 2.333 21.07 2.941 42.295 1.82 63.464.013.4-.08.796-.267 1.149-.402.608-1.243.697-1.974.723-21.59.812-44.045 1.463-63.819-7.273 1.373-4.077 1.148-8.487 1.282-12.79.218-7.056 1.442-14.042 3.132-20.883.83-3.358 1.775-6.684 2.777-9.992.834-2.771 1.468-7.656 3.331-9.75 4.284 3.828 7.715 9.452 11.314 13.931z" fill="#e3e8f4"/><path d="m328.82 159.147h2.678l6.884 11.485-7.267 17.992-8.797-17.609z" fill="#3f3d56"/><path d="m328.579 177.293c-2.489-3.636-4.205-7.746-5.041-12.074-.267-1.386-.447-2.799-.937-4.123-.726-1.964-2.096-3.61-3.331-5.306-4.581-6.29-7.531-13.619-8.586-21.331-.475-3.499-.792-7.507-3.615-9.624-1.774-1.328-4.138-1.531-6.356-1.493-8.58.215-16.797 3.506-23.155 9.276-1.057 1.049-2.175 2.036-3.347 2.955-1.201.822-2.482 1.52-3.824 2.083-3.389 1.531-6.931 2.802-10.622 3.189-.948.039-1.888.195-2.799.463-1.102.383-2.008 1.19-2.938 1.914-2.968 2.289-6.379 3.936-10.016 4.839-5.134 11.93-9.104 24.328-11.857 37.022-.692 3.159-1.312 6.34-2.257 9.433-1.304 4.288-3.224 8.376-4.505 12.671-5.094 17.093.256 35.714-3.174 53.213l183.99.252c-2.891-4.49-1.851-10.194-2.1-15.531-.233-4.915-1.48-9.72-2.344-14.566-1.446-8.104-1.817-16.366-1.966-24.596-.061-3.476-.065-7.067 1.277-10.271 2.521-6.015 9.061-9.188 15.253-11.229 2.96-.972 6.074-1.86 8.414-3.939 2.399-2.147 3.645-5.302 4.41-8.422-4.172-8.231-9.596-16.078-16.446-22.253-2.574-2.297-5.324-4.452-7.496-7.14-1.324-1.642-2.421-3.472-3.882-4.977-3.657-3.801-9.18-5.233-14.442-5.443-1.626-.065-3.274-.035-4.85-.44-4.521-1.149-7.401-5.57-11.474-7.86-2.834-1.583-6.143-2.091-9.321-1.432-2.295.479-4.643 1.842-5.159 4.108-.287 1.275.065 2.592.199 3.89.413 3.992-1.243 7.905-3.248 11.381-7.202 12.407-18.978 22.089-24.455 35.361z" fill="#171717"/><path d="m368.781 100.767c-.002 8.581-2.855 16.917-8.111 23.696s-12.615 11.616-20.919 13.748c-8.304 2.133-17.08 1.44-24.947-1.969-7.868-3.41-14.378-9.341-18.507-16.861s-5.641-16.201-4.298-24.6762c1.342-8.4748 5.463-16.2619 11.713-22.1349 6.25-5.8729 14.275-9.498 22.81-10.3043 8.534-.8063 17.095 1.252 24.332 5.8508 5.494 3.4906 10.018 8.3137 13.152 14.0217s4.776 12.1159 4.775 18.6289z" fill="#be6f72"/><path d="m499.203 273.718v-17.908h-338.615c.634.934 1.278 1.858 1.931 2.771.493 1.17 1.168 2.254 2 3.212.443.507.93.975 1.454 1.397 7.343 9.36 15.704 17.308 24.898 23.322 5.224 3.428 10.833 6.229 16.71 8.345h280.978z" fill="#3f3d56"/><path d="m337.384 235.329c-5.19-.414-10.587-1.708-15.475.084-1.666.666-3.247 1.529-4.708 2.572-5.28 3.548-10.142 7.68-14.496 12.319-1.258 1.337-2.49 2.745-3.262 4.414-1.09 2.355-1.186 5.038-1.912 7.53-.417 1.428-1.052 2.875-.8 4.342.253 1.466 1.943 2.779 3.209 1.998-.063.409-.036.827.081 1.223.117.397.319.764.594 1.073.274.309.613.554.993.717s.791.24 1.204.226c1.936-.067 3.805-.726 5.355-1.888.049.465.276.892.632 1.194.356.301.815.454 1.28.426 3.316-.219 6.476-1.914 9.313-3.767 3.332-2.159 6.64-4.617 10.541-5.36-2.4 1.096-4.514 2.732-6.177 4.782-.638.784-1.235 1.703-.531 2.917.42.681 1.068 1.192 1.828 1.443 4.368 1.531 9.114-1.003 12.029-4.517 1.174-1.421 2.21-3.063 3.824-3.924 2.597-1.397 5.799-.417 8.721-.823 3.243-.444 5.97-2.561 8.949-3.928 3.967-1.815 8.388-2.297 12.622-3.376.508-.075.977-.317 1.331-.69.264-.441.379-.957.325-1.47-.019-5.243-.414-10.478-1.182-15.665-.064-.835-.319-1.645-.746-2.365-.833-1.187-2.417-1.532-3.844-1.769-2.294-.383-4.868-1.24-7.178-1.233-2.219 0-4.357 1.256-6.472 1.872-5.206 1.513-10.644 2.07-16.048 1.643z" fill="#be6f72"/><path d="m361.579 228.426c-5.734.603-11.126 3.016-15.398 6.891 4.769-1.206 9.902-2.396 14.499-.651 2.239.851 4.176 2.348 5.564 4.302 1.388 1.953 2.165 4.275 2.233 6.672.068 2.396-.576 4.759-1.851 6.788s-3.124 3.634-5.311 4.61c.929 1.046 2.295 1.558 3.653 1.953 9.81 2.863 20.312 1.148 30.345-.804 1.835-.356 3.824-.827 4.945-2.339.998-1.367.968-3.208.88-4.904-.257-4.896-.681-9.953-2.899-14.314-3.007-5.918-8.227-8.123-14.515-7.438-7.397.789-14.741-1.516-22.145-.766z" fill="#e3e8f4"/><path d="m423.998 165.701c3.17 3.021 5.458 6.833 7.557 10.677 7.114 13.013 12.565 26.87 16.225 41.245.359 1.413.715 2.864 1.556 4.054 1.224 1.727 3.301 2.68 4.636 4.311 1.602 1.983 1.912 4.777 1.384 7.273-.527 2.496-1.786 4.774-3.059 6.983-3.485 6.041-7.596 12.277-13.995 15.037-2.677 1.149-5.603 1.623-8.498 2.002-10.875 1.432-21.864 1.788-32.809 1.061 1.913-2.221 2.096-5.498 1.419-8.35s-2.088-5.466-3.059-8.226c-.765-2.156-1.305-4.453-2.647-6.306-.99-1.271-2.209-2.345-3.595-3.165-3.15-2.002-6.693-3.302-10.388-3.813 2.742-2.144 6.295-2.856 9.638-3.829 3.343-.972 6.839-2.465 8.59-5.474 1.052-1.803 1.343-3.943 1.484-6.025.427-6.267-.304-12.559-2.157-18.56-1.231-3.992-2.975-8.165-1.912-12.2.543-2.037 1.763-3.828 2.96-5.543 2.333-3.369 4.75-6.818 8.154-9.092 2.938-1.964 6.43-2.887 9.925-3.132 2.62-.172 6.602-.808 8.591 1.072z" fill="#171717"/><path d="m286.366 283.036c-.03 3.996-10.889 8.422-23.453 8.422s-23.051-4.414-23.219-8.422c-.586-13.9 10.651-6.076 23.219-6.076s23.568-9.926 23.453 6.076z" fill="#3f3d56"/><path d="m286.366 283.036c-.03 3.996-10.889 8.422-23.453 8.422s-23.051-4.414-23.219-8.422c-.586-13.9 10.651-6.076 23.219-6.076s23.568-9.926 23.453 6.076z" fill="#000" opacity=".2"/><path d="m285.666 276.96c0 4.001-10.189 8.422-22.753 8.422s-22.753-4.41-22.753-8.422 10.185-6.071 22.753-6.071 22.753 2.075 22.753 6.071z" fill="url(#c)"/><path d="m281.23 275.383c-.023 3.12-8.491 6.558-18.294 6.558-9.802 0-17.976-3.445-18.113-6.558-.456-10.841 8.311-4.739 18.113-4.739 9.803 0 18.386-7.741 18.294 4.739z" fill="#3f3d56"/><path d="m281.23 275.383c-.023 3.12-8.491 6.558-18.294 6.558-9.802 0-17.976-3.445-18.113-6.558-.456-10.841 8.311-4.739 18.113-4.739 9.803 0 18.386-7.741 18.294 4.739z" fill="#000" opacity=".2"/><path d="m280.683 269.874c0 3.488-7.944 7.331-17.747 7.331s-17.75-3.828-17.75-7.331c0-3.502 7.947-5.29 17.75-5.29s17.747 1.799 17.747 5.29z" fill="url(#d)"/><path d="m220.402 292.997s3.358-3.706 3.935-7.871c.578-4.165-16.408-10.562-16.408-10.562s-5.89 3.445-6.088 6.673c0 0 11.275 12.127 18.561 11.76z" fill="#3f3d56"/><path d="m220.402 292.997s3.358-3.706 3.935-7.871c.578-4.165-16.408-10.562-16.408-10.562s-5.89 3.445-6.088 6.673c0 0 11.275 12.127 18.561 11.76z" fill="#000" opacity=".2"/><path d="m220.248 293.165c1.05-1.751-2.324-5.709-7.537-8.84-5.212-3.131-10.289-4.25-11.339-2.499s2.324 5.709 7.537 8.841c5.212 3.131 10.289 4.249 11.339 2.498z" fill="url(#e)"/><path d="m224.575 283.851 9.661-16.12-9.826-8.354-7.661-1.435-2.39 4.314-6.724 12.488z" fill="url(#f)"/><path d="m234.366 269.319s6.525-6.94 4.849-10.692c-1.675-3.752-10.521-11.27-16.155-10.126-5.634 1.145-6.536 9.46-6.536 9.46z" fill="#3f3d56"/><path d="m234.366 269.319s6.525-6.94 4.849-10.692c-1.675-3.752-10.521-11.27-16.155-10.126-5.634 1.145-6.536 9.46-6.536 9.46z" fill="#000" opacity=".2"/><path d="m160.148 238.82 49.977 30.427s4.75-.617 4.234-6.983l-49.499-30.756c-1.008-.627-2.202-.884-3.377-.727-1.354.183-2.957.677-3.477 1.967-.133.329-.226.672-.275 1.023-.14.986.015 1.992.445 2.89.43.899 1.116 1.65 1.972 2.159z" fill="#3f3d56"/><path d="m160.148 238.82 49.977 30.427s4.75-.617 4.234-6.983l-49.499-30.756c-1.008-.627-2.202-.884-3.377-.727-1.354.183-2.957.677-3.477 1.967-.133.329-.226.672-.275 1.023-.14.986.015 1.992.445 2.89.43.899 1.116 1.65 1.972 2.159z" fill="#000" opacity=".2"/><path d="m224.567 286.121c.261-.015.51-.113.712-.279.202-.167.345-.393.409-.647.244-.862-.203-1.688-.674-2.378-.84-1.229-1.888-2.302-3.098-3.169-2.034-1.474-4.008-3.136-6.31-4.211-1.333-.594-2.729-1.035-4.162-1.313-1.073-.247-2.172-.368-3.273-.36-.196.005-.385.07-.543.186-.158.115-.277.276-.341.461-.065.185-.071.385-.019.573.052.189.16.358.31.483.509.338 1.077.577 1.675.705 2.979.876 5.737 2.396 8.319 4.123 1.39.895 2.693 1.921 3.889 3.062.796.789 1.813 2.795 3.106 2.764z" fill="#3f3d56"/><path d="m224.567 286.121c.261-.015.51-.113.712-.279.202-.167.345-.393.409-.647.244-.862-.203-1.688-.674-2.378-.84-1.229-1.888-2.302-3.098-3.169-2.034-1.474-4.008-3.136-6.31-4.211-1.333-.594-2.729-1.035-4.162-1.313-1.073-.247-2.172-.368-3.273-.36-.196.005-.385.07-.543.186-.158.115-.277.276-.341.461-.065.185-.071.385-.019.573.052.189.16.358.31.483.509.338 1.077.577 1.675.705 2.979.876 5.737 2.396 8.319 4.123 1.39.895 2.693 1.921 3.889 3.062.796.789 1.813 2.795 3.106 2.764z" fill="#000" opacity=".2"/><path d="m232.545 270.552s4.903.119.846-4.816c-4.058-4.935-11.318-9.831-16.485-8.725 0 0-2.142 1.777-.291 2.083 1.756.291 9.945 1.914 13.708 6.481.412.496.872.95 1.373 1.355.884.72 2.073 2.083.849 3.622z" fill="#3f3d56"/><path d="m232.545 270.552s4.903.119.846-4.816c-4.058-4.935-11.318-9.831-16.485-8.725 0 0-2.142 1.777-.291 2.083 1.756.291 9.945 1.914 13.708 6.481.412.496.872.95 1.373 1.355.884.72 2.073 2.083.849 3.622z" fill="#000" opacity=".2"/><path d="m240.538 259.679c1.05-1.752-2.324-5.709-7.537-8.841-5.212-3.131-10.289-4.25-11.339-2.498-1.05 1.751 2.324 5.709 7.537 8.84s10.289 4.25 11.339 2.499z" fill="url(#g)"/><path d="m208.17 258.413c-.066.891-.349 1.753-.825 2.51-.477.757-1.131 1.386-1.905 1.831-2.567 1.37-6.17.149-7.378-2.5-.627-1.378-.639-2.925-.765-4.445-.041-.495-.108-.988-.199-1.477-.382-1.972-2.012-4.066-3.982-3.675-1.625.317-2.482 2.143-2.677 3.79-.05.452-.076.907-.076 1.362 0 .475.019.95.046 1.425.053.972.137 1.948.133 2.92 0 1.915-.413 3.947-1.793 5.26-1.676 1.597-4.246 1.67-6.563 1.643-5.657-.058-11.953-.383-16.21-3.867-.524-.423-1.01-.89-1.453-1.397-.832-.958-1.507-2.042-2-3.212-.379-.893-.67-1.822-.868-2.772-.635-2.966-.494-6.201.026-9.21.337-1.968.987-4.123 2.425-5.379.343-.299.73-.544 1.148-.723.688-.291 1.468-.383 2.069-.839.6-.455.99-1.282 1.625-1.78 1.274-.999 3.209-.57 4.701-.907h.065l.08-.023c1.61-.383 3.098-1.263 4.617-1.914.654-.28 1.308-.548 1.965-.785 1.638-.655 3.407-.917 5.164-.766 5.737.655 12.621 4.139 16.549 8.319.968.962 1.721 2.118 2.211 3.392.321 1.068.498 2.174.528 3.288.103 1.574.187 3.143.967 4.487.475.812 1.171 1.474 1.664 2.297.114.185.214.378.298.578.351.808.493 1.691.413 2.569z" fill="#be6f72"/><path d="m195.553 239.517c2.337 1.209 4.635 2.576 6.471 4.459 1.836 1.884 3.19 4.353 3.297 6.987 1.605-1.943 2.981-4.064 4.104-6.32.887-1.781 1.618-3.886.83-5.716-.377-.775-.906-1.465-1.557-2.029-3.442-3.262-8.07-5.065-12.751-5.803-5.06-.801-15.169-2.546-15.945 4.827 5.668-.268 10.487.984 15.551 3.595z" fill="#e3e8f4"/><path d="m258.247 145.243c-3.744 1.619-8.127.475-12.086 1.455-2.922.723-5.435 2.557-7.806 4.414-4.727 3.698-9.386 7.832-11.914 13.28-.826 1.784-1.415 3.679-2.406 5.359-1.602 2.741-4.161 4.782-6.827 6.508-6.812 4.395-14.721 7.144-20.783 12.526-2.593 2.297-4.777 5.023-6.808 7.829-2.387 3.292-4.67 6.967-4.716 11.033 0 1.592.314 3.208 0 4.774-.673 3.502-4.207 5.677-5.802 8.869-1.53 3.044-1.166 6.803-2.868 9.743-1.117 1.914-3.141 3.828-2.502 5.942 4.689-3.526 10.327-4.977 16.064-3.829 2.872.571 5.553 1.853 8.124 3.258 2.979 1.631 5.916 3.484 8.07 6.125 2.153 2.642 3.442 6.156 2.677 9.468 3.102-1.532 4.938-4.801 6.211-8.017 1.274-3.215 2.245-6.649 4.36-9.371 1.09-1.405 2.444-2.573 3.733-3.794 7.156-6.787 12.316-15.363 17.38-23.827 5.222-8.723 10.441-17.451 15.658-26.185 1.446-2.423 2.899-4.861 3.943-7.48 3.507-8.805 1.236-19.087-1.702-28.08z" fill="#171717"/><path d="m476.725 262.183c12.042 0 21.805-1.878 21.805-4.195 0-2.318-9.763-4.196-21.805-4.196s-21.805 1.878-21.805 4.196c0 2.317 9.763 4.195 21.805 4.195z" fill="#196072"/><g fill="#3f3d56"><path d="m476.358 259.534c1.402 0 2.539-1.489 2.539-3.326 0-1.838-1.137-3.327-2.539-3.327-1.403 0-2.54 1.489-2.54 3.327 0 1.837 1.137 3.326 2.54 3.326z"/><path d="m476.358 255.465c1.402 0 2.539-1.489 2.539-3.327 0-1.837-1.137-3.326-2.539-3.326-1.403 0-2.54 1.489-2.54 3.326 0 1.838 1.137 3.327 2.54 3.327z"/><path d="m476.358 251.399c1.402 0 2.539-1.489 2.539-3.326 0-1.838-1.137-3.327-2.539-3.327-1.403 0-2.54 1.489-2.54 3.327 0 1.837 1.137 3.326 2.54 3.326z"/><path d="m476.358 247.334c1.402 0 2.539-1.49 2.539-3.327s-1.137-3.327-2.539-3.327c-1.403 0-2.54 1.49-2.54 3.327s1.137 3.327 2.54 3.327z"/><path d="m476.358 243.268c1.402 0 2.539-1.489 2.539-3.327 0-1.837-1.137-3.326-2.539-3.326-1.403 0-2.54 1.489-2.54 3.326 0 1.838 1.137 3.327 2.54 3.327z"/><path d="m476.358 239.203c1.402 0 2.539-1.49 2.539-3.327s-1.137-3.327-2.539-3.327c-1.403 0-2.54 1.49-2.54 3.327s1.137 3.327 2.54 3.327z"/><path d="m476.358 235.137c1.402 0 2.539-1.489 2.539-3.327 0-1.837-1.137-3.326-2.539-3.326-1.403 0-2.54 1.489-2.54 3.326 0 1.838 1.137 3.327 2.54 3.327z"/></g><path d="m485.866 203.983c.346-.441.662-.905.944-1.389l-6.67-1.099 7.214.053c.691-1.507 1.069-3.139 1.109-4.797s-.258-3.307-.876-4.846l-9.68 5.027 8.926-6.57c-.835-1.447-1.96-2.707-3.303-3.701-1.344-.993-2.878-1.699-4.506-2.074-1.628-.374-3.315-.408-4.957-.101s-3.203.95-4.586 1.888c-1.383.937-2.559 2.15-3.453 3.563-.894 1.412-1.488 2.993-1.744 4.646-.257 1.652-.17 3.339.253 4.957.424 1.617 1.176 3.129 2.209 4.443-.538.689-1.002 1.434-1.384 2.221l8.659 4.505-9.241-3.104c-.648 1.918-.809 3.968-.467 5.963.342 1.996 1.176 3.875 2.425 5.468-1.41 1.796-2.287 3.952-2.531 6.224-.243 2.271.156 4.565 1.154 6.619.997 2.055 2.552 3.787 4.486 4.999 1.935 1.212 4.171 1.855 6.453 1.855s4.519-.643 6.453-1.855c1.935-1.212 3.489-2.944 4.487-4.999.997-2.054 1.397-4.348 1.153-6.619-.243-2.272-1.121-4.428-2.531-6.224 1.685-2.147 2.601-4.797 2.601-7.527 0-2.729-.916-5.38-2.601-7.526z" fill="url(#h)"/><path d="m464.146 211.51c-.005 2.73.911 5.382 2.6 7.526-1.41 1.796-2.287 3.952-2.531 6.224-.244 2.271.156 4.565 1.153 6.62.998 2.054 2.553 3.786 4.487 4.998 1.935 1.212 4.171 1.855 6.453 1.855s4.518-.643 6.453-1.855c1.934-1.212 3.489-2.944 4.487-4.998.997-2.055 1.397-4.349 1.153-6.62-.244-2.272-1.121-4.428-2.531-6.224 1.625-2.071-21.724-8.893-21.724-7.526z" fill="#000" opacity=".1"/><path d="m311.028 83.8847c2.677 1.0337 5.289 2.519 8.162 2.7142 3.645.245 7.087-1.6155 10.709-2.1285 6.636-.9379 12.935 2.6798 19.169 5.1375s14.266 3.476 18.837-1.4279c3.882-4.1689 3.346-11.1018.225-15.8488s-8.219-7.8172-13.26-10.4625c-5.561-2.9171-11.359-5.57-17.551-6.5998-13.142-2.1783-26.494 3.2616-37.398 10.9219-3.618 2.5419-7.194 5.5088-8.923 9.5705-.979 2.2969-1.285 5.237-.432 7.6296 1.4 3.9354 2.317 3.4683 5.22 2.4424 5.546-1.9524 8.824-4.4063 15.242-1.9486z" fill="#3f3d56"/><path d="m557.993 753-18.972-.002-9.021-73.998 28 .002z" fill="#ffb8b8"/><path d="m525.182 747h36.818v23h-60c0-3.02.6-6.011 1.765-8.802 1.165-2.79 2.872-5.326 5.025-7.461 2.152-2.136 4.708-3.83 7.52-4.986 2.813-1.156 5.828-1.751 8.872-1.751z" fill="#2f2e41"/><path d="m481.993 753-18.972-.002-9.021-73.998 28 .002z" fill="#ffb8b8"/><path d="m449.182 747h36.818v23h-60c0-3.02.6-6.011 1.765-8.802 1.165-2.79 2.872-5.326 5.025-7.461 2.152-2.136 4.708-3.83 7.52-4.986 2.813-1.156 5.828-1.751 8.872-1.751z" fill="#2f2e41"/><path d="m572.982 498.758c-1.51-1.693-2.636-3.702-3.299-5.886-.663-2.183-.846-4.487-.537-6.75.309-2.262 1.104-4.429 2.327-6.346 1.223-1.918 2.846-3.54 4.754-4.752l-5.813-35.218 20.222-8.806 7.52 49.852c1.794 3.388 2.301 7.327 1.425 11.069s-3.074 7.028-6.177 9.235-6.896 3.182-10.659 2.74c-3.764-.442-7.238-2.27-9.763-5.138z" fill="#ffb8b8"/><path d="m411.639 481.561c1.799-1.412 3.265-3.199 4.293-5.235 1.029-2.035 1.595-4.269 1.659-6.546.065-2.276-.374-4.538-1.286-6.628-.912-2.089-2.274-3.955-3.99-5.465l11.685-33.65-18.867-12.037-15.83 47.75c-2.364 3.031-3.527 6.818-3.267 10.643.259 3.825 1.924 7.423 4.677 10.111s6.404 4.281 10.261 4.476c3.856.195 7.651-1.022 10.665-3.419z" fill="#ffb8b8"/><path d="m509 233c22.644 0 41-18.356 41-41s-18.356-41-41-41-41 18.356-41 41 18.356 41 41 41z" fill="#ffb8b8"/><path d="m410.474 457c-.703 0-1.403-.099-2.08-.294l-11.956-3.433c-1.909-.552-3.523-1.837-4.489-3.574s-1.206-3.785-.668-5.699l24.675-87.127 34.409-84.477c3.421-8.398 10.569-13.906 18.655-14.373 3.693-.181 7.359.714 10.554 2.575 3.195 1.86 5.782 4.608 7.447 7.909 1.851 3.533 2.867 7.444 2.97 11.431.104 3.988-.709 7.946-2.374 11.57l-39.11 85.538-31.092 75.304c-.567 1.375-1.529 2.551-2.764 3.379-1.236.828-2.689 1.27-4.177 1.271z" fill="#3f3d56"/><path d="m532.075 226.592-22.745.405c-2.37.047-4.717-.465-6.852-1.495-2.136-1.029-4-2.548-5.443-4.432-1.443-1.885-2.424-4.083-2.864-6.418s-.326-4.74.332-7.023c.486-1.649.851-3.332 1.092-5.034.256-1.857.306-3.737.15-5.604-.145-1.871-.918-3.637-2.195-5.008-1.276-1.372-2.98-2.268-4.831-2.542-1.851-.273-3.74.092-5.357 1.036s-2.866 2.411-3.542 4.16c-3.824.055-11.972-1.195-15.797-1.141-8.12-20.872 9.576-48.183 28.625-58.442 19.419-10.458 44.627.182 52.071 21.978 10.331.186 18.725 10.402 20.056 21.902 1.332 11.5-3.387 23.509-10.606 32.323-7.218 8.814-16.696 15.238-22.094 15.335z" fill="#2f2e41"/><path d="m457.805 746c-1.835-.01-3.602-.698-4.966-1.932-1.365-1.234-2.232-2.93-2.437-4.765l-8.402-284.303 105.845 7.583.082.685c23.919 201.514 15.743 271.271 15.657 271.952-.059 1.031-.328 2.038-.791 2.96s-1.11 1.737-1.9 2.396c-.791.658-1.707 1.146-2.693 1.432s-2.02.364-3.038.23l-23.391.565c-1.773-.202-3.416-1.037-4.631-2.353-1.214-1.316-1.919-3.027-1.988-4.822l-21.856-205.918c-.135-.535-.453-1.005-.898-1.327-.445-.323-.988-.477-1.535-.437-.563-.002-1.109.193-1.544.552-.436.359-.734.859-.844 1.414l-8.444 206.593c.09 1.917-.556 3.797-1.804 5.248-1.248 1.452-3.003 2.365-4.902 2.552l-24.778 1.657c-.246.025-.494.038-.742.038z" fill="#2f2e41"/><path d="m502.102 489c-.637 0-1.273-.01-1.911-.029-30.616-.919-54.569-24.017-61.181-31.074-.842-.9-1.448-1.994-1.763-3.184-.314-1.19-.329-2.439-.042-3.636l17.662-74.507-4.686-64.775c-.735-8.99.447-18.034 3.469-26.535 3.023-8.501 7.817-16.268 14.067-22.788 5.209-5.487 11.539-9.792 18.562-12.625 7.024-2.834 14.576-4.128 22.145-3.796 29.803 1.418 53.316 27.982 53.529 60.473.329 50.324-1.156 53.782-1.644 54.918-14.874 34.615-6.751 83.204-3.907 97.272.254 1.255.183 2.554-.208 3.774s-1.087 2.32-2.024 3.196c-16.358 15.477-33.868 23.315-52.068 23.316z" fill="#3f3d56"/><path d="m578.335 470c-1.681-.001-3.312-.578-4.626-1.636-1.315-1.057-2.234-2.534-2.609-4.187l-18.033-79.26-24.168-90.594c-1.032-3.841-1.178-7.87-.425-11.777.752-3.907 2.382-7.588 4.765-10.759 2.165-2.973 5.137-5.249 8.557-6.554 3.42-1.304 7.141-1.581 10.714-.797 7.811 1.794 13.884 8.392 15.85 17.221l19.747 88.713 9.85 89.899c.212 1.971-.358 3.948-1.584 5.498s-3.01 2.548-4.962 2.776l-12.224 1.407c-.283.033-.567.05-.852.05z" fill="#3f3d56"/><path d="m279.966 318.085c10.724-3.548 17.59-11.966 15.335-18.802-2.255-6.837-12.776-9.501-23.503-5.95-4.305 1.359-8.222 3.731-11.423 6.918l-45.249 15.606 7.763 21.114 43.783-17.627c4.469.65 9.027.218 13.294-1.259z" fill="#ffb6b6"/><path d="m47.3673 439.099c.3662 11.307 6.4871 20.283 13.6707 20.048 7.1836-.234 12.7082-9.59 12.3405-20.901-.0851-4.52-1.2495-8.955-3.3961-12.932l-2.1552-47.889-22.413 1.492 4.5042 47.052c-1.8849 4.11-2.7597 8.612-2.5511 13.13z" fill="#ffb6b6"/><path d="m99.1112 761.782 20.0058-.002 5.126-77.81-25.1358.513z" fill="#ffb6b6"/><path d="m167.654 761.327c.623 1.051.951 4.443.951 5.665 0 3.756-3.039 6.802-6.79 6.802h-61.9553c-2.5583 0-4.6323-2.078-4.6323-4.64v-2.584s-3.0648-7.766 3.2452-17.338c0 0 7.8424 7.495 19.5614-4.244l3.456-6.271 25.015 18.326 13.865 1.71c3.034.374 5.723-.058 7.284 2.574z" fill="#2f2e41"/><path d="m146.535 761.782 20.006-.002 5.126-77.81-25.136.513z" fill="#ffb6b6"/><path d="m215.078 761.327c.622 1.051.951 4.443.951 5.665 0 3.756-3.04 6.802-6.79 6.802h-61.956c-2.558 0-4.632-2.078-4.632-4.64v-2.584s-3.065-7.766 3.245-17.338c0 0 7.843 7.495 19.562-4.244l3.455-6.271 25.016 18.326 13.865 1.71c3.033.374 5.723-.058 7.284 2.574z" fill="#2f2e41"/><path d="m110.753 182.226c16.253 0 29.429-13.198 29.429-29.479s-13.176-29.479-29.429-29.479c-16.2531 0-29.4289 13.198-29.4289 29.479s13.1758 29.479 29.4289 29.479z" fill="#ffb6b6"/><path d="m70.0339 397.95 13.832 197.937 7.9039 132.619 37.5442-1.98-3.952-144.494 7.904-89.072 11.856 233.566h29.881l11.614-326.597-64.219-8.907z" fill="#2f2e41"/><path d="m121.41 176.259c-8.37 8.071-27.7139 2.72-37.5442 0-5.411-1.497-8.6765-3.039-9.88-5.938-.8365-2.015-.3612-3.925-1.976-7.918-.9457-2.338-1.4446-2.512-1.9759-3.958-1.4814-4.031.5762-7.622 1.9759-11.877 2.9207-8.878-.5664-9.874 1.976-15.835 3.8223-8.96 14.2196-12.606 17.7839-13.855 6.6548-2.334 12.2053-2.087 13.8323-1.98 10.424.688 17.393 6.046 19.76 7.918 4.797 3.794 7.15 7.808 11.856 15.835 4.095 6.985 4.393 9.666 3.952 11.876-.673 3.369-2.613 3.381-3.952 7.918-1.521 5.149.209 7.737-1.976 9.897-1.478 1.459-2.85.852-5.928 1.979-4.237 1.551-6.328 4.419-7.904 5.938z" fill="#2f2e41"/><path d="m145.122 205.95s-29.64-37.608-67.1842-23.753l-12.1593 23.753-4.0624 3.852c-17.0413 16.159-24.9699 39.733-21.1637 62.927l17.6255 107.406s-1.976 41.567 11.856 53.443c0 0 19.7599-37.608 67.1841-19.793 47.423 17.814 57.303 7.917 57.303 7.917l-15.808-112.824z" fill="#2f2e41"/><path d="m135.242 211.888-9.88 21.773 37.544 126.68 102.751-37.608-13.832-23.752-49.4 13.855s-37.543-110.845-67.183-100.948z" fill="#2f2e41"/><path d="m65.094 410.816h-21.7359l-3.952-158.351 25.6879 53.444z" fill="#2f2e41"/></g></svg>