<svg fill="none" height="434" viewBox="0 0 493 434" width="493" xmlns="http://www.w3.org/2000/svg" xmlns:xlink="http://www.w3.org/1999/xlink"><filter id="a" color-interpolation-filters="sRGB" filterUnits="userSpaceOnUse" height="434" width="493" x="0" y="0"><feFlood flood-opacity="0" result="BackgroundImageFix"/><feColorMatrix in="SourceAlpha" result="hardAlpha" type="matrix" values="0 0 0 0 0 0 0 0 0 0 0 0 0 0 0 0 0 0 127 0"/><feOffset dy="4"/><feGaussianBlur stdDeviation="2"/><feColorMatrix type="matrix" values="0 0 0 0 0 0 0 0 0 0 0 0 0 0 0 0 0 0 0.25 0"/><feBlend in2="BackgroundImageFix" mode="normal" result="effect1_dropShadow_40_211"/><feBlend in="SourceGraphic" in2="effect1_dropShadow_40_211" mode="normal" result="shape"/></filter><filter id="b" color-interpolation-filters="sRGB" filterUnits="userSpaceOnUse" height="130.454" width="31.0391" x="395.329" y="70.606"><feFlood flood-opacity="0" result="BackgroundImageFix"/><feColorMatrix in="SourceAlpha" result="hardAlpha" type="matrix" values="0 0 0 0 0 0 0 0 0 0 0 0 0 0 0 0 0 0 127 0"/><feOffset dy="4"/><feGaussianBlur stdDeviation="2"/><feComposite in2="hardAlpha" operator="out"/><feColorMatrix type="matrix" values="0 0 0 0 0 0 0 0 0 0 0 0 0 0 0 0 0 0 0.25 0"/><feBlend in2="BackgroundImageFix" mode="normal" result="effect1_dropShadow_40_211"/><feBlend in="SourceGraphic" in2="effect1_dropShadow_40_211" mode="normal" result="shape"/></filter><filter id="c" color-interpolation-filters="sRGB" filterUnits="userSpaceOnUse" height="180.902" width="85.381" x="402.845" y="58.6089"><feFlood flood-opacity="0" result="BackgroundImageFix"/><feColorMatrix in="SourceAlpha" result="hardAlpha" type="matrix" values="0 0 0 0 0 0 0 0 0 0 0 0 0 0 0 0 0 0 127 0"/><feOffset dx="-4" dy="4"/><feGaussianBlur stdDeviation="2"/><feComposite in2="hardAlpha" operator="out"/><feColorMatrix type="matrix" values="0 0 0 0 0 0 0 0 0 0 0 0 0 0 0 0 0 0 0.29 0"/><feBlend in2="BackgroundImageFix" mode="normal" result="effect1_dropShadow_40_211"/><feBlend in="SourceGraphic" in2="effect1_dropShadow_40_211" mode="normal" result="shape"/></filter><filter id="d" color-interpolation-filters="sRGB" filterUnits="userSpaceOnUse" height="184.893" width="41.2484" x="373.208" y="63.9585"><feFlood flood-opacity="0" result="BackgroundImageFix"/><feColorMatrix in="SourceAlpha" result="hardAlpha" type="matrix" values="0 0 0 0 0 0 0 0 0 0 0 0 0 0 0 0 0 0 127 0"/><feOffset dx="3" dy="4"/><feGaussianBlur stdDeviation="2"/><feComposite in2="hardAlpha" operator="out"/><feColorMatrix type="matrix" values="0 0 0 0 0 0 0 0 0 0 0 0 0 0 0 0 0 0 0.4 0"/><feBlend in2="BackgroundImageFix" mode="normal" result="effect1_dropShadow_40_211"/><feBlend in="SourceGraphic" in2="effect1_dropShadow_40_211" mode="normal" result="shape"/></filter><linearGradient id="e" gradientUnits="userSpaceOnUse" x1="410.849" x2="410.849" y1="70.606" y2="193.06"><stop offset="0" stop-color="#84ccb8"/><stop offset="1" stop-color="#196072"/></linearGradient><linearGradient id="f"><stop offset=".0001" stop-color="#196072"/><stop offset=".979167" stop-color="#84ccb8"/></linearGradient><linearGradient id="g" gradientUnits="userSpaceOnUse" x1="28.876" x2="97.2127" xlink:href="#f" y1="94.8841" y2="94.8841"/><linearGradient id="h" gradientUnits="userSpaceOnUse" x1="40.7956" x2="160.607" xlink:href="#f" y1="137.867" y2="137.868"/><linearGradient id="i" gradientUnits="userSpaceOnUse" x1="39.846" x2="160.544" xlink:href="#f" y1="202.867" y2="202.868"/><linearGradient id="j" gradientUnits="userSpaceOnUse" x1="39.846" x2="160.544" xlink:href="#f" y1="169.876" y2="169.876"/><linearGradient id="k" gradientUnits="userSpaceOnUse" x1="37.9264" x2="107.151" xlink:href="#f" y1="240.884" y2="240.884"/><clipPath id="l"><path d="m0 0h485v426h-485z" transform="matrix(-1 0 0 1 489 0)"/></clipPath><g clip-path="url(#l)" filter="url(#a)"><path d="m369.664 233.925c-1.214 6.399-5.543 10.549-9.671 9.266-4.129-1.283-6.491-7.515-5.277-13.914.452-2.565 1.515-4.919 3.101-6.843l5.478-27.013 12.809 4.437-6.764 26.16c.726 2.648.833 5.364.309 7.907z" fill="#f8a8ab"/><path d="m398.532 411.536h-15.034v-22.418h15.034z" fill="#f8a8ab"/><path d="m385.164 424.378c2.57.241 15.436 1.313 16.082-1.789.589-2.844-.28-5.817-.402-6.224-1.235-12.933-1.694-13.077-1.974-13.16-.438-.135-1.716.506-3.791 1.909l-.129.091-.029.158c-.036.204-.955 4.95-5.313 4.218-2.986-.498-3.956-1.192-4.264-1.531.251-.121.567-.332.789-.695.323-.528.381-1.207.165-2.022-.56-2.15-2.24-5.327-2.311-5.455l-.194-.362-17.087 12.118-10.554 3.169c-.797.241-1.436.837-1.759 1.637-.445 1.117-.173 2.415.689 3.229 1.917 1.811 5.722 4.912 9.721 5.297 1.063.106 2.47.144 4.049.144 6.598 0 16.233-.717 16.305-.732z" fill="#2f2e43"/><path d="m440.181 411.536h-15.034v-22.418h15.034z" fill="#f8a8ab"/><path d="m426.813 424.378c2.57.241 15.436 1.313 16.082-1.789.588-2.844-.28-5.817-.402-6.224-1.235-12.933-1.695-13.077-1.975-13.16-.438-.135-1.716.506-3.791 1.909l-.129.091-.028.158c-.036.204-.955 4.95-5.313 4.218-2.987-.498-3.956-1.192-4.265-1.531.251-.121.567-.332.79-.695.323-.528.38-1.207.165-2.022-.56-2.15-2.24-5.327-2.312-5.455l-.194-.362-17.087 12.118-10.554 3.169c-.797.241-1.436.837-1.759 1.637-.445 1.117-.172 2.415.689 3.229 1.917 1.811 5.722 4.912 9.721 5.297 1.063.106 2.47.144 4.05.144 6.598 0 16.233-.717 16.304-.732z" fill="#2f2e43"/><path d="m427.997 76.6648-23.312 8.0509v-35.267h21.151z" fill="#f8a8ab"/><path d="m407.571 59.2125c-12.827 0-23.225-10.9284-23.225-24.4092 0-13.4809 10.398-24.4093 23.225-24.4093 12.828 0 23.226 10.9284 23.226 24.4093 0 13.4808-10.398 24.4092-23.226 24.4092z" fill="#f8a8ab"/><path d="m413.487 36.7122-3.202 4.082-5.794-10.654s-7.395.3999-7.395-5.3648c0-5.7646-6.784-5.9306-6.784-5.9306s-9.599-17.61846 10.288-12.97807c0 0 13.792-9.92969 20.656-1.44116 0 0 21.036 11.12943 15.012 30.51343l-10.001 19.9801-2.269-4.5196s1.371-18.9842-10.518-13.6949z" fill="#2f2e43"/><path d="m344.937 264.341 43.889-14.827c5.413-1.826 11.228 1.23 13.074 6.889l19.829 60.77c2.025 6.203-1.55 12.873-7.646 14.276l-50.443 11.597c-5.543 1.276-11.042-2.339-12.378-8.134l-13.275-57.54c-1.285-5.584 1.745-11.273 6.95-13.031z" fill="#196072"/><path d="m349.389 277.16 2.828-.528c-1.809-10.805-4.307-39.613 5.78-43.144 4.889-1.713 9.814 1.282 14.632 8.911 3.783 5.998 5.995 12.638 6.016 12.706l2.714-.988c-.388-1.17-9.613-28.627-24.267-23.497-14.481 5.071-7.983 44.843-7.696 46.533z" fill="#2f2e43"/><path d="m382.666 192.796h78.45l-19.198 208.018-22.256-1.509-1.099-149.806-14.007 65.743-4.099 82.931-20.283 1.132-2.355-94.34z" fill="#2f2e43"/><path d="m433.273 64-26.564 6.7908-22.709 103.1372 2.671 19.098 66.518 11.831 11.932-11.831z" fill="#d5d7d8"/><path d="m388.538 83.1463-9.11 1.9694s-3.992 1.5392-5.442 13.4609c-1.444 11.9214-1.702 51.9574-1.702 51.9574l-15.493 64.588 17.597 6.097 8.285-34.754 5.873-103.3262z" fill="#2f2e43"/><g filter="url(#b)"><path d="m403.738 74.8615 4.408 8.4961-8.817 99.6594 10.289 10.043 9.556-9.266-6.986-100.0516 10.18-8.8809-3.561-2.7087-3.676 4.6328-7.351-1.5392-2.937-4.6404z" fill="url(#e)"/></g><g filter="url(#c)"><path d="m429.311 58.6089 9.082 10.7069 18.423 4.6479 31.41 146.7723-60.523 10.775-16.858-149.4813z" fill="#2f2e43"/></g><g filter="url(#d)"><path d="m402.718 63.9585 4.739 17.7467-21.934 159.1468h-11.315l5.22-155.7363 15.364-12.8271z" fill="#2f2e43"/></g><path d="m447.037 208.882c-3.697 5.244-9.297 7.048-12.506 4.037-3.21-3.011-2.815-9.703.883-14.955 1.45-2.12 3.367-3.765 5.592-4.791l15.939-21.965 9.779 9.764-16.75 20.614c-.424 2.724-1.429 5.221-2.937 7.289z" fill="#f8a8ab"/><g fill="#2f2e43"><path d="m449.536 76.3706 7.28-2.407s9.864 2.573 13.131 15.5208l15.946 63.0796-27.045 49.89-14.453-18.441 13.613-45.801-8.479-61.8414z"/><path d="m248.783 270c-.095 0-.155-.002-.176-.004l-11.382.002v-1.674h11.424c.264.01 5.66.162 10.632-5.854 7.409-8.965 13.493-31.158.404-85.975-17.601-73.71-2.921-138.8278 4.207-163.4033.351-1.2159.414-2.4965.183-3.74075-.23-1.24423-.748-2.41795-1.511-3.42845-.764-1.01049-1.753-1.83007-2.889-2.39396s-2.387-.85665-3.656-.85514h-169.9822c-1.2923.00173-2.566.30727-3.7177.89182-1.1517.58456-2.149 1.43166-2.9109 2.47254-3.0196 4.14184-7.1635 12.09864-9.7566 26.48584l-1.6516-.2958c2.6492-14.6998 6.9279-22.89064 10.0508-27.17381.9177-1.25421 2.1192-2.27495 3.5068-2.97934 1.3876-.70438 2.9222-1.07257 4.4792-1.07465h169.9822c1.529-.001463 3.037.35166 4.406 1.03146 1.369.67981 2.56 1.66767 3.48 2.88556.92 1.21788 1.544 2.63241 1.821 4.13182.278 1.49946.202 3.04266-.222 4.50776-7.091 24.448-21.695 89.2284-4.186 162.5504 13.273 55.588 6.892 78.263-.798 87.495-5.072 6.09-10.661 6.398-11.737 6.398z"/><path d="m217.783 300c-.095 0-.155-.002-.176-.004l-11.381.002v-1.668h11.423c.266.009 5.66.161 10.632-5.832 7.409-8.932 13.493-31.042.404-85.656-17.6-73.435-2.921-138.3111 4.207-162.7953.351-1.2113.414-2.4872.183-3.7268-.23-1.2396-.748-2.409-1.511-3.4157-.764-1.0067-1.753-1.8233-2.889-2.3851s-2.387-.8534-3.656-.8519h-169.9821c-1.2923.0017-2.566.3061-3.7177.8885s-2.149 1.4263-2.9109 2.4633c-3.0196 4.1265-7.1635 12.0537-9.7565 26.3874l-1.6518-.2947c2.6493-14.6451 6.928-22.8055 10.0509-27.0728.9178-1.2495 2.1192-2.2665 3.5068-2.9682 1.3876-.7018 2.9222-1.0686 4.4792-1.0707h169.9821c1.529-.0015 3.037.3503 4.406 1.0276s2.56 1.6615 3.48 2.8749c.92 1.2133 1.544 2.6226 1.821 4.1164.278 1.4939.202 3.0314-.222 4.491-7.091 24.3572-21.695 88.8961-4.186 161.9461 13.273 55.382 6.892 77.972-.798 87.17-5.072 6.067-10.661 6.374-11.737 6.374z"/><path d="m187.722 331c-.095 0-.155-.002-.176-.004l-167.8652.002c-1.6161.001-3.2081-.39-4.6367-1.142-1.4285-.751-2.65-1.839-3.5576-3.169-.9076-1.329-1.4736-2.859-1.64849-4.457-.17491-1.597.04663-3.213.64519-4.705 6.0907-15.128 14.2916-51.423.784-124.533-15.95001-86.331-1.67049-117.5309 5.2091-126.938.9206-1.2542 2.1257-2.275 3.5175-2.9794s2.931-1.0725 4.4928-1.0746h170.4934c1.533-.0015 3.046.3517 4.419 1.0315s2.568 1.6676 3.491 2.8855 1.548 2.6324 1.826 4.1318c.279 1.4995.202 3.0427-.222 4.5078-7.113 24.448-21.76 89.2284-4.2 162.5504 13.314 55.588 6.914 78.263-.8 87.495-5.087 6.09-10.693 6.398-11.772 6.398zm-163.2354-267.3266c-1.2963.0017-2.5738.3073-3.7291.8918-1.1552.5846-2.1555 1.4317-2.9197 2.4726-6.752 9.2326-20.74736 39.9582-4.9151 125.6512 12.9038 69.842 6.6455 106.774-.8769 125.458-.5069 1.232-.6972 2.571-.5537 3.895.1436 1.324.6165 2.592 1.3761 3.689.7531 1.107 1.7681 2.014 2.9559 2.641 1.1878.626 2.5121.953 3.8567.952h167.9062c.265.013 5.678.162 10.664-5.854 7.432-8.965 13.534-31.158.406-85.975-17.654-73.71-2.93-138.8278 4.22-163.4033.352-1.2159.415-2.4965.184-3.7408-.232-1.2442-.751-2.4179-1.517-3.4284s-1.757-1.8301-2.897-2.394c-1.139-.5638-2.395-.8566-3.667-.8551z"/></g><path d="m95.2308 109h-63.4616c-1.7953 0-3.5171-.737-4.7865-2.05-1.2695-1.313-1.9827-3.093-1.9827-4.95s.7132-3.637 1.9827-4.9498c1.2694-1.3127 2.9912-2.0502 4.7865-2.0502h63.4616c1.7953 0 3.5171.7375 4.7862 2.0502 1.27 1.3128 1.983 3.0928 1.983 4.9498s-.713 3.637-1.983 4.95c-1.2691 1.313-2.9909 2.05-4.7862 2.05z" fill="url(#g)"/><path d="m95.2308 109h-63.4616c-1.7953 0-3.5171-.737-4.7865-2.05-1.2695-1.313-1.9827-3.093-1.9827-4.95s.7132-3.637 1.9827-4.9498c1.2694-1.3127 2.9912-2.0502 4.7865-2.0502h63.4616c1.7953 0 3.5171.7375 4.7862 2.0502 1.27 1.3128 1.983 3.0928 1.983 4.9498s-.713 3.637-1.983 4.95c-1.2691 1.313-2.9909 2.05-4.7862 2.05z" fill="url(#g)"/><path d="m95.2308 109h-63.4616c-1.7953 0-3.5171-.737-4.7865-2.05-1.2695-1.313-1.9827-3.093-1.9827-4.95s.7132-3.637 1.9827-4.9498c1.2694-1.3127 2.9912-2.0502 4.7865-2.0502h63.4616c1.7953 0 3.5171.7375 4.7862 2.0502 1.27 1.3128 1.983 3.0928 1.983 4.9498s-.713 3.637-1.983 4.95c-1.2691 1.313-2.9909 2.05-4.7862 2.05z" fill="url(#g)"/><path d="m157.132 154h-111.2639c-3.1476 0-6.1663-.843-8.392-2.343s-3.4761-3.535-3.4761-5.657 1.2504-4.157 3.4761-5.657 5.2444-2.343 8.392-2.343h111.2639c3.147 0 6.166.843 8.392 2.343s3.476 3.535 3.476 5.657-1.25 4.157-3.476 5.657-5.245 2.343-8.392 2.343z" fill="url(#h)"/><path d="m157.044 219h-112.088c-3.1709 0-6.212-.843-8.4542-2.343s-3.5018-3.535-3.5018-5.657 1.2596-4.157 3.5018-5.657 5.2833-2.343 8.4542-2.343h112.088c3.171 0 6.212.843 8.454 2.343s3.502 3.535 3.502 5.657-1.26 4.157-3.502 5.657-5.283 2.343-8.454 2.343z" fill="url(#i)"/><path d="m157.044 185h-112.088c-3.1709 0-6.212-.79-8.4542-2.197-2.2422-1.406-3.5018-3.314-3.5018-5.303s1.2596-3.897 3.5018-5.303c2.2422-1.407 5.2833-2.197 8.4542-2.197h112.088c3.171 0 6.212.79 8.454 2.197 2.242 1.406 3.502 3.314 3.502 5.303s-1.26 3.897-3.502 5.303c-2.242 1.407-5.283 2.197-8.454 2.197z" fill="url(#j)"/><path d="m105.143 255h-64.2859c-1.8186 0-3.5627-.737-4.8487-2.05s-2.0084-3.093-2.0084-4.95.7224-3.637 2.0084-4.95 3.0301-2.05 4.8487-2.05h64.2859c1.818 0 3.563.737 4.849 2.05s2.008 3.093 2.008 4.95-.722 3.637-2.008 4.95-3.031 2.05-4.849 2.05z" fill="url(#k)"/><path d="m81.7044 300.525c1.4853-7.174 8.4641-9.526 14.1699-9.263 3.6048.278 7.1807.923 10.6847 1.929 3.666.935 7.297 2.043 10.909 3.218 6.624 2.155 13.18 4.761 19.913 6.446 5.606 1.402 11.697 2.225 17.288.289 5.373-1.862 9.932-6.431 11.394-12.748 1.378-5.954-.514-12.463-5.571-15.184-4.612-2.481-10.438-1.219-12.724 4.392-2.577 6.326-.002 13.225 4.079 17.803 2.32 2.484 4.86 4.685 7.581 6.568 2.761 2.146 5.834 3.716 9.077 4.637 5.323 1.297 11.664-.614 14.41-6.416.61-1.313.977-2.755 1.078-4.237.163-2.017-2.599-2.005-2.761 0-.465 5.777-6.396 8.482-10.831 7.849-2.994-.566-5.853-1.832-8.397-3.718-2.456-1.633-4.783-3.506-6.955-5.598-3.762-3.713-7.288-9.824-4.762-15.619 2.057-4.718 7.42-4.671 10.682-1.628 3.95 3.685 3.246 10.374.64 14.75-2.885 4.846-8.113 6.877-13.043 7.096-5.357.238-10.668-1.164-15.788-2.823-6.361-2.06-12.659-4.366-19.05-6.306-3.629-1.101-7.286-2.095-10.98-2.869-3.4929-.878-7.0806-1.161-10.6464-.84-5.7605.759-11.6408 4.584-13.0592 11.435-.408 1.971 2.2532 2.812 2.662.837z" fill="#2f2e43"/></g></svg>