<svg fill="none" height="958" viewBox="0 0 753 958" width="753" xmlns="http://www.w3.org/2000/svg" xmlns:xlink="http://www.w3.org/1999/xlink"><filter id="a" color-interpolation-filters="sRGB" filterUnits="userSpaceOnUse" height="958" width="753" x="0" y="0"><feFlood flood-opacity="0" result="BackgroundImageFix"/><feColorMatrix in="SourceAlpha" result="hardAlpha" type="matrix" values="0 0 0 0 0 0 0 0 0 0 0 0 0 0 0 0 0 0 127 0"/><feOffset dy="4"/><feGaussianBlur stdDeviation="2"/><feComposite in2="hardAlpha" operator="out"/><feColorMatrix type="matrix" values="0 0 0 0 0 0 0 0 0 0 0 0 0 0 0 0 0 0 0.25 0"/><feBlend in2="BackgroundImageFix" mode="normal" result="effect1_dropShadow_50_154"/><feBlend in="SourceGraphic" in2="effect1_dropShadow_50_154" mode="normal" result="shape"/></filter><filter id="b" color-interpolation-filters="sRGB" filterUnits="userSpaceOnUse" height="173.693" width="73.6282" x="552.544" y="476.406"><feFlood flood-opacity="0" result="BackgroundImageFix"/><feColorMatrix in="SourceAlpha" result="hardAlpha" type="matrix" values="0 0 0 0 0 0 0 0 0 0 0 0 0 0 0 0 0 0 127 0"/><feOffset dy="4"/><feGaussianBlur stdDeviation="2"/><feComposite in2="hardAlpha" operator="out"/><feColorMatrix type="matrix" values="0 0 0 0 0 0 0 0 0 0 0 0 0 0 0 0 0 0 0.25 0"/><feBlend in2="BackgroundImageFix" mode="normal" result="effect1_dropShadow_50_154"/><feBlend in="SourceGraphic" in2="effect1_dropShadow_50_154" mode="normal" result="shape"/></filter><filter id="c" color-interpolation-filters="sRGB" filterUnits="userSpaceOnUse" height="27.1146" width="79.134" x="511.385" y="565.032"><feFlood flood-opacity="0" result="BackgroundImageFix"/><feColorMatrix in="SourceAlpha" result="hardAlpha" type="matrix" values="0 0 0 0 0 0 0 0 0 0 0 0 0 0 0 0 0 0 127 0"/><feOffset dy="4"/><feGaussianBlur stdDeviation="2"/><feComposite in2="hardAlpha" operator="out"/><feColorMatrix type="matrix" values="0 0 0 0 0 0 0 0 0 0 0 0 0 0 0 0 0 0 0.25 0"/><feBlend in2="BackgroundImageFix" mode="normal" result="effect1_dropShadow_50_154"/><feBlend in="SourceGraphic" in2="effect1_dropShadow_50_154" mode="normal" result="shape"/></filter><filter id="d" color-interpolation-filters="sRGB" filterUnits="userSpaceOnUse" height="68.6522" width="132.944" x="394.523" y="544.342"><feFlood flood-opacity="0" result="BackgroundImageFix"/><feColorMatrix in="SourceAlpha" result="hardAlpha" type="matrix" values="0 0 0 0 0 0 0 0 0 0 0 0 0 0 0 0 0 0 127 0"/><feOffset dy="4"/><feGaussianBlur stdDeviation="2"/><feComposite in2="hardAlpha" operator="out"/><feColorMatrix type="matrix" values="0 0 0 0 0 0 0 0 0 0 0 0 0 0 0 0 0 0 0.25 0"/><feBlend in2="BackgroundImageFix" mode="normal" result="effect1_dropShadow_50_154"/><feBlend in="SourceGraphic" in2="effect1_dropShadow_50_154" mode="normal" result="shape"/></filter><filter id="e" color-interpolation-filters="sRGB" filterUnits="userSpaceOnUse" height="110.337" width="48.9607" x="485.869" y="474.404"><feFlood flood-opacity="0" result="BackgroundImageFix"/><feColorMatrix in="SourceAlpha" result="hardAlpha" type="matrix" values="0 0 0 0 0 0 0 0 0 0 0 0 0 0 0 0 0 0 127 0"/><feOffset dy="4"/><feGaussianBlur stdDeviation="2"/><feComposite in2="hardAlpha" operator="out"/><feColorMatrix type="matrix" values="0 0 0 0 0 0 0 0 0 0 0 0 0 0 0 0 0 0 0.25 0"/><feBlend in2="BackgroundImageFix" mode="normal" result="effect1_dropShadow_50_154"/><feBlend in="SourceGraphic" in2="effect1_dropShadow_50_154" mode="normal" result="shape"/></filter><filter id="f" color-interpolation-filters="sRGB" filterUnits="userSpaceOnUse" height="152.092" width="140.948" x="493.256" y="370.282"><feFlood flood-opacity="0" result="BackgroundImageFix"/><feColorMatrix in="SourceAlpha" result="hardAlpha" type="matrix" values="0 0 0 0 0 0 0 0 0 0 0 0 0 0 0 0 0 0 127 0"/><feOffset dy="4"/><feGaussianBlur stdDeviation="2"/><feComposite in2="hardAlpha" operator="out"/><feColorMatrix type="matrix" values="0 0 0 0 0 0 0 0 0 0 0 0 0 0 0 0 0 0 0.25 0"/><feBlend in2="BackgroundImageFix" mode="normal" result="effect1_dropShadow_50_154"/><feBlend in="SourceGraphic" in2="effect1_dropShadow_50_154" mode="normal" result="shape"/></filter><linearGradient id="g" gradientUnits="userSpaceOnUse" x1="233.859" x2="233.859" y1="220.259" y2="633.781"><stop offset="0" stop-color="#84ccb8"/><stop offset="1" stop-color="#196072"/></linearGradient><clipPath id="h"><path d="m4 0h745v950h-745z"/></clipPath><g clip-path="url(#h)" filter="url(#a)"><path d="m748.157 691.428c0 21.539-17.461 39-39 39h-652.157c-21.5391 0-39-17.461-39-39v-652.428c0-21.5391 17.4609-39 39-39h652.157c21.539 0 39 17.4609 39 39z" fill="#fff"/><path d="m748.315 701.428c0 17.121-13.879 31-31 31h-668.157c-17.1208 0-31-13.879-31-31v-668.428c0-17.1208 13.8791-31 31-31h668.157c17.121 0 31 13.8792 31 31zm-719.3691-10.792c0 17.121 13.8792 31 31 31h646.5811c17.121 0 31-13.879 31-31v-646.844c0-17.1208-13.879-31-31-31h-646.5811c-17.1208 0-31 13.8792-31 31z" fill="#2f2e41"/><g fill="#e5e5e5"><path d="m614.039 116.276h-306.336c-2.72 0-4.926 2.206-4.926 4.926 0 2.721 2.206 4.927 4.926 4.927h306.336c2.72 0 4.926-2.206 4.926-4.927 0-2.72-2.206-4.926-4.926-4.926z"/><path d="m622.262 562h-306.335c-2.721 0-4.927 2.206-4.927 4.927 0 2.72 2.206 4.926 4.927 4.926h306.335c2.721 0 4.926-2.206 4.926-4.926 0-2.721-2.205-4.927-4.926-4.927z"/><path d="m622.262 544h-306.335c-2.721 0-4.927 2.206-4.927 4.927 0 2.72 2.206 4.926 4.927 4.926h306.335c2.721 0 4.926-2.206 4.926-4.926 0-2.721-2.205-4.927-4.926-4.927z"/><path d="m622.262 356h-306.335c-2.721 0-4.927 2.206-4.927 4.927 0 2.72 2.206 4.926 4.927 4.926h306.335c2.721 0 4.926-2.206 4.926-4.926 0-2.721-2.205-4.927-4.926-4.927z"/><path d="m622.262 338h-306.335c-2.721 0-4.927 2.206-4.927 4.927 0 2.72 2.206 4.926 4.927 4.926h306.335c2.721 0 4.926-2.206 4.926-4.926 0-2.721-2.205-4.927-4.926-4.927z"/><path d="m622.262 320h-306.335c-2.721 0-4.927 2.206-4.927 4.927 0 2.72 2.206 4.926 4.927 4.926h306.335c2.721 0 4.926-2.206 4.926-4.926 0-2.721-2.205-4.927-4.926-4.927z"/><path d="m614.262 150h-306.335c-2.721 0-4.927 2.206-4.927 4.927 0 2.72 2.206 4.926 4.927 4.926h306.335c2.721 0 4.926-2.206 4.926-4.926 0-2.721-2.205-4.927-4.926-4.927z"/><path d="m614.262 133h-306.335c-2.721 0-4.927 2.206-4.927 4.927 0 2.72 2.206 4.926 4.927 4.926h306.335c2.721 0 4.926-2.206 4.926-4.926 0-2.721-2.205-4.927-4.926-4.927z"/></g><path d="m176.199 194.78c-5.402-2.848-11.04-5.221-16.851-7.094l-.741-8.201-30.054-3.239-3.819 10.482-10.786 4.049c-.386.146-.753.337-1.094.57h-.012c-.602.407-1.114.932-1.506 1.544-.393.612-.656 1.297-.774 2.014-.115.713-.088 1.442.08 2.145l.57 2.338c.821.49 1.665.958 2.508 1.402l.536.274c1.232.639 2.486 1.243 3.774 1.802.262.114.547.228.809.342.023.012.034.012.057.023.605.251 1.209.491 1.825.719 2.022.773 4.085 1.435 6.179 1.984 5.345 1.425 10.852 2.146 16.384 2.145 2.018 0 4.013-.092 5.985-.286 4.507-.416 8.956-1.314 13.271-2.68.011 0 .023-.011.034-.011 2.726-.869 5.389-1.925 7.97-3.16.011-.011.034-.011.046-.022.581-.274 1.14-.571 1.71-.856l.273-.137c.456-.239.913-.479 1.368-.73 1.141-.627 2.258-1.288 3.363-1.996.308-.182.605-.376.913-.581.433-.285.866-.582 1.288-.89-1.06-.684-2.166-1.334-3.306-1.95z" fill="#3f3d56"/><path d="m119.797 199.833-1.881-8.498h-4.914c-.05.001-.099.005-.148.012h-.012c-1.766.149-3.466.737-4.948 1.711-1.004.641-1.898 1.443-2.644 2.372 1.459 1.106 2.975 2.133 4.537 3.114l.069.034c.444.274.9.547 1.356.81.821.49 1.665.958 2.508 1.402l.536.274c1.232.639 2.486 1.243 3.774 1.802.262.114.547.228.81.342.022.012.034.012.056.023.605.251 1.209.491 1.825.719z" fill="#3f3d56"/><path d="m142.401 171.062c11.954 0 21.644-9.695 21.644-21.653 0-11.959-9.69-21.653-21.644-21.653s-21.645 9.694-21.645 21.653c0 11.958 9.691 21.653 21.645 21.653z" fill="#ffb8b8"/><path d="m127.869 138.862c2.24 2.653 6.032 3.401 9.53 3.708 8.178.452 16.379-.218 24.376-1.991.495 4.804-.856 9.984 1.973 13.936 1.326-4.784 2.097-9.705 2.298-14.666.211-2.129-.067-4.277-.813-6.282-.398-1.004-1.071-1.877-1.94-2.518-.87-.642-1.902-1.026-2.979-1.11 1.612-1.224 3.501-2.032 5.5-2.352l-6.873-3.455 1.765-1.813-12.443-.762 3.604-2.29c-5.424-.745-10.911-.919-16.371-.517-2.552.001-5.055.697-7.241 2.014-2.055 1.469-3.242 4.39-1.967 6.548-1.596.262-3.1.928-4.367 1.934-1.268 1.006-2.257 2.319-2.876 3.815-.782 2.378-.97 4.911-.55 7.378.469 3.959 1.389 7.851 2.742 11.601z" fill="#2f2e41"/><path d="m203.265 125.937c-3.037-8.728-7.94-16.688-14.368-23.325-6.428-6.6369-14.226-11.7914-22.85-15.1039-8.624-3.3124-17.866-4.7032-27.083-4.0752-9.216.628-18.185 3.2596-26.28 7.7113-8.096 4.4517-15.1227 10.6158-20.5918 18.0638-5.469 7.448-9.2482 15.999-11.0741 25.058-1.8258 9.059-1.6544 18.408.5024 27.393 2.1568 8.986 6.247 17.393 11.9854 24.635.5701.719 1.163 1.437 1.7675 2.133.0457.046.0797.091.1253.137 1.4861 1.713 3.0656 3.343 4.7313 4.881.434.4.89.81 1.346 1.198.866.776 1.755 1.517 2.679 2.224.365.285.718.57 1.094.844 1.46 1.106 2.976 2.133 4.538 3.114l.069.034c.444.274.9.548 1.356.81.821.49 1.665.958 2.508 1.403l.536.273c1.232.639 2.486 1.244 3.774 1.802.262.115.547.229.81.343.022.011.034.011.056.022.605.251 1.209.491 1.825.719 2.022.773 4.085 1.435 6.179 1.985 5.345 1.425 10.852 2.145 16.384 2.144 2.018 0 4.013-.091 5.985-.285 4.507-.417 8.956-1.315 13.271-2.681.012 0 .023-.011.034-.011 2.726-.869 5.389-1.924 7.97-3.159.011-.012.034-.012.046-.023.581-.274 1.14-.57 1.71-.856l.273-.137c.456-.239.913-.479 1.369-.729 1.14-.628 2.257-1.289 3.363-1.996.308-.183.604-.377.912-.582.433-.285.866-.582 1.288-.89.559-.387 1.118-.787 1.665-1.197.171-.126.353-.251.524-.388 10.682-8.111 18.522-19.396 22.397-32.238 3.875-12.843 3.586-26.583-.826-39.251zm-23.668 68.717c-.377.297-.764.582-1.152.844-.377.286-.752.559-1.14.81-.331.24-.662.468-1.004.685l-.102.068c-.251.171-.502.331-.753.49-.946.593-1.904 1.164-2.873 1.711l-.308.171c-.433.24-.866.468-1.299.696-.057.034-.126.057-.182.091l-.069.035c-.547.285-1.106.558-1.664.821-2.156 1.038-4.376 1.937-6.647 2.691-.297.103-.593.206-.889.297-4.085 1.3-8.297 2.156-12.565 2.555-1.87.171-3.762.262-5.666.262-5.232.011-10.442-.672-15.494-2.03-2.593-.677-5.135-1.539-7.605-2.578-.126-.057-.263-.102-.388-.159-.136-.057-.262-.103-.387-.16-.137-.057-.263-.114-.4-.182-1.071-.468-2.132-.981-3.169-1.517l-.501-.263c-1.266-.661-2.509-1.368-3.717-2.121-.354-.217-.719-.445-1.061-.685-.091-.057-.171-.114-.262-.171-.81-.536-1.619-1.095-2.406-1.676-.535-.399-1.071-.799-1.596-1.209-.878-.662-1.722-1.369-2.542-2.099-.433-.365-.855-.764-1.266-1.14-1.616-1.494-3.1464-3.078-4.5828-4.745-.4788-.547-.9464-1.095-1.3912-1.665-.1011-.113-.1963-.231-.2851-.354-7.4077-9.351-11.8633-20.697-12.7987-32.592s1.6919-23.798 7.5468-34.193 14.672-18.8099 25.327-24.1715 22.665-7.427 34.498-5.9327 22.953 6.4804 31.942 14.3222c8.989 7.843 15.439 18.185 18.528 29.71 3.089 11.524 2.677 23.707-1.184 34.996s-10.995 21.172-20.493 28.388z" fill="#3f3d56"/><path d="m203.266 345.914c-3.037-8.728-7.941-16.688-14.369-23.325s-14.226-11.792-22.85-15.104c-8.623-3.313-17.866-4.703-27.082-4.075-9.217.628-18.185 3.259-26.281 7.711-8.095 4.452-15.1222 10.616-20.5913 18.064-5.469 7.448-9.2482 15.999-11.0741 25.058-1.8258 9.059-1.6544 18.407.5024 27.393 2.1567 8.986 6.2469 17.393 11.9853 24.635.5701.719 1.163 1.437 1.767 2.133.0456.045.0796.091.1253.137 1.4864 1.713 3.0661 3.342 4.7314 4.881.434.399.89.81 1.345 1.198.867.775 1.756 1.517 2.68 2.224 1.803 1.422 3.683 2.743 5.632 3.957l.068.035c1.266.787 2.554 1.517 3.866 2.212l.535.274c1.232.639 2.486 1.243 3.774 1.802.262.114.547.228.809.342.023.012.035.012.058.023 2.603 1.083 5.277 1.986 8.003 2.703 5.345 1.425 10.853 2.146 16.384 2.144 2.018 0 4.013-.091 5.985-.285 4.507-.416 8.956-1.314 13.271-2.68.012 0 .023-.011.034-.011 2.726-.869 5.389-1.925 7.97-3.16.011-.011.034-.011.046-.022.581-.274 1.14-.571 1.71-.856l.274-.137c.456-.239.912-.479 1.367-.73 1.141-.627 2.258-1.289 3.364-1.996.308-.182.604-.376.912-.581 1.003-.662 1.995-1.369 2.953-2.088.171-.125.353-.25.525-.387 10.681-8.111 18.521-19.397 22.396-32.239s3.586-26.582-.825-39.25z" fill="#fff"/><path d="m164.243 392.989c5.258 0 9.519-4.264 9.519-9.523s-4.261-9.522-9.519-9.522c-5.257 0-9.518 4.263-9.518 9.522s4.261 9.523 9.518 9.523z" fill="#2f2e41"/><path d="m166.895 374.206c1.648 0 3.267.428 4.7 1.242 1.433.813 2.63 1.985 3.474 3.4.845 1.415 1.308 3.025 1.344 4.673s-.356 3.277-1.138 4.728c.825-1.033 1.426-2.227 1.765-3.505.338-1.278.407-2.613.201-3.919-.205-1.306-.681-2.555-1.395-3.667-.715-1.112-1.653-2.063-2.756-2.793-1.102-.729-2.344-1.221-3.647-1.443-1.303-.223-2.638-.172-3.92.15s-2.482.908-3.526 1.72c-1.043.811-1.906 1.832-2.533 2.996.89-1.118 2.02-2.021 3.307-2.641s2.696-.941 4.124-.941z" fill="#2f2e41"/><path d="m146.455 383.446c15.444 0 27.963-12.524 27.963-27.973s-12.519-27.973-27.963-27.973c-15.443 0-27.962 12.524-27.962 27.973s12.519 27.973 27.962 27.973z" fill="#2f2e41"/><path d="m124.509 338.117c4.818-5.42 11.553-8.756 18.784-9.304 7.23-.547 14.39 1.737 19.969 6.371-.228-.218-.456-.437-.692-.648-5.524-4.95-12.787-7.503-20.192-7.096s-14.345 3.74-19.294 9.266c-4.948 5.526-7.5 12.792-7.093 20.199.407 7.408 3.739 14.351 9.262 19.301.054.048.107.095.16.142.237.211.481.411.724.613-5.253-5-8.359-11.846-8.663-19.093s2.218-14.329 7.035-19.751z" fill="#2f2e41"/><path d="m146.218 383.208c9.946 0 18.009-8.066 18.009-18.015 0-9.95-8.063-18.016-18.009-18.016s-18.009 8.066-18.009 18.016c0 9.949 8.063 18.015 18.009 18.015z" fill="#a0616a"/><path d="m178.445 412.133v6.045c-1.106.707-2.223 1.369-3.363 1.996-.456.251-.912.491-1.368.73l-.274.137c-.57.285-1.129.582-1.71.856-.011.011-.035.011-.046.022-2.581 1.235-5.244 2.291-7.97 3.16-.011 0-.022.011-.034.011-4.315 1.366-8.764 2.264-13.271 2.68-1.972.194-3.967.285-5.985.285-5.531.002-11.039-.719-16.383-2.144-2.727-.717-5.401-1.62-8.004-2.703-.023-.011-.035-.011-.057-.023-.263-.114-.548-.228-.81-.342-1.288-.559-2.542-1.163-3.774-1.802l-.535-.274c-1.312-.695-2.6-1.425-3.865-2.212l-.069-.034c-1.949-1.215-3.829-2.536-5.632-3.958-.924-.707-1.813-1.449-2.679-2.224-.456-.388-.912-.799-1.345-1.198-1.6661-1.539-3.2458-3.168-4.7323-4.881.1971-1.188.487-2.359.8668-3.502l.0111-.011c.0682-.195.1482-.385.2394-.57.0629-.164.1352-.324.2166-.479 2.0408-3.821 5.7354-4.768 10.3184-4.973 2.588-.114 5.45.011 8.471-.023 1.596-.011 3.249-.068 4.903-.217 10.432-.946 8.539-7.105 9.006-10.424.468-3.217 3.364-.434 3.558-.251l.011.011c5.903 2.764 12.435 3.909 18.926 3.319 1.117-.137 2.235-.217 3.352-.251 2.941-.034 2.303.81 1.289 1.506-.493.324-1.007.614-1.54.867 0 0-.467 2.851-.946 7.117-.456 4.083 7.365 5.999 8.015 6.147.013.009.029.013.045.011 2.857-.741 5.864-.661 8.677.229h.011c1.608.591 3.042 1.575 4.173 2.861 1.131 1.287 1.923 2.836 2.303 4.506z" fill="#196072"/><path d="m120.151 419.467c0 .844-.023 1.654-.057 2.418-.011.456-.034.901-.057 1.323-.023-.011-.035-.011-.057-.023-.263-.114-.548-.228-.81-.342-1.288-.559-2.542-1.163-3.774-1.802l-.535-.274c-1.312-.695-2.6-1.425-3.865-2.212.034-.4.091-.799.148-1.198.125-.878.228-1.768.296-2.646.449-6.17-.669-12.353-3.249-17.975v-.011c-.228-.457-.365-.707-.365-.707s3.318-2.852 8.049 0c.302.177.569.409.787.684 2.851 3.364 3.625 14.679 3.489 22.765z" fill="#2f2e41"/><path d="m171.924 417.916c-.046 1.277-.115 2.612-.194 3.969v.011c-.011.012-.035.012-.046.023-2.581 1.235-5.244 2.291-7.97 3.16-.011 0-.022.011-.034.011l-.125-3.205-.011-.422-.605-15.603c-.016-.353.04-.706.164-1.037s.313-.633.557-.889.538-.46.862-.599c.325-.139.675-.211 1.028-.212h5.781c.285 0 .49.582.627 1.631v.012c.28 4.379.269 8.772-.034 13.15z" fill="#2f2e41"/><path d="m130.815 342.673v18.02h4.171l5.307-5.689-.71 5.689h18.435l-1.14-5.689 2.281 5.689h2.939v-18.02z" fill="#2f2e41"/><path d="m127.972 364.008c.785 0 1.422-1.168 1.422-2.608s-.637-2.607-1.422-2.607-1.422 1.167-1.422 2.607.637 2.608 1.422 2.608z" fill="#a0616a"/><path d="m164.466 364.008c.785 0 1.421-1.168 1.421-2.608s-.636-2.607-1.421-2.607c-.786 0-1.422 1.167-1.422 2.607s.636 2.608 1.422 2.608z" fill="#a0616a"/><path d="m182.31 415.509c-.958.719-1.95 1.426-2.953 2.088-.308.205-.604.399-.912.581-1.106.707-2.223 1.369-3.363 1.996-.456.251-.912.491-1.368.73v-12.569s1.824 1.46 4.731 3.89c.365.308.741.627 1.14.969.844.707 1.756 1.483 2.725 2.315z" fill="#196072"/><path d="m203.266 345.914c-3.037-8.728-7.941-16.688-14.369-23.325s-14.226-11.792-22.85-15.104c-8.623-3.313-17.866-4.703-27.082-4.075-9.217.628-18.185 3.259-26.281 7.711-8.095 4.452-15.1222 10.616-20.5913 18.064-5.469 7.448-9.2482 15.999-11.0741 25.058-1.8258 9.059-1.6544 18.407.5024 27.393 2.1567 8.986 6.2469 17.393 11.9853 24.635.5701.719 1.163 1.437 1.767 2.133.0456.045.0796.091.1253.137 1.4864 1.713 3.0661 3.342 4.7314 4.881.434.399.89.81 1.345 1.198.867.775 1.756 1.517 2.68 2.224 1.803 1.422 3.683 2.743 5.632 3.957l.068.035c1.266.787 2.554 1.517 3.866 2.212l.535.274c1.232.639 2.486 1.243 3.774 1.802.262.114.547.228.809.342.023.012.035.012.058.023 2.603 1.083 5.277 1.986 8.003 2.703 5.345 1.425 10.853 2.146 16.384 2.144 2.018 0 4.013-.091 5.985-.285 4.507-.416 8.956-1.314 13.271-2.68.012 0 .023-.011.034-.011 2.726-.869 5.389-1.925 7.97-3.16.011-.011.034-.011.046-.022.581-.274 1.14-.571 1.71-.856l.274-.137c.456-.239.912-.479 1.367-.73 1.141-.627 2.258-1.289 3.364-1.996.308-.182.604-.376.912-.581 1.003-.662 1.995-1.369 2.953-2.088.171-.125.353-.25.525-.387 10.681-8.111 18.521-19.397 22.396-32.239s3.586-26.582-.825-39.25zm-23.67 68.717c-.376.297-.763.582-1.151.844-.376.285-.752.559-1.14.81-.331.239-.661.468-1.004.684-.285.194-.57.377-.855.559-.946.593-1.903 1.163-2.872 1.711l-.309.171c-.433.239-.866.468-1.299.696-.057.034-.126.057-.183.091l-.068.034c-.547.285-1.106.559-1.665.821-2.155 1.039-4.376 1.938-6.647 2.692-.296.103-.592.205-.889.297-4.084 1.299-8.296 2.156-12.564 2.554-1.87.171-3.763.263-5.666.263-5.232.01-10.442-.672-15.494-2.03-2.593-.678-5.135-1.539-7.605-2.578-.262-.103-.524-.217-.775-.319-.137-.057-.263-.114-.4-.183-1.071-.468-2.131-.981-3.169-1.517l-.501-.262c-1.266-.662-2.509-1.369-3.718-2.122-.444-.273-.889-.558-1.322-.855-1.368-.901-2.702-1.87-4.002-2.886-.878-.661-1.721-1.368-2.542-2.098-.433-.365-.855-.764-1.266-1.141-1.616-1.493-3.1464-3.077-4.5829-4.744-.4788-.548-.9464-1.095-1.3912-1.666-.1012-.112-.1963-.23-.2851-.353-7.4077-9.351-11.8633-20.698-12.7987-32.592-.9354-11.895 1.6919-23.799 7.5468-34.194 5.8549-10.394 14.6721-18.809 25.3271-24.171 10.655-5.361 22.665-7.427 34.498-5.932 11.833 1.494 22.953 6.48 31.942 14.322 8.988 7.842 15.439 18.185 18.528 29.709s2.677 23.708-1.184 34.997-10.995 21.172-20.494 28.388z" fill="#3f3d56"/><path d="m143.642 615.332c13.744 0 24.885-11.145 24.885-24.894 0-13.748-11.141-24.894-24.885-24.894-13.743 0-24.884 11.146-24.884 24.894 0 13.749 11.141 24.894 24.884 24.894z" fill="#2f2e41"/><path d="m124.218 577.016c4.022-4.023 4.837-9.73 1.821-12.747s-8.721-2.201-12.742 1.821c-4.022 4.023-4.837 9.73-1.821 12.747s8.721 2.202 12.742-1.821z" fill="#2f2e41"/><path d="m169.579 569.111c1.675-3.924-1.206-8.917-6.436-11.151-5.229-2.235-10.827-.866-12.503 3.058-1.675 3.924 1.206 8.916 6.436 11.151s10.828.866 12.503-3.058z" fill="#2f2e41"/><path d="m173.408 638.726-2.932-4.615c-1.244-2.78-3.538-4.954-6.381-6.045s-6.002-1.01-8.786.224c-2.784 1.235-4.965 3.522-6.066 6.362s-1.031 6.001.192 8.79l.834 2.991.949 3.393c3.841-.485 7.631-1.313 11.325-2.473.011-.002.021-.007.029-.014 2.73-.865 5.396-1.922 7.977-3.164.014-.014.028-.014.043-.028.574-.274 1.135-.561 1.71-.849.094-.042.185-.09.273-.143.459-.23.92-.475 1.365-.719.46-.245.905-.504 1.337-.777z" fill="#cacaca"/><path d="m144.431 617.509c11.664 0 21.12-9.459 21.12-21.128 0-11.668-9.456-21.127-21.12-21.127-11.663 0-21.119 9.459-21.119 21.127 0 11.669 9.456 21.128 21.119 21.128z" fill="#ffb6b6"/><path d="m174.932 637.821c-2.33-3.876-5.221-7.384-8.581-10.41-2.301-2.057-5.278-3.193-8.364-3.192h-29.751c-1.714 0-3.41.351-4.984 1.032-1.573.681-2.99 1.677-4.163 2.928-1.173 1.25-2.078 2.728-2.658 4.342-.579 1.614-.822 3.329-.713 5.041.065.965.239 1.92.518 2.847.212.671.476 1.325.79 1.955l1.466 2.933c.115.043.23.101.345.144.028.014.043.014.057.028.604.245 1.208.489 1.825.719 2.023.774 4.086 1.436 6.181 1.984 3.372.906 6.814 1.527 10.29 1.855 2.027.187 4.053.288 6.094.288 2.027 0 4.01-.101 5.993-.288.647-.057 1.294-.129 1.941-.201 3.841-.485 7.631-1.313 11.325-2.473.011-.002.021-.007.028-.014 2.731-.865 5.396-1.922 7.977-3.164.014-.014.029-.014.043-.028.575-.274 1.136-.561 1.71-.849.094-.042.186-.09.273-.143.46-.23.92-.475 1.366-.719.46-.245.905-.504 1.336-.777.461-.244.891-.517 1.337-.79-.546-1.079-1.106-2.085-1.681-3.048z" fill="#cacaca"/><path d="m133.626 628.073c-2.753-1.289-5.904-1.434-8.765-.405-2.86 1.029-5.196 3.149-6.498 5.897l-2.645 3.997-1.265 1.912-1.925 2.904c.402.216.79.432 1.193.647l.531.273c1.237.633 2.486 1.237 3.78 1.798.144.071.302.129.46.201.115.043.23.1.345.144.028.014.043.014.057.028.604.245 1.208.489 1.825.719 2.023.774 4.086 1.436 6.181 1.984 3.372.906 6.814 1.526 10.29 1.855l1.006-3.407.978-3.25c1.288-2.765 1.428-5.928.388-8.796s-3.175-5.206-5.936-6.501z" fill="#cacaca"/><path d="m122.24 583.092c4.826 3.328 10.554 5.099 16.416 5.075-2.091 1.45-4.471 2.43-6.977 2.872 7.793 1.672 15.847 1.717 23.659.133 1.736-.279 3.411-.855 4.952-1.702.768-.429 1.437-1.015 1.964-1.72.526-.704.899-1.512 1.093-2.37.519-2.966-1.791-5.662-4.193-7.478-3.676-2.738-7.915-4.625-12.41-5.524-4.495-.898-9.133-.786-13.579.329-2.962.596-5.658 2.12-7.697 4.351-.987 1.136-1.582 2.558-1.699 4.058-.116 1.5.252 2.998 1.051 4.272z" fill="#2f2e41"/><path d="m203.273 565.89c-3.036-8.729-7.939-16.69-14.367-23.328s-14.226-11.793-22.85-15.106c-8.625-3.313-17.868-4.705-27.085-4.077s-18.186 3.259-26.282 7.711-15.1238 10.617-20.5931 18.066c-5.4693 7.448-9.2485 16-11.0742 25.06-1.8256 9.06-1.6537 18.409.5038 27.395 2.1574 8.986 6.2486 17.394 11.988 24.636.56.719 1.1643 1.437 1.7678 2.128.0346.05.0731.098.1151.143 1.4884 1.712 3.0717 3.34 4.7426 4.874.431.403.876.82 1.337 1.208.862.776 1.753 1.51 2.687 2.214.359.288.718.575 1.093.848 1.451 1.107 2.974 2.128 4.527 3.12.026.001.052.011.071.029.446.273.906.546 1.366.805.431.259.876.518 1.308.762.402.216.79.432 1.193.647l.531.273c1.237.633 2.487 1.237 3.781 1.798.143.071.301.129.459.201.115.043.23.1.345.144.029.014.043.014.057.028.604.245 1.208.489 1.826.719 2.022.774 4.085 1.436 6.18 1.984 3.372.906 6.814 1.526 10.29 1.855 2.027.187 4.053.288 6.094.288 2.027 0 4.01-.101 5.993-.288.647-.057 1.294-.129 1.941-.201 3.841-.485 7.631-1.313 11.325-2.473.011-.002.021-.007.029-.015 2.73-.864 5.396-1.921 7.977-3.163.014-.014.028-.014.042-.028.575-.274 1.136-.561 1.711-.849.093-.042.185-.09.273-.143.459-.23.92-.475 1.365-.719.46-.245.905-.504 1.336-.777.461-.244.892-.517 1.337-.79l.69-.432c.317-.187.604-.374.92-.589.431-.273.863-.575 1.279-.877.56-.388 1.121-.791 1.667-1.208.184-.12.362-.249.532-.388 10.673-8.117 18.507-19.401 22.382-32.241 3.874-12.839 3.591-26.576-.81-39.244zm-23.67 68.71c-.374.302-.762.589-1.15.848-.388.288-.762.561-1.15.82-.33.23-.661.46-1.005.676-.032.027-.066.051-.102.071-.244.173-.503.331-.747.489-.173.101-.344.216-.517.317-.503.316-1.006.618-1.524.905-.273.173-.56.331-.833.489-.101.058-.202.115-.302.173-.446.244-.877.46-1.308.69-.057.043-.129.057-.172.1-.027.001-.053.011-.072.029-.546.288-1.107.561-1.667.82-2.158 1.039-4.381 1.937-6.655 2.688-.287.101-.589.216-.877.302-3.665 1.164-7.433 1.972-11.253 2.416-.431.057-.877.1-1.322.143-1.868.173-3.751.259-5.663.259-1.696 0-3.406-.072-5.088-.215-3.515-.293-6.997-.899-10.405-1.812-2.594-.676-5.135-1.541-7.603-2.588-.129-.057-.258-.101-.388-.158-.143-.058-.259-.101-.388-.158-.143-.058-.259-.115-.402-.187-.934-.403-1.869-.848-2.774-1.308-.13-.072-.259-.13-.388-.202l-.503-.259c-.302-.158-.604-.316-.891-.474-.963-.518-1.912-1.078-2.831-1.653-.345-.216-.719-.446-1.064-.676l-.259-.173c-.805-.546-1.609-1.092-2.4-1.682-.532-.402-1.078-.791-1.595-1.208-.877-.661-1.725-1.365-2.544-2.099-.432-.359-.863-.762-1.265-1.136-1.618-1.491-3.1489-3.075-4.5843-4.744-.4744-.546-.9488-1.093-1.3944-1.668-.1004-.115-.1867-.23-.2877-.359-7.4094-9.352-11.8665-20.7-12.8028-32.596-.9364-11.896 1.6905-23.802 7.5455-34.198 5.8551-10.397 14.6727-18.813 25.3287-24.176s22.668-7.429 34.502-5.935c11.835 1.493 22.957 6.48 31.947 14.323 8.991 7.842 15.442 18.186 18.532 29.712s2.678 23.711-1.183 35.002c-3.861 11.29-10.997 21.175-20.496 28.392z" fill="#3f3d56"/><path d="m249.543 255.46c-22.116-18.668-49.179-30.504-77.896-34.066-28.717-3.563-57.851 1.302-83.8547 14.001-26.0042 12.699-47.758 32.685-62.6144 57.527-14.8565 24.842-22.1749 53.468-21.06482 82.394 1.11009 28.927 10.60082 56.907 27.31732 80.536 16.7166 23.63 39.9381 41.889 66.839 52.556 26.9006 10.667 56.3216 13.283 84.6806 7.528 28.36-5.754 54.436-19.63 75.056-39.94l183.103 154.558c2.787 2.344 6.39 3.486 10.018 3.177s6.986-2.045 9.337-4.827c2.351-2.781 3.503-6.382 3.205-10.013-.299-3.63-2.024-6.994-4.798-9.354l-.021-.017-183.102-154.558c21.271-30.539 30.374-67.924 25.527-104.829-4.847-36.904-23.296-70.667-51.732-94.673zm-11.804 184.619c-14.264 16.911-33.221 29.212-54.474 35.345-21.252 6.134-43.846 5.825-64.923-.887-21.0767-6.712-39.691-19.525-53.4885-36.82-13.7974-17.295-22.1584-38.294-24.0257-60.343-1.8672-22.048 2.8432-44.155 13.5356-63.526 10.6923-19.37 26.8864-35.134 46.5346-45.297 19.648-10.163 41.867-14.27 63.848-11.801 21.981 2.47 42.737 11.404 59.642 25.674 22.669 19.135 36.811 46.495 39.315 76.061s-6.836 58.916-25.964 81.594z" fill="url(#g)"/><path d="m80.1429 453.435c-21.4547-18.111-35.3161-43.632-38.8318-71.495-3.5157-27.862 3.5714-56.028 19.8541-78.906-2.1383 2.155-4.2055 4.411-6.2016 6.769-9.4713 11.229-16.6389 24.214-21.0938 38.214-4.4548 13.999-6.1096 28.74-4.8698 43.38 1.2398 14.639 5.3499 28.891 12.0956 41.942 6.7457 13.05 15.9949 24.644 27.2195 34.119s24.2048 16.645 38.1999 21.102c13.994 4.456 28.729 6.111 43.363 4.871 14.635-1.24 28.881-5.352 41.927-12.1s24.635-16.001 34.107-27.229c1.991-2.362 3.866-4.78 5.626-7.255-19.804 19.906-46.366 31.633-74.412 32.853-28.047 1.221-55.527-8.155-76.9831-26.265z" fill="#000" opacity=".3"/><g filter="url(#b)"><path d="m618.677 636.332c1.43-1.747 2.46-3.786 3.017-5.974s.628-4.472.208-6.69c-.421-2.219-1.322-4.318-2.641-6.15-1.32-1.832-3.025-3.353-4.995-4.455l-33.375-136.657-24.347 7.775 36.039 135.725c-1.631 3.433-1.946 7.346-.885 10.997 1.06 3.651 3.422 6.785 6.638 8.81 3.217 2.025 7.064 2.799 10.813 2.176s7.139-2.6 9.528-5.557z" fill="#ffb6b6"/></g><path d="m601.426 548.92-17.792 15.355-24.893 21.467-10.995-56.273-1.15-5.852-.905-4.644 25.223-43.952 21.027 1.206 1.437.086.029.318.33 2.948 4.312 38.789.1.936z" fill="#3f3d56"/><path d="m485.128 930.895-17.619-.001-8.383-67.989 26.006.002z" fill="#ffb6b6"/><path d="m489.622 947.981-56.814-.002v-.719c0-5.867 2.33-11.493 6.477-15.642 4.147-4.148 9.772-6.479 15.637-6.479h.001l34.7.001z" fill="#2f2e41"/><path d="m669.092 932.333-17.619-.002-8.383-67.988 26.006.001z" fill="#ffb6b6"/><path d="m673.586 949.419-56.814-.002v-.719c0-5.867 2.33-11.494 6.477-15.642 4.148-4.149 9.772-6.479 15.637-6.48h.001l34.7.002z" fill="#2f2e41"/><path d="m683.176 905.268-47.429 7.189-69-233.607-73.284 235.044-53.178-7.188 68.987-273.173v-21.567l9.342-32.349-.978-8.756-6.798-61.234-2.946-26.555-.191-1.716c-.16-1.439.221-2.887 1.07-4.061.848-1.174 2.103-1.99 3.519-2.289l22.133-4.658h36.175l21.343 5.88 1.466.403.661.186-.331 2.761-5.001 41.954-.273 2.3-4.829 40.444-1.064 8.871c41.68 30.193 43.117 60.386 43.117 60.386z" fill="#2f2e41"/><path d="m548.139 452.158c19.495 0 35.3-15.81 35.3-35.313s-15.805-35.313-35.3-35.313c-19.496 0-35.3 15.81-35.3 35.313s15.804 35.313 35.3 35.313z" fill="#ffb6b6"/><g filter="url(#c)"><path d="m585.215 565.032-69.83 9.136 1.305 9.979 69.829-9.135z" fill="#ccc"/></g><g filter="url(#d)"><path d="m421.72 577.176c.668.432 1.3.916 1.892 1.448l69.067-17.613 4.712-16.669 26.076 3.826-5.475 30.319c-.442 2.449-1.667 4.689-3.49 6.383s-4.146 2.75-6.62 3.011l-80.644 8.496c-1.315 2.768-3.441 5.071-6.095 6.601-2.654 1.531-5.712 2.216-8.765 1.966s-5.958-1.425-8.328-3.367-4.093-4.56-4.94-7.505c-.846-2.946-.776-6.079.201-8.984s2.816-5.443 5.27-7.277 5.409-2.877 8.47-2.991c3.062-.113 6.086.709 8.669 2.356z" fill="#ffb6b6"/></g><g filter="url(#e)"><path d="m527.956 484.006-12.217-9.345c-3.303-1.254-7.829 2.307-8.623 5.751l-17.247 70.45 35.931 25.879 5.03-7.907z" fill="#ccc"/></g><path d="m598.049 518.368c-3.049 1.211-6.158 2.267-9.313 3.163-1.006.302-2.041.59-3.061.863-6.727 1.867-13.639 2.986-20.611 3.336-3 .127-6.007.045-8.996-.245-3.21-.32-6.381-.946-9.471-1.869-.101-.029-.216-.057-.317-.086-6.426-1.825-12.318-5.174-17.175-9.762-1.085-1.058-2.098-2.186-3.032-3.379-2.684-3.288-4.653-7.1-5.781-11.192-1.129-4.092-1.392-8.375-.773-12.574.12-.761.284-1.515.489-2.257.542-2.024 1.258-3.996 2.141-5.895.388-.892.82-1.769 1.28-2.631l16.24-5.492h30.929l21.343 5.88 1.437.086.029.317.661.186-.331 2.761z" fill="#000" opacity=".2"/><g filter="url(#f)"><path d="m521.09 387.61c-6.601-.81-13.846-.237-18.991 3.979-5.146 4.215-6.806 12.979-1.935 17.509 4.313 4.01 11.057 3.067 16.834 4.207 4.976 1.116 9.435 3.87 12.661 7.821 3.227 3.95 5.036 8.87 5.137 13.971-.086 14.628-14.12 25.705-16.64 40.114-1.721 9.834 2.425 20.184 9.593 27.13 7.168 6.947 17.021 10.701 26.949 11.718 9.928 1.016 19.967-.537 29.615-3.088 9.689-2.562 19.227-6.198 27.357-12.06 8.129-5.862 14.793-14.127 17.403-23.806 2.611-9.679.737-20.777-5.99-28.209-7.702-8.51-20.515-11.436-27.177-20.783-7.469-10.478-4.705-25.4-10.75-36.76-4.035-7.584-11.676-12.757-19.822-15.482-8.145-2.725-16.842-3.263-25.427-3.527-4.512-.139-9.163-.185-13.367 1.461-4.204 1.645-7.899 5.396-8.117 9.906-.218 4.511 2.667 5.899 2.667 5.899z" fill="#2f2e41"/></g></g></svg>