<svg fill="none" height="1179" viewBox="0 0 3199 1179" width="3199" xmlns="http://www.w3.org/2000/svg" xmlns:xlink="http://www.w3.org/1999/xlink"><clipPath id="a"><path d="m.008789 0h3198.99v1179h-3198.99z"/></clipPath><g clip-path="url(#a)"><path d="m3144.42 599.2v-8.9l-6.2 2z" fill="#239190"/><path d="m3196.82 563.4s-22.1 16.1-57.8 29c-35.7 12.8-99.9 46.3-99.9 46.3l-248.4 98.4-746.8 236-415.1 84-550.7-47.9-423.9 11.1-525.6-23.6-47.2001-390-19.9-13.7s-31.8-15.5-52.4-31l67 14.8 246.5001-220.9-168.2-241.3 144.9-55.6999 632.2 45.4999 861-56.7999 680.5 35.5 509.4 4.3 126 486.6999 30.5-.5 43-7z" fill="#fefefe"/><path d="m2118.72 8.1001c0-2.4.2-4.90005.3-7.300051-2.5-.1-4.9-.199951-7.4-.199951-332.6 0-665.2 0-997.9 0-9.1 0-18.2.199951-27.3.199951 0 82.699951 0 165.399951-.1 248.099951 0 133.2-.1 266.3-.1 399.5 5.9.7 11.7 1.9 17.6 2.1 37.5.9 74.9 1.5 112.4 2.3 22.7.5 45.5 1.6 68.2 2 45.2.9 90.4 1.8 135.6 2.1 115.7.8 231.4 1.7 347.1 1.9 49.8.1 99.5-1.2 149.2-2 23.1-.4 46.2-1.4 69.3-2 25.2-.7 50.4-1.3 75.6-2.1 19.2-.6 38.4-1.6 57.7-2.4-.1-7-.3-14-.3-21 0-207.1 0-414.1.1-621.1999zm-461.1 167.5999c-52.2 2-103.1 10.7-150.2 34.7-43.6 22.2-79.5 53-106.7 94.1-31.4 47.5-50.7 99.5-61.4 155.1-9.8 51.1-11.7 102.8-10 154.6.2 5.2 1.1 10.4 1.7 15.6.5 4.4-1.3 6.5-5.9 6.4-24.9-.6-49.8-1-74.6-1.5-15.8-.3-31.6-.8-47.3-1-17.7-.3-15.8-.5-15.7-16.5-6 .4-8.8-1.6-8.6-8.4 1.1-32.5.1-65.2 3.1-97.5 4.1-43.7 17.3-85.5 34.3-126.1 20.4-48.9 50-91.6 87.5-128.6 28.3-27.9 60.5-51.1 95.5-70 59.1-31.9 122.3-51.9 188.7-62.1 48.6-7.5 97.5-11.4 146.6-9.8 29.7 1 59.3 4.1 88.8 7.5 31.6 3.6 63 8.7 94.5 13.2 22.5 3.2 44.9 6.7 67.4 10.1 9.2 1.4 9.2 1.4 8.9 10.9-.1 1.7.2 3.4.2 5.2 6.1.7 8.7 2.3 7.5 10-5.2 33.5-10 67.1-13.6 100.8-3.7 34.7-5.8 69.7-8.3 104.5-.4 4.8-1.7 8.7-6.4 9.5-8.5 1.5-17.2 3-25.8 2.9-6.6-.1-7.9-3.9-7.7-15.6-6.6-.7-8-5-8.7-10.9-3.6-30.4-8.4-60.6-17.1-90.1-2.2-7.6-5.7-14.9-8.7-22.3-.5-.6-1.1-1.1-1.6-1.7l.2.2c-.8-1.5-1.5-2.9-2.3-4.4l.1.2c-.7-1.5-1.5-2.9-2.2-4.4l.1.1c-1.5-1.2-3-2.4-4.5-3.7-29.4-26.1-64.6-40.1-102.2-49-27-6.4-54.4-10-82.1-10.7-17.8-.5-35.7-2-53.5-1.3zm410.3 406.9c.8 6-3.4 9.5-9.4 10.5-5.5.9-11.1 1.4-16.5 2.9-11 3.1-22.2 6.2-32.8 10.5-9.1 3.6-15.2 11-18.8 20.2-1.8 4.5-4.1 7.4-9.8 7.5-39.5.5-79 1.4-118.6 2.1-8.9.1-13.1-4.6-15.1-16-.5-.4-1-.8-1.6-1.2-1.2 0-2.7.4-3.7.1-.2-.1-.5-.2-.6-.3-15.6-11.9-34.2-15.7-52.8-18.6-19.6-3-39.5-4.7-59.2-6.8-10.6-1.1-11.2-1.5-14.5-16.4-2.1-2-5.9-3.9-6.1-6.1-.7-7.2-.4-14.6.2-21.9.3-4.3 3.1-6.9 7.9-6.7 2.1.1 4.2 0 6.3 0 44.8.5 89.7 1.1 134.5 1.6 43.1.5 86.1 1.2 129.2 1 19.5-.1 39.1-2 58.6-3.3 13.3-.9 13.3-1.1 15.8 12 .3 1.4.7 2.7 1 4.1 12.2 5.7 4.9 16.4 6 24.8z" fill="#84ccb8"/><path d="m3144.22 12.2c0-1.8-.1-3.49994 0-5.19994.4-4.4-1.2-6.700027-5.9-6.400027-2.1.1-4.2 0-6.3 0-326.5 0-652.9.099975-979.4.099975-11.2 0-22.5.099976-33.7.099976-.1 2.399996-.3 4.900046-.3 7.300046 0 206.99997-.1 414.09997-.1 621.09997 0 7 .2 14 .3 21 9.8-.5 19.5-1.2 29.3-1.6 37.4-1.6 74.9-2.9 112.3-4.6 26.9-1.2 53.8-2.7 80.7-4.1 37.4-2.1 74.8-4.2 112.1-6.4 20.6-1.2 41.2-2.6 61.8-4.1 33.5-2.5 66.9-5.3 100.4-7.9 12.2-.9 24.4-1.4 36.6-2.4 23.3-1.9 46.7-4 70-5.9 19.9-1.6 39.8-3 59.6-4.7s39.6-3.8 59.5-5.7c16.7-1.6 33.4-3 50.1-4.7 25.4-2.6 50.7-5.3 76.1-7.9 15.3-1.6 30.6-3 45.9-4.7 17.1-1.9 34.3-4.1 51.4-6.1 2-.2 3.9-.5 5.9-.7 2.7-.3 5.5-.6 8.2-.9 1.1-.1 2.3-.3 3.4-.4 5.1-.6 10.2-1.1 15.3-1.7l1.9-.2c4.7-.5 9.3-1 13.9-1.5 10.4-1.1 20.8-2.2 31.1-3.4v-.6c0-185.9 0-371.9-.1-557.8zm-164.1 158.7c-5.5 34.3-11.5 68.6-16.1 103-3.3 25.2-4.6 50.6-6.8 75.9-.6 6.9-.7 14-2.2 20.7-.7 3.1-3.7 6.7-6.7 8.1-3.9 1.9-8.8 2.3-13.2 2.6-14.9.8-16.3-.5-17.7-16.1-4.2-1-6.3-3.4-6.9-7.9-1.5-11.4-3.5-22.7-5.5-34-4.3-24.9-9.8-49.6-19.9-73-1.5-3.4-3.9-6.5-5.9-9.7-.5-.9-1.1-1.8-1.6-2.8l.3.2c-.9-1.4-1.8-2.8-2.7-4.1-1.9-1.3-3.9-2.5-5.9-3.8s-4-2.6-6-3.9c-24.9-16.9-51.9-28.9-81.1-36.3-29.9-7.7-60.2-12.3-91.2-12.8-15-.2-30.1-2.1-45.1-1.6-54.8 1.6-107.8 10.8-156.7 37.5-31.4 17.1-58.9 38.6-82.2 66-17.6 20.7-32.6 42.9-44.3 67.3-18.2 38.1-30.6 77.9-38 119.5-8.2 46-11.1 92.2-10.1 138.8v1.1c-.1 4.7 1.7 11-.7 13.7-2.6 2.9-9 2.4-13.7 3.4-1.4.3-2.8.4-4.2.4-19.6.8-39.2 1.4-58.8 2.2-16.1.6-32.2 1.6-48.3 2.1-15.3.4-15.3.2-15.8-15.4-6.4 0-7.7-3.6-7.9-9.4-1.9-57.9 4-114.8 21.4-170.2 5.7-18 10.6-36.6 18.7-53.5 25.7-53.7 60.6-100.8 106.1-139.6 70.3-60.2 151.4-97.4 242.7-112.5 35.7-5.9 71.5-9.4 107.7-11.2 54.2-2.6 107.9 1.7 161.5 8.5 45.5 5.8 91 12 136.5 18l2.1.3c11.2 1.5 11.2 1.5 8 12.7-.3.9.1 2.1.2 3.1 10.4 1.4 11.6 3.1 10 12.7z" fill="#239190"/><path d="m1074.62.0999756c-99 0-198 0-297 0-235.6 0-471.1.0000244-706.7001-.0999756-10.8 0-10.8-.00007343-10.8 10.7999 0 49.8.0999 99.6001.0999 149.3001.1 135.9.1001 271.9.2001 407.9v.2c8.2 1.3 16.4999 2.9 24.7999 3.8 18.8002 2.1 37.5002 4.1 56.3002 6.1 9.6 1 19.2 2 28.7 3.1 12.7 1.4 25.4 2.7 38.1 4.1 36.9 4 73.7 8.3 110.6 12 33.8 3.3 67.6 6 101.4 9 36.6 3.3 73.2 6.8 109.8 9.9 22.7 1.9 45.4 3.1 68.1 4.8 33.5 2.5 67 5.4 100.5 7.8 25.1 1.8 50.3 3 75.5 4.6 31.1 1.9 62.2 4.1 93.3 5.9 15.7.9 31.5 1.7 47.2 2.3 22.8.9 45.5 1.6 68.3 2.6 29.8 1.3 59.5 2.7 89.2 4 4.5.2 9.1-.1 13.7-.1 0-133.2.1-266.4.1-399.5 0-82.7 0-165.4.1-248.1-3.8-.2-7.7-.4000244-11.5-.4000244zm-152.2 401.0000244c-4.3 42.4-20.3 79.8-45.7 113.2-10.5 13.8-23.3 26.1-36.7 37.2-22.1 18.4-46.2 33.9-72.2 46.4-12.4 6-25.5 9.5-39.2 10.3-16.4 1-32.8 2.5-49.2 1.8-20.1-.8-40.2-3.5-60.3-5.6-13.2-1.4-26.3-3.1-39.4-4.8-1.7-.2-3.3-1-5-1.5-.1 0-.2-.1-.3-.2s-.1-.2-.1-.3c0-.3 0-.5 0-.8v-13.4c-4.1-.4-8.3-.9-12.4-1.3l26.1-1.4c18.4-.6 25.8-1.4 44.1-2.2 28.5-1.1 55.8-7.1 81-21.1 27.9-15.6 45.4-39.9 58.6-68 4.2-8.9 7.6-18.1 10.2-27.6 2.7-9.7 4.9-19.6 6.3-29.5 5.1-36.4 3-72.8-6.3-108.2-5.1-19.5-11.5-39.2-23.4-56.3-2.2-3.1-4.8-5.8-7.3-8.7-.5-1-1-2-1.5-3v-.1c-.9-.4-1.9-.7-2.9-1-.3-.1-.6-.2-.9-.3s-.6-.2-.9-.3c-.2-.1-.5-.2-.7-.3s-.4-.2-.6-.3-.4-.2-.6-.3-.4-.2-.6-.4c-.3-.2-.6-.4-.8-.6-28.6-26.5-63-41.2-100.8-48.1-24.4-4.4-49.1-7.4-73.9-6.2-12.1.6-24.2 2.6-36.2 4.9-12.2 2.3-13.8 13.3-15 22.7-1.7 14.9-2.2 30-2.3 45-.2 102.3-.3 204.6-.3 307 0 1.2 0 2.3.1 3.5 0 .6.1 1.2.1 1.8.2 2.4.4 4.9.6 7.7 0 .3 0 .7.1 1.1 0 .4.1.7.1 1.1 0 .3-.2.5-.5.5-.4 0-.7 0-1.1 0-.6 0-1.3 0-1.9 0-1 0-2 0-3 0-1.3 0-2.5 0-3.7-.1-21.5-1.9-43-3.9-64.5-5.8-10.8-1-21.6-1.9-32.3-2.5-11.4-.6-11.5-.5-11.7-12.2 0-1.2 0-2.5 0-3.7 0-.3-.2-.5-.5-.5-6.8-.2-8.4-4-8.3-10.7.4-30.1.4-60.2.1-90.3-.5-65.8-1-131.6-2.1-197.4-.3-16.6-2-33.2-3.9-49.8-.6-4.8-3.9-9.3-6.1-13.9-.1-.1-.1-.2-.3-.2-1.1-.5-2.1-.9-3.2-1.4s-2.1-.9-3.2-1.4c-.9-.4-1.7-.7-2.6-1.1-1.4-.6-2.8-1.1-4.2-1.7-1.7-.7-3.5-1.3-5.2-1.9-.7-.3-1.4-.5-2.2-.8h-.1c-.6-.2-1.2-.4-1.8-.6-.7-.2-1.4-.4-2-.6s-1.4-.4-2-.6c-.8-.2-1.6-.5-2.5-.7-.8-.2-1.5-.4-2.3-.6-.5-.1-1.1-.3-1.6-.4-1.2-.3-2.5-.5-3.7-.8-.4-.1-.8-.1-1.3-.2s-1-.2-1.6-.3c-.1 0-.2 0-.2 0-.6-.1-1.1-.2-1.7-.2-.1 0-.2 0-.3 0-.5-.1-1.1-.1-1.6-.2-15.2-1.7-30.3-4.2-45.5-5.3-1-.1-1.9-.1-2.8-.2-.3 0-.6 0-.9-.1-.1 0-.3 0-.4 0-.2 0-.4 0-.6 0h-.1c-.4 0-.7-.1-1-.1-.4 0-.9-.1-1.3-.1-.2 0-.4 0-.6-.1-.9-.1-1.8-.2-2.5-.4-.2 0-.4-.1-.6-.1-.1 0-.2-.1-.3-.1-.3-.1-.7-.2-1-.3-.2-.1-.4-.2-.6-.2-.2-.1-.3-.2-.5-.3l-.2-.1c-.1-.1-.2-.1-.3-.2l-.2-.1c-.1-.1-.2-.2-.3-.3s-.2-.2-.3-.3v-.1c-.1-.1-.2-.2-.3-.4-.1-.1-.1-.2-.2-.4s-.2-.4-.3-.6c0-.1-.1-.2-.1-.3s-.1-.3-.1-.4l-.1-.3c0-.2-.1-.3-.1-.5s-.1-.4-.1-.6c0-.3-.1-.5-.1-.8s-.1-.6-.1-.9c0-.2 0-.3 0-.5 0-.3 0-.6-.1-1 0-.3 0-.5 0-.8s0-.6 0-.8c0-.4 0-.8 0-1.2 0-.9 0-1.8-.1-2.8 0-.3 0-.6 0-.9v-.1c-.1-.2-.2-.4-.5-.4-5.2-.5-7.7-3.4-7.7-8.8 0-2.1-.2-4.2-.2-6.3.3-16.8 2.2-19 18.8-18.2 121.2 6 242.5 3.2 363.8 3.3 24.5 0 49 1.6 73.3 4.1 23.3 2.4 46.1 8.4 67.9 17.5 52.1 21.7 92.5 56 114.8 108.9 4.5 10.7 6.6 22.4 9.7 33.6 0 .1.1.2.2.3.3.2.6.4.9.6l.1.1c.1.1.2.2.3.2.1.1.3.2.4.4l.3.3.5.5.5.5c.1.2.3.3.4.5.3.3.5.7.8 1 .1.2.3.3.4.5.2.3.4.6.6.9s.4.6.5.9c.2.3.3.6.4.9.1.2.2.3.2.5.3.7.6 1.5.9 2.2.1.2.2.5.2.7.2.6.4 1.2.5 1.8.1.4.2.7.3 1.1.1.3.1.6.2.8 0 .2.1.4.1.7.1.5.2 1.1.3 1.6.1.7.3 1.4.4 2 5 25.6 6.3 51.1 3.7 77.2z" fill="#196072"/><path d="m2118.92 756c2.3-.7 4.5-1.9 6.8-2.1 20.2-1.6 40.4-2.9 60.5-4.4 1.3.3 2.6.7 3.9 1 2.9 8.1 5.6 16.4 8.8 24.4 6.9 17 14.1 33.9 21.2 50.8.6.6 1.2 1.2 1.9 1.8l-.1-.1c.7.7 1.5 1.4 2.2 2.2l-.1-.1c1.4 2.8 2.9 5.7 4.3 8.5v-.1c1.4 8.7 5.7 15.7 12.7 21.1 1.4 2.1 2.8 4.2 4.2 6.3-.3 3.3.1 6 4.2 6.3.1 1.4-.2 3.1.5 4 10.1 12.8 20.4 25.5 30.6 38.2 42.1 49.2 95.1 83.2 153.8 108.6 20.5 8.9 42.5 14.3 64.1 20.3 44.4 12.4 89.7 18 135.7 20.3 35.1 1.7 70.1.6 105.1-1.7 43.1-2.8 85.2-11.2 127.1-21.3 23.5-5.6 42.2-17.1 55.4-37.6 8.7-13.6 18.3-26.5 26.9-40.2 22.2-35.6 39.1-73.6 51.8-113.6 2.5-7.9 2.5-15.2-5.4-20.4.9-12.1-7.9-16.1-16.7-20.1-9-4.1-12.2-3-17.3 5.3-8.5 13.7-16.3 27.8-25.7 40.8-15.9 22.1-32.6 43.7-49.5 65-14 17.7-31.4 31.7-51.2 42.8-36.9 20.9-77.4 28-118.8 30.8-21.9 1.4-44.2.1-66-2.1-35.5-3.6-70.3-11.2-103.9-23.9-43.8-16.6-83-40.7-116.6-73.1-27.1-26.1-49.6-56-66.3-89.9-1.3-2.1-2.7-4.2-4-6.4l.1.1c-1.4-2.8-2.9-5.7-4.3-8.5v.1c-.8-3.7-1.3-7.5-2.6-11.1-4.7-13.9-9.6-27.7-14.5-41.6 3.6-.6 7.1-1.2 10.7-1.8l4.2-.3c44.6-5.2 89.2-10.2 133.7-15.6 30.2-3.7 60.4-7.5 90.5-11.9 27.9-4 55.6-8.7 83.4-13.3 36.4-6 72.9-11.5 109.2-18.4 52.9-10 105.7-20.2 158.2-31.9 61.9-13.7 123.5-29 185.2-43.8 9.2-2.2 18.2-5.1 27.2-7.6 1.3.6 2.5 1.3 3.8 1.9.1 1.4.2 2.8.2 4.2 0 192.6.1 385.3.1 577.9-.5.8-1.1 1.5-1.6 2.3-8.8.1-17.5.2-26.3.2-327.2 0-654.5 0-981.7 0-5.3 0-10.5-.2-15.8-.3-.1-5.3-.3-10.5-.3-15.8 0-128.6 0-257.1 0-385.7.2-6.5.4-13.5.5-20.5z" fill="#239190"/><path d="m1085.82 1178.1c-7 .1-14 .3-21 .3-327.7 0-655.4 0-983.1 0-6.8 0-13.7-.8-20.5-1.3-.2-6.6-.6-13.2-.6-19.8-.1-185.4-.1-370.9-.1-556.3v-8.2s81.7 21.5 212.9 42.4c19.9 3.7 39.9 7 59.8 10.7 18 3.3 35.8 7 53.8 10.6-.6 11.9-1.6 23.7-1.8 35.6-.9 53.5-1.6 107-2.3 160.6-.2 16.5.5 32.9-.4 49.4-.8 16.7-2 33.4-7.8 49.4-4.3 11.9-11.9 20.8-23.9 24.8-10.9 3.6-22.1 6.4-33.3 8.6-15.7 3.1-31.6 5.5-47.5 7.8-7 1-9.5 4.9-9.5 11.4 0 3.5.2 7-.1 10.5-.6 6.1 2 10.1 7.4 12.5 2.3 15.2 2.3 15.4 17.4 15 45.6-1.2 91.1-3.6 136.7-3.5 66.3.2 132.5 2.2 198.8 3.4 17.7.3 19.3-1.4 19.3-19.5 0-2.1-.1-4.2-.2-6.3-.3-4-2.3-6.5-6.4-7.1-.5-1.6-1.2-3.3-1.6-4.9-2.2-10.6-2.8-11-12.9-12.7-21.9-3.6-43.8-7-65.6-11.2-11.9-2.3-23.8-5.5-31.6-16.3-.8-2.9-1.7-5.8-2.5-8.7-1.3-13.2-3.5-26.4-3.7-39.6-1-70.4-1.5-140.8-2.2-211.2-.1-8.7 0-17.4 0-27.2 8.8.9 17 1.6 25.2 2.8 31.2 4.5 62.4 9.2 93.5 14 13.3 2.1 26.6 4.6 39.9 7 1.3.2 2.4 1.2 3.6 1.9 3.4 4.9 6.9 9.9 10.3 14.8l8.4 12.6c2.8 4.2 5.6 8.4 8.4 12.6s5.6 8.4 8.4 12.6c8.4 12.6 16.8 25.2 25.3 37.8.5 1.6.7 3.5 1.6 4.8 11.4 17.2 22.8 34.4 34.4 51.6.8 1.2 2.6 1.8 4 2.6 1.4 8.2 6.2 14.1 12.6 18.9l2.1 4.2 4.2 4.2c1.4 2.1 2.8 4.2 4.2 6.3 3.1 9.5 8 17.7 16.8 23.1 2.8 11.5 11.5 18.9 18.9 27.2 15.4 18.9 30.1 38.3 48.6 54.6 15.1 13.3 31.9 24.1 50.4 31.3 22 8.5 45.3 12.8 68.8 15.1 27.5 2.6 55 4.6 82.5 6.9.3 44.7.4 89.3.4 133.9z" fill="#196072"/><path d="m1086.32 1178.5c0-44.6-.1-89.2-.1-133.8 16.8-.1 33.6-.3 50.3-.4 16.9-.1 18.1-1 20.7-17.6.3-2.1.3-4.2.5-6.3.8-6.4-1.6-10.1-8.4-10.3.1-15.6.1-14.9-16-16.8-15.9-1.9-31.6-5.5-47.4-8.3.1-9.5.3-18.9.3-28.4.1-70.4.1-140.8.2-211.3 13.9.8 27.9 1.4 41.8 2.4 24.7 1.9 49.4 4 74.1 6 10.7 34.5 25.8 67.1 44.5 97.9 10 16.3 22.1 31.3 33.3 46.9-2.9 3.5-.5 4.1 2.4 4.5l-.1-.1c.7 1.4 1.5 2.9 2.2 4.3l-.1-.2c.9 1.8 1.5 4 2.8 5.4 23.6 26.1 49.2 49.8 78.9 69 47 30.4 97.9 51.1 152.5 63.6 47.6 10.9 95.9 16.6 144.5 19.1 66.5 3.4 132.4-3.7 197.5-16.8 48-9.7 95.5-22.2 143.1-33.8 9.5-2.3 10.4-4.1 11.3-13.7.3-2.8.1-5.6.5-8.4.8-6.5-1.9-10-8.4-10.5 1.9-10.3-3.1-15.5-12.4-19.1-5.5-2.1-10.1-6.7-15.1-10.2.6-3.6 1.8-7.3 1.7-10.9-.4-12.6-1.7-25.1-1.8-37.7-.2-43.4 0-86.9.2-130.3 0-10.9.1-10.5 11.1-11.1 32.5-1.7 65-3.9 97.5-5.6 10.1-.5 20.3-.2 30.5-.3-.1 7-.3 14-.3 21v385.7c0 5.3.2 10.5.3 15.8-8.8.1-17.5.2-26.3.2-332.7 0-665.3.1-998 .1-2.7.4-5.5.1-8.3 0z" fill="#84ccb8"/><path d="m60.7199 568.7c8.2 1.3 16.5 2.9 24.7 3.8 41.0001 4.5 82.1001 8.8 123.1001 13.2 36.9 4 73.7 8.3 110.6 12 33.8 3.4 67.6 6 101.4 9 36.6 3.3 73.2 6.9 109.8 10 22.7 1.9 45.4 3.1 68.1 4.8 33.5 2.5 67 5.4 100.5 7.8 25.1 1.8 50.3 3 75.5 4.6 31.1 1.9 62.2 4 93.3 5.9 15.7 1 31.5 1.7 47.2 2.3 22.8.9 45.5 1.6 68.3 2.6 29.8 1.3 59.5 2.7 89.2 4 4.5.2 9.1-.1 13.7-.1 5.9.7 11.7 1.9 17.6 2.1 37.5.9 74.9 1.5 112.4 2.3 22.7.5 45.5 1.6 68.2 2 45.2.9 90.4 1.7 135.6 2.1 115.7.8 231.4 1.6 347.1 1.9 49.7.1 99.5-1.2 149.3-2 23.1-.4 46.2-1.4 69.3-2 25.2-.7 50.4-1.3 75.6-2.1 19.2-.6 38.4-1.6 57.7-2.4 9.8-.5 19.5-1.2 29.3-1.6 37.4-1.6 74.9-2.9 112.3-4.6 26.9-1.2 53.8-2.7 80.7-4.2 37.4-2.1 74.7-4.2 112.1-6.4 20.6-1.2 41.2-2.6 61.8-4.1 33.5-2.5 66.9-5.3 100.4-7.9 12.2-.9 24.4-1.4 36.6-2.4 23.3-1.9 46.7-4 70-5.9 19.9-1.6 39.8-3 59.6-4.7s39.6-3.8 59.5-5.7c16.7-1.6 33.4-3 50.1-4.7 25.4-2.5 50.7-5.3 76.1-7.9 15.3-1.6 30.6-3 45.9-4.7 21.9-2.5 43.7-5.3 65.6-7.7 21.9-2.5 43.8-4.8 65.6-7.2 12.2-1.3 24.3-2.6 36.5-3.9-.1.4-.1.8-.1 1.2-9.3 2.5-18.5 4.8-27.7 7.5-3.2.9-6.2 2.7-9.3 4-10.1 2.6-20.2 5.2-30.3 7.8-9.2 2-18.4 3.9-27.6 6-57.7 13.2-115.3 26.9-173.2 39.4-47.9 10.3-96.1 19.8-144.3 28.3-59.7 10.6-119.5 20.3-179.3 29.5-49.5 7.6-99.1 14.2-148.8 20.4-42.1 5.2-84.2 9.3-126.4 13.6-40.4 4.1-80.8 8.2-121.3 11.6-25.8 2.2-51.8 3.3-77.7 4.9-42 2.6-83.9 5.2-125.9 7.7-1.4.1-2.8.2-4.2.2-30.1 1-60.3 2.1-90.4 2.8-34 .9-68 1.7-102.1 2-68.8.7-137.5 1.9-206.3 1.2-63.8-.7-127.6-3.4-191.5-5.6-35.4-1.2-70.8-2.8-106.1-4.7-34.3-1.8-68.6-3.7-102.9-6.1-31.4-2.2-62.8-5.1-94.3-7.7-28.3-2.3-56.6-4.3-84.8-7-39.4-3.7-78.8-7.8-118.1-12-27.5-2.9-55-5.8-82.5-9.1-31-3.6-61.9-7.5-92.8-11.5-27.4-3.6-54.9-7.3-82.2-11.2-36.1-5.1-72.1-10.2-108.1-15.8-45.7-7.2-91.3-14.5-136.8-22.6-50.3-8.9-100.6-18.5-150.8-28.3-38.2-7.4-76.2-15.4-114.3-23.1-6.1-1.2-12.2-1.9-18.3-2.9-13.1001-6.9-27.6001-8.2-41.8001-10.4-11.3-3.2-22.6-6.4-33.9-9.6 0-.4 0-.8 0-1.1 11.1 1 22.4 1.7 33.8 2.4z" fill="#95989a"/><path d="m1354.12 762.6c21 .5 42 1.1 63 1.6 37.5.9 75 2 112.5 2.4 80 .8 160 1.3 240 1.6 24.2.1 48.4-1.1 72.6-1.6 3.8-.1 7.7.4 11.5.6-.1 19.5.1 39.1-.2 58.6-.5 29.7-.9 59.5-2.5 89.2-.7 12.8-3 25.7-6.6 38-5.1 17.6-16.2 31-33.6 38.1-20 8.2-41.1 12.1-62.5 12.6-29 .6-58.2-.4-87.2-1.8-29.5-1.5-58.2-8.4-86-18.1-58.3-20.4-109.1-52.5-149.2-100-30.5-36.4-55.6-76.1-71.8-121.2z" fill="#84ccb8"/><path d="m1354.12 762.6c16.1 45.1 41.3 84.8 72 121.2 40.1 47.6 90.8 79.7 149.2 100 27.8 9.7 56.5 16.6 86 18.1 29 1.5 58.1 2.4 87.2 1.8 21.3-.5 42.5-4.4 62.5-12.6 17.4-7.1 28.5-20.6 33.6-38.1 3.6-12.3 5.9-25.2 6.6-38 1.6-29.7 1.9-59.4 2.5-89.2.4-19.5.2-39.1.2-58.6 24.5-1 49.1-1.9 73.6-3 11.6-.5 23.1-1 34.7-1.7 9.5-.5 9.8-.3 9.7 9.7-.1 42.4-.3 84.8-.1 127.2 0 10.8.6 21.8 2.1 32.5.9 6.8 3.9 13.3 6 19.9 5 3.5 9.6 8.1 15.1 10.2 9.4 3.5 14.3 8.8 12.4 19.1-.6 10.7-6.3 16.1-17 17.4-5.9.7-11.5 2.9-17.3 4.3-39.8 9.5-79.4 20.5-119.6 28-40.6 7.6-81.5 13.4-122.9 16.2-51.4 3.4-102.4.1-153.2-5.7-26.6-3-53-9.3-78.9-16.2-79-20.7-150.4-55.6-208.1-115.1-1.4-1.5-3.8-2-5.7-2.9l.1.2c-.7-1.4-1.5-2.9-2.2-4.3l.1.1c-.8-1.5-1.6-3-2.4-4.5-11.2-15.6-23.3-30.6-33.3-46.9-18.8-30.8-33.8-63.4-44.5-97.9 19.5.9 39.1 1.7 58.6 2.7 24.5 1.2 48.9 2.5 73.3 4 6.6.4 13.1 1.4 19.7 2.1z" fill="#727376"/><path d="m2220.12 825.7c-7.1-16.9-14.3-33.8-21.2-50.8-3.2-8-5.9-16.3-8.8-24.4.2-.4.3-.7.4-1.2 45-4 89.9-8.1 134.9-12.1 2.7-.2 5.5.1 8.3.2 4.4 18.4 11.1 35.9 21.1 52v-.1c1.4 2.8 2.9 5.7 4.3 8.5l-.1-.1c1.3 2.1 2.7 4.2 4 6.4 16.7 34 39.2 63.8 66.3 89.9 33.7 32.4 72.8 56.5 116.6 73.1 33.6 12.7 68.4 20.3 103.9 23.9 21.9 2.2 44.2 3.5 66 2.1 41.3-2.7 81.9-9.9 118.8-30.8 19.7-11.2 37.2-25.1 51.2-42.8 16.9-21.4 33.5-42.9 49.5-65 9.4-13 17.3-27.1 25.7-40.8 5.1-8.3 8.3-9.4 17.3-5.3 8.8 4 17.6 8 16.7 20.1-1.5 3.1-3.4 6-4.5 9.3-10.8 30.8-24.1 60.6-39.8 89.2-14.3 26.2-29.6 51.7-49.4 74.3-7.6 8.7-16.6 14.6-27.9 17.7-37.5 10.3-75.3 18.7-113.9 23.4-56.9 6.9-113.8 8.6-170.9 1.7-29.5-3.6-58.8-7.3-87.7-14.6-82.8-21-157.6-56.5-218-118.4-8.2-9.8-16.3-19.7-24.6-29.5-2.8-3.4-5.9-6.6-8.9-9.8-1.4-2.1-2.8-4.2-4.2-6.3s-2.8-4.2-4.2-6.3c-4.2-7-8.4-14.1-12.7-21.1v.1c-1.4-2.8-2.9-5.7-4.3-8.5l.1.1c-.7-.7-1.5-1.4-2.2-2.2l.1.1c-.6-.8-1.2-1.4-1.9-2z" fill="#727376"/><path d="m267.92 1027.2c-5.4-2.4-8-6.4-7.4-12.5.3-3.5.1-7 .1-10.5 0-6.5 2.4-10.4 9.5-11.4 15.9-2.3 31.8-4.7 47.5-7.8 11.3-2.2 22.5-5 33.4-8.6 12-4 19.5-12.8 23.9-24.7 5.8-16 7-32.7 7.8-49.4.8-16.4.2-32.9.4-49.4.7-53.5 1.4-107 2.3-160.6.2-11.9 1.2-23.7 1.9-35.5 19.3 3.1 38.6 6.2 57.9 9.2 17 2.7 33.9 5.4 50.9 8 8.8 1.3 8.9 1.2 8.9 10.5.2 36.8.1 73.6.6 110.3.5 36.8 1.1 73.5 2.3 110.3.4 13.5 2.4 27 4.1 40.4.5 3.6 2.5 7.1 3.9 10.6 2.1 2.7 4.2 5.3 6.3 8 7.8 10.8 19.7 14 31.6 16.3 21.8 4.2 43.7 7.6 65.6 11.2 10 1.6 10.7 2.1 12.9 12.7.3 1.7 1.1 3.3 1.6 4.9-.6 2.7-1.2 5.5-1.9 8.2-2.1 8.3-3.4 9.4-12.3 9.5-3.2.1-6.3 0-9.5-.1-36.1-1.2-72.2-2.9-108.3-3.6-78.4-1.5-156.2-.6-234 4z" fill="#727376"/><path d="m1086.02 985c15.8 2.8 31.5 6.4 47.4 8.3 16 2 16.1 1.3 16 16.8-.6 2-1.4 3.9-1.8 5.9-2.7 11.2-4 12.3-15.6 12.9-2.1.1-4.2.1-6.3.1-41.3.4-82.6-1.1-123.7-6.3-23.2-2.9-46.3-7-68.5-14.4-24.8-8.3-47.4-20.9-66.1-39.2-11.5-11.2-21.2-24.2-31.7-36.3-6.3-7.7-12.7-15.5-19-23.2-5.6-7.7-11.2-15.4-16.8-23.2-1.4-2.1-2.8-4.2-4.2-6.3-1.4-1.4-2.8-2.8-4.2-4.2-.7-1.4-1.4-2.8-2.1-4.2-4.2-6.3-8.4-12.6-12.7-19-.2-1-.2-2.2-.7-3-11.5-17.4-23.1-34.7-34.8-52-1.1-1.6-3-2.7-4.6-4-2.5-5.1-4.5-10.6-7.7-15.3-5.4-7.8-11.6-15.1-17.5-22.6.8-6.6-3.7-9.7-8.4-12.6.1-6.1-2.4-10.5-8.4-12.6.2-6.2-2.4-10.5-8.4-12.6.5-6.9-3.9-10.9-8.6-14.8 1.1-.7 2.2-2 3.2-1.9 47.6 5.6 95.1 11.3 142.6 17.1 2.8.3 5.4 1.1 8.2 1.7 8.5 12.3 16.6 24.9 25.7 36.8 25.4 33.4 50.8 66.8 76.9 99.7 14.1 17.8 29.3 34.8 44.8 51.4 11 11.7 23.3 22.2 35.1 33.2 20.8 19.6 44.6 34.6 71.9 43.8z" fill="#727376"/><path d="m1086.02 985c-27.4-9.2-51.2-24.2-72.1-43.8-11.7-11-24.1-21.5-35.1-33.2-15.5-16.6-30.7-33.6-44.8-51.4-26.1-32.8-51.5-66.3-76.9-99.7-9-11.9-17.1-24.5-25.7-36.8 30.3 3.1 60.6 6.3 90.9 9.2 41.1 4 82.3 7.8 123.4 11.7 13.6 1.3 27.1 2.9 40.7 4.3-.1 70.4-.1 140.8-.2 211.3.1 9.5-.1 18.9-.2 28.4z" fill="#196072"/><path d="m2354.82 789.5c-10-16.1-16.7-33.6-21.1-52 1.4-.2 2.8-.4 4.1-.6 4.8 13.9 9.8 27.7 14.5 41.6 1.2 3.5 1.7 7.3 2.5 11z" fill="#239190"/><path d="m3143.82 580.2c-8.9 2.4-18.2 4.8-27.5 6.8-.9.1-1.8.2-2.7.3 10.1-2.6 20.2-5.2 30.3-7.8-.1.2-.1.5-.1.7z" fill="#239190"/><path d="m677.52 703.2c4.6 3.9 9.1 7.9 8.6 14.8-3.4-4.9-6.9-9.9-10.3-14.8.6-.3 1.2-.3 1.7 0z" fill="#95989a"/><path d="m521.82 964.2c-2.1-2.7-4.2-5.3-6.3-8 1.3-.2 2.5-.4 3.8-.6.9 2.8 1.7 5.7 2.5 8.6z" fill="#fefefe"/><path d="m2190.62 749.4c0 .4-.2.8-.4 1.2-1.3-.3-2.6-.7-3.9-1 1.4-.1 2.8-.2 4.3-.2z" fill="#84ccb8"/><path d="m3144.02 594.3c-1.3-.6-2.5-1.3-3.8-1.9 1.2.6 2.5 1.3 3.8 1.9z" fill="#84ccb8"/><path d="m1187.42 617.1c-6 .4-8.8-1.6-8.6-8.4 1.1-32.5 0-65.2 3.1-97.5 4.1-43.7 17.3-85.5 34.3-126.1 20.4-48.9 50-91.6 87.5-128.6 28.3-27.9 60.5-51.1 95.5-70 59.1-31.9 122.3-51.9 188.6-62.1 48.6-7.5 97.5-11.4 146.6-9.8 29.7 1 59.3 4.1 88.8 7.5 31.6 3.6 63 8.7 94.5 13.2 22.5 3.2 44.9 6.7 67.4 10.1 9.2 1.4 9.2 1.4 8.8 10.9-.1 1.7.2 3.4.3 5.2-1.2 3.1-3.2 6.2-3.6 9.5-3.1 21.5-6.6 42.9-8.6 64.4-3.9 42.1-7 84.3-10.2 126.5-.4 5.1-2.3 8.2-7 8.9-8.3 1.2-16.6 1.9-24.9 2.8-6.6-.7-8-5-8.7-10.9-3.6-30.4-8.4-60.6-17.1-90.1-2.2-7.6-5.7-14.9-8.7-22.3-.5-.6-1.1-1.1-1.6-1.7l.2.2c-.8-1.5-1.5-2.9-2.3-4.4l.1.2c-.7-1.5-1.5-2.9-2.2-4.4l.1.1c-1.4-2.2-2.8-4.5-4.1-6.7-3.4-4.4-6.6-9.1-10.3-13.1-18.6-20.1-43.4-29.7-68.2-38.8-17.3-6.4-34.8-11.8-53.5-13.5-18.3-1.7-36.5-6-54.8-7.5-32.9-2.7-65.9-2.3-98.7 1.8-28.3 3.5-56 9.3-82.6 19.6-88.1 34-143.9 99.1-176 185.9-11.3 30.6-19.2 62.2-23.4 94.8-5.6 43.2-8.9 86.4-6.3 129.9.5 8.6.1 17.2.1 26.6-10.5 0-21 .2-31.4 0-34.3-.7-68.7-1.5-103.1-2.2z" fill="#fefefe"/><path d="m1847.02 620.3c-.5-.4-1-.8-1.5-1.2-6.2-13.6-16.9-22.1-30.9-26.4-8.6-2.6-17.5-4.7-26.4-5.9-24.5-3.5-49-6.4-73.5-9.5-2.1-2-5.9-3.9-6.1-6.1-.7-7.2-.4-14.6.2-21.9.3-4.3 3.1-6.9 7.9-6.7 2.1.1 4.2 0 6.3 0 44.8.5 89.6 1.1 134.5 1.6 43.1.5 86.1 1.2 129.2 1 19.5-.1 39.1-2 58.6-3.3 13.3-.9 13.3-1.1 15.8 12 .3 1.4.7 2.7 1 4.1-.6 1.9-1.7 3.8-1.8 5.8-.9 10.8-.8 11.1-11.3 13.6-11.8 2.9-23.7 5-35.5 8-14.2 3.6-25.9 10.9-31.1 25.3-2.3 6.4-6 7.9-12.4 7.9-33.6.5-67.2 1.5-100.7 2.2-7.7.1-15-.3-22.3-.5z" fill="#fefefe"/><path d="m1187.42 617.1c34.4.7 68.7 1.5 103.1 2.1 10.4.2 20.9 0 31.4 0 0-9.4.4-18-.1-26.6-2.6-43.5.7-86.8 6.3-129.9 4.2-32.5 12.1-64.2 23.4-94.8 32.1-86.8 87.9-151.8 176-185.9 26.5-10.3 54.3-16 82.6-19.6 32.9-4.1 65.8-4.5 98.7-1.8 18.4 1.5 36.5 5.8 54.8 7.5 18.6 1.7 36.2 7.1 53.5 13.5 24.8 9.1 49.6 18.7 68.2 38.8 3.8 4.1 6.9 8.7 10.3 13.1-.1 1-.2 2-.4 3.1-29.4-26.1-64.6-40.1-102.2-49-27-6.4-54.4-10-82.1-10.7-17.9-.5-35.7-2-53.5-1.4-52.2 2-103.1 10.7-150.2 34.7-43.6 22.2-79.5 53-106.7 94.1-31.4 47.5-50.7 99.5-61.4 155.1-9.9 51.1-11.7 102.8-10 154.6.2 5.2 1.1 10.4 1.7 15.6.5 4.4-1.3 6.5-5.9 6.4-24.9-.6-49.8-1-74.6-1.5-15.8-.3-31.5-.8-47.3-1-17.6-.1-15.7-.4-15.6-16.4z" fill="#606364"/><path d="m1847.02 620.3c7.3.2 14.7.6 22 .5 33.6-.7 67.1-1.7 100.7-2.2 6.4-.1 10.1-1.5 12.4-7.9 5.2-14.4 16.9-21.7 31.1-25.3 11.7-3 23.7-5.1 35.5-8 10.5-2.6 10.4-2.8 11.3-13.6.2-2 1.2-3.9 1.8-5.8 12.3 5.6 5 16.3 6.1 24.7.8 6-3.4 9.5-9.4 10.5-5.5.9-11.1 1.4-16.5 2.9-11 3.1-22.2 6.2-32.8 10.5-9.1 3.7-15.2 11-18.8 20.2-1.8 4.5-4.1 7.4-9.8 7.5-39.5.5-79 1.4-118.5 2.1-9 .1-13.2-4.7-15.1-16.1z" fill="#606364"/><path d="m1940.02 373.6c8.3-.9 16.7-1.6 24.9-2.8 4.7-.7 6.6-3.8 7-8.9 3.2-42.2 6.3-84.4 10.2-126.5 2-21.6 5.5-43 8.6-64.4.5-3.3 2.4-6.3 3.6-9.5 6.1.7 8.7 2.3 7.5 10-5.2 33.5-10 67.1-13.6 100.8-3.7 34.7-5.8 69.7-8.3 104.5-.4 4.8-1.7 8.7-6.4 9.5-8.5 1.5-17.2 3-25.8 2.9-6.7 0-8-3.9-7.7-15.6z" fill="#606364"/><path d="m1714.52 577.3c24.5 3.1 49.1 6.1 73.5 9.5 8.9 1.3 17.8 3.3 26.4 5.9 10.9 3.3 19.9 9.2 26.2 18.2 1.8 2.5 3.3 5.2 4.7 8.2-1.5 0-3.4.6-4.4-.1-15.6-11.9-34.2-15.7-52.8-18.6-19.6-3-39.5-4.7-59.2-6.7-10.4-1.1-11-1.6-14.4-16.4z" fill="#606364"/><path d="m1895.42 236.7c.1-1 .2-2 .4-3.1 1.4 2.2 2.8 4.5 4.1 6.7-1.5-1.1-3-2.4-4.5-3.6z" fill="#727376"/><path d="m1901.82 244.5c.8 1.5 1.5 2.9 2.3 4.4-.7-1.5-1.5-3-2.3-4.4z" fill="#727376"/><path d="m1899.72 240.3c.7 1.5 1.5 2.9 2.2 4.4-.7-1.5-1.4-2.9-2.2-4.4z" fill="#727376"/><path d="m1903.92 248.7c.5.6 1.1 1.1 1.6 1.7-.6-.6-1.1-1.1-1.6-1.7z" fill="#727376"/><path d="m2917.42 365.2c-4.2-1-6.3-3.4-6.9-7.9-1.5-11.4-3.5-22.7-5.5-34-4.3-24.9-9.8-49.6-19.9-73-1.5-3.4-3.9-6.5-5.9-9.7-.5-.9-1.1-1.8-1.6-2.8l.3.2c-.9-1.4-1.8-2.8-2.7-4.1l.1.1c-6-7.2-11.2-15.2-18.2-21.4-22.2-19.6-49.8-28.7-77.4-37.3-29.3-9.1-59.7-12.5-90.1-14.8-40-3-79.7-1.5-119.3 6-39.4 7.4-76.1 21-109.7 42.8-61.6 40.1-100.5 97.7-124.6 165.7-9 25.2-15.8 51.3-20.7 77.6-4.5 23.9-5.9 48.4-7.1 72.7-1.1 23.4-.3 46.9-.2 70.4 0 9.7.1 9.8-9.5 10.2-25.2 1.1-50.5 2-75.7 3.2-16.4.8-32.9 2-49.3 3.1-6.4 0-7.7-3.6-7.9-9.4-1.9-57.9 4-114.8 21.4-170.2 5.7-18 10.6-36.6 18.7-53.5 25.7-53.7 60.6-100.7 106.1-139.6 70.3-60.2 151.4-97.4 242.7-112.5 35.7-5.9 71.5-9.4 107.7-11.2 54.2-2.6 107.9 1.7 161.5 8.5 45.5 5.8 91 12 136.5 18l2.1.3c11.2 1.5 11.2 1.5 8 12.7-.3.9.1 2.1.2 3.1-1.9 12-4.1 23.9-5.6 35.9-4.8 38.4-9.7 76.9-14 115.4-1.6 14.2-2 28.6-2.7 42.8-.3 6.1-2.5 10-9 10.7-7.2.7-14.5 1.3-21.8 2z" fill="#fefefe"/><g fill="#606364"><path d="m2173.52 612.1c16.4-1 32.8-2.3 49.3-3.1 25.2-1.2 50.5-2.1 75.7-3.2 9.6-.4 9.6-.5 9.5-10.2 0-23.5-.9-47 .2-70.4 1.2-24.3 2.6-48.9 7.1-72.7 4.9-26.2 11.7-52.4 20.7-77.6 24.2-68 63-125.6 124.6-165.7 33.5-21.8 70.3-35.4 109.7-42.8 39.6-7.4 79.3-8.9 119.3-6 30.5 2.2 60.9 5.6 90.1 14.8 27.6 8.6 55.2 17.7 77.4 37.3 6.9 6.1 12.2 14.2 18.2 21.4-4-2.6-8-5.1-12-7.8-24.9-16.9-51.9-28.9-81.1-36.3-29.9-7.7-60.2-12.3-91.2-12.8-15-.2-30.1-2.1-45.1-1.6-54.8 1.6-107.8 10.8-156.7 37.4-31.4 17.1-58.9 38.6-82.2 66-17.6 20.7-32.6 42.9-44.3 67.3-18.2 38.1-30.6 77.9-38 119.5-8.2 46-11.1 92.2-10.1 138.8v1.1c-.1 4.7 1.7 11-.7 13.7-2.6 2.9-9 2.4-13.7 3.4-1.4.3-2.8.4-4.2.5-19.6.8-39.2 1.4-58.8 2.2-16.1.7-32.2 1.6-48.3 2.1-14.9.5-14.9.3-15.4-15.3z"/><path d="m2917.42 365.2c7.3-.7 14.6-1.3 21.9-2 6.4-.6 8.7-4.6 9-10.7.7-14.3 1.1-28.6 2.7-42.8 4.3-38.5 9.2-76.9 14-115.4 1.5-12 3.7-23.9 5.6-35.9 10 1.2 11.2 2.9 9.6 12.5-5.5 34.3-11.5 68.6-16.1 103-3.3 25.2-4.6 50.6-6.8 75.9-.6 6.9-.7 14-2.2 20.7-.7 3.1-3.7 6.7-6.7 8.1-3.9 1.9-8.8 2.3-13.2 2.6-15.1.8-16.4-.5-17.8-16z"/><path d="m2877.62 237.8c.5.9 1.1 1.8 1.6 2.8-.5-1-1-1.9-1.6-2.8z"/><path d="m507.92 576.9c-1.1-5.8-3.1-11.6-3.1-17.3.1-98.8.5-197.6 1-296.3.1-15.8 1.1-31.5 1.6-47.3 0-1 .1-2.1.2-3.1 1.9-20.4 5.4-24.6 25.4-27.8 32.9-5.4 65.6-2.7 98.1 4 10.9 2.3 21.9 4.3 32.5 7.6 29 9 54.3 24.3 75.5 46.1 4.1 4.2 7.4 9.2 11.1 13.8-2.7-1.2-6-1.7-8-3.6-28.7-26.5-63.1-41.3-101-48.1-24.4-4.4-49.1-7.4-74-6.2-12.1.6-24.3 2.6-36.3 4.9-12.2 2.3-13.9 13.3-15 22.7-1.8 14.9-2.2 30-2.3 45-.2 102.3-.3 204.6-.3 307 0 4.8.6 9.6 1 15.7-3.5 0-6.9.3-10.3 0-21.5-1.9-43.1-3.9-64.6-5.8-10.8-1-21.6-1.9-32.4-2.5-11.4-.6-11.5-.5-11.7-12.2 0-1.4 0-2.8 0-4.2l111.6 9.9c.4-.9.7-1.6 1-2.3z"/><path d="m919.42 324.5c-.1-.7-.2-1.4-.4-2-.1-.5-.2-1.1-.3-1.6-.1-.2-.1-.4-.1-.7-.1-.3-.1-.6-.2-.8-.1-.4-.2-.7-.3-1.1-.2-.6-.3-1.2-.5-1.8-.1-.2-.2-.5-.2-.7-.3-.7-.5-1.5-.9-2.2-.1-.2-.2-.3-.2-.5-.1-.3-.3-.6-.4-.9-.2-.3-.4-.6-.5-.9-.2-.3-.4-.6-.6-.9-.1-.2-.2-.3-.4-.5-.2-.3-.5-.7-.8-1-.1-.2-.3-.3-.4-.5-.2-.2-.3-.3-.5-.5-.1-.2-.3-.3-.5-.5-.1-.1-.2-.2-.3-.3s-.3-.2-.4-.4c-.1-.1-.2-.2-.3-.2l-.1-.1c-.4-.2-.9.1-.8.6 2 12.2 5 24.4 5.7 36.7 3 55.2-9.1 106.4-43.3 150.9-31.6 41.2-73 70.1-120.4 90.4-8.8 3.8-18.7 6.4-28.1 6.7-26.5.9-53.1.3-79.7.3-.8-.1-1.7-.1-2.5-.2-.7-.1-1.9-.1-2.6-.2l-64.7-7.9h-.1v1.1 2.7 3.5 3.3 1.6c0 .5-.1 1.1-.1 1.6 0 .2 0 .5.2.7.1.1.3.2.5.2.6.2 1.2.4 1.9.7.9.3 1.9.6 2.8.7 13.1 1.7 26.3 3.4 39.5 4.8 20.1 2.1 40.2 4.7 60.4 5.6 16.4.7 32.8-.8 49.2-1.8 13.7-.8 26.9-4.3 39.3-10.3 26-12.5 50.2-28.1 72.3-46.4 13.4-11.1 26.2-23.4 36.7-37.2 25.4-33.4 41.4-70.8 45.7-113.2 2.5-25.9 1.2-51.4-3.6-76.8z"/><path d="m268.92 171.3c19.5 2.3 38.9 4.3 58.3 7 7.5 1 15 2.9 22 5.7 11.1 4.4 21.8 9.8 25.2 22.9-14.1-6.1-28.2-11.9-43.6-13.6-15.2-1.7-30.3-4.2-45.6-5.3-16-1.1-16-.6-16.3-16.7z"/><path d="m750.12 256.6c.5 1 1 2 1.5 2.9-.5-1-1-2-1.5-2.9z"/></g><path d="m2282.92 911c60.5 61.9 135.2 97.4 218 118.4 28.9 7.3 58.2 11 87.7 14.6 57.1 6.9 114 5.2 170.9-1.7 38.6-4.7 76.5-13.1 113.9-23.4 11.3-3.1 20.3-9 27.9-17.7 19.8-22.6 35.1-48.1 49.4-74.3 15.7-28.6 29-58.4 39.8-89.2 1.1-3.2 3-6.2 4.5-9.3 7.9 5.2 7.9 12.5 5.4 20.4-8.7 27.5-19.5 54-32.5 79.5-5.9 11.6-12.4 22.9-19.3 34.1-8.5 13.7-18.2 26.6-26.9 40.2-13.1 20.5-31.9 31.9-55.4 37.6-41.9 10-84 18.5-127.1 21.3-35 2.3-70 3.4-105.1 1.7-46-2.3-91.4-8-135.7-20.3-21.6-6-43.7-11.5-64.1-20.3-58.7-25.4-111.8-59.4-153.8-108.6.8-1.1 1.6-2.1 2.4-3z" fill="#fefefe"/><g fill="#84ccb8"><path d="m2282.92 911c-.8 1-1.6 1.9-2.4 2.9-10.2-12.7-20.5-25.4-30.6-38.2-.7-.9-.3-2.6-.5-4 3 3.3 6.1 6.5 8.9 9.8 8.2 9.8 16.4 19.6 24.6 29.5z"/><path d="m2228.32 837.9c4.2 7 8.4 14.1 12.7 21.1-7-5.4-11.3-12.4-12.7-21.1z"/><path d="m2359.12 798c-1.4-2.8-2.9-5.7-4.3-8.5 1.4 2.8 2.9 5.6 4.3 8.5z"/><path d="m2224.02 829.5c1.4 2.8 2.9 5.7 4.3 8.5-1.4-2.9-2.8-5.7-4.3-8.5z"/><path d="m2240.92 859c1.4 2.1 2.8 4.2 4.2 6.3-1.3-2.1-2.7-4.2-4.2-6.3z"/><path d="m2245.22 865.3c1.4 2.1 2.8 4.2 4.2 6.3-4.2-.3-4.6-3.1-4.2-6.3z"/><path d="m2363.02 804.2c-1.3-2.1-2.7-4.2-4-6.4 1.4 2.1 2.7 4.2 4 6.4z"/><path d="m2221.92 827.4c.7.7 1.5 1.4 2.2 2.2-.7-.7-1.4-1.4-2.2-2.2z"/><path d="m2220.12 825.7c.6.6 1.2 1.2 1.9 1.8-.6-.6-1.2-1.2-1.9-1.8z"/></g><path d="m267.92 1027.2c77.8-4.6 155.7-5.5 233.6-4 36.1.7 72.2 2.4 108.3 3.6 3.2.1 6.3.2 9.5.1 8.9-.2 10.3-1.2 12.3-9.5.7-2.7 1.3-5.4 1.9-8.2 4.1.5 6.1 3.1 6.4 7.1.2 2.1.2 4.2.3 6.3 0 18.1-1.6 19.8-19.3 19.5-66.3-1.2-132.6-3.2-198.9-3.4-45.6-.1-91.2 2.3-136.8 3.5-15 .4-15 .2-17.3-15z" fill="#fefefe"/><path d="m835.72 932.8c10.5 12.2 20.3 25.1 31.7 36.3 18.7 18.3 41.3 30.9 66.1 39.2 22.3 7.5 45.3 11.5 68.5 14.4 41.1 5.2 82.3 6.7 123.7 6.3 2.1 0 4.2 0 6.3-.1 11.5-.5 12.9-1.7 15.6-12.9.5-2 1.2-3.9 1.8-5.9 6.8.1 9.2 3.8 8.4 10.3-.3 2.1-.2 4.2-.5 6.3-2.7 16.6-3.9 17.5-20.7 17.6s-33.6.3-50.3.4c-27.5-2.3-55.1-4.3-82.6-6.9-23.5-2.2-46.9-6.6-68.9-15.1-18.5-7.2-35.3-18-50.5-31.3-18.5-16.2-33.3-35.6-48.6-54.6 0-1.4 0-2.7 0-4z" fill="#fefefe"/><g fill="#95989a"><path d="m711.42 755.9c5.9 7.5 12.1 14.8 17.5 22.6 3.2 4.6 5.2 10.2 7.7 15.3-8.3-12.7-16.7-25.3-25.2-37.9z"/><path d="m694.62 730.7c6 2.1 8.5 6.4 8.4 12.6-2.8-4.2-5.6-8.4-8.4-12.6z"/><path d="m686.22 718.1c6 2.1 8.6 6.4 8.4 12.6-2.8-4.3-5.6-8.4-8.4-12.6z"/><path d="m703.02 743.3c4.8 2.9 9.2 6 8.4 12.6-2.8-4.2-5.6-8.4-8.4-12.6z"/></g><path d="m791.52 875.8 4.2 4.2c-1.4-1.3-2.8-2.8-4.2-4.2z" fill="#84ccb8"/><path d="m789.32 871.6 2.1 4.2c-.6-1.4-1.4-2.8-2.1-4.2z" fill="#84ccb8"/><path d="m1284.62 907.2c1.9 1 4.3 1.5 5.7 2.9 57.7 59.5 129 94.4 208.1 115.1 25.9 6.8 52.3 13.1 78.9 16.2 50.8 5.8 101.9 9.1 153.2 5.7 41.4-2.7 82.3-8.5 122.9-16.2 40.2-7.6 79.7-18.5 119.6-28 5.8-1.4 11.5-3.6 17.3-4.3 10.7-1.3 16.4-6.7 17-17.4 6.6.5 9.3 4 8.4 10.5-.4 2.8-.2 5.6-.5 8.4-.9 9.6-1.8 11.4-11.3 13.7-47.6 11.5-95.1 24.1-143.1 33.8-65.1 13.2-131 20.2-197.5 16.8-48.6-2.5-96.9-8.2-144.5-19.1-54.6-12.5-105.5-33.2-152.5-63.6-29.7-19.2-55.3-42.9-78.9-69-1.3-1.6-1.9-3.7-2.8-5.5z" fill="#fefefe"/><path d="m1280.22 898.6c.8 1.5 1.6 3 2.4 4.5-2.9-.4-5.4-1-2.4-4.5z" fill="#fefefe"/><path d="m1282.52 903c.7 1.4 1.5 2.9 2.2 4.3-.8-1.4-1.5-2.9-2.2-4.3z" fill="#fefefe"/><path d="m507.92 576.9c-.3.7-.6 1.5-.9 2.2.3-.8.6-1.5.9-2.2z" fill="#95989a"/><path d="m1473.62 1032.7s-217.9-47.7-278.5-279.5l4.1-7.8 3.1 8.4s51.1 192 259.5 260.6z" fill="#fefefe"/><path d="m1841.42 611.9s4.8 8.8 16.2 8.8-4.1 3-4.1 3l-10.1-3.6-3.8-7.2z" fill="#606364"/><path d="m740.52 251.4s13.6 12.6 28.3 34c0 0-8.8-20-24.9-37.1-16.2-17.1-6.7-2.6-6.7-2.6z" fill="#606364"/><path d="m921.42 337s2.3-37.3-40.3-99.8c0 0 42.2 76.6 35.1 129.6l5.3-3.8z" fill="#606364"/><path d="m125.12 591.5c53.9 7.4 59.5-3.3 59.5-3.3l-8-6s-166.5001-19.6-168.70008-20.2c0 0 69.99998 25 117.20008 29.5z" fill="#95989a"/><path d="m3198.02 563.1s-24.5 8.7-54.2 16.8c-8.9 2.4-18.2 4.8-27.5 6.8-5.6 1.2-11.2 2.4-16.7 3.3h-.1c-6.4 1.1-12.7 2-18.6 2.6-53.9 7.4-59.5-3.3-59.5-3.3l8-5.9s.8-.1 2.4-.3c.5-.1 1.1-.1 1.8-.2 8-.9 26.6-3.1 48.7-5.8 19.8-2.4 42.3-5 62.2-7.4 29.1-3.5 52.7-6.4 53.5-6.6z" fill="#95989a"/><path d="m866.02 973s-59.8-58.8-193.9-271.9l8.6-.1s167 257 195.8 276c28.7 19.1-10.5-4-10.5-4z" fill="#fefefe"/><path d="m945.22 1012.3s-52.6-4.2-120.5-98.2h-6.7l20.4 21.7 29.5 37.4 31.6 24.3 47.6 23.6z" fill="#fefefe"/><path d="m2400.72 1006.6s-179.9-88.4-214.4-257l1-7.2 5.5 7.1s27.5 148.5 201.5 241.6l15.1 10.8z" fill="#fefefe"/><path d="m1831.82 613.5s13.2 7.2 13.6 15.2 10.8 8.2 16.6 8.2-4.5-15.7-4.5-15.7h-6.1s-9.2-.3-9.2-7.2l-8.7-2.5z" fill="#606364"/><path d="m2961.32 906.6s-39.6 123.9-233.9 139.1v7.2l153.2-27 31.7-23.8 56.6-87.8z" fill="#fefefe"/><path d="m2962.12 940.1s-55.1 124.1-265.8 123.6l23 29 213.2-52.7 80.7-99.9z" fill="#239190"/></g></svg>