<svg fill="none" height="166" viewBox="0 0 335 166" width="335" xmlns="http://www.w3.org/2000/svg" xmlns:xlink="http://www.w3.org/1999/xlink"><filter id="a" color-interpolation-filters="sRGB" filterUnits="userSpaceOnUse" height="32.551" width="330.539" x="3.69154" y="133.366"><feFlood flood-opacity="0" result="BackgroundImageFix"/><feColorMatrix in="SourceAlpha" result="hardAlpha" type="matrix" values="0 0 0 0 0 0 0 0 0 0 0 0 0 0 0 0 0 0 127 0"/><feOffset dx="2.5" dy="2.25"/><feGaussianBlur stdDeviation="1.7536"/><feComposite in2="hardAlpha" operator="out"/><feColorMatrix type="matrix" values="0 0 0 0 0 0 0 0 0 0 0 0 0 0 0 0 0 0 0.7 0"/><feBlend in2="BackgroundImageFix" mode="normal" result="effect1_dropShadow_74_2"/><feBlend in="SourceGraphic" in2="effect1_dropShadow_74_2" mode="normal" result="shape"/></filter><clipPath id="b"><path d="m0 0h335v166h-335z"/></clipPath><g clip-path="url(#b)"><g style="filter:url(#a);fill:#fff;stroke:#000;stroke-width:1.38331;stroke-linecap:round;stroke-linejoin:round"><path d="m138.752 137.833c-2.075.323-2.919 1.815-3.524 3.546-1.981 5.644-3.962 11.287-5.922 16.94-.208.584-.458.887-1.136.845-.688-.052-1.386.021-2.074.073-.48.031-.647-.136-.814-.626-1.136-3.317-2.314-6.623-3.524-9.92-.417-1.147-.917-2.253-1.501-3.671-.354.761-.646 1.283-.854 1.836-.782 2.096-1.575 4.182-2.294 6.289-.594 1.753-1.147 3.526-1.626 5.32-.146.553-.365.688-.876.678-.709-.021-1.407-.01-2.116 0 0 0-.011 0-.021 0-.094 0-.532-.021-.699-.49v-.011c-.01-.031-.02-.062-.031-.104v-.01c0-.021-.01-.032-.01-.052-.49-1.659-.98-3.317-1.502-4.955-1.032-3.286-2.085-6.561-3.137-9.847-.313-.98-.668-1.95-.98-2.931-.595-1.836-1.689-3.035-3.743-2.941-.063-.115-.115-.178-.125-.24-.177-1.721-.146-1.7 1.543-1.669 2.846.052 5.702.01 8.559.01.365 0 .74-.073 1.094-.01.397.062 1.012-.334 1.085.501.093.97-.021 1.21-.855 1.449-.24.073-.49.126-.73.209-.917.323-1.095.522-.855 1.44.396 1.522.845 3.024 1.314 4.516.584 1.909 1.199 3.807 1.814 5.706.104.323.292.626.552 1.178.615-1.773 1.157-3.275 1.658-4.787.646-1.972 1.282-3.943 1.887-5.925.229-.751.448-1.523.531-2.305.053-.553.272-.678.741-.668 1.011.011 2.033 0 2.981 0 1.72 4.955 3.514 9.763 5.724 14.457 1.063-2.409 1.782-4.861 2.45-7.343.333-1.241.656-2.472.959-3.724.396-1.606-.063-2.295-1.71-2.597-.25-.052-.5-.094-.751-.146-.948-.157-1.345-.824-.938-1.679.073-.157.396-.293.605-.282.802.01 1.605.125 2.408.115 2.043-.021 4.097-.094 6.14-.115.407-.011.98-.292 1.085.511.145.97.052 1.293-.782 1.429z"/><path d="m285.663 157.075c-1.242.063-2.117-.605-2.91-1.418-2.137-2.201-4.022-4.611-5.765-7.125-.155-.229-.217-.511-.332-.792.73-.438 1.46-.793 2.105-1.263 1.73-1.251 2.657-2.941 2.377-5.1-.302-2.295-1.552-3.88-3.785-4.715-1.875-.709-3.795-.845-5.765-.803-2.71.063-5.41.052-8.12.063-.772 0-1.532-.042-2.305-.084-.542-.021-.812.188-.835.751-.01.522-.102 1.043.638 1.168.572.105 1.177.178 1.687.418.345.156.71.552.793.907.167.73.21 1.502.21 2.264.01 4.245-.01 8.48-.023 12.725 0 2.712-.457 2.702-2.562 3.025-.71.104-.753.25-.72 1.179.01.605.302.73.832.73 3.515-.021 7.028-.021 10.54-.031.5 0 .95-.011 1.013-.699.052-.616-.043-1.064-.763-1.127-.28-.031-.572-.052-.855-.104-1.072-.198-1.615-.616-1.657-1.523-.083-1.784-.083-3.578-.093-5.372 0-.177.125-.438.27-.511.585-.292 1.773.052 2.158.605.23.323.417.688.647 1.022 1.188 1.742 2.345 3.505 3.575 5.216.753 1.043 1.795 1.877 3.055 2.075 1.868.292 3.775.365 5.673.459 1.135.063 1.407-.281 1.427-1.387-.02-.386-.157-.574-.51-.553zm-10.697-11.787c-.355.95-1.158 1.513-2.138 1.68-.895.146-1.812.156-2.72.24-.585.052-.772-.219-.76-.762.02-1.241.01-2.482.01-3.724h.02c0-1.241-.02-2.482.01-3.713.023-.803.188-.96.99-.991 3.16-.115 4.973 1.669 5.058 5.059-.01.741-.21 1.513-.47 2.211z"/><path d="m233.946 135.837c-.115 1.543-.23 2.92-.313 4.308-.115 1.971-.125 2.002-2.095 1.794-.178-.699-.334-1.398-.543-2.076-.25-.824-.865-1.304-1.699-1.335-1.678-.063-3.367-.042-5.046-.052-.677 0-.75.479-.761.97-.021 1.46-.021 2.92-.021 4.381 0 2.274 0 2.284 2.242 2.284.584 0 1.168 0 1.751-.031 1.481-.073 1.668-.251 1.992-1.638.083-.365.208-.949.417-1.001.542-.136 1.136-.042 1.709.01.105.011.23.24.282.397.041.125.01.292.01.438-.052 2.117-.104 4.234-.146 6.352-.01.48-.052.834-.657.907-.907.115-1.407 0-1.626-.521-.094-.23-.156-.47-.219-.709-.292-1.117-.438-1.294-1.511-1.356-1.168-.073-2.336-.063-3.503-.084-.532-.01-.772.219-.751.793.042 1.606-.01 3.213.031 4.819.021 1.22.407 1.627 1.648 1.742 1.271.115 2.564.094 3.826.229 1.949.219 3.158-.751 4.055-2.336.302-.532.625-1.064.907-1.607.219-.438.438-.625.917-.281.219.156.522.219.803.261.417.062.459.333.365.636-.584 1.711-1.147 3.432-1.804 5.121-.114.292-.583.574-.927.637-.678.135-1.377.167-2.075.167-2.45-.021-4.9-.126-7.35-.126-3.148 0-6.286.073-9.435.094-.323 0-.886-.094-.938-.271-.125-.428-.073-.939.021-1.387.021-.125.417-.209.646-.261.751-.156 1.512-.24 2.242-.438.949-.25 1.126-.511 1.199-1.429.041-.584.083-1.168.083-1.752-.01-4.454-.01-8.919-.042-13.373-.01-1.606-.125-1.794-2.105-2.294-.105-.032-.219-.021-.324-.042-.98-.146-1-.209-.959-1.179.032-.574.282-.782.824-.74.292.02.584.01.876.01l17.326-.031z"/><path d="m76.9467 157.058c-1.251-.219-2.3142-.709-2.8355-1.961-1.001-2.399-2.0017-4.809-2.9607-7.229-.5943-1.491-1.1155-3.004-1.668-4.516-.834-2.264-1.689-4.517-2.45-6.811-.1565-.459-.3023-.574-.7193-.564-1.0217.011-2.0537.042-3.0755-.031-.542-.042-.6777.177-.8027.636-.3233 1.169-.6463 2.347-1.0738 3.484-.9487 2.535-1.96 5.049-2.9502 7.562-.8863 2.243-1.7933 4.475-2.669 6.718-.5943 1.523-1.7098 2.378-3.2838 2.67-.146.031-.292.042-.438.073-.834.136-.5732.793-.6045 1.304-.0315.584.3648.615.8025.615 2.815-.02 5.6298-.02 8.455-.041.7923-.011.8965-.157.959-.981.0523-.667-.2502-.928-.886-.949-.3127-.01-.6257-.115-.9385-.188-.9902-.229-1.3552-.605-1.1987-1.575.1667-1.043.5107-2.065.8132-3.077.1563-.511.5628-.688 1.105-.678 1.7618.021 3.5133.021 5.275-.01.5735-.011.8758.229 1.053.74.2608.741.5525 1.471.7923 2.222.6465 2.003.5005 2.18-1.324 2.587-.688.156-.7715.407-.6985 1.314.0522.678.5005.595.9382.605h5.0458c0-.01 0-.021 0-.031h5.2647c.4693 0 .8445-.052.98-.626.1878-.855.0625-1.085-.907-1.262zm-16.232-8.386c.49-2.42 1.4388-4.621 2.179-6.874h.2918c.782 2.253 1.564 4.506 2.398 6.884h-4.8688z"/><path d="m327.244 153.827c-.895 3.182-3.253 4.715-6.305 5.362-3.255.782-6.83-.324-6.83-.324-.533-.125-1.063-.261-1.575-.459-.415-.156-.895-.626-1.01-1.032-.418-1.617-.688-3.265-1.023-4.903-.115-.584.023-.97.69-1.105.968-.209.928-.23 1.333.552.532 1.033 1.032 2.087 1.69 3.036 1.115 1.616 2.72 2.441 4.69 2.482 1.23.032 2.325-.313 2.93-1.502.51-1.001.25-2.388-.678-3.306-.615-.616-1.325-1.158-2.042-1.638-1.543-1.033-3.19-1.919-4.66-3.046-2.91-2.211-3.515-4.861-2.44-8.104.792-2.41 2.857-3.745 5.37-4.225 2.657-.511 5.295-.344 7.912.313.405.104.843.094 1.24.136-.135 1.783-.292 3.504-.385 5.236-.022.5-.167.772-.667.761-.48-.01-1.065.219-1.305-.459-.175-.511-.313-1.032-.458-1.554-.677-2.253-3.137-3.484-5.337-2.67-1.878.699-2.47 3.327-1 4.819.645.657 1.47 1.168 2.26 1.669 1.272.793 2.597 1.502 3.88 2.274.625.375 1.24.782 1.792 1.251 2.075 1.701 2.628 3.943 1.928 6.436z"/><path d="m178.265 146.413c.135-.198.26-.323.344-.48 1.042-2.075 2.106-4.13 3.106-6.227.511-1.074.23-1.502-.948-1.711-.595-.104-1.189-.187-1.804-.281-.021-.177-.052-.313-.052-.459-.031-1.419.031-1.419 1.47-1.387 2.304.052 4.608.02 6.912.02.292 0 .584-.052.876-.041.406.01.896-.157.969.553.083.855-.073 1.189-.782 1.387-1.021.281-2.147.282-2.929 1.168-.24.271-.511.522-.688.824-1.72 2.952-3.451 5.904-5.129 8.887-.251.449-.376 1.033-.376 1.565 0 1.648.063 3.285.136 4.934.041 1.032.292 1.585 1.491 1.752.563.073 1.105.261 1.657.417.146.042.386.188.375.25-.052.418-.093.866-.281 1.231-.083.157-.5.198-.771.198-1.064 0-2.117-.073-3.18-.062-2.638.021-5.265.062-7.902.094-.501.01-1.053.135-1.074-.689-.021-.959.062-1.116.948-1.23.032 0 .073 0 .105-.011 2.575-.344 2.835-.271 2.888-3.265.031-1.7.187-3.431-.584-5.048-.542-1.148-1.064-2.305-1.647-3.432-.803-1.544-1.689-3.056-2.482-4.61-.875-1.732-2.095-2.942-4.159-3.036-.438-.021-.855-.104-.866-.74-.01-.96.157-1.127 1.126-1.127 3.222.011 6.433.021 9.654 0 1.147-.01 1.272.115 1.168 1.221-.052.605-.49.615-.907.73-.845.24-.959.354-.595 1.137 1.168 2.451 2.409 4.86 3.628 7.28.042.063.125.084.303.188z"/><path d="m14.6437 159.006c-2.7105 0-5.41061 0-8.12113 0-.91743 0-1.41783-.761-.95913-1.554.10425-.177.40658-.271.63593-.323.42742-.094.8653-.115 1.29272-.209 1.2823-.271 1.52208-.542 1.58463-1.825.0417-.73.0834-1.46.0834-2.191.02085-3.984.09382-7.969.02085-11.953-.0417-2.378.01042-2.848-2.7001-3.161-.77148-.094-.8236-.261-.80275-1.105.02085-.668.29192-.877.9487-.845 2.4082.083 4.82688.146 7.24548.156 1.2093.011 2.4082-.104 3.6175-.146.3127-.01.7715-.083.709.407-.0523.459.4482 1.147-.4588 1.335-.5212.115-1.032.292-1.5533.407-.8757.198-1.2093.521-1.2093 1.418-.0105 5.049 0 10.087.0312 15.135.0105 1.242.4692 1.722 1.7409 1.805 1.418.083 2.8565.083 4.2745.042 1.032-.032 1.595-.803 2.0328-1.627.6672-1.252 1.345-2.504 1.9287-3.797.2293-.501.4378-.595.886-.397.1983.084.4068.115.6153.178.5212.156.6985.511.5315 1.011-.7193 2.097-1.449 4.183-2.1683 6.269-.1982.584-.6152.897-1.2197.95-.5423.041-1.0948.073-1.6473.073-2.45.01-4.8997 0-7.3497 0 .0104-.011.0104-.032.0104-.053z"/></g><path d="m332.756 58.8994s-2.303 1.6792-6.025 3.025c-3.723 1.335-10.415 4.8292-10.415 4.8292l-25.895 10.264-77.856 24.6164-43.275 8.762-57.411-4.996-44.1925 1.158-54.7944-2.462-4.92064-40.6801-2.0746-1.429s-3.3152-1.6168-5.462778-3.2335l6.984848 1.5437 25.69787-23.0417-17.535-25.1694 15.106-5.80991 65.9077 4.74601 89.7605-5.92469 70.942 3.70293 53.108.44852 13.135 50.76654 3.18-.052 4.482-.7303z" fill="#fefefe"/><path d="m220.363.977246c0-.25035.021-.511125.031-.76145-.261-.010425-.511-.02085-.771-.02085-34.674 0-69.348 0-104.033 0-.949 0-1.897.02085-2.846.02085 0 8.626254 0 17.252504-.01 25.878804 0 13.8937-.011 27.777-.011 41.6708.615.073 1.22.1982 1.835.2192 3.909.0937 7.808.1562 11.718.2397 2.366.0523 4.743.167 7.11.2088 4.712.0937 9.424.1877 14.136.219 12.062.0835 24.124.1772 36.186.1982 5.192.0103 10.373-.1252 15.554-.2087 2.408-.0418 4.817-.146 7.225-.2085 2.627-.073 5.254-.1358 7.881-.219 2.002-.0628 4.004-.167 6.016-.2505-.011-.73-.032-1.4603-.032-2.1905 0-21.602 0-43.1938.011-64.795854zm-48.071 17.481854c-5.441.2087-10.748 1.1162-15.658 3.6195-4.545 2.3157-8.288 5.5285-11.124 9.8155-3.273 4.9545-5.285 10.3785-6.401 16.178-1.021 5.3302-1.219 10.723-1.042 16.126.021.5425.114 1.0847.177 1.6272.052.459-.136.678-.615.6675-2.596-.0625-5.192-.1042-7.777-.1565-1.647-.0312-3.295-.0832-4.931-.1042-1.846-.0313-1.648-.052-1.637-1.721-.626.0418-.918-.167-.897-.8763.115-3.39.011-6.8007.324-10.17.427-4.5582 1.803-8.9182 3.575-13.1532 2.127-5.1005 5.213-9.5545 9.122-13.414 2.951-2.91 6.308-5.33 9.956-7.3015 6.162-3.3273 12.75-5.4135 19.673-6.4775 5.066-.7823 10.164-1.1891 15.283-1.0222 3.096.1043 6.182.4277 9.257.7823 3.295.3755 6.568.9075 9.852 1.3769 2.346.3338 4.681.6989 7.027 1.0535.959.146.959.146.927 1.137-.01.1772.021.3545.021.5422.636.0733.907.24.782 1.0433-.542 3.4942-1.042 6.999-1.418 10.5142-.385 3.6195-.604 7.2703-.865 10.9-.042.5008-.177.9075-.667.991-.886.1565-1.793.313-2.69.3025-.688-.0105-.823-.4067-.803-1.6272-.688-.073-.834-.5215-.907-1.137-.375-3.171-.875-6.321-1.782-9.398-.23-.7928-.594-1.5543-.907-2.326-.052-.0628-.115-.1148-.167-.1775l.021.021c-.084-.1565-.157-.3025-.24-.459l.01.0207c-.072-.1562-.156-.3025-.229-.4587l.011.0102c-.157-.125-.313-.2502-.47-.3857-3.065-2.7225-6.734-4.1828-10.654-5.1113-2.815-.6675-5.671-1.043-8.559-1.116-1.856-.0522-3.722-.2087-5.578-.1357zm42.775 42.443c.083.6257-.355.9907-.98 1.0952-.574.0938-1.157.1461-1.72.3026-1.147.3232-2.315.6464-3.42 1.0949-.948.3755-1.584 1.1475-1.96 2.1073-.187.4692-.427.7717-1.021.7822-4.118.052-8.236.146-12.365.219-.927.0105-1.365-.4797-1.574-1.6689-.052-.0418-.104-.0835-.167-.125-.125 0-.281.0414-.385.0102-.021-.0103-.052-.0208-.063-.0313-1.626-1.2412-3.565-1.6375-5.504-1.94-2.044-.313-4.118-.4902-6.172-.7095-1.105-.1147-1.168-.1562-1.512-1.7105-.219-.2087-.615-.4067-.636-.6362-.073-.751-.041-1.523.021-2.2845.032-.4485.323-.7195.824-.6988.219.0105.438 0 .657 0 4.67.0523 9.351.1148 14.021.167 4.494.052 8.976.125 13.47.1043 2.033-.0105 4.076-.2088 6.109-.3443 1.386-.094 1.386-.1147 1.647 1.2518.031.146.073.2815.104.4275 1.272.5947.511 1.7107.626 2.587z" fill="#84ccb8"/><path d="m327.273 1.40493c0-.18775-.012-.36505 0-.542375.04-.458975-.125-.698875-.615-.667575-.22.010425-.44 0-.657 0-34.038 0-68.065.010425-102.104.010425-1.168 0-2.346.010425-3.513.010425-.011.25035-.032.5111-.032.76145 0 21.59162-.01 43.19382-.01 64.78562 0 .73.021 1.4602.031 2.1902 1.022-.052 2.033-.125 3.055-.1667 3.899-.167 7.808-.3025 11.707-.4798 2.805-.1252 5.609-.2817 8.413-.4277 3.9-.219 7.798-.438 11.688-.6675 2.147-.1253 4.295-.2713 6.442-.4278 3.493-.2607 6.973-.5527 10.465-.824 1.273-.094 2.545-.146 3.818-.2502 2.427-.1983 4.867-.4173 7.297-.6155 2.075-.167 4.148-.313 6.213-.4903 2.065-.1772 4.127-.3965 6.202-.5945 1.743-.167 3.483-.313 5.223-.4902 2.65-.2713 5.287-.553 7.935-.824 1.595-.167 3.19-.313 4.785-.4903 1.782-.1982 3.575-.4277 5.357-.6362.21-.021.408-.0523.615-.0733.283-.0312.575-.0625.855-.0937.115-.0105.24-.0313.355-.0418.533-.0625 1.063-.1147 1.595-.1772l.198-.021c.49-.052.97-.1043 1.45-.1565 1.085-.1145 2.167-.2293 3.242-.3545v-.0625c0-19.391 0-38.7923-.01-58.18297zm-17.107 16.55367c-.575 3.5778-1.2 7.1555-1.68 10.7438-.343 2.6285-.48 5.2777-.708 7.9167-.062.7198-.075 1.4605-.23 2.1593-.072.3232-.385.6987-.697.845-.408.198-.918.2397-1.378.271-1.552.0835-1.7-.052-1.845-1.6793-.437-.1042-.657-.3547-.72-.824-.155-1.1892-.365-2.3677-.572-3.5465-.448-2.5972-1.023-5.1737-2.075-7.6145-.158-.3545-.408-.678-.615-1.0117-.053-.0938-.115-.1878-.168-.292l.033.0207c-.095-.146-.188-.292-.283-.4275-.197-.1357-.405-.2607-.615-.3965-.207-.1355-.417-.2712-.625-.4067-2.595-1.7628-5.41-3.0145-8.455-3.7865-3.117-.803-6.275-1.283-9.507-1.335-1.565-.021-3.138-.219-4.703-.167-5.712.167-11.237 1.1265-16.335 3.9115-3.275 1.7837-6.14 4.0265-8.57 6.8845-1.835 2.159-3.397 4.4747-4.617 7.0197-1.898 3.9743-3.19 8.1258-3.963 12.4648-.854 4.7982-1.157 9.6172-1.052 14.478v.1147c-.011.4903.177 1.1475-.073 1.429-.271.3025-.939.2503-1.429.3548-.146.0312-.292.0417-.437.0417-2.044.0833-4.087.146-6.13.2293-1.679.0627-3.357.167-5.036.2192-1.595.0418-1.595.0208-1.647-1.6065-.667 0-.803-.3755-.824-.9805-.198-6.0392.417-11.9745 2.231-17.753.595-1.8777 1.105-3.8177 1.95-5.5805 2.679-5.6015 6.318-10.5142 11.061-14.5615 7.329-6.2792 15.784-10.1594 25.301-11.7345 3.723-.6154 7.455-.9805 11.228-1.1682 5.65-.2712 11.25.1773 16.837.8866 4.743.605 9.488 1.2517 14.23 1.8775l.22.0313c1.168.1565 1.168.1565.833 1.3248-.03.0938.01.219.022.3233 1.083.146 1.208.3232 1.043 1.3247z" fill="#239190"/><path d="m220.384 78.9891c.24-.0733.469-.1983.709-.2193 2.106-.1667 4.212-.3025 6.307-.4587.136.0312.271.073.407.1042.302.8448.583 1.7105.917 2.545.719 1.7733 1.47 3.536 2.21 5.299.063.0625.125.125.198.1878l-.01-.0105c.073.073.156.146.229.2295l-.01-.0105c.146.292.302.5945.448.8865v-.0103c.146.9075.594 1.6375 1.324 2.2008.146.219.292.4382.438.6572-.031.3443.01.6258.438.657.01.1463-.021.3235.052.4173 1.053 1.3352 2.127 2.66 3.19 3.9847 4.39 5.1322 9.915 8.6782 16.033 11.3282 2.137.928 4.432 1.491 6.682 2.117 4.63 1.293 9.353 1.878 14.148 2.117 3.66.178 7.307.063 10.957-.177 4.493-.292 8.883-1.168 13.25-2.222 2.45-.584 4.4-1.783 5.775-3.922.908-1.418 1.908-2.764 2.805-4.193 2.315-3.7132 4.078-7.6769 5.4-11.8492.26-.824.26-1.5855-.562-2.1277.092-1.2623-.823-1.6795-1.74-2.0968-.94-.4275-1.273-.3127-1.805.553-.885 1.429-1.7 2.8998-2.68 4.2558-1.658 2.305-3.398 4.5582-5.16 6.78-1.46 1.8462-3.273 3.3065-5.338 4.4639-3.847 2.18-8.067 2.921-12.385 3.213-2.282.146-4.607.011-6.88-.219-3.7-.375-7.33-1.168-10.832-2.493-4.565-1.7314-8.653-4.2454-12.155-7.6249-2.825-2.7225-5.17-5.8413-6.913-9.3773-.135-.219-.28-.438-.417-.6675l.012.0105c-.147-.2922-.302-.5947-.45-.8867v.0105c-.082-.386-.135-.7823-.27-1.1578-.49-1.45-1-2.8895-1.512-4.3392.375-.0628.74-.1253 1.115-.1878l.44-.0312c4.647-.5425 9.297-1.064 13.937-1.6273 3.148-.386 6.298-.7822 9.435-1.2412 2.908-.4173 5.795-.9075 8.695-1.3873 3.795-.626 7.6-1.1997 11.383-1.9192 5.515-1.0433 11.02-2.107 16.492-3.3275 6.455-1.429 12.875-3.025 19.308-4.5688.96-.2295 1.897-.532 2.837-.7927.135.0627.26.1357.395.1982.01.146.02.292.02.438 0 20.0898.013 40.1902.013 60.2792-.053.084-.115.157-.168.24-.917.011-1.825.021-2.742.021-34.11 0-68.233 0-102.344 0-.552 0-1.094-.021-1.647-.031-.01-.553-.031-1.095-.031-1.648 0-13.414 0-26.8177 0-40.2317.021-.678.041-1.4082.052-2.1382z" fill="#239190"/><path d="m112.682 123.017c-.73.011-1.46.032-2.189.032-34.1636 0-68.3269 0-102.48991 0-.7089 0-1.42825-.084-2.13715-.136-.02085-.688-.06255-1.377-.06255-2.065-.01042-19.339-.01042-38.6882-.01042-58.0267v-.8555s8.51733 2.2428 22.19513 4.4228c2.0745.386 4.1595.7302 6.2343 1.116 1.8765.3442 3.732.7302 5.6087 1.1057-.0627 1.2413-.167 2.472-.1877 3.7133-.0938 5.5805-.1668 11.161-.2398 16.752-.021 1.721.052 3.4317-.0417 5.1527-.0835 1.742-.2085 3.4838-.8133 5.1528-.4482 1.2409-1.2405 2.1699-2.4915 2.5869-1.1362.375-2.304.668-3.4715.897-1.6367.323-3.2945.574-4.952.814-.7297.104-.9905.511-.9905 1.189 0 .365.021.73-.0102 1.095-.0628.636.2085 1.053.7715 1.304.2397 1.585.2397 1.606 1.8137 1.564 4.754-.125 9.4975-.375 14.2513-.365 6.9117.021 13.8132.23 20.7252.355 1.8453.031 2.012-.146 2.012-2.034 0-.219-.0105-.438-.021-.657-.0312-.417-.2397-.678-.667-.741-.0522-.167-.1252-.344-.167-.511-.2292-1.105-.2917-1.147-1.3447-1.325-2.283-.375-4.5663-.73-6.8388-1.168-1.2407-.24-2.4812-.573-3.2945-1.7-.0832-.302-.1772-.605-.2605-.9074-.1355-1.377-.365-2.7538-.3857-4.1308-.1043-7.3432-.1565-14.6865-.2295-22.0297-.0103-.9075 0-1.815 0-2.8373.9175.094 1.7722.167 2.6272.2923 3.2525.4692 6.5053.9595 9.7475 1.4602 1.3865.219 2.773.4798 4.1595.7303.1355.0207.2503.125.3755.198.3543.5112.7193 1.0327 1.0738 1.5437l.8757 1.3143c.2918.4382.5838.8762.8755 1.3145.292.438.584.876.8758 1.3142.8757 1.3143 1.7515 2.6285 2.6375 3.9428.0522.167.073.365.167.5007 1.1885 1.794 2.3767 3.588 3.5862 5.3823.0833.125.271.1877.417.2712.146.8553.6463 1.4708 1.3135 1.9713l.219.4382.4378.438c.146.219.292.438.438.6573.323.9907.834 1.8462 1.7512 2.4095.292 1.1995 1.199 1.9712 1.9705 2.837 1.6053 1.9715 3.1378 3.9954 5.0665 5.6954 1.5743 1.387 3.3258 2.514 5.2543 3.265 2.2935.886 4.7221 1.335 7.1721 1.575 2.867.271 5.734.48 8.601.719.031 4.663.042 9.315.042 13.967z" fill="#196072"/><path d="m112.734 123.059c0-4.652-.011-9.304-.011-13.956 1.752-.011 3.503-.032 5.244-.042 1.762-.011 1.887-.104 2.158-1.836.031-.219.031-.438.052-.657.084-.668-.167-1.054-.875-1.074.01-1.628.01-1.555-1.669-1.753-1.657-.198-3.294-.573-4.941-.866.01-.99.031-1.971.031-2.962.011-7.3432.011-14.6864.021-22.0402 1.449.0835 2.909.146 4.358.2505 2.575.198 5.15.417 7.725.6258 1.115 3.5985 2.69 6.999 4.639 10.2117 1.043 1.7003 2.304 3.2647 3.472 4.892-.303.365-.053.4278.25.4693l-.011-.0103c.073.146.157.3025.23.4485l-.011-.021c.094.1878.157.4173.292.5633 2.461 2.7225 5.129 5.1944 8.226 7.1974 4.899 3.171 10.206 5.33 15.898 6.634 4.962 1.137 9.998 1.731 15.064 1.992 6.933.355 13.803-.386 20.59-1.752 5.004-1.012 9.956-2.316 14.918-3.526.991-.24 1.085-.427 1.178-1.429.032-.292.011-.584.052-.876.084-.678-.198-1.043-.875-1.095.198-1.075-.323-1.617-1.293-1.992-.573-.22-1.053-.6995-1.574-1.0645.062-.3755.187-.7614.177-1.1369-.042-1.3143-.177-2.618-.188-3.9325-.02-4.5268 0-9.0643.021-13.5913 0-1.137.011-1.0952 1.157-1.1577 3.389-.1773 6.777-.4068 10.165-.584 1.053-.0523 2.116-.021 3.18-.0315-.011.7302-.032 1.4604-.032 2.1904v40.232c0 .552.021 1.095.032 1.648-.918.01-1.825.021-2.742.021-34.685 0-69.359.01-104.043.01-.282.042-.573.01-.865 0z" fill="#84ccb8"/><path d="m140.652 79.6774c2.189.0522 4.379.1147 6.568.167 3.909.0937 7.819.2085 11.728.2502 8.34.0835 16.681.1358 25.021.167 2.523.0103 5.045-.1147 7.568-.167.396-.0105.803.0418 1.199.0625-.01 2.034.011 4.0785-.021 6.1125-.052 3.098-.094 6.2063-.26 9.3043-.073 1.3352-.313 2.6807-.688 3.9637-.532 1.8354-1.689 3.2334-3.503 3.9744-2.085.855-4.285 1.262-6.516 1.314-3.023.063-6.067-.042-9.091-.188-3.075-.156-6.067-.876-8.965-1.888-6.078-2.128-11.374-5.4759-15.555-10.4304-3.179-3.797-5.796-7.938-7.485-12.6422z" fill="#84ccb8"/><path d="m112.702 102.875c-2.856-.959-5.337-2.524-7.516-4.5681-1.22-1.1475-2.513-2.2428-3.659-3.463-1.6161-1.7315-3.2008-3.5048-4.6708-5.3615-2.721-3.4213-5.3688-6.9158-8.0168-10.3995-.9382-1.2413-1.7827-2.5555-2.6792-3.8385 3.1587.3232 6.3175.657 9.4762.9595 4.2848.4172 8.5796.8137 12.8646 1.2205 1.418.1355 2.825.3025 4.243.4485-.01 7.3432-.01 14.6865-.021 22.0402.011.9909-.01 1.9719-.021 2.9619z" fill="#196072"/><path d="m244.976 82.4833c-1.043-1.6795-1.74-3.5047-2.2-5.424.147-.021.292-.0417.427-.0627.503 1.45 1.023 2.8895 1.513 4.3392.125.365.177.7615.26 1.1475z" fill="#239190"/><path d="m70.116 73.4816c.4795.4067.9485.824.8965 1.5437-.3545-.5112-.7193-1.0327-1.0738-1.5437.0625-.0313.125-.0313.1773 0z" fill="#95989a"/><path d="m53.8838 100.706c-.219-.282-.438-.553-.6567-.8347.1355-.0207.2605-.0417.396-.0625.094.2922.1772.5942.2607.8972z" fill="#fefefe"/><path d="m227.858 78.3005c0 .0418-.02.0833-.041.125-.136-.0312-.271-.073-.407-.1042.146-.0105.292-.0208.448-.0208z" fill="#84ccb8"/><path d="m192.038 64.8343c-.052-.0417-.105-.0835-.157-.125-.646-1.4187-1.762-2.3052-3.221-2.7537-.897-.2713-1.824-.4903-2.752-.6155-2.554-.365-5.109-.6675-7.663-.991-.219-.2085-.615-.4068-.636-.6363-.073-.751-.041-1.5227.021-2.2842.031-.4485.323-.7198.824-.699.219.0105.438 0 .657 0 4.67.0522 9.34.1147 14.021.167 4.494.0522 8.976.1252 13.47.1042 2.033-.0105 4.076-.2085 6.109-.3442 1.386-.0938 1.386-.1148 1.647 1.2517.031.146.073.2818.104.4278-.062.198-.177.3962-.187.605-.094 1.1265-.084 1.1577-1.179 1.4185-1.23.3025-2.47.5215-3.7.8345-1.481.3755-2.701 1.137-3.243 2.639-.239.6675-.625.824-1.292.824-3.503.0522-7.006.1565-10.498.2295-.803.0105-1.564-.0313-2.325-.0523z" fill="#fefefe"/><path d="m123.273 64.5006c3.587.073 7.163.1565 10.749.219 1.084.021 2.179 0 3.273 0 0-.9805.042-1.8775-.01-2.7745-.271-4.5375.073-9.054.657-13.5495.437-3.39 1.261-6.6965 2.439-9.8885 3.347-9.0538 9.164-15.8338 18.348-19.3908 2.763-1.0742 5.661-1.669 8.612-2.0445 3.429-.4275 6.859-.4692 10.289-.1877 1.918.1565 3.805.605 5.713.7825 1.939.1772 3.774.7405 5.578 1.408 2.585.9492 5.17 1.9505 7.109 4.0472.397.4275.72.9075 1.074 1.3663-.01.1045-.021.2087-.041.3235-3.065-2.7225-6.735-4.1828-10.655-5.111-2.815-.6678-5.671-1.0433-8.559-1.1163-1.866-.052-3.722-.2085-5.577-.146-5.442.2085-10.749 1.116-15.659 3.6195-4.545 2.3155-8.288 5.5283-11.124 9.8153-3.273 4.9547-5.285 10.3787-6.401 16.1782-1.032 5.33-1.219 10.7228-1.042 16.126.021.5423.115 1.0848.177 1.6273.052.4587-.135.678-.615.6675-2.596-.0628-5.192-.1043-7.777-.1565-1.647-.0313-3.284-.0835-4.931-.1043-1.835-.0105-1.637-.0417-1.627-1.7107z" fill="#606364"/><path d="m192.038 64.8343c.761.021 1.532.0628 2.293.0523 3.503-.073 6.995-.1773 10.498-.2295.668-.0105 1.053-.1565 1.293-.824.542-1.502 1.762-2.2635 3.242-2.639 1.22-.313 2.471-.532 3.701-.8345 1.095-.2713 1.084-.292 1.178-1.4185.021-.2088.125-.4068.188-.605 1.282.584.521 1.7002.636 2.5762.083.626-.355.991-.98 1.0953-.574.094-1.157.146-1.72.3025-1.147.3235-2.315.6467-3.42 1.0952-.948.386-1.584 1.1475-1.96 2.107-.187.4695-.427.772-1.021.7825-4.118.052-8.236.146-12.354.219-.938.0103-1.376-.4902-1.574-1.6795z" fill="#606364"/><path d="m201.733 39.1015c.865-.0937 1.741-.1667 2.596-.292.49-.073.688-.3962.73-.9282.333-4.4018.656-8.8035 1.063-13.195.209-2.253.573-4.4853.897-6.7173.052-.3442.25-.6572.375-.991.636.073.907.2398.782 1.043-.542 3.4943-1.043 6.999-1.418 10.5143-.386 3.6195-.605 7.2702-.865 10.9002-.042.5005-.178.9073-.668.9908-.886.1565-1.793.313-2.689.3025-.699 0-.834-.4068-.803-1.6273z" fill="#606364"/><path d="m178.224 60.3491c2.555.3235 5.119.6363 7.663.991.928.1355 1.856.3443 2.752.6155 1.136.3443 2.075.9595 2.731 1.8983.188.2607.345.5425.49.8555-.156 0-.354.0625-.458-.0105-1.627-1.2413-3.566-1.6378-5.505-1.9403-2.043-.3127-4.118-.4902-6.171-.6987-1.085-.1148-1.147-.167-1.502-1.7108z" fill="#606364"/><path d="m197.083 24.8218c.011-.1043.021-.2085.042-.3233.146.2295.292.4695.428.699-.157-.1147-.313-.2505-.47-.3757z" fill="#727376"/><path d="m197.751 25.6356c.083.1565.156.3025.239.459-.073-.1565-.156-.313-.239-.459z" fill="#727376"/><path d="m197.532 25.1976c.073.1563.156.3025.229.4588-.073-.1563-.146-.3025-.229-.4588z" fill="#727376"/><path d="m197.97 26.0736c.052.0628.114.1148.166.1775-.062-.0627-.114-.1147-.166-.1775z" fill="#727376"/><path d="m226.076 63.9791c1.71-.1043 3.419-.24 5.139-.3233 2.628-.1252 5.265-.2192 7.892-.334 1.001-.0415 1.001-.052.991-1.0637 0-2.4513-.094-4.9025.02-7.3433.126-2.5347.271-5.1007.741-7.5832.509-2.7328 1.219-5.4658 2.157-8.0943 2.522-7.093 6.567-13.101 12.99-17.2837 3.492-2.274 7.33-3.6925 11.437-4.4645 4.128-.7718 8.268-.9283 12.438-.6258 3.177.2295 6.347.584 9.392 1.5438 2.878.897 5.755 1.8462 8.068 3.8907.72.6363 1.272 1.481 1.897 2.232-.415-.271-.832-.532-1.25-.8135-2.595-1.7627-5.41-3.0145-8.455-3.7865-3.117-.803-6.275-1.283-9.507-1.335-1.565-.021-3.138-.219-4.703-.167-5.712.167-11.237 1.1265-16.335 3.9013-3.275 1.7835-6.14 4.0262-8.57 6.8842-1.835 2.1593-3.397 4.4748-4.617 7.02-1.898 3.974-3.19 8.1255-3.963 12.4648-.854 4.798-1.157 9.617-1.052 14.4777v.1148c-.011.4902.177 1.1475-.073 1.429-.271.3025-.939.2505-1.429.3547-.146.0313-.291.0418-.437.0523-2.044.0832-4.087.146-6.13.2293-1.679.073-3.357.1669-5.036.2192-1.553.052-1.553.0312-1.605-1.596z" fill="#606364"/><path d="m111.514.142749c-10.321 0-20.6417 0-30.9627 0-24.5615 0-49.1128 0-73.6744-.010425-1.12592 0-1.12592 0-1.12592 1.126526 0 5.1945.01042 10.38905.01042 15.57325.01043 14.1752.01043 28.3612.02085 42.547v.021c.85485.1355 1.72013.3022 2.58543.3962 1.95992.219 3.90942.4278 5.86942.6363 1.0008.1042 2.0017.2087 2.9919.3235 1.324.146 2.648.2815 3.972.4275 3.847.4172 7.6833.8657 11.5303 1.2517 3.5237.3443 7.0472.6258 10.571.9388 3.8157.3442 7.6312.7092 11.4467 1.0327 2.3665.198 4.733.3233 7.0995.5005 3.4925.2608 6.985.5633 10.4773.8138 2.6167.1877 5.244.3127 7.871.4797 3.2422.1983 6.4845.4278 9.7267.6155 1.6368.0938 3.284.1773 4.9208.2398 2.3767.094 4.7432.167 7.1207.2712 3.106.1355 6.203.2818 9.299.4173.469.0207.949-.0105 1.428-.0105 0-13.8938.011-27.7875.011-41.6708 0-8.6262 0-17.25258.01-25.878826-.396-.02085-.803-.041725-1.199-.041725zm-15.867 41.827351c-.4485 4.4227-2.1165 8.3237-4.7645 11.8077-1.0945 1.4395-2.429 2.7223-3.826 3.8803-2.304 1.9192-4.8162 3.536-7.5267 4.8397-1.2928.626-2.6585.991-4.0868 1.0745-1.7097.1043-3.4195.2608-5.1292.1878-2.0955-.0835-4.1908-.3653-6.2863-.5843-1.3762-.146-2.7417-.3232-4.1075-.5005-.1772-.021-.344-.1045-.5212-.1565-.0105 0-.021-.0105-.0313-.021-.0105-.0102-.0105-.0207-.0105-.0312 0-.0313 0-.0523 0-.0835v-1.3978c-.4275-.0415-.8652-.0937-1.2927-.1355l2.721-.146c1.9182-.0625 2.6897-.146 4.5975-.2295 2.9712-.1147 5.8172-.7405 8.4442-2.201 2.9088-1.627 4.733-4.1617 6.1093-7.0927.4377-.9285.7922-1.888 1.0632-2.879.2815-1.0118.511-2.0445.6568-3.077.5317-3.7968.3127-7.5938-.6568-11.2863-.5315-2.034-1.1987-4.0887-2.4395-5.8725-.2292-.3232-.5002-.605-.761-.9075-.052-.1042-.1042-.2085-.1562-.3127v-.0105c-.094-.0418-.1983-.073-.3025-.1043-.0313-.0105-.0625-.021-.0938-.0312-.0312-.0105-.0625-.021-.0937-.0313-.021-.0105-.0523-.021-.073-.0315-.021-.0102-.0418-.0207-.0625-.0312-.021-.0105-.0418-.0208-.0628-.0313-.0207-.0105-.0415-.0207-.0625-.0417-.0312-.0208-.0625-.0418-.0832-.0625-2.9818-2.7643-6.568-4.2975-10.5085-5.0173-2.5438-.459-5.1188-.772-7.7043-.6467-1.2615.0625-2.523.2712-3.774.5112-1.2717.2398-1.4385 1.3873-1.5637 2.3678-.1773 1.554-.2293 3.1292-.2398 4.6937-.0207 10.6708-.0312 21.3413-.0312 32.0225 0 .1253 0 .24.0105.365 0 .0628.0102.1253.0102.1878.021.2505.0418.5112.0628.8032 0 .0313 0 .073.0102.1148 0 .0417.0105.073.0105.1147 0 .0313-.0207.052-.0522.052-.0415 0-.0728 0-.1145 0-.0625 0-.1355 0-.1983 0-.1042 0-.2085 0-.3127 0-.1355 0-.2605 0-.3858-.0102-2.2412-.1983-4.4827-.4068-6.724-.605-1.126-.1043-2.252-.1983-3.3675-.2608-1.1882-.0627-1.1987-.0522-1.2197-1.2725 0-.1252 0-.261 0-.386 0-.0312-.0208-.0522-.052-.0522-.709-.0208-.8758-.4173-.8653-1.116.0418-3.1398.0418-6.2795.0103-9.419-.052-6.8635-.1043-13.727-.2188-20.5905-.0312-1.7315-.2085-3.463-.4067-5.1945-.0625-.5005-.4065-.97-.6358-1.4498-.0105-.0105-.0105-.021-.0312-.021-.1148-.052-.219-.0937-.3338-.146-.1147-.052-.219-.0937-.3335-.146-.094-.0417-.1772-.073-.271-.1147-.146-.0625-.292-.1148-.438-.1773-.1772-.073-.3647-.1355-.542-.1982-.073-.0313-.146-.052-.2295-.0835h-.0102c-.0628-.0208-.1253-.0415-.1878-.0625-.073-.0208-.146-.0418-.2085-.0625-.0625-.021-.146-.0418-.2085-.0628-.0835-.0207-.1667-.052-.2607-.073-.0833-.0207-.1563-.0417-.2398-.0625-.052-.0105-.1145-.0312-.1667-.0417-.125-.0313-.2605-.0523-.3858-.0835-.0417-.0103-.0832-.0103-.1355-.0208-.052-.0105-.1042-.021-.1667-.0312-.0105 0-.021 0-.021 0-.0625-.0105-.1145-.021-.177-.021-.0105 0-.021 0-.0315 0-.052-.0103-.1145-.0103-.1668-.0208-1.5845-.1772-3.1587-.4382-4.7432-.553-.1043-.0102-.1983-.0102-.292-.0207-.0313 0-.0625 0-.0938-.0105-.0105 0-.0312 0-.0417 0-.021 0-.0418 0-.0625 0h-.0105c-.0418 0-.073-.0103-.1043-.0103-.0417 0-.0937-.0105-.1355-.0105-.021 0-.0417 0-.0625-.0105-.094-.0105-.1877-.0207-.2607-.0417-.0208 0-.0418-.0103-.0625-.0103-.0105 0-.021-.0105-.0313-.0105-.0312-.0105-.073-.021-.1042-.0312-.021-.0105-.0418-.021-.0625-.021-.021-.0105-.0315-.0208-.0523-.0313l-.0207-.0105c-.0105-.0102-.021-.0102-.0313-.0207l-.021-.0105c-.0105-.0105-.0207-.0208-.0312-.0313s-.0208-.0207-.0313-.0312v-.0105c-.0105-.0105-.0207-.0208-.0312-.0418-.0105-.0105-.0105-.0207-.021-.0417-.0103-.0208-.0208-.0418-.0313-.0625 0-.0105-.0102-.0208-.0102-.0313s-.0105-.0312-.0105-.0417l-.0105-.0313c0-.021-.0103-.0312-.0103-.0522 0-.0208-.0105-.0418-.0105-.0625 0-.0313-.0105-.0523-.0105-.0835 0-.0313-.0105-.0625-.0105-.094 0-.0208 0-.0313 0-.052 0-.0313 0-.0625-.0102-.1043 0-.0315 0-.0522 0-.0835 0-.0312 0-.0625 0-.0835 0-.0417 0-.0835 0-.1252 0-.0938 0-.1878-.0105-.292 0-.0313 0-.0625 0-.0938v-.0105c-.0105-.021-.0208-.0417-.052-.0417-.5423-.0523-.8028-.3548-.8028-.918 0-.219-.021-.438-.021-.657.0313-1.7524.2295-1.9819 1.96-1.8985 12.6353.6259 25.281.3338 37.9265.3442 2.5543 0 5.1085.167 7.6418.4277 2.429.2503 4.806.8761 7.0787 1.8253 5.4315 2.2635 9.6433 5.8413 11.968 11.3593.469 1.116.688 2.3365 1.0113 3.5047 0 .0103.0102.0208.0207.0313.0313.0207.0625.0417.0938.0625l.0105.0105c.0105.0105.021.0207.0312.0207.0105.0105.0313.021.0418.0418l.0312.0312.0523.0523.052.0522c.0105.0208.0312.0313.0417.052.0313.0313.052.073.0835.1043.0103.021.0313.0315.0415.0522.021.0313.0418.0625.0628.094.0207.0313.0415.0625.052.0938.0207.0312.0312.0625.0417.094.0105.0207.0208.0312.0208.052.0312.073.0625.1565.094.2295.0102.021.0207.0522.0207.073.0208.0627.0418.1252.052.1877.0105.0418.021.073.0315.1148.0103.0312.0103.0627.0208.0835 0 .0207.0105.0417.0105.073.0102.0522.0207.1147.0312.167.0105.073.0313.146.0418.2085.5212 2.6702.6567 5.3302.3857 8.0525z" fill="#196072"/><path d="m5.81374 59.452c.85485.1358 1.72012.3025 2.575.3965 4.27426.4693 8.55906.9178 12.83326 1.3768 3.847.4172 7.6835.8657 11.5303 1.2517 3.5237.3545 7.0475.6258 10.571.9388 3.8157.3442 7.6312.7197 11.447 1.043 2.3665.1982 4.733.3235 7.0995.5007 3.4922.2608 6.9847.5633 10.4772.8135 2.6165.1878 5.2438.313 7.871.48 3.242.198 6.4843.4173 9.7265.6153 1.6368.1045 3.284.1775 4.9208.24 2.377.0937 4.7435.167 7.1207.2712 3.106.1355 6.203.2815 9.299.4173.469.0207.949-.0105 1.428-.0105.615.073 1.22.1982 1.835.219 3.909.094 7.808.1565 11.718.24 2.366.052 4.743.1667 7.11.2085 4.712.094 9.424.1772 14.136.219 12.062.0835 24.124.167 36.186.1982 5.181.0105 10.373-.1252 15.565-.2085 2.408-.0417 4.816-.146 7.224-.2087 2.627-.073 5.254-.1355 7.882-.219 2.001-.0625 4.003-.167 6.015-.2503 1.022-.0522 2.033-.1252 3.054-.167 3.899-.1667 7.809-.3025 11.708-.4797 2.804-.1253 5.609-.2818 8.413-.4383 3.9-.219 7.787-.438 11.687-.6675 2.148-.125 4.295-.2712 6.443-.4275 3.492-.261 6.975-.553 10.467-.8242 1.27-.0938 2.543-.146 3.815-.2503 2.428-.1982 4.868-.4172 7.298-.6155 2.075-.1667 4.15-.3127 6.212-.4902 2.065-.1773 4.13-.3963 6.203-.5945 1.742-.1668 3.482-.3128 5.225-.4903 2.647-.2607 5.285-.5527 7.932-.824 1.595-.1667 3.19-.313 4.785-.4902 2.283-.2608 4.555-.5528 6.84-.8033 2.283-.2607 4.565-.5005 6.838-.751 1.272-.1355 2.535-.271 3.805-.4067-.01.0417-.01.0835-.01.1252-.97.2608-1.928.5008-2.888.7823-.332.094-.647.2817-.97.4172-1.052.2713-2.105.5425-3.157.8135-.96.2088-1.92.407-2.878.626-6.015 1.3768-12.02 2.8058-18.057 4.1098-4.993 1.0742-10.018 2.0652-15.043 2.9517-6.225 1.1058-12.457 2.1175-18.692 3.0773-5.16.7927-10.333 1.481-15.513 2.1277-4.39.5425-8.777.97-13.178 1.4185-4.211.4278-8.423.8555-12.645 1.21-2.69.2295-5.401.3443-8.101.5113-4.378.2712-8.746.5422-13.125.803-.146.0105-.292.021-.438.021-3.138.1042-6.286.219-9.424.292-3.545.094-7.089.1772-10.644.2087-7.173.073-14.335.198-21.507.125-6.651-.073-13.303-.3545-19.964-.584-3.691-.1252-7.381-.292-11.061-.4902-3.576-.1878-7.152-.386-10.728-.6363-3.273-.2295-6.547-.532-9.831-.8032-2.95-.24-5.9-.4485-8.84-.7303-4.108-.3857-8.2155-.8135-12.3125-1.2515-2.8667-.3025-5.7337-.605-8.6007-.9492-3.2318-.3755-6.453-.7823-9.6745-1.1995-2.8565-.3755-5.7233-.7615-8.5695-1.1683-3.7635-.532-7.5165-1.064-11.2695-1.6482-4.7643-.751-9.5183-1.5123-14.2615-2.3573-5.244-.9282-10.4878-1.9297-15.7213-2.952-3.9822-.7717-7.9439-1.6062-11.9158-2.4095-.636-.125-1.2719-.198-1.9078-.3025-1.36574-.7195-2.87739-.8552-4.35774-1.0847-1.17805-.3338-2.3561-.6675-3.53412-1.0013 0-.0417 0-.0835 0-.1147 1.15717.1042 2.33522.1772 3.5237.2502z" fill="#95989a"/><path d="m140.652 79.6773c1.679 4.7042 4.306 8.8452 7.506 12.6422 4.181 4.965 9.466 8.3135 15.555 10.4305 2.898 1.012 5.89 1.732 8.965 1.888 3.024.157 6.057.251 9.091.188 2.221-.052 4.431-.459 6.516-1.314 1.814-.741 2.971-2.149 3.503-3.9745.375-1.283.615-2.6285.688-3.9637.166-3.098.198-6.1958.26-9.3043.042-2.034.021-4.0785.021-6.1125 2.554-.1042 5.119-.198 7.673-.3127 1.209-.0523 2.408-.1043 3.617-.1775.991-.052 1.022-.0313 1.012 1.012-.011 4.4225-.032 8.8452-.011 13.2677 0 1.1265.063 2.274.219 3.39.094.7095.407 1.3875.626 2.0758.521.3652 1.001.8447 1.574 1.0637.98.365 1.491.918 1.293 1.993-.063 1.116-.657 1.679-1.773 1.815-.615.073-1.199.302-1.803.448-4.149.991-8.278 2.138-12.469 2.921-4.232.792-8.496 1.397-12.812 1.69-5.359.354-10.675.01-15.971-.595-2.774-.313-5.526-.97-8.226-1.69-8.236-2.159-15.679-5.799-21.695-12.0057-.146-.1565-.396-.2085-.594-.3025l.011.0207c-.073-.146-.157-.3022-.23-.4485l.011.0105c-.084-.1565-.167-.313-.25-.4692-1.168-1.6273-2.43-3.192-3.472-4.8923-1.96-3.2125-3.524-6.613-4.639-10.2115 2.033.0938 4.076.1773 6.109.2815 2.554.1253 5.098.2608 7.642.4173.688.0417 1.365.146 2.053.219z" fill="#727376"/><path d="m230.934 86.2591c-.74-1.7628-1.491-3.5255-2.21-5.2988-.334-.8345-.615-1.7002-.918-2.545.021-.0417.032-.073.042-.1252 4.691-.4173 9.372-.845 14.063-1.262.282-.021.575.0102.865.0207.46 1.9193 1.157 3.7448 2.2 5.424v-.0105c.147.292.302.5945.45.8868l-.013-.0105c.138.219.283.438.418.6675 1.742 3.5465 4.087 6.655 6.912 9.3772 3.513 3.3798 7.59 5.8935 12.155 7.6247 3.503 1.325 7.133 2.118 10.833 2.493 2.282.23 4.607.365 6.88.219 4.305-.281 8.537-1.032 12.385-3.212 2.055-1.1687 3.877-2.6184 5.337-4.4647 1.763-2.2322 3.493-4.475 5.16-6.78.98-1.356 1.805-2.8267 2.68-4.2557.533-.8658.865-.9805 1.805-.553.918.4172 1.833.8345 1.74 2.0967-.157.3233-.355.6258-.47.97-1.125 3.2128-2.512 6.321-4.147 9.3043-1.493 2.7327-3.088 5.3924-5.15 7.7504-.793.907-1.733 1.523-2.91 1.846-3.91 1.074-7.85 1.95-11.875 2.441-5.93.719-11.863.897-17.815.177-3.075-.375-6.13-.761-9.143-1.523-8.632-2.19-16.43-5.893-22.727-12.3499-.855-1.0223-1.699-2.055-2.565-3.077-.292-.3548-.615-.6885-.928-1.0223-.145-.219-.291-.4382-.437-.6572s-.292-.438-.438-.657c-.438-.7303-.876-1.4708-1.324-2.201v.0105c-.146-.292-.303-.5945-.449-.8868l.011.0105c-.073-.073-.156-.146-.229-.2295l.01.0105c-.063-.0835-.125-.146-.198-.2087z" fill="#727376"/><path d="m27.4144 107.277c-.563-.25-.834-.667-.7715-1.304.0312-.365.0105-.73.0105-1.095 0-.678.2502-1.085.9905-1.189 1.6575-.24 3.315-.49 4.9517-.814 1.1783-.229 2.3458-.521 3.482-.897 1.251-.417 2.033-1.335 2.4918-2.5759.6045-1.669.7297-3.411.813-5.153.0835-1.7105.021-3.4315.0417-5.1528.073-5.5805.146-11.1609.2398-16.7517.021-1.2412.1252-2.472.1982-3.703 2.012.3235 4.024.6468 6.036.9598 1.7723.2815 3.5343.5632 5.3065.8345.9173.1355.9278.125.9278 1.0952.021 3.8385.0105 7.677.0625 11.505.0522 3.8385.1147 7.6667.2397 11.5052.0418 1.408.2503 2.8163.4275 4.2141.0523.3755.2608.7405.4065 1.1055.219.2821.438.5531.657.8341.813 1.127 2.0538 1.461 3.2943 1.701 2.2727.438 4.5557.792 6.839 1.168 1.0425.167 1.1155.219 1.3447 1.325.0313.177.1148.344.1668.511-.0625.281-.125.573-.198.855-.219.866-.3545.981-1.2823.991-.3337.01-.6567 0-.9905-.01-3.7635-.126-7.527-.303-11.2905-.376-8.1732-.156-16.284-.063-24.3947.417z" fill="#727376"/><path d="m112.702 102.875c1.648.293 3.284.668 4.942.866 1.668.209 1.678.136 1.668 1.753-.063.208-.146.406-.188.615-.281 1.168-.417 1.283-1.626 1.346-.219.01-.438.01-.657.01-4.305.042-8.611-.115-12.896-.657-2.418-.303-4.8265-.73-7.1408-1.502-2.5855-.866-4.9415-2.18-6.891-4.089-1.199-1.168-2.2102-2.5245-3.3047-3.7865-.6568-.8032-1.324-1.6167-1.9808-2.42-.584-.8032-1.1677-1.6062-1.7515-2.42-.146-.219-.292-.438-.4377-.657-.146-.146-.292-.292-.438-.4382-.073-.146-.146-.292-.219-.438-.4378-.657-.8755-1.3143-1.3238-1.9818-.021-.1045-.021-.2295-.073-.313-1.199-1.815-2.4082-3.6195-3.628-5.424-.1147-.167-.3127-.2817-.4795-.4172-.2607-.532-.4692-1.1058-.8027-1.596-.563-.8135-1.2095-1.575-1.8245-2.3573.0835-.6885-.3858-1.0117-.8758-1.3142.0105-.6363-.2502-1.0953-.8757-1.3143.021-.6467-.25-1.0952-.8755-1.3142.052-.7198-.4068-1.137-.8968-1.5438.1148-.073.2295-.2087.3338-.1982 4.9622.584 9.9142 1.1787 14.8662 1.7837.2918.0313.5628.1148.8548.1773.8862 1.283 1.7305 2.5972 2.6792 3.8385 2.648 3.484 5.296 6.9677 8.017 10.3995 1.47 1.8567 3.0545 3.63 4.6708 5.3615 1.146 1.2202 2.429 2.3155 3.659 3.463 2.168 2.0442 4.649 3.6092 7.495 4.5682z" fill="#727376"/><path d="m123.274 64.5006c-.626.0417-.918-.1668-.897-.8763.115-3.39 0-6.8007.323-10.17.428-4.5582 1.804-8.9182 3.576-13.153 2.127-5.1007 5.213-9.5547 9.122-13.414 2.951-2.9102 6.307-5.3302 9.956-7.3015 6.161-3.3275 12.75-5.4136 19.662-6.4776 5.067-.7823 10.165-1.1891 15.283-1.0222 3.097.1043 6.182.4277 9.258.7823 3.294.3755 6.568.9075 9.852 1.3769 2.345.3338 4.68.6988 7.026 1.0535.959.1461.959.1461.918 1.1369-.011.1775.02.3547.031.5425-.125.3232-.334.6467-.376.991-.323 2.2425-.688 4.4747-.896 6.7172-.407 4.3915-.73 8.7933-1.063 13.195-.042.532-.24.8553-.73.9283-.865.1252-1.731.1982-2.596.292-.688-.073-.834-.5215-.907-1.1368-.375-3.171-.876-6.3212-1.783-9.3982-.229-.7928-.594-1.5543-.907-2.326-.052-.0625-.114-.1148-.167-.1773l.021.0208c-.083-.1565-.156-.3025-.239-.459l.01.021c-.073-.1565-.156-.3025-.229-.459l.01.0105c-.146-.2295-.292-.4695-.427-.699-.355-.459-.688-.9493-1.074-1.3665-1.939-2.0965-4.525-3.0978-7.11-4.047-1.804-.6675-3.628-1.2308-5.578-1.4083-1.907-.1772-3.805-.6257-5.713-.7822-3.429-.2815-6.87-.24-10.289.1877-2.95.365-5.838.97-8.611 2.0445-9.185 3.5465-15.002 10.3368-18.349 19.3908-1.178 3.1917-2.001 6.488-2.439 9.8882-.584 4.5063-.928 9.0123-.657 13.5498.052.897.011 1.794.011 2.7745-1.095 0-2.19.021-3.274 0-3.576-.073-7.162-.1565-10.748-.2295z" fill="#fefefe"/><path d="m303.629 38.2255c-.438-.1045-.658-.3547-.72-.824-.155-1.1892-.365-2.368-.573-3.5465-.447-2.5972-1.022-5.1737-2.075-7.6145-.155-.3547-.407-.678-.615-1.0117-.052-.094-.115-.1878-.167-.292l.032.0207c-.095-.146-.187-.292-.282-.4277l.01.0105c-.625-.751-1.168-1.5855-1.898-2.2323-2.312-2.0442-5.19-2.9935-8.067-3.8905-3.055-.9492-6.225-1.304-9.393-1.5437-4.17-.313-8.31-.1565-12.437.6257-4.108.7718-7.935 2.1905-11.438 4.4643-6.422 4.1827-10.477 10.191-12.99 17.284-.937 2.6285-1.647 5.351-2.157 8.0942-.469 2.4928-.615 5.0485-.74 7.583-.115 2.441-.032 4.892-.021 7.3433 0 1.012.01 1.0222-.991 1.064-2.627.1147-5.264.2087-7.891.3337-1.71.0835-3.43.2088-5.14.3235-.667 0-.803-.3755-.824-.9805-.198-6.0395.417-11.9745 2.231-17.7532.595-1.8775 1.106-3.8178 1.95-5.5805 2.679-5.6013 6.318-10.5038 11.061-14.5613 7.33-6.2792 15.785-10.1596 25.302-11.7346 3.723-.6154 7.453-.9805 11.228-1.1683 5.65-.2712 11.25.1773 16.837.8866 4.743.605 9.485 1.2517 14.23 1.8776l.218.0313c1.167.1564 1.167.1564.835 1.3247-.033.0937.01.219.02.3232-.198 1.2518-.428 2.493-.583 3.7448-.5 4.0055-1.012 8.0212-1.46 12.037-.167 1.4812-.207 2.9832-.282 4.4645-.03.6362-.26 1.043-.938 1.116-.75.073-1.512.1357-2.272.2087z" fill="#fefefe"/><path d="m303.628 38.2255c.76-.073 1.523-.1357 2.283-.2087.667-.0625.907-.4798.94-1.116.072-1.4918.112-2.9833.28-4.4645.447-4.0158.96-8.0213 1.46-12.037.157-1.2518.385-2.493.582-3.7448 1.043.1253 1.17.3025 1.003 1.304-.575 3.5778-1.2 7.1555-1.68 10.7438-.343 2.6285-.478 5.2777-.708 7.9167-.062.7198-.072 1.4605-.23 2.1593-.072.3232-.385.6987-.697.845-.408.198-.918.2397-1.378.271-1.572.0835-1.71-.052-1.855-1.6688z" fill="#606364"/><path d="m299.479 24.9369c.052.0937.115.1877.167.292-.052-.1043-.105-.1983-.167-.292z" fill="#606364"/><path d="m52.4345 60.3074c-.1145-.605-.323-1.2098-.323-1.8045.0103-10.3055.052-20.6113.1043-30.9063.0102-1.648.1145-3.2857.1667-4.9337 0-.1043.0105-.219.0208-.3235.1982-2.1278.563-2.5658 2.648-2.8998 3.43-.5632 6.839-.2815 10.227.4173 1.1365.24 2.2832.4485 3.3882.7927 3.0233.9388 5.661 2.5348 7.871 4.8088.4275.438.7715.9595 1.1573 1.4392-.2815-.125-.6255-.1772-.834-.3755-2.992-2.764-6.5783-4.3077-10.5295-5.017-2.5438-.459-5.1188-.772-7.7145-.6467-1.2615.0625-2.5333.2712-3.7845.511-1.2718.24-1.449 1.3872-1.5638 2.3677-.1875 1.5543-.2292 3.1293-.2397 4.694-.0208 10.6705-.0313 21.3413-.0313 32.0225 0 .5005.0625 1.0013.1043 1.6375-.3648 0-.7193.0313-1.0738 0-2.2415-.1982-4.4932-.4067-6.7345-.605-1.126-.1042-2.252-.1982-3.3777-.2607-1.1885-.0625-1.199-.0523-1.2198-1.2725 0-.146 0-.292 0-.4383l11.6343 1.0328c.0417-.0938.073-.167.1042-.24z" fill="#606364"/><path d="m95.3342 33.9801c-.0103-.073-.0208-.146-.0418-.2085-.0102-.0523-.0207-.1148-.0312-.167-.0103-.0208-.0103-.0418-.0103-.073-.0105-.0313-.0105-.0625-.021-.0835-.0102-.0415-.0207-.0731-.0312-.1146-.0208-.0627-.0313-.1252-.052-.1877-.0105-.021-.021-.0522-.021-.0732-.0313-.073-.052-.1563-.0938-.2293-.0105-.021-.0207-.0315-.0207-.0522-.0105-.0313-.0315-.0625-.0418-.094-.021-.0313-.0417-.0625-.0522-.0938-.0208-.0312-.0418-.0625-.0625-.094-.0105-.0207-.0208-.0312-.0418-.052-.0207-.0312-.052-.073-.0832-.1042-.0105-.021-.0313-.0315-.0418-.0523-.021-.0207-.0312-.0312-.0522-.0522-.0103-.0208-.0313-.0313-.052-.052-.0105-.0105-.021-.021-.0313-.0313-.0105-.0105-.0312-.021-.0417-.0417-.0105-.0105-.021-.021-.0313-.021l-.0105-.0105c-.0417-.0208-.0937.0105-.0835.0627.2088 1.2725.5215 2.545.5943 3.828.3127 5.7577-.9485 11.0985-4.514 15.74-3.2943 4.2975-7.6103 7.312-12.5518 9.4295-.9175.3962-1.9495.6675-2.9295.6987-2.7627.094-5.5357.0316-8.309.0316-.0832-.0105-.177-.0106-.2605-.0211-.073-.0105-.198-.0104-.271-.0207l-6.745-.824h-.0105v.1148.2814.3651.3442.167c0 .052-.0105.1148-.0105.1668 0 .021 0 .0522.021.073.0103.0105.0313.0209.052.0209.0625.0208.125.0418.198.0731.094.0312.1983.0625.292.073 1.3658.1772 2.7418.3547 4.118.5007 2.0953.219 4.1908.4902 6.2968.584 1.7097.073 3.4195-.0835 5.129-.1878 1.4282-.0835 2.8045-.4485 4.0972-1.0742 2.7105-1.304 5.2333-2.931 7.5373-4.84 1.397-1.1577 2.7315-2.4408 3.826-3.8803 2.648-3.4837 4.316-7.385 4.7642-11.8074.2608-2.7018.1253-5.3615-.3752-8.011z" fill="#606364"/><path d="m27.5188 18.0004c2.0327.2397 4.0552.4485 6.0777.73.782.1045 1.5638.3025 2.2935.5947 1.1573.4588 2.2728 1.022 2.6273 2.3885-1.47-.6362-2.94-1.2412-4.5455-1.4185-1.5845-.1775-3.1588-.4382-4.7538-.553-1.668-.1147-1.668-.0625-1.6992-1.7417z" fill="#606364"/><path d="m77.6843 26.8976c.0523.1045.1043.2087.1565.3025-.0522-.1043-.1042-.2085-.1565-.3025z" fill="#606364"/><path d="m237.481 95.1566c6.307 6.4564 14.095 10.1594 22.727 12.3504 3.013.761 6.068 1.147 9.143 1.523 5.952.719 11.885.542 17.815-.178 4.025-.49 7.977-1.366 11.875-2.441 1.177-.323 2.117-.938 2.91-1.846 2.062-2.357 3.657-5.0169 5.15-7.7499 1.635-2.9832 3.022-6.0915 4.147-9.3042.115-.3338.313-.6468.47-.97.823.5425.823 1.3037.563 2.128-.908 2.8682-2.033 5.6325-3.388 8.2922-.615 1.21-1.292 2.3888-2.012 3.5569-.885 1.429-1.898 2.775-2.805 4.193-1.365 2.139-3.325 3.328-5.775 3.922-4.368 1.043-8.758 1.93-13.25 2.222-3.65.24-7.298.355-10.958.177-4.795-.24-9.527-.834-14.147-2.117-2.25-.626-4.555-1.2-6.683-2.118-6.117-2.649-11.655-6.195-16.032-11.3274.083-.1147.166-.219.25-.313z" fill="#fefefe"/><g fill="#84ccb8"><path d="m237.481 95.1566c-.084.1043-.167.1983-.25.3025-1.064-1.3247-2.137-2.6492-3.19-3.9845-.073-.094-.032-.2712-.053-.4172.313.3442.636.678.928 1.0222.855 1.0223 1.71 2.0445 2.565 3.077z"/><path d="m231.789 87.5319c.438.73.875 1.4707 1.324 2.2007-.73-.5632-1.178-1.2932-1.324-2.2007z"/><path d="m245.426 83.3698c-.148-.292-.303-.5945-.45-.8865.147.292.302.584.45.8865z"/><path d="m231.34 86.6555c.146.292.303.5945.449.8865-.146-.3025-.292-.5945-.449-.8865z"/><path d="m233.103 89.7325c.145.219.291.4383.437.6573-.135-.219-.281-.4383-.437-.6573z"/><path d="m233.551 90.3899c.146.219.292.438.437.657-.437-.0313-.479-.3233-.437-.657z"/><path d="m245.831 84.0166c-.135-.219-.28-.438-.418-.6675.148.219.283.438.418.6675z"/><path d="m231.121 86.4366c.073.073.157.146.23.2295-.073-.073-.146-.146-.23-.2295z"/><path d="m230.934 86.259c.062.0628.125.1253.198.1878-.063-.0625-.125-.125-.198-.1878z"/></g><path d="m27.4143 107.277c8.1108-.48 16.232-.573 24.3533-.417 3.7632.073 7.5267.25 11.2902.376.3338.01.6568.02.9905.01.9278-.021 1.0738-.125 1.2823-.991.073-.282.1355-.563.198-.855.4275.052.636.323.6672.74.0208.219.0208.438.0313.657 0 1.888-.1668 2.066-2.012 2.034-6.9118-.125-13.8238-.333-20.7355-.354-4.754-.011-9.5078.24-14.2618.365-1.5637.042-1.5637.021-1.8035-1.565z" fill="#fefefe"/><path d="m86.6084 97.4305c1.0947 1.2725 2.1162 2.6185 3.3047 3.7865 1.9495 1.909 4.3055 3.223 6.891 4.089 2.3248.782 4.7229 1.199 7.1409 1.502 4.285.542 8.58.699 12.896.657.219 0 .438 0 .657-.01 1.199-.053 1.345-.178 1.626-1.346.052-.209.125-.407.188-.615.709.01.959.396.876 1.074-.032.219-.021.438-.052.657-.282 1.732-.407 1.825-2.158 1.836-1.752.01-3.503.031-5.244.042-2.867-.24-5.744-.449-8.611-.72-2.45-.23-4.8899-.689-7.1833-1.575-1.9285-.751-3.6801-1.878-5.2648-3.265-1.9285-1.69-3.4715-3.7135-5.0665-5.6952 0-.146 0-.2818 0-.4173z" fill="#fefefe"/><path d="m73.6499 78.9786c.615.7823 1.2615 1.5438 1.8245 2.3573.3335.4797.542 1.064.8028 1.596-.8655-1.3248-1.741-2.639-2.6273-3.9533z" fill="#95989a"/><path d="m71.8984 76.3499c.6255.2192.8863.6677.8758 1.3145-.292-.4383-.5838-.8763-.8758-1.3145z" fill="#95989a"/><path d="m71.0227 75.0356c.6255.2193.8965.6678.8758 1.3145-.292-.4487-.5838-.8762-.8758-1.3145z" fill="#95989a"/><path d="m72.7742 77.6643c.5005.3025.9592.6258.8757 1.3143-.292-.4383-.5837-.8763-.8757-1.3143z" fill="#95989a"/><path d="m82.0005 91.4851.438.438c-.146-.1355-.292-.292-.438-.438z" fill="#84ccb8"/><path d="m81.7712 91.0469.219.4382c-.0627-.146-.146-.2922-.219-.4382z" fill="#84ccb8"/><path d="m133.407 94.7603c.198.1042.448.1565.594.3025 6.015 6.2062 13.448 9.8462 21.695 12.0062 2.7.709 5.452 1.366 8.225 1.689 5.296.605 10.623.95 15.971.595 4.316-.282 8.58-.887 12.813-1.69 4.191-.793 8.309-1.93 12.468-2.92.605-.146 1.199-.376 1.804-.449 1.115-.136 1.71-.699 1.772-1.815.688.052.97.417.876 1.095-.042.292-.021.584-.052.876-.094 1.002-.188 1.19-1.178 1.43-4.963 1.199-9.915 2.513-14.919 3.525-6.786 1.377-13.657 2.107-20.589 1.752-5.067-.26-10.102-.855-15.065-1.992-5.692-1.304-10.998-3.463-15.898-6.634-3.096-2.002-5.765-4.4747-8.225-7.1972-.136-.1668-.198-.3858-.292-.5735z" fill="#fefefe"/><path d="m132.948 93.8633c.083.1562.167.3127.25.4692-.302-.0417-.563-.1042-.25-.4692z" fill="#fefefe"/><path d="m133.188 94.322c.073.1463.156.3025.229.4485-.083-.146-.156-.3022-.229-.4485z" fill="#fefefe"/><path d="m52.4346 60.3074c-.0313.0732-.0625.1565-.0938.2295.0313-.0833.0625-.1563.0938-.2295z" fill="#95989a"/><path d="m153.11 107.851s-22.716-4.976-29.034-29.1542l.428-.8135.323.8763s5.327 20.027 27.053 27.1824z" fill="#fefefe"/><path d="m191.454 63.9581s.5.918 1.689.918c1.188 0-.428.313-.428.313l-1.053-.3755-.396-.751z" fill="#606364"/><path d="m76.6836 26.3553s1.4178 1.3143 2.9503 3.5465c0 0-.9175-2.0862-2.5958-3.87-1.689-1.7835-.6985-.271-.6985-.271z" fill="#606364"/><path d="m95.5426 35.284s.2397-3.8907-4.2013-10.41c0 0 4.3993 7.99 3.6593 13.5183l.5525-.3963z" fill="#606364"/><path d="m12.5274 61.8303c5.619.7717 6.203-.3443 6.203-.3443l-.834-.6257s-17.357968-2.0445-17.587318-2.107c0 0 7.297598 2.6075 12.218318 3.077z" fill="#95989a"/><path d="m332.881 58.868s-2.555.9075-5.65 1.7523c-.928.2502-1.898.5007-2.868.7092-.582.1253-1.167.2505-1.74.3443h-.01c-.667.1147-1.325.2087-1.94.2712-5.62.7718-6.202-.3442-6.202-.3442l.832-.6155s.085-.0103.253-.0313c.05-.0102.112-.0102.187-.0207.833-.094 2.773-.3235 5.075-.605 2.065-.2503 4.41-.5215 6.485-.772 3.035-.365 5.495-.6675 5.578-.6883z" fill="#95989a"/><path d="m89.7672 101.624s-6.2342-6.1337-20.2142-28.3617l.8965-.0102s17.41 26.8069 20.4125 28.7889c2.992 1.992-1.0948-.417-1.0948-.417z" fill="#fefefe"/><path d="m98.0239 105.723s-5.4837-.438-12.5622-10.2429h-.6985l2.1267 2.2635 3.0753 3.9014 3.2945 2.534 4.9622 2.462z" fill="#fefefe"/><path d="m249.761 105.129s-18.754-9.2214-22.351-26.8077l.104-.751.574.7408s2.867 15.4895 21.005 25.2009l1.575 1.126z" fill="#fefefe"/><path d="m190.453 64.1251s1.376.751 1.418 1.5855 1.126.8553 1.73.8553c.605 0-.469-1.6375-.469-1.6375h-.636s-.959-.0313-.959-.751l-.907-.2608z" fill="#606364"/><path d="m308.206 94.6975s-4.13 12.9235-24.385 14.5095v.751l15.97-2.816 3.305-2.483 5.902-9.1582z" fill="#fefefe"/><path d="m308.288 98.1921s-5.745 12.9449-27.71 12.8919l2.398 3.025 22.227-5.497 8.413-10.4199z" fill="#239190"/></g></svg>