<svg width="761" height="553" viewBox="0 0 761 553" fill="none" xmlns="http://www.w3.org/2000/svg">
<g clip-path="url(#clip0_119_30)">
<path d="M760.554 290.87C760.555 310.519 753.14 329.444 739.791 343.862C726.443 358.281 708.144 367.13 688.554 368.64C687.894 368.69 687.224 368.74 686.554 368.77V294.74C686.554 294 686.39 293.27 686.071 292.602C685.753 291.934 685.289 291.346 684.714 290.88C684.648 290.812 684.574 290.752 684.494 290.7C684.421 290.641 684.344 290.588 684.264 290.54C683.561 290.088 682.756 289.819 681.923 289.758C681.09 289.697 680.255 289.845 679.494 290.19L678.664 288.37C679.571 287.957 680.556 287.742 681.554 287.74L624.594 238.67C625.034 238.17 625.494 237.68 625.954 237.19C636.692 225.871 650.578 218.031 665.818 214.685C681.058 211.339 696.951 212.64 711.444 218.42C725.936 224.2 738.363 234.193 747.117 247.108C755.872 260.024 760.552 275.267 760.554 290.87Z" fill="#2F2E41"/>
<g filter="url(#filter0_d_119_30)">
<path d="M19.7777 344.056C19.4944 342.609 19.5319 341.117 19.8875 339.686C20.2431 338.255 20.9082 336.919 21.8359 335.773C22.7637 334.626 23.9314 333.698 25.257 333.051C26.5825 332.405 28.0337 332.057 29.5082 332.033L74.4703 278.509L85.6953 292.861L39.8726 342.674C39.7498 345.154 38.7218 347.502 36.9831 349.275C35.2445 351.047 32.9161 352.12 30.4392 352.29C27.9622 352.461 25.5088 351.717 23.5438 350.199C21.5789 348.681 20.2388 346.496 19.7777 344.056Z" fill="#FFB8B8"/>
</g>
<g filter="url(#filter1_d_119_30)">
<path d="M149.426 457.009L158.114 465.659L195.614 436.267L182.792 423.5L149.426 457.009Z" fill="#FFB8B8"/>
</g>
<g filter="url(#filter2_d_119_30)">
<path d="M166.836 490.409L139.532 463.222L150.036 452.673L166.791 469.356C168.176 470.735 169.276 472.374 170.028 474.179C170.78 475.983 171.169 477.918 171.174 479.873C171.178 481.828 170.797 483.765 170.053 485.573C169.308 487.38 168.215 489.024 166.836 490.409Z" fill="#2F2E41"/>
</g>
<g filter="url(#filter3_d_119_30)">
<path d="M103.246 539.98H115.506L121.338 492.692H103.244L103.246 539.98Z" fill="#FFB8B8"/>
</g>
<g filter="url(#filter4_d_119_30)">
<path d="M139.15 551.363L100.619 551.364L100.619 536.478L124.262 536.476C126.217 536.476 128.153 536.861 129.959 537.609C131.766 538.357 133.407 539.454 134.789 540.836C136.172 542.219 137.268 543.86 138.016 545.666C138.765 547.472 139.15 549.408 139.15 551.363Z" fill="#2F2E41"/>
</g>
<g filter="url(#filter5_d_119_30)">
<path d="M100.581 503.457L86.6165 400.47C84.4311 384.906 85.1093 369.074 88.6177 353.754C91.4834 341.442 95.3547 332.914 100.124 328.407C100.877 327.701 101.841 327.261 102.868 327.154L148.974 322.352C149.862 322.261 150.758 322.424 151.556 322.824C152.355 323.223 153.024 323.841 153.484 324.605L155 327.131C155.184 327.438 155.332 327.764 155.442 328.105L165.19 358.325C165.336 358.781 165.571 359.204 165.881 359.569C166.192 359.934 166.571 360.234 166.999 360.451C182.347 368.287 232.202 394.739 229.349 406.151C226.668 416.874 201.57 434.261 193.941 439.334C193.164 439.853 192.249 440.127 191.315 440.12C190.38 440.113 189.47 439.825 188.701 439.294L176.038 430.63C175.42 430.207 174.912 429.642 174.556 428.983C174.201 428.323 174.009 427.588 173.996 426.839C173.983 426.09 174.149 425.349 174.481 424.677C174.813 424.005 175.301 423.423 175.904 422.979L184.637 416.544C185.171 416.15 185.588 415.618 185.843 415.005C186.097 414.392 186.18 413.721 186.081 413.064C185.983 412.408 185.707 411.79 185.284 411.279C184.861 410.767 184.306 410.381 183.68 410.161L136.781 393.705C136.255 393.52 135.693 393.459 135.139 393.525C134.585 393.591 134.053 393.784 133.585 394.088C133.117 394.392 132.725 394.799 132.439 395.278C132.153 395.757 131.98 396.296 131.935 396.852L123.288 502.54C123.192 503.673 122.69 504.733 121.873 505.524C121.056 506.315 119.98 506.784 118.845 506.843L105.465 507.513C105.384 507.517 105.303 507.519 105.223 507.519C104.087 507.523 102.989 507.113 102.134 506.365C101.28 505.617 100.727 504.583 100.581 503.457Z" fill="#2F2E41"/>
</g>
<g filter="url(#filter6_d_119_30)">
<path d="M121.727 237.085C135.291 237.085 146.288 226.088 146.288 212.524C146.288 198.959 135.291 187.963 121.727 187.963C108.162 187.963 97.1655 198.959 97.1655 212.524C97.1655 226.088 108.162 237.085 121.727 237.085Z" fill="#FFB8B8"/>
</g>
<g filter="url(#filter7_d_119_30)">
<path d="M98.754 324.2L80.6748 258.235L80.9844 258.026C81.3727 257.765 120.341 232.033 165.965 252.769L166.792 253.244L156.079 321.711C155.845 323.273 155.074 324.705 153.897 325.76C152.721 326.814 151.213 327.425 149.635 327.487L105.552 329.183C105.463 329.186 105.375 329.188 105.286 329.188C103.8 329.192 102.355 328.705 101.174 327.803C99.9926 326.901 99.142 325.634 98.754 324.2Z" fill="#CCCCCC"/>
</g>
<path d="M79.9864 301.179L64.9291 283.864C64.2039 283.032 63.7956 281.971 63.7761 280.867C63.7567 279.764 64.1273 278.689 64.8227 277.832L80.5634 258.387L92.6468 261.683L99.0529 284.104L87.3723 300.791C86.9649 301.377 86.4286 301.861 85.8047 302.207C85.1808 302.553 84.4859 302.751 83.7734 302.786C83.6892 302.791 83.6054 302.793 83.5216 302.793C82.851 302.794 82.188 302.65 81.5778 302.372C80.9677 302.094 80.4249 301.687 79.9864 301.179Z" fill="#CCCCCC"/>
<path d="M686.553 289.84C686.563 290.089 686.477 290.332 686.313 290.52C686.141 290.722 685.896 290.847 685.631 290.867C685.367 290.888 685.105 290.803 684.904 290.63L681.553 287.74L624.594 238.67L464.834 101.02C463.922 100.24 462.762 99.8122 461.562 99.814C460.362 99.8158 459.203 100.247 458.294 101.03L243.154 287.94L241.214 289.62C241.139 289.686 241.055 289.74 240.964 289.78C240.804 289.851 240.628 289.879 240.453 289.86C240.204 289.834 239.972 289.716 239.803 289.53C239.717 289.432 239.65 289.317 239.608 289.193C239.565 289.069 239.547 288.938 239.556 288.807C239.564 288.676 239.598 288.548 239.656 288.43C239.714 288.312 239.795 288.207 239.893 288.12L240.163 287.88L456.984 99.5202C458.258 98.426 459.88 97.8227 461.56 97.819C463.239 97.8153 464.865 98.4115 466.143 99.5002L625.953 237.19L686.203 289.11C686.309 289.201 686.394 289.313 686.454 289.439C686.515 289.564 686.548 289.701 686.553 289.84Z" fill="#3F3D56"/>
<g filter="url(#filter8_d_119_30)">
<path d="M565.084 319.37L562.453 312.13L553.393 287.13L533.873 233.3L512.053 173.13L472.703 64.6003C471.931 62.4839 470.351 60.7599 468.31 59.8059C466.269 58.8519 463.933 58.7456 461.813 59.5103L234.304 142C232.186 142.772 230.462 144.352 229.508 146.393C228.554 148.435 228.448 150.771 229.214 152.89L285.004 306.75L285.953 309.38L344.513 335.92L360.973 343.38L363.643 344.59L433.334 376.18L436.033 375.2L481.743 358.63L550.694 333.63L559.984 330.26C562.102 329.489 563.828 327.91 564.784 325.869C565.739 323.828 565.847 321.491 565.084 319.37Z" fill="url(#paint0_linear_119_30)"/>
</g>
<g filter="url(#filter9_d_119_30)">
<path d="M469.684 191.21C468.549 188.096 466.225 185.558 463.222 184.154C460.219 182.75 456.781 182.594 453.664 183.72L363.644 216.37L320.174 232.13C318.629 232.689 317.21 233.546 315.997 234.653C314.784 235.76 313.801 237.095 313.104 238.583C312.407 240.07 312.011 241.68 311.937 243.321C311.862 244.961 312.112 246.601 312.672 248.145C313.232 249.689 314.091 251.107 315.199 252.319C316.307 253.531 317.644 254.513 319.132 255.208C320.62 255.903 322.23 256.298 323.871 256.371C325.511 256.443 327.15 256.192 328.694 255.63L363.644 242.96L462.194 207.23C465.309 206.095 467.846 203.772 469.25 200.769C470.654 197.765 470.81 194.328 469.684 191.21Z" fill="white"/>
</g>
<g filter="url(#filter10_d_119_30)">
<path d="M485.533 234.93C484.399 231.815 482.075 229.278 479.072 227.874C476.069 226.47 472.631 226.314 469.513 227.44L454.263 232.97L363.643 265.83L336.024 275.84C332.909 276.972 330.371 279.295 328.968 282.297C327.564 285.299 327.41 288.736 328.54 291.851C329.669 294.967 331.989 297.507 334.99 298.913C337.991 300.319 341.427 300.476 344.544 299.35L363.643 292.42L478.044 250.94C478.303 250.85 478.553 250.74 478.803 250.63C481.708 249.356 484.019 247.025 485.269 244.109C486.519 241.194 486.613 237.913 485.533 234.93Z" fill="white"/>
</g>
<g filter="url(#filter11_d_119_30)">
<path d="M501.553 279.11C500.421 275.996 498.099 273.458 495.098 272.054C492.096 270.65 488.66 270.494 485.544 271.62L442.774 287.13L409.663 299.14L363.643 315.82L352.044 320.03C349.363 321.007 347.096 322.869 345.617 325.31C344.139 327.75 343.538 330.622 343.913 333.45C344.028 334.292 344.229 335.12 344.513 335.92L360.973 343.38L363.643 342.41H363.663L447.174 312.13L494.063 295.13C497.18 293.998 499.719 291.674 501.124 288.67C502.528 285.667 502.683 282.228 501.553 279.11Z" fill="white"/>
</g>
<g filter="url(#filter12_d_119_30)">
<path d="M104.428 179.524C97.8929 170.856 89.0707 163.735 78.8048 160.204C68.5389 156.673 56.8076 156.957 47.1661 161.946C37.5246 166.936 30.3343 176.845 29.5838 187.675C28.3347 205.7 43.7363 221.021 45.3169 239.02C45.8179 244.725 44.8919 250.465 42.6223 255.723C40.3528 260.981 36.8109 265.592 32.3158 269.14C27.8207 272.689 22.5135 275.064 16.8722 276.05C11.2309 277.037 5.43278 276.605 0 274.793C3.86954 277.979 8.35596 280.329 13.1774 281.697C17.9989 283.066 23.0512 283.422 28.0171 282.745C32.9748 282 37.7048 280.162 41.864 277.364C46.0233 274.565 49.5076 270.876 52.0643 266.563C55.5306 260.541 56.9539 253.545 57.5068 246.618C58.3751 235.666 57.1992 224.647 54.0391 214.125C52.3115 208.384 49.9687 202.476 51.0642 196.581C51.6887 193.515 53.2002 190.7 55.411 188.486C57.6219 186.272 60.4346 184.757 63.4996 184.128C68.453 183.199 73.5174 184.711 78.247 186.451C82.9767 188.191 87.7453 190.204 92.7835 190.319C97.8217 190.435 103.309 188.128 105.256 183.48L104.428 179.524Z" fill="#2F2E41"/>
</g>
<g filter="url(#filter13_d_119_30)">
<path d="M407.823 148.23C406.689 145.115 404.365 142.578 401.362 141.174C398.359 139.77 394.921 139.614 391.804 140.74L340.103 159.48C336.989 160.612 334.451 162.935 333.047 165.937C331.644 168.939 331.49 172.376 332.619 175.491C333.748 178.607 336.068 181.147 339.069 182.553C342.07 183.959 345.507 184.116 348.623 182.99L364.984 177.06L375.813 173.13L400.334 164.24C403.448 163.108 405.985 160.786 407.39 157.784C408.794 154.783 408.95 151.347 407.823 148.23Z" fill="white"/>
</g>
<g filter="url(#filter14_d_119_30)">
<path d="M614.144 173.13H372.144C370.716 173.132 369.312 173.492 368.061 174.179C366.81 174.866 365.751 175.857 364.984 177.06C364.106 178.423 363.641 180.01 363.644 181.63V344.59L433.334 376.18L443.154 380.63L458.664 387.66C459.572 388.071 460.557 388.283 461.554 388.283C462.55 388.283 463.536 388.071 464.444 387.66L479.954 380.63L528.494 358.63L573.734 338.12L622.644 315.96V181.63C622.642 179.376 621.746 177.215 620.152 175.621C618.559 174.028 616.397 173.132 614.144 173.13Z" fill="url(#paint1_linear_119_30)"/>
</g>
<g filter="url(#filter15_d_119_30)">
<path d="M564.143 287.13H422.143C418.915 287.132 415.812 288.384 413.485 290.623C411.159 292.861 409.789 295.914 409.663 299.14C409.647 299.303 409.64 299.467 409.643 299.63C409.648 302.944 410.967 306.121 413.31 308.464C415.653 310.807 418.83 312.126 422.143 312.13H564.143C567.459 312.13 570.638 310.813 572.982 308.469C575.326 306.125 576.643 302.945 576.643 299.63C576.643 296.315 575.326 293.136 572.982 290.791C570.638 288.447 567.459 287.13 564.143 287.13Z" fill="white"/>
</g>
<g filter="url(#filter16_d_119_30)">
<path d="M572.234 336.61C569.98 334.682 567.11 333.625 564.144 333.63H422.144C418.828 333.63 415.649 334.947 413.305 337.291C410.961 339.636 409.644 342.815 409.644 346.13C409.644 349.445 410.961 352.625 413.305 354.969C415.649 357.313 418.828 358.63 422.144 358.63H528.494L573.734 338.12C573.277 337.575 572.776 337.07 572.234 336.61Z" fill="white"/>
</g>
<path d="M443.154 380.63L458.664 387.66C459.572 388.071 460.557 388.283 461.554 388.283C462.55 388.283 463.536 388.071 464.444 387.66L479.954 380.63H443.154Z" fill="white"/>
<g filter="url(#filter17_d_119_30)">
<path d="M532.384 233.84C531.504 231.434 529.906 229.356 527.806 227.888C525.706 226.419 523.206 225.631 520.644 225.63H465.644C463.242 225.632 460.892 226.326 458.875 227.627C456.857 228.929 455.256 230.784 454.264 232.97C453.523 234.589 453.141 236.35 453.144 238.13C453.148 241.444 454.467 244.621 456.81 246.964C459.153 249.307 462.33 250.626 465.644 250.63H520.644C522.654 250.63 524.636 250.145 526.419 249.216C528.203 248.287 529.736 246.942 530.888 245.294C532.04 243.646 532.778 241.744 533.038 239.75C533.299 237.756 533.074 235.729 532.384 233.84Z" fill="white"/>
</g>
<path d="M523.643 358.63L475.104 380.63L463.614 385.84C462.966 386.132 462.264 386.283 461.554 386.283C460.843 386.283 460.141 386.132 459.494 385.84L448.004 380.63H443.154L458.664 387.66C459.572 388.071 460.557 388.283 461.554 388.283C462.55 388.283 463.536 388.071 464.444 387.66L479.954 380.63L528.494 358.63H523.643ZM523.643 358.63L475.104 380.63L463.614 385.84C462.966 386.132 462.264 386.283 461.554 386.283C460.843 386.283 460.141 386.132 459.494 385.84L448.004 380.63H443.154L458.664 387.66C459.572 388.071 460.557 388.283 461.554 388.283C462.55 388.283 463.536 388.071 464.444 387.66L479.954 380.63L528.494 358.63H523.643ZM523.643 358.63L475.104 380.63L463.614 385.84C462.966 386.132 462.264 386.283 461.554 386.283C460.843 386.283 460.141 386.132 459.494 385.84L448.004 380.63H443.154L458.664 387.66C459.572 388.071 460.557 388.283 461.554 388.283C462.55 388.283 463.536 388.071 464.444 387.66L479.954 380.63L528.494 358.63H523.643ZM686.554 289.84C686.185 289.473 685.779 289.145 685.344 288.86C684.361 288.223 683.234 287.845 682.066 287.759C680.899 287.673 679.728 287.884 678.664 288.37L572.234 336.61L523.643 358.63L475.104 380.63L463.614 385.84C462.966 386.132 462.264 386.283 461.554 386.283C460.843 386.283 460.141 386.132 459.494 385.84L448.004 380.63L436.034 375.2L363.664 342.41L363.644 342.4L343.914 333.45L285.004 306.75L244.444 288.37C244.031 288.179 243.598 288.035 243.154 287.94C242.174 287.696 241.152 287.675 240.164 287.88C238.582 288.204 237.161 289.063 236.139 290.313C235.117 291.562 234.557 293.126 234.554 294.74V545.87C234.556 547.726 235.294 549.506 236.606 550.818C237.919 552.13 239.698 552.868 241.554 552.87H681.554C683.41 552.868 685.189 552.13 686.501 550.818C687.813 549.506 688.552 547.726 688.554 545.87V294.74C688.557 292.908 687.838 291.147 686.554 289.84ZM686.554 545.87C686.553 547.196 686.026 548.468 685.089 549.405C684.151 550.343 682.88 550.87 681.554 550.87H241.554C240.228 550.87 238.956 550.343 238.019 549.405C237.081 548.468 236.554 547.196 236.554 545.87V294.74C236.554 293.905 236.764 293.082 237.164 292.349C237.564 291.615 238.141 290.993 238.844 290.54C239.338 290.224 239.882 289.994 240.454 289.86C240.622 289.824 240.792 289.797 240.964 289.78C241.159 289.752 241.356 289.739 241.554 289.74C242.265 289.741 242.967 289.895 243.614 290.19L285.953 309.38L344.514 335.92L360.974 343.38L363.643 344.59L433.334 376.18L443.154 380.63L458.664 387.66C459.572 388.071 460.557 388.283 461.554 388.283C462.55 388.283 463.536 388.071 464.444 387.66L479.954 380.63L528.494 358.63L573.734 338.12L679.494 290.19C680.255 289.845 681.09 289.697 681.923 289.758C682.756 289.819 683.561 290.088 684.264 290.54C684.344 290.588 684.421 290.641 684.494 290.7C684.574 290.752 684.647 290.812 684.714 290.88C685.289 291.346 685.753 291.934 686.071 292.602C686.389 293.27 686.554 294 686.554 294.74L686.554 545.87ZM523.643 358.63L475.104 380.63L463.614 385.84C462.966 386.132 462.264 386.283 461.554 386.283C460.843 386.283 460.141 386.132 459.494 385.84L448.004 380.63H443.154L458.664 387.66C459.572 388.071 460.557 388.283 461.554 388.283C462.55 388.283 463.536 388.071 464.444 387.66L479.954 380.63L528.494 358.63H523.643ZM523.643 358.63L475.104 380.63L463.614 385.84C462.966 386.132 462.264 386.283 461.554 386.283C460.843 386.283 460.141 386.132 459.494 385.84L448.004 380.63H443.154L458.664 387.66C459.572 388.071 460.557 388.283 461.554 388.283C462.55 388.283 463.536 388.071 464.444 387.66L479.954 380.63L528.494 358.63H523.643ZM360.974 343.38L363.643 344.59V342.41L360.974 343.38ZM523.643 358.63L475.104 380.63L463.614 385.84C462.966 386.132 462.264 386.283 461.554 386.283C460.843 386.283 460.141 386.132 459.494 385.84L448.004 380.63H443.154L458.664 387.66C459.572 388.071 460.557 388.283 461.554 388.283C462.55 388.283 463.536 388.071 464.444 387.66L479.954 380.63L528.494 358.63H523.643Z" fill="#3F3D56"/>
<path d="M458.664 387.66L443.154 380.63L433.334 376.18L363.643 344.59L360.974 343.38L344.514 335.92L285.953 309.38L243.614 290.19C242.967 289.895 242.265 289.741 241.554 289.74C241.356 289.739 241.159 289.752 240.964 289.78C240.792 289.797 240.622 289.824 240.454 289.86C239.882 289.994 239.338 290.224 238.844 290.54C238.141 290.993 237.564 291.615 237.164 292.349C236.764 293.082 236.554 293.905 236.554 294.74V545.87C236.554 547.196 237.081 548.468 238.019 549.405C238.956 550.343 240.228 550.87 241.554 550.87H681.554C682.88 550.87 684.151 550.343 685.089 549.405C686.026 548.468 686.553 547.196 686.554 545.87L686.554 294.74C686.554 294 686.389 293.27 686.071 292.602C685.753 291.934 685.289 291.346 684.714 290.88C684.647 290.812 684.574 290.752 684.494 290.7C684.421 290.641 684.344 290.588 684.264 290.54C683.561 290.088 682.756 289.819 681.923 289.758C681.09 289.697 680.255 289.845 679.494 290.19L573.734 338.12L528.494 358.63L479.954 380.63L464.444 387.66C463.536 388.071 462.55 388.283 461.554 388.283C460.557 388.283 459.572 388.071 458.664 387.66Z" fill="#3F3D56"/>
<path d="M175.526 552.87H62.5259C62.2607 552.87 62.0063 552.765 61.8188 552.577C61.6312 552.39 61.5259 552.135 61.5259 551.87C61.5259 551.605 61.6312 551.351 61.8188 551.163C62.0063 550.976 62.2607 550.87 62.5259 550.87H175.526C175.791 550.87 176.045 550.976 176.233 551.163C176.421 551.351 176.526 551.605 176.526 551.87C176.526 552.135 176.421 552.39 176.233 552.577C176.045 552.765 175.791 552.87 175.526 552.87Z" fill="#3F3D56"/>
<g filter="url(#filter18_d_119_30)">
<path d="M112.388 230.486C110.543 229.549 109.009 228.099 107.972 226.309C106.934 224.519 106.438 222.467 106.542 220.4C106.647 218.334 107.349 216.343 108.562 214.667C109.775 212.991 111.448 211.703 113.378 210.958C120.789 208.098 129.098 213.935 136.867 212.275C144.61 210.621 149.09 201.364 147.241 193.665C145.393 185.965 138.666 180.166 131.248 177.397C126.403 175.592 121.215 174.901 116.067 175.372C110.919 175.844 105.943 177.468 101.507 180.123C97.1167 182.856 93.4605 186.619 90.856 191.087C88.2515 195.554 86.7775 200.59 86.5622 205.757C86.4614 210.928 87.7248 216.034 90.2254 220.562C92.7259 225.09 96.3752 228.879 100.806 231.547C102.78 232.685 105.079 233.599 107.3 233.087C109.123 232.495 110.84 231.617 112.388 230.486Z" fill="#2F2E41"/>
</g>
<g filter="url(#filter19_d_119_30)">
<path d="M233.287 278.179C232.972 278.634 232.694 279.113 232.454 279.612L183.36 286.63L175.905 277.165L160.151 286.549L174.96 309.638L234.835 291.988C236.415 293.418 238.393 294.333 240.506 294.612C242.619 294.891 244.767 294.52 246.664 293.548C248.561 292.576 250.117 291.05 251.125 289.173C252.134 287.295 252.547 285.155 252.309 283.037C252.072 280.919 251.195 278.923 249.796 277.316C248.397 275.708 246.541 274.564 244.476 274.037C242.411 273.51 240.234 273.623 238.236 274.363C236.237 275.103 234.511 276.434 233.287 278.179Z" fill="#FFB8B8"/>
</g>
<path d="M163.252 297.572C162.539 297.537 161.844 297.339 161.22 296.993C160.596 296.647 160.06 296.163 159.653 295.577L147.972 278.89L153.591 255.288L164.716 252.253L166.792 253.244L182.202 272.618C182.898 273.475 183.268 274.55 183.249 275.653C183.229 276.757 182.821 277.818 182.096 278.65L167.039 295.965C166.6 296.473 166.057 296.879 165.447 297.158C164.837 297.436 164.174 297.58 163.503 297.578C163.42 297.578 163.336 297.576 163.252 297.572Z" fill="#CCCCCC"/>
</g>
<defs>
<filter id="filter0_d_119_30" x="15.5898" y="278.509" width="74.1055" height="81.8049" filterUnits="userSpaceOnUse" color-interpolation-filters="sRGB">
<feFlood flood-opacity="0" result="BackgroundImageFix"/>
<feColorMatrix in="SourceAlpha" type="matrix" values="0 0 0 0 0 0 0 0 0 0 0 0 0 0 0 0 0 0 127 0" result="hardAlpha"/>
<feOffset dy="4"/>
<feGaussianBlur stdDeviation="2"/>
<feComposite in2="hardAlpha" operator="out"/>
<feColorMatrix type="matrix" values="0 0 0 0 0 0 0 0 0 0 0 0 0 0 0 0 0 0 0.25 0"/>
<feBlend mode="normal" in2="BackgroundImageFix" result="effect1_dropShadow_119_30"/>
<feBlend mode="normal" in="SourceGraphic" in2="effect1_dropShadow_119_30" result="shape"/>
</filter>
<filter id="filter1_d_119_30" x="145.426" y="423.5" width="54.188" height="50.159" filterUnits="userSpaceOnUse" color-interpolation-filters="sRGB">
<feFlood flood-opacity="0" result="BackgroundImageFix"/>
<feColorMatrix in="SourceAlpha" type="matrix" values="0 0 0 0 0 0 0 0 0 0 0 0 0 0 0 0 0 0 127 0" result="hardAlpha"/>
<feOffset dy="4"/>
<feGaussianBlur stdDeviation="2"/>
<feComposite in2="hardAlpha" operator="out"/>
<feColorMatrix type="matrix" values="0 0 0 0 0 0 0 0 0 0 0 0 0 0 0 0 0 0 0.25 0"/>
<feBlend mode="normal" in2="BackgroundImageFix" result="effect1_dropShadow_119_30"/>
<feBlend mode="normal" in="SourceGraphic" in2="effect1_dropShadow_119_30" result="shape"/>
</filter>
<filter id="filter2_d_119_30" x="135.532" y="452.673" width="39.6411" height="45.736" filterUnits="userSpaceOnUse" color-interpolation-filters="sRGB">
<feFlood flood-opacity="0" result="BackgroundImageFix"/>
<feColorMatrix in="SourceAlpha" type="matrix" values="0 0 0 0 0 0 0 0 0 0 0 0 0 0 0 0 0 0 127 0" result="hardAlpha"/>
<feOffset dy="4"/>
<feGaussianBlur stdDeviation="2"/>
<feComposite in2="hardAlpha" operator="out"/>
<feColorMatrix type="matrix" values="0 0 0 0 0 0 0 0 0 0 0 0 0 0 0 0 0 0 0.25 0"/>
<feBlend mode="normal" in2="BackgroundImageFix" result="effect1_dropShadow_119_30"/>
<feBlend mode="normal" in="SourceGraphic" in2="effect1_dropShadow_119_30" result="shape"/>
</filter>
<filter id="filter3_d_119_30" x="99.2441" y="492.692" width="26.0938" height="55.288" filterUnits="userSpaceOnUse" color-interpolation-filters="sRGB">
<feFlood flood-opacity="0" result="BackgroundImageFix"/>
<feColorMatrix in="SourceAlpha" type="matrix" values="0 0 0 0 0 0 0 0 0 0 0 0 0 0 0 0 0 0 127 0" result="hardAlpha"/>
<feOffset dy="4"/>
<feGaussianBlur stdDeviation="2"/>
<feComposite in2="hardAlpha" operator="out"/>
<feColorMatrix type="matrix" values="0 0 0 0 0 0 0 0 0 0 0 0 0 0 0 0 0 0 0.25 0"/>
<feBlend mode="normal" in2="BackgroundImageFix" result="effect1_dropShadow_119_30"/>
<feBlend mode="normal" in="SourceGraphic" in2="effect1_dropShadow_119_30" result="shape"/>
</filter>
<filter id="filter4_d_119_30" x="96.6187" y="536.476" width="46.5312" height="22.8879" filterUnits="userSpaceOnUse" color-interpolation-filters="sRGB">
<feFlood flood-opacity="0" result="BackgroundImageFix"/>
<feColorMatrix in="SourceAlpha" type="matrix" values="0 0 0 0 0 0 0 0 0 0 0 0 0 0 0 0 0 0 127 0" result="hardAlpha"/>
<feOffset dy="4"/>
<feGaussianBlur stdDeviation="2"/>
<feComposite in2="hardAlpha" operator="out"/>
<feColorMatrix type="matrix" values="0 0 0 0 0 0 0 0 0 0 0 0 0 0 0 0 0 0 0.25 0"/>
<feBlend mode="normal" in2="BackgroundImageFix" result="effect1_dropShadow_119_30"/>
<feBlend mode="normal" in="SourceGraphic" in2="effect1_dropShadow_119_30" result="shape"/>
</filter>
<filter id="filter5_d_119_30" x="81.3638" y="322.327" width="152.103" height="193.192" filterUnits="userSpaceOnUse" color-interpolation-filters="sRGB">
<feFlood flood-opacity="0" result="BackgroundImageFix"/>
<feColorMatrix in="SourceAlpha" type="matrix" values="0 0 0 0 0 0 0 0 0 0 0 0 0 0 0 0 0 0 127 0" result="hardAlpha"/>
<feOffset dy="4"/>
<feGaussianBlur stdDeviation="2"/>
<feComposite in2="hardAlpha" operator="out"/>
<feColorMatrix type="matrix" values="0 0 0 0 0 0 0 0 0 0 0 0 0 0 0 0 0 0 0.25 0"/>
<feBlend mode="normal" in2="BackgroundImageFix" result="effect1_dropShadow_119_30"/>
<feBlend mode="normal" in="SourceGraphic" in2="effect1_dropShadow_119_30" result="shape"/>
</filter>
<filter id="filter6_d_119_30" x="93.1655" y="187.963" width="57.1221" height="57.1221" filterUnits="userSpaceOnUse" color-interpolation-filters="sRGB">
<feFlood flood-opacity="0" result="BackgroundImageFix"/>
<feColorMatrix in="SourceAlpha" type="matrix" values="0 0 0 0 0 0 0 0 0 0 0 0 0 0 0 0 0 0 127 0" result="hardAlpha"/>
<feOffset dy="4"/>
<feGaussianBlur stdDeviation="2"/>
<feComposite in2="hardAlpha" operator="out"/>
<feColorMatrix type="matrix" values="0 0 0 0 0 0 0 0 0 0 0 0 0 0 0 0 0 0 0.25 0"/>
<feBlend mode="normal" in2="BackgroundImageFix" result="effect1_dropShadow_119_30"/>
<feBlend mode="normal" in="SourceGraphic" in2="effect1_dropShadow_119_30" result="shape"/>
</filter>
<filter id="filter7_d_119_30" x="76.6748" y="244.697" width="94.1172" height="92.491" filterUnits="userSpaceOnUse" color-interpolation-filters="sRGB">
<feFlood flood-opacity="0" result="BackgroundImageFix"/>
<feColorMatrix in="SourceAlpha" type="matrix" values="0 0 0 0 0 0 0 0 0 0 0 0 0 0 0 0 0 0 127 0" result="hardAlpha"/>
<feOffset dy="4"/>
<feGaussianBlur stdDeviation="2"/>
<feComposite in2="hardAlpha" operator="out"/>
<feColorMatrix type="matrix" values="0 0 0 0 0 0 0 0 0 0 0 0 0 0 0 0 0 0 0.25 0"/>
<feBlend mode="normal" in2="BackgroundImageFix" result="effect1_dropShadow_119_30"/>
<feBlend mode="normal" in="SourceGraphic" in2="effect1_dropShadow_119_30" result="shape"/>
</filter>
<filter id="filter8_d_119_30" x="204.507" y="48.8048" width="365.28" height="345.576" filterUnits="userSpaceOnUse" color-interpolation-filters="sRGB">
<feFlood flood-opacity="0" result="BackgroundImageFix"/>
<feColorMatrix in="SourceAlpha" type="matrix" values="0 0 0 0 0 0 0 0 0 0 0 0 0 0 0 0 0 0 127 0" result="hardAlpha"/>
<feOffset dx="-10" dy="4"/>
<feGaussianBlur stdDeviation="7.1"/>
<feComposite in2="hardAlpha" operator="out"/>
<feColorMatrix type="matrix" values="0 0 0 0 0 0 0 0 0 0 0 0 0 0 0 0 0 0 0.25 0"/>
<feBlend mode="normal" in2="BackgroundImageFix" result="effect1_dropShadow_119_30"/>
<feBlend mode="normal" in="SourceGraphic" in2="effect1_dropShadow_119_30" result="shape"/>
</filter>
<filter id="filter9_d_119_30" x="303.924" y="182.975" width="166.505" height="81.4077" filterUnits="userSpaceOnUse" color-interpolation-filters="sRGB">
<feFlood flood-opacity="0" result="BackgroundImageFix"/>
<feColorMatrix in="SourceAlpha" type="matrix" values="0 0 0 0 0 0 0 0 0 0 0 0 0 0 0 0 0 0 127 0" result="hardAlpha"/>
<feOffset dx="-4" dy="4"/>
<feGaussianBlur stdDeviation="2"/>
<feComposite in2="hardAlpha" operator="out"/>
<feColorMatrix type="matrix" values="0 0 0 0 0 0 0 0 0 0 0 0 0 0 0 0 0 0 0.25 0"/>
<feBlend mode="normal" in2="BackgroundImageFix" result="effect1_dropShadow_119_30"/>
<feBlend mode="normal" in="SourceGraphic" in2="effect1_dropShadow_119_30" result="shape"/>
</filter>
<filter id="filter10_d_119_30" x="319.792" y="226.695" width="166.489" height="81.3992" filterUnits="userSpaceOnUse" color-interpolation-filters="sRGB">
<feFlood flood-opacity="0" result="BackgroundImageFix"/>
<feColorMatrix in="SourceAlpha" type="matrix" values="0 0 0 0 0 0 0 0 0 0 0 0 0 0 0 0 0 0 127 0" result="hardAlpha"/>
<feOffset dx="-4" dy="4"/>
<feGaussianBlur stdDeviation="2"/>
<feComposite in2="hardAlpha" operator="out"/>
<feColorMatrix type="matrix" values="0 0 0 0 0 0 0 0 0 0 0 0 0 0 0 0 0 0 0.25 0"/>
<feBlend mode="normal" in2="BackgroundImageFix" result="effect1_dropShadow_119_30"/>
<feBlend mode="normal" in="SourceGraphic" in2="effect1_dropShadow_119_30" result="shape"/>
</filter>
<filter id="filter11_d_119_30" x="335.804" y="270.875" width="166.497" height="80.5049" filterUnits="userSpaceOnUse" color-interpolation-filters="sRGB">
<feFlood flood-opacity="0" result="BackgroundImageFix"/>
<feColorMatrix in="SourceAlpha" type="matrix" values="0 0 0 0 0 0 0 0 0 0 0 0 0 0 0 0 0 0 127 0" result="hardAlpha"/>
<feOffset dx="-4" dy="4"/>
<feGaussianBlur stdDeviation="2"/>
<feComposite in2="hardAlpha" operator="out"/>
<feColorMatrix type="matrix" values="0 0 0 0 0 0 0 0 0 0 0 0 0 0 0 0 0 0 0.25 0"/>
<feBlend mode="normal" in2="BackgroundImageFix" result="effect1_dropShadow_119_30"/>
<feBlend mode="normal" in="SourceGraphic" in2="effect1_dropShadow_119_30" result="shape"/>
</filter>
<filter id="filter12_d_119_30" x="-4" y="157.835" width="113.256" height="133.244" filterUnits="userSpaceOnUse" color-interpolation-filters="sRGB">
<feFlood flood-opacity="0" result="BackgroundImageFix"/>
<feColorMatrix in="SourceAlpha" type="matrix" values="0 0 0 0 0 0 0 0 0 0 0 0 0 0 0 0 0 0 127 0" result="hardAlpha"/>
<feOffset dy="4"/>
<feGaussianBlur stdDeviation="2"/>
<feComposite in2="hardAlpha" operator="out"/>
<feColorMatrix type="matrix" values="0 0 0 0 0 0 0 0 0 0 0 0 0 0 0 0 0 0 0.25 0"/>
<feBlend mode="normal" in2="BackgroundImageFix" result="effect1_dropShadow_119_30"/>
<feBlend mode="normal" in="SourceGraphic" in2="effect1_dropShadow_119_30" result="shape"/>
</filter>
<filter id="filter13_d_119_30" x="325.871" y="139.995" width="84.6973" height="51.7391" filterUnits="userSpaceOnUse" color-interpolation-filters="sRGB">
<feFlood flood-opacity="0" result="BackgroundImageFix"/>
<feColorMatrix in="SourceAlpha" type="matrix" values="0 0 0 0 0 0 0 0 0 0 0 0 0 0 0 0 0 0 127 0" result="hardAlpha"/>
<feOffset dx="-2" dy="4"/>
<feGaussianBlur stdDeviation="2"/>
<feComposite in2="hardAlpha" operator="out"/>
<feColorMatrix type="matrix" values="0 0 0 0 0 0 0 0 0 0 0 0 0 0 0 0 0 0 0.25 0"/>
<feBlend mode="normal" in2="BackgroundImageFix" result="effect1_dropShadow_119_30"/>
<feBlend mode="normal" in="SourceGraphic" in2="effect1_dropShadow_119_30" result="shape"/>
</filter>
<filter id="filter14_d_119_30" x="344.444" y="166.93" width="279.4" height="235.553" filterUnits="userSpaceOnUse" color-interpolation-filters="sRGB">
<feFlood flood-opacity="0" result="BackgroundImageFix"/>
<feColorMatrix in="SourceAlpha" type="matrix" values="0 0 0 0 0 0 0 0 0 0 0 0 0 0 0 0 0 0 127 0" result="hardAlpha"/>
<feOffset dx="-9" dy="4"/>
<feGaussianBlur stdDeviation="5.1"/>
<feComposite in2="hardAlpha" operator="out"/>
<feColorMatrix type="matrix" values="0 0 0 0 0 0 0 0 0 0 0 0 0 0 0 0 0 0 0.25 0"/>
<feBlend mode="normal" in2="BackgroundImageFix" result="effect1_dropShadow_119_30"/>
<feBlend mode="normal" in="SourceGraphic" in2="effect1_dropShadow_119_30" result="shape"/>
</filter>
<filter id="filter15_d_119_30" x="402.643" y="287.13" width="175.001" height="33" filterUnits="userSpaceOnUse" color-interpolation-filters="sRGB">
<feFlood flood-opacity="0" result="BackgroundImageFix"/>
<feColorMatrix in="SourceAlpha" type="matrix" values="0 0 0 0 0 0 0 0 0 0 0 0 0 0 0 0 0 0 127 0" result="hardAlpha"/>
<feOffset dx="-3" dy="4"/>
<feGaussianBlur stdDeviation="2"/>
<feComposite in2="hardAlpha" operator="out"/>
<feColorMatrix type="matrix" values="0 0 0 0 0 0 0 0 0 0 0 0 0 0 0 0 0 0 0.25 0"/>
<feBlend mode="normal" in2="BackgroundImageFix" result="effect1_dropShadow_119_30"/>
<feBlend mode="normal" in="SourceGraphic" in2="effect1_dropShadow_119_30" result="shape"/>
</filter>
<filter id="filter16_d_119_30" x="402.644" y="333.63" width="172.09" height="33" filterUnits="userSpaceOnUse" color-interpolation-filters="sRGB">
<feFlood flood-opacity="0" result="BackgroundImageFix"/>
<feColorMatrix in="SourceAlpha" type="matrix" values="0 0 0 0 0 0 0 0 0 0 0 0 0 0 0 0 0 0 127 0" result="hardAlpha"/>
<feOffset dx="-3" dy="4"/>
<feGaussianBlur stdDeviation="2"/>
<feComposite in2="hardAlpha" operator="out"/>
<feColorMatrix type="matrix" values="0 0 0 0 0 0 0 0 0 0 0 0 0 0 0 0 0 0 0.25 0"/>
<feBlend mode="normal" in2="BackgroundImageFix" result="effect1_dropShadow_119_30"/>
<feBlend mode="normal" in="SourceGraphic" in2="effect1_dropShadow_119_30" result="shape"/>
</filter>
<filter id="filter17_d_119_30" x="446.144" y="225.63" width="88" height="33" filterUnits="userSpaceOnUse" color-interpolation-filters="sRGB">
<feFlood flood-opacity="0" result="BackgroundImageFix"/>
<feColorMatrix in="SourceAlpha" type="matrix" values="0 0 0 0 0 0 0 0 0 0 0 0 0 0 0 0 0 0 127 0" result="hardAlpha"/>
<feOffset dx="-3" dy="4"/>
<feGaussianBlur stdDeviation="2"/>
<feComposite in2="hardAlpha" operator="out"/>
<feColorMatrix type="matrix" values="0 0 0 0 0 0 0 0 0 0 0 0 0 0 0 0 0 0 0.25 0"/>
<feBlend mode="normal" in2="BackgroundImageFix" result="effect1_dropShadow_119_30"/>
<feBlend mode="normal" in="SourceGraphic" in2="effect1_dropShadow_119_30" result="shape"/>
</filter>
<filter id="filter18_d_119_30" x="82.5566" y="175.229" width="69.0996" height="66.0043" filterUnits="userSpaceOnUse" color-interpolation-filters="sRGB">
<feFlood flood-opacity="0" result="BackgroundImageFix"/>
<feColorMatrix in="SourceAlpha" type="matrix" values="0 0 0 0 0 0 0 0 0 0 0 0 0 0 0 0 0 0 127 0" result="hardAlpha"/>
<feOffset dy="4"/>
<feGaussianBlur stdDeviation="2"/>
<feComposite in2="hardAlpha" operator="out"/>
<feColorMatrix type="matrix" values="0 0 0 0 0 0 0 0 0 0 0 0 0 0 0 0 0 0 0.25 0"/>
<feBlend mode="normal" in2="BackgroundImageFix" result="effect1_dropShadow_119_30"/>
<feBlend mode="normal" in="SourceGraphic" in2="effect1_dropShadow_119_30" result="shape"/>
</filter>
<filter id="filter19_d_119_30" x="156.151" y="273.711" width="100.224" height="43.9272" filterUnits="userSpaceOnUse" color-interpolation-filters="sRGB">
<feFlood flood-opacity="0" result="BackgroundImageFix"/>
<feColorMatrix in="SourceAlpha" type="matrix" values="0 0 0 0 0 0 0 0 0 0 0 0 0 0 0 0 0 0 127 0" result="hardAlpha"/>
<feOffset dy="4"/>
<feGaussianBlur stdDeviation="2"/>
<feComposite in2="hardAlpha" operator="out"/>
<feColorMatrix type="matrix" values="0 0 0 0 0 0 0 0 0 0 0 0 0 0 0 0 0 0 0.25 0"/>
<feBlend mode="normal" in2="BackgroundImageFix" result="effect1_dropShadow_119_30"/>
<feBlend mode="normal" in="SourceGraphic" in2="effect1_dropShadow_119_30" result="shape"/>
</filter>
<linearGradient id="paint0_linear_119_30" x1="397.147" y1="59.0048" x2="397.147" y2="376.18" gradientUnits="userSpaceOnUse">
<stop stop-color="#84CCB8"/>
<stop offset="1" stop-color="#196072"/>
</linearGradient>
<linearGradient id="paint1_linear_119_30" x1="364.076" y1="168.607" x2="623.076" y2="168.607" gradientUnits="userSpaceOnUse">
<stop stop-color="#84CCB8"/>
<stop offset="1" stop-color="#196072"/>
</linearGradient>
<clipPath id="clip0_119_30">
<rect width="761" height="553" fill="white"/>
</clipPath>
</defs>
</svg>
