<svg fill="none" height="1064" viewBox="0 0 953 1064" width="953" xmlns="http://www.w3.org/2000/svg" xmlns:xlink="http://www.w3.org/1999/xlink"><filter id="a" color-interpolation-filters="sRGB" filterUnits="userSpaceOnUse" height="1064" width="953" x="0" y="0"><feFlood flood-opacity="0" result="BackgroundImageFix"/><feColorMatrix in="SourceAlpha" result="hardAlpha" type="matrix" values="0 0 0 0 0 0 0 0 0 0 0 0 0 0 0 0 0 0 127 0"/><feOffset dy="4"/><feGaussianBlur stdDeviation="2"/><feColorMatrix type="matrix" values="0 0 0 0 0 0 0 0 0 0 0 0 0 0 0 0 0 0 0.25 0"/><feBlend in2="BackgroundImageFix" mode="normal" result="effect1_dropShadow_40_170"/><feBlend in="SourceGraphic" in2="effect1_dropShadow_40_170" mode="normal" result="shape"/></filter><filter id="b" color-interpolation-filters="sRGB" filterUnits="userSpaceOnUse" height="357.725" width="344.482" x="300.875" y="325.929"><feFlood flood-opacity="0" result="BackgroundImageFix"/><feColorMatrix in="SourceAlpha" result="hardAlpha" type="matrix" values="0 0 0 0 0 0 0 0 0 0 0 0 0 0 0 0 0 0 127 0"/><feOffset dx="2" dy="6"/><feGaussianBlur stdDeviation="3.5"/><feColorMatrix type="matrix" values="0 0 0 0 0 0 0 0 0 0 0 0 0 0 0 0 0 0 0.45 0"/><feBlend in2="BackgroundImageFix" mode="normal" result="effect1_dropShadow_40_170"/><feBlend in="SourceGraphic" in2="effect1_dropShadow_40_170" mode="normal" result="shape"/></filter><linearGradient id="c"><stop offset="0" stop-color="#84ccb8"/><stop offset="1" stop-color="#196072"/></linearGradient><linearGradient id="d" gradientUnits="userSpaceOnUse" x1="346.743" x2="346.743" xlink:href="#c" y1="327.278" y2="383.229"/><linearGradient id="e" gradientUnits="userSpaceOnUse" x1="471" x2="471" xlink:href="#c" y1="326.929" y2="382.88"/><linearGradient id="f" gradientUnits="userSpaceOnUse" x1="595.488" x2="595.488" xlink:href="#c" y1="327.278" y2="383.229"/><linearGradient id="g" gradientUnits="userSpaceOnUse" x1="346.743" x2="346.743" xlink:href="#c" y1="470.99" y2="526.941"/><linearGradient id="h" gradientUnits="userSpaceOnUse" x1="471" x2="471" xlink:href="#c" y1="470.646" y2="526.597"/><linearGradient id="i" gradientUnits="userSpaceOnUse" x1="595.488" x2="595.488" xlink:href="#c" y1="470.99" y2="526.941"/><linearGradient id="j" gradientUnits="userSpaceOnUse" x1="346.743" x2="346.743" xlink:href="#c" y1="614.703" y2="670.654"/><linearGradient id="k" gradientUnits="userSpaceOnUse" x1="471" x2="471" xlink:href="#c" y1="614.363" y2="670.314"/><linearGradient id="l" gradientUnits="userSpaceOnUse" x1="595.488" x2="595.488" xlink:href="#c" y1="614.703" y2="670.654"/><clipPath id="m"><path d="m4 0h945v1056h-945z"/></clipPath><clipPath id="n"><path d="m-119.165 339.355h1027.62v716.299h-1027.62z"/></clipPath><g clip-path="url(#m)" filter="url(#a)"><path d="m133.806 498.767c38.346 0 69.432-31.36 69.432-70.045s-31.086-70.045-69.432-70.045c-38.3456 0-69.431 31.36-69.431 70.045s31.0854 70.045 69.431 70.045z" fill="#ff6584"/><path d="m564.253 182.115h-186.505v-123.9698c.003-2.6178.91-5.1274 2.524-6.9785 1.614-1.851 3.802-2.8922 6.084-2.8952h169.289c2.282.003 4.47 1.0442 6.084 2.8952 1.614 1.8511 2.521 4.3607 2.524 6.9785zm-184.592-2.194h182.679v-121.7758c-.002-2.0361-.708-3.9881-1.963-5.4278s-2.957-2.2495-4.732-2.2518h-169.289c-1.775.0023-3.477.8121-4.732 2.2518s-1.961 3.3917-1.963 5.4278z" fill="#3f3d56"/><path d="m430.83 95.4458h80.341c2.029 0 3.975.9247 5.41 2.5706s2.241 3.8786 2.241 6.2056v131.65h-95.643v-131.65c0-2.327.806-4.5597 2.241-6.2056s3.381-2.5706 5.41-2.5706z" fill="#e6e6e6"/><path d="m297.857 272.933h346.891c8.762 0 17.165 3.745 23.361 10.412 6.195 6.667 9.676 15.71 9.676 25.139v533.26h-412.965v-533.26c0-9.429 3.481-18.472 9.676-25.139 6.196-6.667 14.599-10.412 23.361-10.412z" fill="#e6e6e6"/><path d="m446.611 50.4655h-39.214v-44.98012c.002-1.4543.506-2.84856 1.403-3.87691.896-1.02835 2.112-1.60680623 3.38-1.60847h29.649c1.268.00166377 2.483.58012 3.38 1.60847s1.401 2.42261 1.402 3.87691zm-37.301-2.1941h35.388v-42.78602c0-.87259-.303-1.70918-.841-2.3262-.538-.61701-1.267-.96407-2.028-.96503h-29.649c-.761.00096-1.49.34802-2.028.96503-.538.61702-.841 1.45361-.842 2.3262z" fill="#3f3d56"/><path d="m768.844 711.827c-.381 0-.752 0-1.133-.011-23.662-.3-46.414-10.501-63.981-28.685-.649-.678-1.294-1.366-1.932-2.062l-.297-.324v-210.257l.092-.222c.633-1.54 1.275-3.057 1.917-4.575 19.894-46.329 43.096-71.84 65.334-71.84 32.069 0 56.94 50.458 68.911 80.536 16.647 41.825 28.273 93.651 28.273 126.032-.008 29.335-10.099 57.484-28.085 78.338-17.986 20.855-42.416 32.734-67.988 33.059-.358.011-.739.011-1.111.011zm-65.43-32.022c.53.574 1.065 1.141 1.601 1.7 17.224 17.827 39.532 27.826 62.73 28.117.387.011.754-.001 1.124.011.348 0 .704 0 1.051-.01 51.945-.661 94.195-49.65 94.195-109.204 0-32.1-11.555-83.552-28.1-125.121-11.78-29.599-36.172-79.253-67.171-79.253-21.47 0-44.063 25.076-63.615 70.61-.606 1.431-1.214 2.869-1.815 4.325z" fill="#3f3d56"/><path d="m768.84 844.846c-.292 0-.572-.133-.778-.37-.207-.237-.323-.558-.323-.893v-257.668c-.001-.166.027-.331.082-.485s.136-.294.238-.412c.103-.118.224-.212.358-.276s.278-.097.423-.097.288.033.422.097.256.158.358.276.183.258.238.412.083.319.082.485v257.668c0 .335-.116.656-.322.893-.207.237-.486.37-.778.37z" fill="#ccc"/><path d="m197.847 844.846c-.291 0-.571-.133-.778-.37-.206-.237-.322-.558-.322-.893v-257.668c-.001-.166.027-.331.082-.485s.136-.294.238-.412.224-.212.358-.276.277-.097.422-.097c.146 0 .289.033.423.097s.256.158.358.276.183.258.238.412.083.319.082.485v257.668c0 .335-.116.656-.322.893-.207.237-.487.37-.779.37z" fill="#ccc"/><path d="m768.84 634.057c-.158 0-.314-.039-.457-.114-.144-.075-.272-.185-.375-.322l-55.343-73.208c-.19-.253-.286-.582-.265-.916.021-.333.157-.644.377-.863s.507-.329.798-.305c.291.023.562.178.753.43l55.343 73.208c.138.183.228.408.258.647.03.24-.001.484-.088.704-.088.22-.229.407-.406.538-.178.131-.384.2-.595.201z" fill="#ccc"/><path d="m768.84 676.306c-.218 0-.431-.074-.612-.213s-.322-.336-.405-.566c-.083-.231-.105-.485-.063-.73.043-.244.148-.469.301-.646l31.447-36.071c.207-.236.486-.368.778-.368.291.001.57.134.776.37s.322.557.322.891c.001.334-.114.655-.32.891l-31.446 36.072c-.102.118-.224.211-.357.274-.134.064-.277.096-.421.096z" fill="#ccc"/><path d="m870.649 845.367h-82.258v-1.097c-.003-6.197 1.059-12.334 3.125-18.061 2.066-5.726 5.095-10.93 8.914-15.313 3.82-4.383 8.355-7.86 13.346-10.232 4.991-2.373 10.341-3.594 15.744-3.594s10.753 1.221 15.744 3.594c4.991 2.372 9.526 5.849 13.346 10.232 3.819 4.383 6.848 9.587 8.914 15.313 2.066 5.727 3.128 11.864 3.125 18.061zm-80.334-2.194h78.41c-.25-11.737-4.49-22.896-11.815-31.096s-17.155-12.79-27.39-12.79-20.065 4.59-27.39 12.79-11.565 19.359-11.815 31.096z" fill="#3f3d56"/><path d="m829.52 817.494c-.288 0-.564.131-.768.365-.203.233-.318.55-.318.88v13.231l-11.236-11.062c-.108-.107-.233-.189-.369-.24s-.279-.071-.421-.059-.281.056-.409.13c-.127.074-.241.176-.334.301-.093.124-.164.268-.208.424-.044.155-.062.32-.051.483s.05.322.115.468.154.276.263.383l12.65 12.454v7.773c0 .164.027.326.082.477.054.152.134.29.235.406s.221.208.353.271.273.095.416.095.284-.032.416-.095.252-.155.353-.271.181-.254.235-.406c.054-.151.082-.313.082-.477v-24.286c0-.33-.115-.647-.318-.88-.204-.234-.48-.365-.768-.365z" fill="#3f3d56"/><path d="m181.059 845.367h-82.2582v-1.097c-.0026-6.197 1.0593-12.334 3.1252-18.061 2.066-5.726 5.095-10.93 8.914-15.313 3.82-4.383 8.355-7.86 13.346-10.232 4.991-2.373 10.341-3.594 15.744-3.594s10.753 1.221 15.744 3.594c4.991 2.372 9.526 5.849 13.346 10.232 3.819 4.383 6.848 9.587 8.914 15.313 2.066 5.727 3.128 11.864 3.125 18.061zm-80.334-2.194h78.41c-.25-11.737-4.49-22.896-11.815-31.096s-17.155-12.79-27.39-12.79-20.065 4.59-27.39 12.79-11.565 19.359-11.815 31.096z" fill="#3f3d56"/><path d="m139.93 817.494c-.288 0-.564.131-.768.365-.204.233-.318.55-.318.88v13.231l-11.236-11.062c-.108-.107-.233-.189-.369-.24s-.279-.071-.421-.059c-.143.012-.281.056-.409.13-.127.074-.241.176-.334.301-.093.124-.164.268-.208.424-.044.155-.062.32-.051.483s.05.322.115.468.154.276.263.383l12.65 12.454v7.773c0 .164.027.326.082.477.054.152.134.29.235.406s.221.208.353.271.273.095.416.095.284-.032.416-.095.252-.155.353-.271.181-.254.235-.406c.054-.151.082-.313.082-.477v-24.286c0-.33-.115-.647-.318-.88-.204-.234-.48-.365-.768-.365z" fill="#3f3d56"/><path d="m198.809 711.827c-.382 0-.753 0-1.134-.011-25.57-.331-49.995-12.212-67.978-33.066s-28.073-48.999-28.082-78.331c0-32.382 11.627-84.208 28.274-126.032 11.972-30.078 36.845-80.536 68.92-80.536 13.211 0 26.514 8.637 39.54 25.672.646.84 1.293 1.705 1.932 2.592l.218.304v278.643l-.539.299c-.644.358-1.297.694-1.95 1.018-12.003 6.093-24.966 9.305-38.091 9.437-.358.011-.739.011-1.11.011zm0-315.782c-31.005 0-55.399 49.654-67.18 79.253-16.545 41.568-28.101 93.02-28.101 125.121 0 59.544 42.25 108.532 94.182 109.203.387.012.748.015 1.124.011.347 0 .703 0 1.05-.01 12.873-.129 25.587-3.278 37.359-9.254.452-.225.9-.452 1.344-.689v-276.471c-.554-.763-1.114-1.508-1.674-2.237-12.649-16.541-25.468-24.927-38.104-24.927z" fill="#3f3d56"/><path d="m198.805 634.057c-.158 0-.314-.039-.458-.114-.143-.075-.271-.185-.374-.322l-55.343-73.208c-.191-.253-.286-.582-.265-.916.021-.333.156-.644.377-.863.22-.219.507-.329.798-.305.29.023.561.178.753.43l55.342 73.208c.139.183.228.408.258.647.03.24 0 .484-.088.704s-.228.407-.406.538c-.177.131-.384.2-.594.201z" fill="#ccc"/><path d="m198.804 676.306c-.218 0-.43-.074-.611-.213s-.322-.336-.406-.566c-.083-.231-.105-.485-.062-.73.042-.244.147-.469.301-.646l31.447-36.071c.206-.236.486-.368.777-.368.291.001.571.134.777.37s.322.557.322.891-.115.655-.32.891l-31.447 36.072c-.102.118-.223.211-.357.274-.133.064-.276.096-.421.096z" fill="#ccc"/><path d="m285.222 190.891.708 1.602c.314.691.478 1.459.478 2.238v43.335h33.476v-43.335c0-.779.164-1.547.478-2.238l.708-1.602zm32.749 3.84v41.141h-29.65v-41.141c.001-.554-.057-1.107-.172-1.645h29.994c-.115.538-.173 1.091-.172 1.645zm9.334-3.84.708 1.602c.314.691.478 1.459.479 2.238v43.335h33.475v-43.335c0-.779.164-1.547.478-2.238l.708-1.602zm32.749 3.84v41.141h-29.65v-41.141c.001-.554-.057-1.107-.172-1.645h29.994c-.115.538-.173 1.091-.172 1.645zm9.335-3.84.707 1.602c.314.691.478 1.459.479 2.238v43.335h33.475v-43.335c0-.779.164-1.547.478-2.238l.708-1.602zm32.748 3.84v41.141h-29.649v-41.141c0-.554-.058-1.107-.173-1.645h29.994c-.115.538-.172 1.091-.172 1.645zm9.335-3.84.708 1.602c.313.691.477 1.459.478 2.238v43.335h33.475v-43.335c.001-.779.165-1.547.478-2.238l.708-1.602zm32.748 3.84v41.141h-29.649v-41.141c0-.554-.058-1.107-.173-1.645h29.995c-.115.538-.173 1.091-.173 1.645zm9.335-3.84.708 1.602c.314.691.478 1.459.478 2.238v43.335h33.475v-43.335c.001-.779.165-1.547.479-2.238l.707-1.602zm32.748 3.84v41.141h-29.649v-41.141c0-.554-.057-1.107-.172-1.645h29.994c-.115.538-.173 1.091-.173 1.645zm9.335-3.84.708 1.602c.314.691.478 1.459.478 2.238v43.335h33.475v-43.335c.001-.779.165-1.547.479-2.238l.708-1.602zm32.749 3.84v41.141h-29.65v-41.141c.001-.554-.057-1.107-.172-1.645h29.994c-.115.538-.173 1.091-.172 1.645zm9.334-3.84.708 1.602c.314.691.478 1.459.478 2.238v43.335h33.476v-43.335c0-.779.164-1.547.478-2.238l.708-1.602zm32.749 3.84v41.141h-29.65v-41.141c.001-.554-.057-1.107-.172-1.645h29.994c-.115.538-.173 1.091-.172 1.645zm9.334-3.84.708 1.602c.314.691.478 1.459.479 2.238v43.335h33.475v-43.335c0-.779.164-1.547.478-2.238l.708-1.602zm32.749 3.84v41.141h-29.65v-41.141c.001-.554-.057-1.107-.172-1.645h29.994c-.115.538-.173 1.091-.172 1.645zm9.335-3.84.707 1.602c.314.691.478 1.459.479 2.238v43.335h33.475v-43.335c0-.779.164-1.547.478-2.238l.708-1.602zm32.748 3.84v41.141h-29.649v-41.141c0-.554-.058-1.107-.173-1.645h29.994c-.115.538-.172 1.091-.172 1.645zm-32.748-3.84.707 1.602c.314.691.478 1.459.479 2.238v43.335h33.475v-43.335c0-.779.164-1.547.478-2.238l.708-1.602zm32.748 3.84v41.141h-29.649v-41.141c0-.554-.058-1.107-.173-1.645h29.994c-.115.538-.172 1.091-.172 1.645zm-74.832-3.84.708 1.602c.314.691.478 1.459.479 2.238v43.335h33.475v-43.335c0-.779.164-1.547.478-2.238l.708-1.602zm32.749 3.84v41.141h-29.65v-41.141c.001-.554-.057-1.107-.172-1.645h29.994c-.115.538-.173 1.091-.172 1.645zm-74.832-3.84.708 1.602c.314.691.478 1.459.478 2.238v43.335h33.476v-43.335c0-.779.164-1.547.478-2.238l.708-1.602zm32.749 3.84v41.141h-29.65v-41.141c.001-.554-.057-1.107-.172-1.645h29.994c-.115.538-.173 1.091-.172 1.645zm-74.832-3.84.708 1.602c.314.691.478 1.459.478 2.238v43.335h33.475v-43.335c.001-.779.165-1.547.479-2.238l.708-1.602zm32.749 3.84v41.141h-29.65v-41.141c.001-.554-.057-1.107-.172-1.645h29.994c-.115.538-.173 1.091-.172 1.645zm-74.832-3.84.708 1.602c.314.691.478 1.459.478 2.238v43.335h33.475v-43.335c.001-.779.165-1.547.479-2.238l.707-1.602zm32.748 3.84v41.141h-29.649v-41.141c0-.554-.057-1.107-.172-1.645h29.994c-.115.538-.173 1.091-.173 1.645zm-74.831-3.84.708 1.602c.313.691.477 1.459.478 2.238v43.335h33.475v-43.335c.001-.779.165-1.547.478-2.238l.708-1.602zm32.748 3.84v41.141h-29.649v-41.141c0-.554-.058-1.107-.173-1.645h29.995c-.115.538-.173 1.091-.173 1.645zm-74.831-3.84.707 1.602c.314.691.478 1.459.479 2.238v43.335h33.475v-43.335c0-.779.164-1.547.478-2.238l.708-1.602zm32.748 3.84v41.141h-29.649v-41.141c0-.554-.058-1.107-.173-1.645h29.994c-.115.538-.172 1.091-.172 1.645zm-74.832-3.84.708 1.602c.314.691.478 1.459.479 2.238v43.335h33.475v-43.335c0-.779.164-1.547.478-2.238l.708-1.602zm32.749 3.84v41.141h-29.65v-41.141c.001-.554-.057-1.107-.172-1.645h29.994c-.115.538-.173 1.091-.172 1.645zm-74.832-3.84.708 1.602c.314.691.478 1.459.478 2.238v43.335h33.476v-43.335c0-.779.164-1.547.478-2.238l.708-1.602zm32.749 3.84v41.141h-29.65v-41.141c.001-.554-.057-1.107-.172-1.645h29.994c-.115.538-.173 1.091-.172 1.645zm303.917-3.84.707 1.602c.314.691.478 1.459.479 2.238v43.335h33.475v-43.335c0-.779.164-1.547.478-2.238l.708-1.602zm32.748 3.84v41.141h-29.649v-41.141c0-.554-.058-1.107-.173-1.645h29.994c-.115.538-.172 1.091-.172 1.645zm-74.832-3.84.708 1.602c.314.691.478 1.459.479 2.238v43.335h33.475v-43.335c0-.779.164-1.547.478-2.238l.708-1.602zm32.749 3.84v41.141h-29.65v-41.141c.001-.554-.057-1.107-.172-1.645h29.994c-.115.538-.173 1.091-.172 1.645zm-74.832-3.84.708 1.602c.314.691.478 1.459.478 2.238v43.335h33.476v-43.335c0-.779.164-1.547.478-2.238l.708-1.602zm32.749 3.84v41.141h-29.65v-41.141c.001-.554-.057-1.107-.172-1.645h29.994c-.115.538-.173 1.091-.172 1.645zm-74.832-3.84.708 1.602c.314.691.478 1.459.478 2.238v43.335h33.475v-43.335c.001-.779.165-1.547.479-2.238l.708-1.602zm32.749 3.84v41.141h-29.65v-41.141c.001-.554-.057-1.107-.172-1.645h29.994c-.115.538-.173 1.091-.172 1.645zm-74.832-3.84.708 1.602c.314.691.478 1.459.478 2.238v43.335h33.475v-43.335c.001-.779.165-1.547.479-2.238l.707-1.602zm32.748 3.84v41.141h-29.649v-41.141c0-.554-.057-1.107-.172-1.645h29.994c-.115.538-.173 1.091-.173 1.645zm-74.831-3.84.708 1.602c.313.691.477 1.459.478 2.238v43.335h33.475v-43.335c.001-.779.165-1.547.478-2.238l.708-1.602zm32.748 3.84v41.141h-29.649v-41.141c0-.554-.058-1.107-.173-1.645h29.995c-.115.538-.173 1.091-.173 1.645zm-74.831-3.84.707 1.602c.314.691.478 1.459.479 2.238v43.335h33.475v-43.335c0-.779.164-1.547.478-2.238l.708-1.602zm32.748 3.84v41.141h-29.649v-41.141c0-.554-.058-1.107-.173-1.645h29.994c-.115.538-.172 1.091-.172 1.645zm-74.832-3.84.708 1.602c.314.691.478 1.459.479 2.238v43.335h33.475v-43.335c0-.779.164-1.547.478-2.238l.708-1.602zm32.749 3.84v41.141h-29.65v-41.141c.001-.554-.057-1.107-.172-1.645h29.994c-.115.538-.173 1.091-.172 1.645zm-74.832-3.84.708 1.602c.314.691.478 1.459.478 2.238v43.335h33.476v-43.335c0-.779.164-1.547.478-2.238l.708-1.602zm32.749 3.84v41.141h-29.65v-41.141c.001-.554-.057-1.107-.172-1.645h29.994c-.115.538-.173 1.091-.172 1.645zm303.917-3.84.707 1.602c.314.691.478 1.459.479 2.238v43.335h33.475v-43.335c0-.779.164-1.547.478-2.238l.708-1.602zm32.748 3.84v41.141h-29.649v-41.141c0-.554-.058-1.107-.173-1.645h29.994c-.115.538-.172 1.091-.172 1.645zm-74.832-3.84.708 1.602c.314.691.478 1.459.479 2.238v43.335h33.475v-43.335c0-.779.164-1.547.478-2.238l.708-1.602zm32.749 3.84v41.141h-29.65v-41.141c.001-.554-.057-1.107-.172-1.645h29.994c-.115.538-.173 1.091-.172 1.645zm-74.832-3.84.708 1.602c.314.691.478 1.459.478 2.238v43.335h33.476v-43.335c0-.779.164-1.547.478-2.238l.708-1.602zm32.749 3.84v41.141h-29.65v-41.141c.001-.554-.057-1.107-.172-1.645h29.994c-.115.538-.173 1.091-.172 1.645zm-74.832-3.84.708 1.602c.314.691.478 1.459.478 2.238v43.335h33.475v-43.335c.001-.779.165-1.547.479-2.238l.708-1.602zm32.749 3.84v41.141h-29.65v-41.141c.001-.554-.057-1.107-.172-1.645h29.994c-.115.538-.173 1.091-.172 1.645zm-74.832-3.84.708 1.602c.314.691.478 1.459.478 2.238v43.335h33.475v-43.335c.001-.779.165-1.547.479-2.238l.707-1.602zm32.748 3.84v41.141h-29.649v-41.141c0-.554-.057-1.107-.172-1.645h29.994c-.115.538-.173 1.091-.173 1.645zm-74.831-3.84.708 1.602c.313.691.477 1.459.478 2.238v43.335h33.475v-43.335c.001-.779.165-1.547.478-2.238l.708-1.602zm32.748 3.84v41.141h-29.649v-41.141c0-.554-.058-1.107-.173-1.645h29.995c-.115.538-.173 1.091-.173 1.645zm-74.831-3.84.707 1.602c.314.691.478 1.459.479 2.238v43.335h33.475v-43.335c0-.779.164-1.547.478-2.238l.708-1.602zm32.748 3.84v41.141h-29.649v-41.141c0-.554-.058-1.107-.173-1.645h29.994c-.115.538-.172 1.091-.172 1.645zm-74.832-3.84.708 1.602c.314.691.478 1.459.479 2.238v43.335h33.475v-43.335c0-.779.164-1.547.478-2.238l.708-1.602zm32.749 3.84v41.141h-29.65v-41.141c.001-.554-.057-1.107-.172-1.645h29.994c-.115.538-.173 1.091-.172 1.645zm-74.832-3.84.708 1.602c.314.691.478 1.459.478 2.238v43.335h33.476v-43.335c0-.779.164-1.547.478-2.238l.708-1.602zm32.749 3.84v41.141h-29.65v-41.141c.001-.554-.057-1.107-.172-1.645h29.994c-.115.538-.173 1.091-.172 1.645zm303.917-3.84.707 1.602c.314.691.478 1.459.479 2.238v43.335h33.475v-43.335c0-.779.164-1.547.478-2.238l.708-1.602zm32.748 3.84v41.141h-29.649v-41.141c0-.554-.058-1.107-.173-1.645h29.994c-.115.538-.172 1.091-.172 1.645zm-74.832-3.84.708 1.602c.314.691.478 1.459.479 2.238v43.335h33.475v-43.335c0-.779.164-1.547.478-2.238l.708-1.602zm32.749 3.84v41.141h-29.65v-41.141c.001-.554-.057-1.107-.172-1.645h29.994c-.115.538-.173 1.091-.172 1.645zm-74.832-3.84.708 1.602c.314.691.478 1.459.478 2.238v43.335h33.476v-43.335c0-.779.164-1.547.478-2.238l.708-1.602zm32.749 3.84v41.141h-29.65v-41.141c.001-.554-.057-1.107-.172-1.645h29.994c-.115.538-.173 1.091-.172 1.645zm-74.832-3.84.708 1.602c.314.691.478 1.459.478 2.238v43.335h33.475v-43.335c.001-.779.165-1.547.479-2.238l.708-1.602zm32.749 3.84v41.141h-29.65v-41.141c.001-.554-.057-1.107-.172-1.645h29.994c-.115.538-.173 1.091-.172 1.645zm-74.832-3.84.708 1.602c.314.691.478 1.459.478 2.238v43.335h33.475v-43.335c.001-.779.165-1.547.479-2.238l.707-1.602zm32.748 3.84v41.141h-29.649v-41.141c0-.554-.057-1.107-.172-1.645h29.994c-.115.538-.173 1.091-.173 1.645zm-74.831-3.84.708 1.602c.313.691.477 1.459.478 2.238v43.335h33.475v-43.335c.001-.779.165-1.547.478-2.238l.708-1.602zm32.748 3.84v41.141h-29.649v-41.141c0-.554-.058-1.107-.173-1.645h29.995c-.115.538-.173 1.091-.173 1.645zm-74.831-3.84.707 1.602c.314.691.478 1.459.479 2.238v43.335h33.475v-43.335c0-.779.164-1.547.478-2.238l.708-1.602zm32.748 3.84v41.141h-29.649v-41.141c0-.554-.058-1.107-.173-1.645h29.994c-.115.538-.172 1.091-.172 1.645zm-74.832-3.84.708 1.602c.314.691.478 1.459.479 2.238v43.335h33.475v-43.335c0-.779.164-1.547.478-2.238l.708-1.602zm32.749 3.84v41.141h-29.65v-41.141c.001-.554-.057-1.107-.172-1.645h29.994c-.115.538-.173 1.091-.172 1.645zm-74.832-3.84.708 1.602c.314.691.478 1.459.478 2.238v43.335h33.476v-43.335c0-.779.164-1.547.478-2.238l.708-1.602zm32.749 3.84v41.141h-29.65v-41.141c.001-.554-.057-1.107-.172-1.645h29.994c-.115.538-.173 1.091-.172 1.645zm303.917-3.84.707 1.602c.314.691.478 1.459.479 2.238v43.335h33.475v-43.335c0-.779.164-1.547.478-2.238l.708-1.602zm32.748 3.84v41.141h-29.649v-41.141c0-.554-.058-1.107-.173-1.645h29.994c-.115.538-.172 1.091-.172 1.645zm-74.124-2.238c.314.691.478 1.459.479 2.238v43.335h33.475v-43.335c0-.779.164-1.547.478-2.238l.708-1.602h-35.848zm32.213.593c-.115.538-.173 1.091-.172 1.645v41.141h-29.65v-41.141c.001-.554-.057-1.107-.172-1.645zm-74.296-.593c.314.691.478 1.459.478 2.238v43.335h33.476v-43.335c0-.779.164-1.547.478-2.238l.708-1.602h-35.848zm32.213.593c-.115.538-.173 1.091-.172 1.645v41.141h-29.65v-41.141c.001-.554-.057-1.107-.172-1.645zm-74.296-.593c.314.691.478 1.459.478 2.238v43.335h33.475v-43.335c.001-.779.165-1.547.479-2.238l.708-1.602h-35.848zm32.213.593c-.115.538-.173 1.091-.172 1.645v41.141h-29.65v-41.141c.001-.554-.057-1.107-.172-1.645zm-74.296-.593c.314.691.478 1.459.478 2.238v43.335h33.475v-43.335c.001-.779.165-1.547.479-2.238l.707-1.602h-35.847zm32.213.593c-.115.538-.173 1.091-.173 1.645v41.141h-29.649v-41.141c0-.554-.057-1.107-.172-1.645zm-74.296-.593c.313.691.477 1.459.478 2.238v43.335h33.475v-43.335c.001-.779.165-1.547.478-2.238l.708-1.602h-35.847zm32.213.593c-.115.538-.173 1.091-.173 1.645v41.141h-29.649v-41.141c0-.554-.058-1.107-.173-1.645zm-74.297-.593c.314.691.478 1.459.479 2.238v43.335h33.475v-43.335c0-.779.164-1.547.478-2.238l.708-1.602h-35.847zm32.213.593c-.115.538-.172 1.091-.172 1.645v41.141h-29.649v-41.141c0-.554-.058-1.107-.173-1.645zm-74.296-.593c.314.691.478 1.459.479 2.238v43.335h33.475v-43.335c0-.779.164-1.547.478-2.238l.708-1.602h-35.848zm32.213.593c-.115.538-.173 1.091-.172 1.645v41.141h-29.65v-41.141c.001-.554-.057-1.107-.172-1.645zm-74.296-.593c.314.691.478 1.459.478 2.238v43.335h33.476v-43.335c0-.779.164-1.547.478-2.238l.708-1.602h-35.848zm32.213.593c-.115.538-.173 1.091-.172 1.645v41.141h-29.65v-41.141c.001-.554-.057-1.107-.172-1.645zm304.452-.593c.314.691.478 1.459.479 2.238v43.335h33.475v-43.335c0-.779.164-1.547.478-2.238l.708-1.602h-35.847zm32.213.593c-.115.538-.172 1.091-.172 1.645v41.141h-29.649v-41.141c0-.554-.058-1.107-.173-1.645zm-74.296-.593c.314.691.478 1.459.479 2.238v43.335h33.475v-43.335c0-.779.164-1.547.478-2.238l.708-1.602h-35.848zm32.213.593c-.115.538-.173 1.091-.172 1.645v41.141h-29.65v-41.141c.001-.554-.057-1.107-.172-1.645zm-74.296-.593c.314.691.478 1.459.478 2.238v43.335h33.476v-43.335c0-.779.164-1.547.478-2.238l.708-1.602h-35.848zm32.213.593c-.115.538-.173 1.091-.172 1.645v41.141h-29.65v-41.141c.001-.554-.057-1.107-.172-1.645zm-74.296-.593c.314.691.478 1.459.478 2.238v43.335h33.475v-43.335c.001-.779.165-1.547.479-2.238l.708-1.602h-35.848zm32.213.593c-.115.538-.173 1.091-.172 1.645v41.141h-29.65v-41.141c.001-.554-.057-1.107-.172-1.645zm-74.296-.593c.314.691.478 1.459.478 2.238v43.335h33.475v-43.335c.001-.779.165-1.547.479-2.238l.707-1.602h-35.847zm32.213.593c-.115.538-.173 1.091-.173 1.645v41.141h-29.649v-41.141c0-.554-.057-1.107-.172-1.645zm-74.296-.593c.313.691.477 1.459.478 2.238v43.335h33.475v-43.335c.001-.779.165-1.547.478-2.238l.708-1.602h-35.847zm32.213.593c-.115.538-.173 1.091-.173 1.645v41.141h-29.649v-41.141c0-.554-.058-1.107-.173-1.645zm-74.297-.593c.314.691.478 1.459.479 2.238v43.335h33.475v-43.335c0-.779.164-1.547.478-2.238l.708-1.602h-35.847zm32.213.593c-.115.538-.172 1.091-.172 1.645v41.141h-29.649v-41.141c0-.554-.058-1.107-.173-1.645zm-74.296-.593c.314.691.478 1.459.479 2.238v43.335h33.475v-43.335c0-.779.164-1.547.478-2.238l.708-1.602h-35.848zm32.213.593c-.115.538-.173 1.091-.172 1.645v41.141h-29.65v-41.141c.001-.554-.057-1.107-.172-1.645zm-74.296-.593c.314.691.478 1.459.478 2.238v43.335h33.476v-43.335c0-.779.164-1.547.478-2.238l.708-1.602h-35.848zm32.213.593c-.115.538-.173 1.091-.172 1.645v41.141h-29.65v-41.141c.001-.554-.057-1.107-.172-1.645zm376.663 51.562h-11.4c-.629-2.524-1.956-4.744-3.781-6.328-1.826-1.583-4.05-2.442-6.338-2.448h-6.217v-41.141c.002-.883-.144-1.758-.431-2.578 1.084-.732 1.927-1.853 2.401-3.189.473-1.337.55-2.815.218-4.206-.332-1.392-1.054-2.619-2.054-3.494-1.001-.874-2.224-1.346-3.482-1.343h-384.487c-1.258-.003-2.481.469-3.481 1.343-1.001.875-1.723 2.102-2.055 3.494-.331 1.391-.255 2.869.219 4.206.473 1.336 1.316 2.457 2.4 3.189-.287.82-.433 1.695-.43 2.578v41.141h-6.217c-2.289.006-4.513.865-6.338 2.448-1.826 1.584-3.153 3.804-3.781 6.328h-12.358c-2.281.004-4.469 1.046-6.082 2.897-1.614 1.85-2.522 4.359-2.525 6.977v579.257c.004 2.616.913 5.125 2.526 6.975s3.8 2.892 6.081 2.898h447.612c2.282-.004 4.47-1.045 6.083-2.896 1.614-1.851 2.522-4.36 2.525-6.977v-579.257c-.003-2.618-.911-5.127-2.525-6.977-1.613-1.851-3.801-2.893-6.083-2.897zm6.695 589.131c-.001 1.567-.421 3.097-1.202 4.383-.781 1.287-1.887 2.268-3.168 2.813-.742.324-1.531.488-2.325.483h-447.612c-.794.005-1.582-.159-2.324-.483-1.281-.545-2.387-1.526-3.168-2.813-.781-1.286-1.201-2.816-1.203-4.383v-579.257c.002-2.036.708-3.988 1.964-5.428 1.255-1.44 2.956-2.249 4.731-2.252h13.888l.153-.877c.402-2.227 1.46-4.228 2.996-5.666 1.536-1.439 3.457-2.227 5.44-2.233h8.129v-43.335c.001-.893.212-1.768.613-2.534l.592-1.13-1.08-.461c-.845-.351-1.554-1.033-2.004-1.925-.449-.892-.61-1.938-.453-2.952.156-1.015.62-1.934 1.309-2.595s1.56-1.022 2.458-1.019h384.487c.899-.003 1.769.358 2.458 1.019s1.153 1.58 1.31 2.595c.156 1.014-.004 2.06-.454 2.952-.449.892-1.159 1.574-2.003 1.925l-1.081.461.593 1.13c.4.765.612 1.641.612 2.534v43.335h8.13c1.982.006 3.903.794 5.439 2.232 1.536 1.439 2.594 3.44 2.996 5.667l.153.877h12.931c1.775.003 3.477.812 4.732 2.252s1.961 3.392 1.963 5.428zm-416.279-642.888.708 1.602c.314.691.478 1.459.478 2.238v43.335h33.476v-43.335c0-.779.164-1.547.478-2.238l.708-1.602zm32.749 3.84v41.141h-29.65v-41.141c.001-.554-.057-1.107-.172-1.645h29.994c-.115.538-.173 1.091-.172 1.645zm9.334-3.84.708 1.602c.314.691.478 1.459.479 2.238v43.335h33.475v-43.335c0-.779.164-1.547.478-2.238l.708-1.602zm32.749 3.84v41.141h-29.65v-41.141c.001-.554-.057-1.107-.172-1.645h29.994c-.115.538-.173 1.091-.172 1.645zm9.335-3.84.707 1.602c.314.691.478 1.459.479 2.238v43.335h33.475v-43.335c0-.779.164-1.547.478-2.238l.708-1.602zm32.748 3.84v41.141h-29.649v-41.141c0-.554-.058-1.107-.173-1.645h29.994c-.115.538-.172 1.091-.172 1.645zm9.335-3.84.708 1.602c.313.691.477 1.459.478 2.238v43.335h33.475v-43.335c.001-.779.165-1.547.478-2.238l.708-1.602zm32.748 3.84v41.141h-29.649v-41.141c0-.554-.058-1.107-.173-1.645h29.995c-.115.538-.173 1.091-.173 1.645zm9.335-3.84.708 1.602c.314.691.478 1.459.478 2.238v43.335h33.475v-43.335c.001-.779.165-1.547.479-2.238l.707-1.602zm32.748 3.84v41.141h-29.649v-41.141c0-.554-.057-1.107-.172-1.645h29.994c-.115.538-.173 1.091-.173 1.645zm9.335-3.84.708 1.602c.314.691.478 1.459.478 2.238v43.335h33.475v-43.335c.001-.779.165-1.547.479-2.238l.708-1.602zm32.749 3.84v41.141h-29.65v-41.141c.001-.554-.057-1.107-.172-1.645h29.994c-.115.538-.173 1.091-.172 1.645zm9.334-3.84.708 1.602c.314.691.478 1.459.478 2.238v43.335h33.476v-43.335c0-.779.164-1.547.478-2.238l.708-1.602zm32.749 3.84v41.141h-29.65v-41.141c.001-.554-.057-1.107-.172-1.645h29.994c-.115.538-.173 1.091-.172 1.645zm9.334-3.84.708 1.602c.314.691.478 1.459.479 2.238v43.335h33.475v-43.335c0-.779.164-1.547.478-2.238l.708-1.602zm32.749 3.84v41.141h-29.65v-41.141c.001-.554-.057-1.107-.172-1.645h29.994c-.115.538-.173 1.091-.172 1.645zm9.335-3.84.707 1.602c.314.691.478 1.459.479 2.238v43.335h33.475v-43.335c0-.779.164-1.547.478-2.238l.708-1.602zm32.748 3.84v41.141h-29.649v-41.141c0-.554-.058-1.107-.173-1.645h29.994c-.115.538-.172 1.091-.172 1.645zm-369.414-3.84.708 1.602c.314.691.478 1.459.478 2.238v43.335h33.476v-43.335c0-.779.164-1.547.478-2.238l.708-1.602zm32.749 3.84v41.141h-29.65v-41.141c.001-.554-.057-1.107-.172-1.645h29.994c-.115.538-.173 1.091-.172 1.645zm9.334-3.84.708 1.602c.314.691.478 1.459.479 2.238v43.335h33.475v-43.335c0-.779.164-1.547.478-2.238l.708-1.602zm32.749 3.84v41.141h-29.65v-41.141c.001-.554-.057-1.107-.172-1.645h29.994c-.115.538-.173 1.091-.172 1.645zm9.335-3.84.707 1.602c.314.691.478 1.459.479 2.238v43.335h33.475v-43.335c0-.779.164-1.547.478-2.238l.708-1.602zm32.748 3.84v41.141h-29.649v-41.141c0-.554-.058-1.107-.173-1.645h29.994c-.115.538-.172 1.091-.172 1.645zm9.335-3.84.708 1.602c.313.691.477 1.459.478 2.238v43.335h33.475v-43.335c.001-.779.165-1.547.478-2.238l.708-1.602zm32.748 3.84v41.141h-29.649v-41.141c0-.554-.058-1.107-.173-1.645h29.995c-.115.538-.173 1.091-.173 1.645zm9.335-3.84.708 1.602c.314.691.478 1.459.478 2.238v43.335h33.475v-43.335c.001-.779.165-1.547.479-2.238l.707-1.602zm32.748 3.84v41.141h-29.649v-41.141c0-.554-.057-1.107-.172-1.645h29.994c-.115.538-.173 1.091-.173 1.645zm9.335-3.84.708 1.602c.314.691.478 1.459.478 2.238v43.335h33.475v-43.335c.001-.779.165-1.547.479-2.238l.708-1.602zm32.749 3.84v41.141h-29.65v-41.141c.001-.554-.057-1.107-.172-1.645h29.994c-.115.538-.173 1.091-.172 1.645zm9.334-3.84.708 1.602c.314.691.478 1.459.478 2.238v43.335h33.476v-43.335c0-.779.164-1.547.478-2.238l.708-1.602zm32.749 3.84v41.141h-29.65v-41.141c.001-.554-.057-1.107-.172-1.645h29.994c-.115.538-.173 1.091-.172 1.645zm9.334-3.84.708 1.602c.314.691.478 1.459.479 2.238v43.335h33.475v-43.335c0-.779.164-1.547.478-2.238l.708-1.602zm32.749 3.84v41.141h-29.65v-41.141c.001-.554-.057-1.107-.172-1.645h29.994c-.115.538-.173 1.091-.172 1.645zm9.335-3.84.707 1.602c.314.691.478 1.459.479 2.238v43.335h33.475v-43.335c0-.779.164-1.547.478-2.238l.708-1.602zm32.748 3.84v41.141h-29.649v-41.141c0-.554-.058-1.107-.173-1.645h29.994c-.115.538-.172 1.091-.172 1.645zm-369.414-3.84.708 1.602c.314.691.478 1.459.478 2.238v43.335h33.476v-43.335c0-.779.164-1.547.478-2.238l.708-1.602zm32.749 3.84v41.141h-29.65v-41.141c.001-.554-.057-1.107-.172-1.645h29.994c-.115.538-.173 1.091-.172 1.645zm9.334-3.84.708 1.602c.314.691.478 1.459.479 2.238v43.335h33.475v-43.335c0-.779.164-1.547.478-2.238l.708-1.602zm32.749 3.84v41.141h-29.65v-41.141c.001-.554-.057-1.107-.172-1.645h29.994c-.115.538-.173 1.091-.172 1.645zm9.335-3.84.707 1.602c.314.691.478 1.459.479 2.238v43.335h33.475v-43.335c0-.779.164-1.547.478-2.238l.708-1.602zm32.748 3.84v41.141h-29.649v-41.141c0-.554-.058-1.107-.173-1.645h29.994c-.115.538-.172 1.091-.172 1.645zm9.335-3.84.708 1.602c.313.691.477 1.459.478 2.238v43.335h33.475v-43.335c.001-.779.165-1.547.478-2.238l.708-1.602zm32.748 3.84v41.141h-29.649v-41.141c0-.554-.058-1.107-.173-1.645h29.995c-.115.538-.173 1.091-.173 1.645zm9.335-3.84.708 1.602c.314.691.478 1.459.478 2.238v43.335h33.475v-43.335c.001-.779.165-1.547.479-2.238l.707-1.602zm32.748 3.84v41.141h-29.649v-41.141c0-.554-.057-1.107-.172-1.645h29.994c-.115.538-.173 1.091-.173 1.645zm9.335-3.84.708 1.602c.314.691.478 1.459.478 2.238v43.335h33.475v-43.335c.001-.779.165-1.547.479-2.238l.708-1.602zm32.749 3.84v41.141h-29.65v-41.141c.001-.554-.057-1.107-.172-1.645h29.994c-.115.538-.173 1.091-.172 1.645zm9.334-3.84.708 1.602c.314.691.478 1.459.478 2.238v43.335h33.476v-43.335c0-.779.164-1.547.478-2.238l.708-1.602zm32.749 3.84v41.141h-29.65v-41.141c.001-.554-.057-1.107-.172-1.645h29.994c-.115.538-.173 1.091-.172 1.645zm9.334-3.84.708 1.602c.314.691.478 1.459.479 2.238v43.335h33.475v-43.335c0-.779.164-1.547.478-2.238l.708-1.602zm32.749 3.84v41.141h-29.65v-41.141c.001-.554-.057-1.107-.172-1.645h29.994c-.115.538-.173 1.091-.172 1.645zm9.335-3.84.707 1.602c.314.691.478 1.459.479 2.238v43.335h33.475v-43.335c0-.779.164-1.547.478-2.238l.708-1.602zm32.748 3.84v41.141h-29.649v-41.141c0-.554-.058-1.107-.173-1.645h29.994c-.115.538-.172 1.091-.172 1.645zm-369.414-3.84.708 1.602c.314.691.478 1.459.478 2.238v43.335h33.476v-43.335c0-.779.164-1.547.478-2.238l.708-1.602zm32.749 3.84v41.141h-29.65v-41.141c.001-.554-.057-1.107-.172-1.645h29.994c-.115.538-.173 1.091-.172 1.645zm9.334-3.84.708 1.602c.314.691.478 1.459.479 2.238v43.335h33.475v-43.335c0-.779.164-1.547.478-2.238l.708-1.602zm32.749 3.84v41.141h-29.65v-41.141c.001-.554-.057-1.107-.172-1.645h29.994c-.115.538-.173 1.091-.172 1.645zm9.335-3.84.707 1.602c.314.691.478 1.459.479 2.238v43.335h33.475v-43.335c0-.779.164-1.547.478-2.238l.708-1.602zm32.748 3.84v41.141h-29.649v-41.141c0-.554-.058-1.107-.173-1.645h29.994c-.115.538-.172 1.091-.172 1.645zm9.335-3.84.708 1.602c.313.691.477 1.459.478 2.238v43.335h33.475v-43.335c.001-.779.165-1.547.478-2.238l.708-1.602zm32.748 3.84v41.141h-29.649v-41.141c0-.554-.058-1.107-.173-1.645h29.995c-.115.538-.173 1.091-.173 1.645zm9.335-3.84.708 1.602c.314.691.478 1.459.478 2.238v43.335h33.475v-43.335c.001-.779.165-1.547.479-2.238l.707-1.602zm32.748 3.84v41.141h-29.649v-41.141c0-.554-.057-1.107-.172-1.645h29.994c-.115.538-.173 1.091-.173 1.645zm9.335-3.84.708 1.602c.314.691.478 1.459.478 2.238v43.335h33.475v-43.335c.001-.779.165-1.547.479-2.238l.708-1.602zm32.749 3.84v41.141h-29.65v-41.141c.001-.554-.057-1.107-.172-1.645h29.994c-.115.538-.173 1.091-.172 1.645zm9.334-3.84.708 1.602c.314.691.478 1.459.478 2.238v43.335h33.476v-43.335c0-.779.164-1.547.478-2.238l.708-1.602zm32.749 3.84v41.141h-29.65v-41.141c.001-.554-.057-1.107-.172-1.645h29.994c-.115.538-.173 1.091-.172 1.645zm9.334-3.84.708 1.602c.314.691.478 1.459.479 2.238v43.335h33.475v-43.335c0-.779.164-1.547.478-2.238l.708-1.602zm32.749 3.84v41.141h-29.65v-41.141c.001-.554-.057-1.107-.172-1.645h29.994c-.115.538-.173 1.091-.172 1.645zm9.335-3.84.707 1.602c.314.691.478 1.459.479 2.238v43.335h33.475v-43.335c0-.779.164-1.547.478-2.238l.708-1.602zm32.748 3.84v41.141h-29.649v-41.141c0-.554-.058-1.107-.173-1.645h29.994c-.115.538-.172 1.091-.172 1.645z" fill="#3f3d56"/><g filter="url(#b)"><path d="m382.009 383.229h-70.531c-1.486-.002-2.91-.68-3.96-1.884-1.05-1.205-1.641-2.839-1.643-4.543v-43.097c.002-1.704.593-3.338 1.643-4.542 1.05-1.205 2.474-1.883 3.96-1.885h70.531c1.485.002 2.909.68 3.96 1.885 1.05 1.204 1.641 2.838 1.642 4.542v43.097c-.001 1.704-.592 3.338-1.642 4.543-1.051 1.204-2.475 1.882-3.96 1.884z" fill="url(#d)"/><path d="m506.266 382.88h-70.531c-1.485-.002-2.91-.68-3.96-1.885-1.05-1.204-1.641-2.838-1.643-4.542v-43.097c.002-1.704.593-3.338 1.643-4.543 1.05-1.204 2.475-1.882 3.96-1.884h70.531c1.485.002 2.909.68 3.96 1.884 1.05 1.205 1.641 2.839 1.643 4.543v43.097c-.002 1.704-.593 3.338-1.643 4.542-1.051 1.205-2.475 1.883-3.96 1.885z" fill="url(#e)"/><path d="m630.754 383.229h-70.531c-1.486-.002-2.91-.68-3.96-1.884-1.051-1.205-1.641-2.839-1.643-4.543v-43.097c.002-1.704.592-3.338 1.643-4.542 1.05-1.205 2.474-1.883 3.96-1.885h70.531c1.485.002 2.909.68 3.96 1.885 1.05 1.204 1.641 2.838 1.642 4.542v43.097c-.001 1.704-.592 3.338-1.642 4.543-1.051 1.204-2.475 1.882-3.96 1.884z" fill="url(#f)"/><path d="m382.009 526.941h-70.531c-1.486-.002-2.91-.679-3.96-1.884s-1.641-2.838-1.643-4.542v-43.098c.002-1.704.593-3.337 1.643-4.542s2.474-1.883 3.96-1.885h70.531c1.485.002 2.909.68 3.96 1.885 1.05 1.205 1.641 2.838 1.642 4.542v43.098c-.001 1.704-.592 3.337-1.642 4.542-1.051 1.205-2.475 1.882-3.96 1.884z" fill="url(#g)"/><path d="m506.266 526.597h-70.531c-1.485-.002-2.91-.679-3.96-1.884s-1.641-2.839-1.643-4.543v-43.097c.002-1.704.593-3.337 1.643-4.542s2.475-1.883 3.96-1.885h70.531c1.485.002 2.909.68 3.96 1.885 1.05 1.205 1.641 2.838 1.643 4.542v43.097c-.002 1.704-.593 3.338-1.643 4.543-1.051 1.205-2.475 1.882-3.96 1.884z" fill="url(#h)"/><path d="m630.754 526.941h-70.531c-1.486-.002-2.91-.679-3.96-1.884-1.051-1.205-1.641-2.838-1.643-4.542v-43.098c.002-1.704.592-3.337 1.643-4.542 1.05-1.205 2.474-1.883 3.96-1.885h70.531c1.485.002 2.909.68 3.96 1.885 1.05 1.205 1.641 2.838 1.642 4.542v43.098c-.001 1.704-.592 3.337-1.642 4.542-1.051 1.205-2.475 1.882-3.96 1.884z" fill="url(#i)"/><path d="m382.009 670.654h-70.531c-1.486-.002-2.91-.68-3.96-1.885s-1.641-2.838-1.643-4.542v-43.097c.002-1.704.593-3.338 1.643-4.543 1.05-1.204 2.474-1.882 3.96-1.884h70.531c1.485.002 2.909.679 3.96 1.884 1.05 1.205 1.641 2.839 1.642 4.543v43.097c-.001 1.704-.592 3.337-1.642 4.542-1.051 1.205-2.475 1.883-3.96 1.885z" fill="url(#j)"/><path d="m506.266 670.314h-70.531c-1.485-.002-2.91-.679-3.96-1.884s-1.641-2.839-1.643-4.543v-43.097c.002-1.704.593-3.337 1.643-4.542s2.475-1.883 3.96-1.885h70.531c1.485.002 2.909.68 3.96 1.885 1.05 1.205 1.641 2.838 1.643 4.542v43.097c-.002 1.704-.593 3.338-1.643 4.543-1.051 1.205-2.475 1.882-3.96 1.884z" fill="url(#k)"/><path d="m630.754 670.654h-70.531c-1.486-.002-2.91-.68-3.96-1.885-1.051-1.205-1.641-2.838-1.643-4.542v-43.097c.002-1.704.592-3.338 1.643-4.543 1.05-1.204 2.474-1.882 3.96-1.884h70.531c1.485.002 2.909.679 3.96 1.884 1.05 1.205 1.641 2.839 1.642 4.543v43.097c-.001 1.704-.592 3.337-1.642 4.542-1.051 1.205-2.475 1.883-3.96 1.885z" fill="url(#l)"/></g><g fill="#3f3d56"><path d="m387.517 388.41h-81.706c-1.975-.003-3.868-.904-5.264-2.505-1.396-1.602-2.181-3.773-2.183-6.038v-49.925c.002-2.265.787-4.436 2.183-6.038 1.396-1.601 3.289-2.502 5.264-2.505h81.706c1.974.003 3.867.904 5.263 2.505 1.396 1.602 2.182 3.773 2.184 6.038v49.925c-.002 2.265-.788 4.436-2.184 6.038-1.396 1.601-3.289 2.502-5.263 2.505zm-81.706-64.817c-1.467.002-2.874.672-3.912 1.862-1.037 1.19-1.621 2.804-1.622 4.487v49.925c.001 1.683.585 3.297 1.622 4.487 1.038 1.19 2.445 1.86 3.912 1.862h81.706c1.467-.002 2.874-.672 3.911-1.862 1.038-1.19 1.621-2.804 1.623-4.487v-49.925c-.002-1.683-.585-3.297-1.623-4.487-1.037-1.19-2.444-1.86-3.911-1.862z"/><path d="m511.853 388.41h-81.705c-1.975-.003-3.868-.904-5.264-2.505-1.396-1.602-2.181-3.773-2.184-6.038v-49.925c.003-2.265.788-4.436 2.184-6.038 1.396-1.601 3.289-2.502 5.264-2.505h81.705c1.975.003 3.868.904 5.264 2.505 1.396 1.602 2.181 3.773 2.183 6.038v49.925c-.002 2.265-.787 4.436-2.183 6.038-1.396 1.601-3.289 2.502-5.264 2.505zm-81.705-64.817c-1.468.002-2.874.672-3.912 1.862s-1.621 2.804-1.623 4.487v49.925c.002 1.683.585 3.297 1.623 4.487s2.444 1.86 3.912 1.862h81.705c1.468-.002 2.874-.672 3.912-1.862 1.037-1.19 1.621-2.804 1.623-4.487v-49.925c-.002-1.683-.586-3.297-1.623-4.487-1.038-1.19-2.444-1.86-3.912-1.862z"/><path d="m636.19 388.41h-81.706c-1.974-.003-3.867-.904-5.263-2.505-1.396-1.602-2.182-3.773-2.184-6.038v-49.925c.002-2.265.788-4.436 2.184-6.038 1.396-1.601 3.289-2.502 5.263-2.505h81.706c1.974.003 3.867.904 5.263 2.505 1.396 1.602 2.182 3.773 2.184 6.038v49.925c-.002 2.265-.788 4.436-2.184 6.038-1.396 1.601-3.289 2.502-5.263 2.505zm-81.706-64.817c-1.467.002-2.874.672-3.911 1.862-1.038 1.19-1.622 2.804-1.623 4.487v49.925c.001 1.683.585 3.297 1.623 4.487 1.037 1.19 2.444 1.86 3.911 1.862h81.706c1.467-.002 2.874-.672 3.911-1.862 1.038-1.19 1.622-2.804 1.623-4.487v-49.925c-.001-1.683-.585-3.297-1.623-4.487-1.037-1.19-2.444-1.86-3.911-1.862z"/><path d="m387.517 532.127h-81.706c-1.975-.003-3.868-.904-5.264-2.505-1.396-1.602-2.181-3.773-2.183-6.038v-49.925c.002-2.265.787-4.436 2.183-6.038 1.396-1.601 3.289-2.502 5.264-2.505h81.706c1.974.003 3.867.904 5.263 2.505 1.396 1.602 2.182 3.773 2.184 6.038v49.925c-.002 2.265-.788 4.436-2.184 6.038-1.396 1.601-3.289 2.502-5.263 2.505zm-81.706-64.817c-1.467.002-2.874.672-3.912 1.862-1.037 1.19-1.621 2.804-1.622 4.487v49.925c.001 1.683.585 3.297 1.622 4.487 1.038 1.19 2.445 1.86 3.912 1.862h81.706c1.467-.002 2.874-.672 3.911-1.862 1.038-1.19 1.621-2.804 1.623-4.487v-49.925c-.002-1.683-.585-3.297-1.623-4.487-1.037-1.19-2.444-1.86-3.911-1.862z"/><path d="m511.853 532.127h-81.705c-1.975-.003-3.868-.904-5.264-2.505-1.396-1.602-2.181-3.773-2.184-6.038v-49.925c.003-2.265.788-4.436 2.184-6.038 1.396-1.601 3.289-2.502 5.264-2.505h81.705c1.975.003 3.868.904 5.264 2.505 1.396 1.602 2.181 3.773 2.183 6.038v49.925c-.002 2.265-.787 4.436-2.183 6.038-1.396 1.601-3.289 2.502-5.264 2.505zm-81.705-64.817c-1.468.002-2.874.672-3.912 1.862s-1.621 2.804-1.623 4.487v49.925c.002 1.683.585 3.297 1.623 4.487s2.444 1.86 3.912 1.862h81.705c1.468-.002 2.874-.672 3.912-1.862 1.037-1.19 1.621-2.804 1.623-4.487v-49.925c-.002-1.683-.586-3.297-1.623-4.487-1.038-1.19-2.444-1.86-3.912-1.862z"/><path d="m636.19 532.127h-81.706c-1.974-.003-3.867-.904-5.263-2.505-1.396-1.602-2.182-3.773-2.184-6.038v-49.925c.002-2.265.788-4.436 2.184-6.038 1.396-1.601 3.289-2.502 5.263-2.505h81.706c1.974.003 3.867.904 5.263 2.505 1.396 1.602 2.182 3.773 2.184 6.038v49.925c-.002 2.265-.788 4.436-2.184 6.038-1.396 1.601-3.289 2.502-5.263 2.505zm-81.706-64.817c-1.467.002-2.874.672-3.911 1.862-1.038 1.19-1.622 2.804-1.623 4.487v49.925c.001 1.683.585 3.297 1.623 4.487 1.037 1.19 2.444 1.86 3.911 1.862h81.706c1.467-.002 2.874-.672 3.911-1.862 1.038-1.19 1.622-2.804 1.623-4.487v-49.925c-.001-1.683-.585-3.297-1.623-4.487-1.037-1.19-2.444-1.86-3.911-1.862z"/><path d="m387.517 675.844h-81.706c-1.975-.003-3.868-.904-5.264-2.505-1.396-1.602-2.181-3.773-2.183-6.038v-49.925c.002-2.265.787-4.436 2.183-6.038 1.396-1.601 3.289-2.502 5.264-2.505h81.706c1.974.003 3.867.904 5.263 2.505 1.396 1.602 2.182 3.773 2.184 6.038v49.925c-.002 2.265-.788 4.436-2.184 6.038-1.396 1.601-3.289 2.502-5.263 2.505zm-81.706-64.817c-1.467.002-2.874.672-3.912 1.862-1.037 1.19-1.621 2.804-1.622 4.487v49.925c.001 1.683.585 3.297 1.622 4.487 1.038 1.19 2.445 1.86 3.912 1.862h81.706c1.467-.002 2.874-.672 3.911-1.862 1.038-1.19 1.621-2.804 1.623-4.487v-49.925c-.002-1.683-.585-3.297-1.623-4.487-1.037-1.19-2.444-1.86-3.911-1.862z"/><path d="m511.853 675.844h-81.705c-1.975-.003-3.868-.904-5.264-2.505-1.396-1.602-2.181-3.773-2.184-6.038v-49.925c.003-2.265.788-4.436 2.184-6.038 1.396-1.601 3.289-2.502 5.264-2.505h81.705c1.975.003 3.868.904 5.264 2.505 1.396 1.602 2.181 3.773 2.183 6.038v49.925c-.002 2.265-.787 4.436-2.183 6.038-1.396 1.601-3.289 2.502-5.264 2.505zm-81.705-64.817c-1.468.002-2.874.672-3.912 1.862s-1.621 2.804-1.623 4.487v49.925c.002 1.683.585 3.297 1.623 4.487s2.444 1.86 3.912 1.862h81.705c1.468-.002 2.874-.672 3.912-1.862 1.037-1.19 1.621-2.804 1.623-4.487v-49.925c-.002-1.683-.586-3.297-1.623-4.487-1.038-1.19-2.444-1.86-3.912-1.862z"/><path d="m636.19 675.844h-81.706c-1.974-.003-3.867-.904-5.263-2.505-1.396-1.602-2.182-3.773-2.184-6.038v-49.925c.002-2.265.788-4.436 2.184-6.038 1.396-1.601 3.289-2.502 5.263-2.505h81.706c1.974.003 3.867.904 5.263 2.505 1.396 1.602 2.182 3.773 2.184 6.038v49.925c-.002 2.265-.788 4.436-2.184 6.038-1.396 1.601-3.289 2.502-5.263 2.505zm-81.706-64.817c-1.467.002-2.874.672-3.911 1.862-1.038 1.19-1.622 2.804-1.623 4.487v49.925c.001 1.683.585 3.297 1.623 4.487 1.037 1.19 2.444 1.86 3.911 1.862h81.706c1.467-.002 2.874-.672 3.911-1.862 1.038-1.19 1.622-2.804 1.623-4.487v-49.925c-.001-1.683-.585-3.297-1.623-4.487-1.037-1.19-2.444-1.86-3.911-1.862z"/><path d="m969.044 845.298h-964.08756c-.25367 0-.49694-.116-.67631-.321-.17936-.206-.28013-.485-.28013-.776s.10077-.57.28013-.776c.17937-.206.42264-.321.67631-.321h964.08756c.253 0 .497.115.676.321s.28.485.28.776-.101.57-.28.776c-.179.205-.423.321-.676.321z"/><path d="m519.3 739.112c.027-2.504-.815-4.917-2.339-6.709-1.525-1.792-3.608-2.816-5.79-2.847h-40.171v113.548h48.3z"/><path d="m471.957 842.006h-50.213v-102.576c.003-2.763.961-5.412 2.664-7.366 1.704-1.954 4.013-3.053 6.422-3.056h41.127zm-48.3-2.194h46.387v-108.61h-39.214c-1.902.002-3.725.87-5.07 2.412-1.345 1.543-2.101 3.634-2.103 5.816z"/><path d="m427.961 793.186c1.584 0 2.869-1.473 2.869-3.291 0-1.817-1.285-3.291-2.869-3.291-1.585 0-2.87 1.474-2.87 3.291 0 1.818 1.285 3.291 2.87 3.291z"/></g><g clip-path="url(#n)"><path d="m856.894 1015.46-14.259 9.77-44.46-50.36 21.044-14.418z" fill="#ffb6b6"/><path d="m807.823 1048.61c.068 1.05 1.487 3.62 2.083 4.49 1.831 2.67 5.481 3.36 8.154 1.53l44.156-30.26c1.823-1.25 2.289-3.74 1.039-5.56l-1.259-1.84s-1.601-7.02-10.764-10.75c0 0-1.936 9.16-16.01 6.53l-5.52-2.78-8.895 25.26-9.048 7.99c-1.98 1.74-4.108 2.75-3.936 5.39z" fill="#2f2e41"/><path d="m751.767 1041.39h-17.283l-8.222-66.675 21.156 2.635z" fill="#ffb6b6"/><g fill="#2f2e41"><path d="m692.552 1041c-.538.91-.822 3.83-.822 4.89 0 3.24 2.626 5.86 5.866 5.86h53.525c2.21 0 4.001-1.79 4.001-4v-2.23s2.648-6.7-2.803-14.95c0 0-6.775 6.46-16.899-3.66l-2.986-5.41-21.611 15.8-11.978 1.48c-2.621.32-4.945-.05-6.293 2.22z"/><path d="m691.17 788.009 1.301 15.723-2.589 12.503 4.713 13.181 5.765 69.695 30.048 120.159 22.942 4.83-11.014-120.024 8.544-99.003z"/><path d="m788.664 719.752-87.745 1.218-9.749 67.035 59.71 28.034-1.905 95.739 66.499 96.272 35.417-20.235-59.347-81.759 16.618-136.333z"/></g><path d="m723.711 562.153-15.48 19.87 7.312 152.354 57.277-1.219 9.749-132.852-12.186-34.127-4.409-7.648-5.274-9.903-33.81 2.415z" fill="#e6e6e6"/><path d="m700.852 656.372 3.095 31.138-3.803 35.831-4.754 9.714-10.867 38.645s-11.091 16.9 13.282 18.115c24.374 1.215 104.263-6.692 104.263-6.692s9.961-.246 5.62-21.084c-7.012-12.053-2.491-29.037-2.491-29.037l-9.222-33.979 2.437-31.689 17.062-82.881c-15.153-11.909-32.125-20.433-50.575-26.206l-16.16 42.498-24.06-38.841-9.139 6.703c-12.328 3.233-23.177 8.205-31.757 15.845z" fill="#2f2e41"/><path d="m740.78 547.219c16.705 0 30.247-13.544 30.247-30.251 0-16.708-13.542-30.252-30.247-30.252s-30.247 13.544-30.247 30.252c0 16.707 13.542 30.251 30.247 30.251z" fill="#ffb6b6"/><path d="m762.995 541.823c1.666.284 3.622-3.755 5.491-7.688 3.912-8.235 6.4-13.47 6.589-20.869.161-6.306-1.59-4.651-3.295-18.672-.562-4.625-8.461-4.616-10.069-6.812-2.716-3.709 1.451-5.239-5.305-7.467-12.656-4.173-18.379 2.31-26.417 2.869-.203.014-4.187 3.911-6.412 4.113-3.899.353-9.524-.255-12.045-6.196-2.358-5.555-3.92 10.678-1.812 12.687 1.789 1.705 4.875 5.986 4.954 6.298.089.352-7.339-7.877-8.579-4.486-.892 2.441 1.917 14.997 4.186 15.469 1.898.395 6.538-5.86 5.491-3.295-2.428 5.95 12.173 9.746 29.652-2.197.619-.423.034.252 2.196 5.492 2.727 6.609 3.342 6.967 3.295 8.787-.103 3.94-3.062 5.101-2.197 7.689.7 2.096 3.437 3.718 5.491 3.295 2.318-.479 2.715-3.346 4.393-3.295 1.437.043 3.143 2.208 3.295 4.393.32 4.603-6.494 5.869-7.688 12.082-.674 3.506 7.255-2.458 8.786-2.197z" fill="#2f2e41"/><path d="m831.445 783.63c.131-3.387-.551-6.757-1.989-9.827l3.115-35.304-16.845-.99-1.345 35.925c-1.589 2.995-2.439 6.326-2.477 9.716-.211 8.481 3.992 15.463 9.386 15.599 5.395.135 9.941-6.631 10.152-15.11z" fill="#ffb6b6"/><path d="m795.613 641.272 13.282 41.06 3.814 83.862 22.234-.455 1.725-91.86s-11.081-67.878-14.792-83.134c-3.71-15.256-37.923-9.603-37.923-9.603z" fill="#2f2e41"/><path d="m682.861 780.814c.873 8.436 5.934 14.826 11.301 14.27 5.368-.556 9.012-7.846 8.139-16.284-.303-3.377-1.41-6.632-3.228-9.493l-4.148-35.71-16.716 2.304 5.864 34.952c-1.194 3.173-1.611 6.586-1.216 9.953z" fill="#ffb6b6"/><path d="m707.458 636.082 6.926-60.857s-34.55-2.963-37.057 12.537-8.251 84.036-8.251 84.036l8.897 91.445 22.201-1.285-2.75-83.903z" fill="#2f2e41"/></g></g></svg>