<svg fill="none" height="592" viewBox="0 0 656 592" width="656" xmlns="http://www.w3.org/2000/svg" xmlns:xlink="http://www.w3.org/1999/xlink"><filter id="a" color-interpolation-filters="sRGB" filterUnits="userSpaceOnUse" height="592" width="657" x="-1" y="0"><feFlood flood-opacity="0" result="BackgroundImageFix"/><feColorMatrix in="SourceAlpha" result="hardAlpha" type="matrix" values="0 0 0 0 0 0 0 0 0 0 0 0 0 0 0 0 0 0 127 0"/><feOffset dy="4"/><feGaussianBlur stdDeviation="2"/><feColorMatrix type="matrix" values="0 0 0 0 0 0 0 0 0 0 0 0 0 0 0 0 0 0 0.25 0"/><feBlend in2="BackgroundImageFix" mode="normal" result="effect1_dropShadow_41_232"/><feBlend in="SourceGraphic" in2="effect1_dropShadow_41_232" mode="normal" result="shape"/></filter><filter id="b" color-interpolation-filters="sRGB" filterUnits="userSpaceOnUse" height="384.425" width="357.467" x="16.7208" y="12.7546"><feFlood flood-opacity="0" result="BackgroundImageFix"/><feBlend in="SourceGraphic" in2="BackgroundImageFix" mode="normal" result="shape"/><feColorMatrix in="SourceAlpha" result="hardAlpha" type="matrix" values="0 0 0 0 0 0 0 0 0 0 0 0 0 0 0 0 0 0 127 0"/><feOffset dy="4"/><feGaussianBlur stdDeviation="4"/><feComposite in2="hardAlpha" k2="-1" k3="1" operator="arithmetic"/><feColorMatrix type="matrix" values="0 0 0 0 0 0 0 0 0 0 0 0 0 0 0 0 0 0 0.55 0"/><feBlend in2="shape" mode="normal" result="effect1_innerShadow_41_232"/></filter><filter id="c" color-interpolation-filters="sRGB" filterUnits="userSpaceOnUse" height="120.882" width="142.441" x="130.193" y="149.356"><feFlood flood-opacity="0" result="BackgroundImageFix"/><feColorMatrix in="SourceAlpha" result="hardAlpha" type="matrix" values="0 0 0 0 0 0 0 0 0 0 0 0 0 0 0 0 0 0 127 0"/><feOffset dx="6" dy="10"/><feGaussianBlur stdDeviation="5.5"/><feComposite in2="hardAlpha" operator="out"/><feColorMatrix type="matrix" values="0 0 0 0 0 0 0 0 0 0 0 0 0 0 0 0 0 0 0.55 0"/><feBlend in2="BackgroundImageFix" mode="normal" result="effect1_dropShadow_41_232"/><feBlend in="SourceGraphic" in2="effect1_dropShadow_41_232" mode="normal" result="shape"/></filter><filter id="d" color-interpolation-filters="sRGB" filterUnits="userSpaceOnUse" height="211.291" width="138.875" x="504.668" y="136.843"><feFlood flood-opacity="0" result="BackgroundImageFix"/><feColorMatrix in="SourceAlpha" result="hardAlpha" type="matrix" values="0 0 0 0 0 0 0 0 0 0 0 0 0 0 0 0 0 0 127 0"/><feOffset dy="4"/><feGaussianBlur stdDeviation="2"/><feComposite in2="hardAlpha" operator="out"/><feColorMatrix type="matrix" values="0 0 0 0 0 0 0 0 0 0 0 0 0 0 0 0 0 0 0.25 0"/><feBlend in2="BackgroundImageFix" mode="normal" result="effect1_dropShadow_41_232"/><feBlend in="SourceGraphic" in2="effect1_dropShadow_41_232" mode="normal" result="shape"/></filter><linearGradient id="e" gradientUnits="userSpaceOnUse" x1="195.454" x2="195.454" y1="12.7546" y2="393.18"><stop offset="0" stop-color="#84ccb8"/><stop offset="1" stop-color="#196072"/></linearGradient><clipPath id="f"><path d="m3 0h649v584h-649z"/></clipPath><g clip-path="url(#f)" filter="url(#a)"><path d="m196.566 405.919c-6.29-.021-12.552-.831-18.64-2.411l-1.2-.332-1.113-.558c-40.242-20.176-74.192-46.827-100.9071-79.211-22.1145-26.965-39.356-57.58-50.9491-90.47-13.86363-39.378-20.53338-80.927-19.69088-122.665.017-.876.03138-1.552.03138-2.018 0-20.2895 11.262-38.0917 28.6912-45.354 13.3395-5.5581 134.4555-55.30522 143.2065-58.89959 16.48-8.25772 34.062-1.36535 36.875-.16006 6.311 2.58025 118.276 48.37495 142.471 59.89625 24.936 11.8741 31.589 33.2056 31.589 43.9374 0 48.589-8.415 93.998-25.011 134.968-13.404 33.162-32.4 63.777-56.163 90.511-45.846 51.594-91.705 69.884-92.148 70.045-5.481 1.886-11.247 2.807-17.042 2.721zm-10.785-26.714c3.976.892 13.13 2.229 19.096.052 7.579-2.764 45.962-22.668 81.83-63.032 49.557-55.769 74.703-125.875 74.739-208.371-.088-1.672-1.275-13.5922-17.061-21.109-23.726-11.2983-140.104-58.8849-141.277-59.3645l-.321-.1363c-2.439-1.022-10.201-3.1747-15.551-.371l-1.071.4994c-1.297.5328-129.8633 53.3376-143.575 59.0507-9.5916 3.9965-13.0091 13.8977-13.0091 21.8307 0 .579-.015 1.423-.0362 2.513-1.0959 56.447 11.9663 195.346 156.2363 268.438z" fill="#3f3d56"/><g filter="url(#b)"><path d="m181.324 15.5861s-129.7346 53.2839-143.6348 59.0756c-13.9001 5.7917-20.8502 19.6918-20.8502 33.5923 0 13.9-10.42504 195.278 164.485 282.974 0 0 15.875 4.392 27.919 0 12.044-4.393 164.945-78.527 164.945-283.554 0 0 0-20.8497-24.325-32.4331-24.325-11.5835-141.934-59.6548-141.934-59.6548s-14.443-6.37084-26.605 0z" fill="url(#e)"/></g><g filter="url(#c)"><path d="m189.111 242.056c-9.687 10.225-26.206 9.42-34.853-1.698l-15.829-20.353c-5.207-6.696-4.001-16.346 2.695-21.554l.395-.306c6.478-5.039 15.813-3.872 20.852 2.606 5.586 7.183 16.259 7.703 22.517 1.096l44.233-46.694c5.835-6.159 15.558-6.422 21.717-.587s6.421 15.557.586 21.716z" fill="#2f2e41"/></g><path d="m551.206 568.237 15.465-.001 7.358-59.653-22.826.001z" fill="#ffb8b8"/><path d="m547.26 563.188 30.458-.002h.001c5.148.001 10.085 2.046 13.725 5.686 3.64 3.639 5.685 8.576 5.685 13.724v.631l-49.868.002z" fill="#2f2e41"/><path d="m603.206 568.237 15.465-.001 7.358-59.653-22.826.001z" fill="#ffb8b8"/><g fill="#2f2e41"><path d="m599.26 563.188 30.458-.002h.001c5.148.001 10.085 2.046 13.725 5.686 3.64 3.639 5.685 8.576 5.685 13.724v.631l-49.868.002z"/><path d="m575.514 358.75 3.71 189.25-30.011-1.861-20.82-120.542-6.576-82.189z"/><path d="m627.018 326.971 4.206 224.029-35-1-7.56-133.17-13.15-48.217-53.696-25.204 8.766-60.272 78.901-1.095z"/></g><path d="m566.676 126.432c14.822 0 26.838-12.016 26.838-26.8381 0-14.8224-12.016-26.8383-26.838-26.8383-14.823 0-26.839 12.0159-26.839 26.8383 0 14.8221 12.016 26.8381 26.839 26.8381z" fill="#ffb8b8"/><path d="m588.936 137.738 4.111 6.228 10.959 30.683-8.767 119.446-51.505 1.097-6.574-136.981 13.773-17.216z" fill="#ccc"/><path d="m516.338 161.499-8.766-1.096s-2.192 1.096-3.288 8.767-14.246 75.613-14.246 75.613l17.534 83.284 19.725-26.3-12.054-46.026 12.054-46.025z" fill="#2f2e41"/><path d="m628.114 160.404h6.575l16.438 88.762-15.342 69.038-15.342-25.204 4.383-27.396-2.191-24.108-7.671-14.247z" fill="#2f2e41"/><path d="m582.535 99.5939-4.88-1.2199s-3.66-20.7387-12.199-18.2989c-8.54 2.4399-30.498 4.8797-30.498-4.8797s20.738-18.2988 32.938-17.0789c12.199 1.22 27.779 5.267 31.718 23.1785 6.313 28.713-13.027 35.965-13.027 35.965l.322-1.045c.894-2.903.958-5.998.185-8.935s-2.353-5.599-4.559-7.6861z" fill="#2f2e41"/><g filter="url(#d)"><path d="m508.668 160.403 35.066-14.246 8.219-6.027 24.657 109.036 11.506-112.323 45.477 23.56-15.341 74.517-2.192 28.492 6.575 23.013s23.013 16.437 15.342 33.971c-7.671 17.533-16.438 18.629-16.438 18.629s-37.258-35.067-39.45-43.834c-2.192-8.766-5.479-24.108-5.479-24.108s-18.63 70.134-40.546 69.038c-21.917-1.096-21.917-24.109-21.917-24.109l5.479-24.108 8.767-25.204-4.384-41.642z" fill="#2f2e41"/></g></g></svg>