<svg fill="none" height="737" viewBox="0 0 570 737" width="570" xmlns="http://www.w3.org/2000/svg" xmlns:xlink="http://www.w3.org/1999/xlink"><filter id="a" color-interpolation-filters="sRGB" filterUnits="userSpaceOnUse" height="737" width="570" x="0" y="0"><feFlood flood-opacity="0" result="BackgroundImageFix"/><feColorMatrix in="SourceAlpha" result="hardAlpha" type="matrix" values="0 0 0 0 0 0 0 0 0 0 0 0 0 0 0 0 0 0 127 0"/><feOffset dy="4"/><feGaussianBlur stdDeviation="2"/><feColorMatrix type="matrix" values="0 0 0 0 0 0 0 0 0 0 0 0 0 0 0 0 0 0 0.25 0"/><feBlend in2="BackgroundImageFix" mode="normal" result="effect1_dropShadow_34_30"/><feBlend in="SourceGraphic" in2="effect1_dropShadow_34_30" mode="normal" result="shape"/></filter><linearGradient id="b"><stop offset=".0001" stop-color="#196072"/><stop offset=".979167" stop-color="#84ccb8"/></linearGradient><linearGradient id="c" gradientUnits="userSpaceOnUse" x1="41.7609" x2="143.274" xlink:href="#b" y1="141" y2="141"/><linearGradient id="d" gradientUnits="userSpaceOnUse" x1="62.9639" x2="237.925" xlink:href="#b" y1="204.81" y2="204.81"/><linearGradient id="e" gradientUnits="userSpaceOnUse" x1="61.983" x2="236.944" xlink:href="#b" y1="298.81" y2="298.81"/><linearGradient id="f" gradientUnits="userSpaceOnUse" x1="61.983" x2="236.944" xlink:href="#b" y1="250.81" y2="250.81"/><linearGradient id="g" gradientUnits="userSpaceOnUse" x1="58.7979" x2="160.311" xlink:href="#b" y1="354.834" y2="354.834"/><clipPath id="h"><path d="m4 0h562v729h-562z"/></clipPath><g clip-path="url(#h)" filter="url(#a)"><g fill="#3f3d56"><path d="m370.142 401.638c-.142 0-.232-.004-.263-.006l-17.05.002v-2.499h17.111c.396.014 8.479.241 15.927-8.74 11.098-13.386 20.212-46.522.605-128.368-26.365-110.054-4.375-207.2801 6.302-243.9732.526-1.8154.621-3.7275.275-5.5852-.345-1.8577-1.12-3.61018-2.264-5.11893-1.144-1.50874-2.625-2.73243-4.327-3.57436s-3.577-1.27904-5.478-1.2768h-254.627c-1.936.00258-3.843.45878-5.569 1.33156-1.725.87279-3.219 2.13758-4.36 3.6917-4.523 6.18403-10.731 18.06413-14.615 39.54543l-2.4742-.4417c3.9682-21.9479 10.3782-34.1775 15.0562-40.57258 1.374-1.87264 3.174-3.39668 5.253-4.44838 2.078-1.051702 4.377-1.60142835 6.709-1.6045332h254.627c2.291-.00219061 4.551.5250422 6.601 1.5400432 2.05 1.015 3.835 2.48996 5.213 4.30835s2.312 3.93039 2.728 6.1691c.416 2.2388.302 4.5429-.333 6.7305-10.622 36.5027-32.498 133.225-6.271 242.701 19.883 82.997 10.324 116.851-1.195 130.636-7.598 9.092-15.97 9.553-17.581 9.553z"/><path d="m324.263 447.235c-.142 0-.232-.003-.263-.005l-17.05.002v-2.499h17.112c.398.012 8.479.241 15.926-8.74 11.099-13.386 20.213-46.522.605-128.368-26.364-110.054-4.375-207.28 6.303-243.9736.526-1.8153.62-3.7274.275-5.5851-.346-1.8578-1.121-3.6102-2.265-5.119-1.144-1.5087-2.625-2.7324-4.327-3.5743-1.701-.842-3.577-1.2791-5.477-1.2768h-254.6273c-1.9359.0025-3.8439.4587-5.5691 1.3315-1.7253.8728-3.2191 2.1376-4.3604 3.6917-4.5233 6.1841-10.7307 18.0642-14.615 39.5454l-2.4743-.4416c3.9686-21.9479 10.378-34.1775 15.056-40.5726 1.3747-1.8727 3.1744-3.3967 5.253-4.4484s4.3774-1.6014 6.7098-1.6045h254.6273c2.29-.0022 4.55.525 6.6 1.54 2.051 1.015 3.835 2.49 5.213 4.3084 1.379 1.8183 2.312 3.9303 2.728 6.1691.416 2.2387.302 4.5429-.332 6.7304-10.623 36.5024-32.498 133.2244-6.272 242.7004 19.883 82.997 10.325 116.852-1.195 130.637-7.598 9.092-15.97 9.552-17.581 9.552z"/><path d="m278.385 492.833c-.143 0-.232-.004-.264-.006l-250.7021.002c-2.4137.003-4.7913-.582-6.9248-1.704-2.1334-1.122-3.9577-2.746-5.3132-4.731-1.3554-1.985-2.2008-4.27-2.462-6.655s.0697-4.797.9636-7.025c9.0963-22.587 21.3441-76.778 1.1709-185.938-23.82096-128.898-2.4949-175.482 7.7797-189.5276 1.3748-1.8727 3.1746-3.3968 5.2532-4.4485s4.3774-1.6014 6.7099-1.6045h254.6268c2.291-.0021 4.55.5251 6.601 1.5401 2.05 1.015 3.835 2.4899 5.213 4.3083s2.312 3.9302 2.728 6.1692c.415 2.239.302 4.543-.333 6.73-10.622 36.503-32.498 133.225-6.271 242.701 19.883 82.997 10.324 116.851-1.195 130.637-7.598 9.091-15.97 9.552-17.581 9.552zm-243.7888-399.1391c-1.9359.0026-3.844.4588-5.5692 1.3316-1.7253.8728-3.2193 2.1376-4.3606 3.6917-10.084 13.7848-30.98565 59.6608-7.3406 187.6078 19.2715 104.279 9.9249 159.421-1.3095 187.317-.7572 1.841-1.0414 3.84-.827 5.816.2144 1.977.9207 3.87 2.0551 5.508 1.1248 1.653 2.6406 3.007 4.4146 3.942 1.7739.936 3.7517 1.424 5.7599 1.423h250.7641c.396.019 8.479.241 15.927-8.741 11.098-13.385 20.212-46.522.605-128.368-26.365-110.053-4.376-207.28 6.302-243.973.526-1.815.62-3.727.275-5.585s-1.121-3.61-2.264-5.1189c-1.144-1.5087-2.626-2.7324-4.327-3.5744-1.702-.8419-3.577-1.279-5.478-1.2768z"/></g><path d="m140.33 161.154h-94.2713c-2.6669 0-5.2246-1.053-7.1104-2.928-1.8858-1.874-2.9452-4.416-2.9452-7.066 0-2.651 1.0594-5.193 2.9452-7.067 1.8858-1.875 4.4435-2.927 7.1104-2.927h94.2713c2.667 0 5.224 1.052 7.11 2.927 1.886 1.874 2.945 4.416 2.945 7.067 0 2.65-1.059 5.192-2.945 7.066-1.886 1.875-4.443 2.928-7.11 2.928z" fill="url(#c)"/><path d="m140.33 161.154h-94.2713c-2.6669 0-5.2246-1.053-7.1104-2.928-1.8858-1.874-2.9452-4.416-2.9452-7.066 0-2.651 1.0594-5.193 2.9452-7.067 1.8858-1.875 4.4435-2.927 7.1104-2.927h94.2713c2.667 0 5.224 1.052 7.11 2.927 1.886 1.874 2.945 4.416 2.945 7.067 0 2.65-1.059 5.192-2.945 7.066-1.886 1.875-4.443 2.928-7.11 2.928z" fill="url(#c)"/><path d="m140.33 161.154h-94.2713c-2.6669 0-5.2246-1.053-7.1104-2.928-1.8858-1.874-2.9452-4.416-2.9452-7.066 0-2.651 1.0594-5.193 2.9452-7.067 1.8858-1.875 4.4435-2.927 7.1104-2.927h94.2713c2.667 0 5.224 1.052 7.11 2.927 1.886 1.874 2.945 4.416 2.945 7.067 0 2.65-1.059 5.192-2.945 7.066-1.886 1.875-4.443 2.928-7.11 2.928z" fill="url(#c)"/><path d="m232.85 228h-162.4787c-4.5965 0-9.0048-1.212-12.255-3.368-3.2502-2.157-5.0761-5.082-5.0761-8.132s1.8259-5.975 5.0761-8.132c3.2502-2.156 7.6585-3.368 12.255-3.368h162.4787c4.597 0 9.005 1.212 12.255 3.368 3.251 2.157 5.077 5.082 5.077 8.132s-1.826 5.975-5.077 8.132c-3.25 2.156-7.658 3.368-12.255 3.368z" fill="url(#d)"/><path d="m231.87 322h-162.4796c-4.5965 0-9.0047-1.212-12.2549-3.368-3.2502-2.157-5.0762-5.082-5.0762-8.132s1.826-5.975 5.0762-8.132c3.2502-2.156 7.6584-3.368 12.2549-3.368h162.4796c4.596 0 9.004 1.212 12.255 3.368 3.25 2.157 5.076 5.082 5.076 8.132s-1.826 5.975-5.076 8.132c-3.251 2.156-7.659 3.368-12.255 3.368z" fill="url(#e)"/><path d="m231.87 274h-162.4796c-4.5965 0-9.0047-1.212-12.2549-3.368-3.2502-2.157-5.0762-5.082-5.0762-8.132s1.826-5.975 5.0762-8.132c3.2502-2.156 7.6584-3.368 12.2549-3.368h162.4796c4.596 0 9.004 1.212 12.255 3.368 3.25 2.157 5.076 5.082 5.076 8.132s-1.826 5.975-5.076 8.132c-3.251 2.156-7.659 3.368-12.255 3.368z" fill="url(#f)"/><path d="m128.157 442.012c2.029-8.538 11.562-11.337 19.355-11.024 4.924.33 9.808 1.098 14.594 2.295 5.008 1.114 9.967 2.432 14.901 3.831 9.049 2.564 18.003 5.666 27.201 7.671 7.656 1.669 15.977 2.648 23.612.344 7.34-2.216 13.567-7.654 15.564-15.172 1.882-7.085-.702-14.832-7.609-18.07-6.3-2.953-14.257-1.451-17.38 5.226-3.52 7.529-.003 15.74 5.572 21.188 3.168 2.957 6.638 5.576 10.354 7.817 3.772 2.554 7.97 4.423 12.398 5.519 7.272 1.543 15.934-.731 19.684-7.636.833-1.563 1.335-3.279 1.473-5.043.222-2.401-3.551-2.386-3.771 0-.636 6.875-8.737 10.095-14.795 9.341-4.089-.673-7.994-2.18-11.47-4.424-3.355-1.944-6.533-4.173-9.5-6.663-5.139-4.419-9.955-11.691-6.504-18.588 2.81-5.615 10.135-5.559 14.59-1.938 5.396 4.386 4.434 12.346.875 17.554-3.94 5.767-11.082 8.185-17.816 8.446-7.317.283-14.572-1.386-21.565-3.359-8.689-2.453-17.291-5.197-26.022-7.506-4.956-1.31-9.951-2.493-14.997-3.414-4.771-1.045-9.671-1.382-14.542-1-7.868.903-15.9 5.455-17.838 13.609-.557 2.346 3.078 3.347 3.636.996z" fill="#239190"/><path d="m266.708 442.9c-.476-.394-.825-.92-1.001-1.511-.177-.591-.173-1.221.01-1.81s.537-1.111 1.018-1.501c.482-.389 1.068-.628 1.685-.686 6.856-.658 13.775.046 20.354 2.073l67.015 20.57c.867.266 1.673.7 2.372 1.275.699.576 1.277 1.283 1.701 2.081s.685 1.671.77 2.57c.084.898-.01 1.804-.278 2.666s-.704 1.664-1.284 2.358c-.579.695-1.29 1.269-2.093 1.69-.803.422-1.681.682-2.585.766s-1.816-.01-2.683-.276l-67.015-20.57c-6.583-2.013-12.697-5.309-17.986-9.695z" fill="#239190"/><path d="m541.411 528.349c-1.821-.759-3.452-1.905-4.778-3.358s-2.316-3.178-2.9-5.052c-.583-1.874-.746-3.853-.477-5.797.27-1.943.964-3.805 2.036-5.453l-11.487-59.703 29.276-2.269 1.768 58.399c2.666 1.972 4.511 4.848 5.187 8.082.675 3.235.133 6.603-1.523 9.466-1.657 2.864-4.313 5.025-7.465 6.072-3.152 1.048-6.581.91-9.637-.387z" fill="#ffb8b8"/><path d="m521.998 497.535-29.818-138.02c-1.225-5.669-.133-11.589 3.034-16.458s8.151-8.288 13.855-9.505 11.661-.133 16.56 3.015 8.339 8.101 9.563 13.77l29.819 138.019c.313 1.458.032 2.979-.782 4.231s-2.095 2.132-3.56 2.446l-31.953 6.819c-.726.155-1.476.166-2.207.034-.73-.133-1.428-.408-2.052-.809-.623-.401-1.162-.92-1.584-1.528-.422-.607-.719-1.292-.875-2.014z" fill="#23918f"/><path d="m473.056 714.652h-15.409l-7.332-59.075 22.744.002z" fill="#ffb8b8"/><path d="m446.639 710.276h29.719v18.597h-48.431c0-2.442.484-4.861 1.424-7.117.941-2.256 2.319-4.306 4.057-6.033 1.737-1.727 3.8-3.097 6.07-4.032 2.271-.934 4.704-1.415 7.161-1.415z" fill="#2f2e41"/><path d="m524.591 713.403h-15.409l-7.332-59.075 22.744.001z" fill="#ffb8b8"/><path d="m498.174 709.026h29.719v18.598h-48.431c0-2.443.484-4.861 1.424-7.117.941-2.257 2.319-4.307 4.057-6.034 1.737-1.727 3.8-3.097 6.07-4.031 2.27-.935 4.704-1.416 7.161-1.416z" fill="#2f2e41"/><path d="m454.593 703.633c-.578-.472-1.055-1.053-1.404-1.71s-.562-1.376-.627-2.116l-17.915-195.857c-.07-.76.017-1.527.256-2.252.238-.726.622-1.396 1.13-1.969.507-.573 1.126-1.038 1.82-1.366.694-.327 1.447-.511 2.215-.54l89.846-3.348c.778-.029 1.553.102 2.277.384.725.283 1.383.711 1.933 1.257.55.547.981 1.2 1.266 1.92s.417 1.49.389 2.263l-7.182 195.104c-.053 1.366-.603 2.666-1.549 3.658s-2.222 1.608-3.592 1.734l-18.116 1.637c-.751.068-1.508-.014-2.227-.241-.719-.228-1.385-.595-1.958-1.082-.574-.487-1.043-1.083-1.382-1.753-.338-.67-.538-1.401-.588-2.149l-8.314-123.947c-.006-.238-.06-.472-.158-.69-.098-.217-.239-.413-.414-.576-.175-.162-.381-.289-.605-.372-.225-.082-.464-.12-.704-.11h-.007c-.241-.009-.48.029-.705.113-.226.084-.432.212-.606.376-.175.165-.315.362-.412.581-.097.218-.149.454-.153.693l-7.44 124.783c-.075 1.336-.628 2.601-1.561 3.566s-2.182 1.566-3.523 1.694l-15.826 1.574c-.743.076-1.494.004-2.209-.213-.715-.216-1.38-.572-1.955-1.046z" fill="#2f2e41"/><path d="m489.153 304.222c17.05 0 30.872-13.737 30.872-30.683 0-16.945-13.822-30.683-30.872-30.683s-30.872 13.738-30.872 30.683c0 16.946 13.822 30.683 30.872 30.683z" fill="#ffb8b8"/><path d="m429.702 505.276c-.55-.62-.954-1.355-1.182-2.15-.229-.794-.277-1.63-.141-2.445 5.699-34.432 2.487-85.042-1.212-121.437-.965-9.654.646-19.39 4.671-28.229s10.322-16.467 18.258-22.118l16.122-13.734c1.072-.902 2.439-1.383 3.843-1.352l40.054 1.137c1.445.04 2.819.629 3.838 1.646l6.19 13.622.063.047c7.376 5.388 13.293 12.509 17.222 20.725 3.93 8.217 5.75 17.273 5.297 26.359l-5.896 121.099c-.075 1.408-.678 2.737-1.689 3.726s-2.357 1.568-3.775 1.621l-97.222 3.395c-.062.001-.125.002-.187.002-.806.002-1.602-.169-2.336-.499-.733-.33-1.387-.813-1.918-1.415z" fill="#23918f"/><path d="m313.087 454.743c-.048-1.962.337-3.91 1.128-5.707.791-1.798 1.969-3.401 3.451-4.697s3.231-2.254 5.126-2.805c1.894-.552 3.888-.683 5.839-.386l50.108-34.852 14.065 25.619-52.888 25.504c-.72 3.225-2.604 6.076-5.297 8.012s-6.007 2.823-9.314 2.493-6.377-1.854-8.629-4.283c-2.252-2.43-3.529-5.596-3.589-8.898z" fill="#ffb8b8"/><path d="m355.256 460.801c-.734-.11-1.44-.364-2.075-.747-.636-.383-1.189-.887-1.627-1.483l-19.337-26.185c-.886-1.202-1.256-2.705-1.029-4.178.228-1.474 1.034-2.797 2.241-3.681l114.502-83.529c4.703-3.431 10.585-4.864 16.351-3.985 2.855.436 5.596 1.426 8.067 2.914 2.47 1.488 4.621 3.445 6.331 5.76 1.709 2.314 2.943 4.94 3.631 7.729.688 2.788.816 5.684.378 8.522s-1.434 5.562-2.931 8.017c-1.498 2.455-3.467 4.593-5.796 6.292l-114.501 83.529c-.966.708-2.135 1.091-3.335 1.091-.291 0-.582-.023-.87-.066z" fill="#23918f"/><path d="m490.734 300.853c4.094-4.989 3.645-12.588.36-18.136-3.286-5.548-8.864-9.37-14.604-12.354-5.739-2.985-11.837-5.332-17.238-8.885-5.401-3.554-5.166-18.599-6.604-24.876l3.43 1.136c-1.318-1.677-1.741-6.63-3.06-8.306 3.876.381 6.857 4.038 10.733 4.419l-2.237-5.967c13.292-.815 21.555 8.365 34.847 7.55 6.585-.403 13.737-.658 19.151 3.09 4.704 3.257 7.086 8.895 8.648 14.378 3.355 11.772 3.877 24.958-1.918 35.753s-19.152 18.069-30.821 14.171z" fill="#2f2e41"/><path d="m157.367 374.988h-94.2712c-2.667 0-5.2246-1.053-7.1104-2.927s-2.9452-4.416-2.9452-7.067 1.0594-5.193 2.9452-7.067 4.4434-2.927 7.1104-2.927h94.2712c2.667 0 5.225 1.053 7.11 2.927 1.886 1.874 2.946 4.416 2.946 7.067s-1.06 5.193-2.946 7.067c-1.885 1.874-4.443 2.927-7.11 2.927z" fill="url(#g)"/></g></svg>